<svg version="1.1" xmlns="http://www.w3.org/2000/svg" width="32" height="32" viewBox="0 0 32 32">
<title>Engine</title>
<path fill="currentColor" d="M13.778 6.667v2.222h3.333v2.222h2.222v-2.222h3.333v-2.222h-8.889zM13.778 13.333c-0.3 0-0.579 0.121-0.79 0.321l-1.888 1.901h-2.878c-0.611 0-1.111 0.5-1.111 1.111v6.667c0 0.611 0.5 1.111 1.111 1.111h1.888l3.056 2.033c0.178 0.122 0.39 0.189 0.612 0.189h5.556c0.244 0 0.477-0.077 0.666-0.221l4.444-3.333c0.278-0.211 0.445-0.545 0.445-0.89v-7.778c0-0.611-0.5-1.111-1.111-1.111h-10zM27.111 14.444v6.667h2.222v-6.667h-2.222zM17.111 15.556v3.333h2.222l-3.333 5.556v-3.333h-2.222l3.333-5.556zM2.667 16.667v5.556h2.222v-5.556h-2.222z"></path>
</svg>
