<?xml version="1.0" encoding="UTF-8"?>
<!-- Uploaded to: SVG Repo, www.svgrepo.com, Generator: SVG Repo Mixer Tools -->
<svg width="800px" height="800px" viewBox="0 0 512 512" version="1.1" xmlns="http://www.w3.org/2000/svg" xmlns:xlink="http://www.w3.org/1999/xlink">
    <title>surveillance</title>
    <g id="Page-1" stroke="none" stroke-width="1" fill="none" fill-rule="evenodd">
        <g id="drop" fill="#000000" transform="translate(64.000000, 105.788405)">
            <path fill="currentColor" d="M44.1717837,-7.10542736e-14 L405.011659,98.4449647 L370.689,132.808 L394.489897,139.214538 L372.404005,221.640208 L301.059,202.523 L265.797494,237.829776 L177.65,213.627 L128.051615,299.534806 L128,299.510221 L128,299.544928 L42.6666667,299.531555 L42.6666667,342.211595 L3.62376795e-12,342.211595 L3.62376795e-12,214.211595 L42.6666667,214.211595 L42.6666667,256.864888 L103.402667,256.864888 L135.118,201.949 L3.12638804e-13,164.851341 L44.1717837,-7.10542736e-14 Z M74.286534,52.4390133 L52.1840777,134.926503 L253.136277,190.096636 L322.893293,120.245632 L74.286534,52.4390133 Z" id="Combined-Shape">

</path>
        </g>
    </g>
</svg>
