<?xml version="1.0" encoding="UTF-8" standalone="no"?>
<svg id="svg4145" xmlns:rdf="http://www.w3.org/1999/02/22-rdf-syntax-ns#" xmlns="http://www.w3.org/2000/svg" height="40" width="40" version="1.1" xmlns:cc="http://creativecommons.org/ns#" xmlns:dc="http://purl.org/dc/elements/1.1/" viewBox="0 0 40 40">
 <g id="layer1">
  <path id="background" d="m20.002 3.6816l-1.131 3.3907a12.374 12.374 0 0 1 1.131 -0.0625 12.374 12.374 0 0 1 1.129 0.0566l-1.129-3.3848zm-0.002 3.9434a12.374 12.374 0 0 0 -12.375 12.375 12.374 12.374 0 0 0 12.375 12.375 12.374 12.374 0 0 0 12.375 -12.375 12.374 12.374 0 0 0 -12.375 -12.375z" stroke="#333" stroke-width="1.9" fill="#008000"/>
  <path id="icon" d="m19.525 15.802q0 0.5865-0.17372 1.1144-0.17372 0.51808-0.57602 0.8993t-0.96004 0.38122q-0.69489 0-1.2618-0.55718-0.56688-0.56695-0.84118-1.3294t-0.2743-1.476q0-0.5865 0.17372-1.1046 0.17372-0.52785 0.57602-0.90908 0.4023-0.38122 0.96004-0.38122 0.70403 0 1.2618 0.56695 0.56688 0.55718 0.84118 1.3196 0.2743 0.75268 0.2743 1.476zm-3.127 4.7213q0 0.782-0.38402 1.3587-0.38402 0.57672-1.088 0.57672-0.69489 0-1.2983-0.53763-0.59431-0.5474-0.91432-1.3099-0.32001-0.76245-0.32001-1.4858 0-0.782 0.38402-1.3587 0.38402-0.5865 1.088-0.5865 0.69488 0 1.2892 0.5474 0.60345 0.53763 0.92347 1.3099 0.32001 0.76245 0.32001 1.4858zm3.602-0.264q1.0789 0 2.3315 0.95795 1.2526 0.94818 2.0938 2.3167 0.84118 1.3587 0.84118 2.4829 0 0.44965-0.15544 0.7429-0.15544 0.30302-0.44802 0.43988-0.28344 0.14662-0.58517 0.1955-0.30173 0.05865-0.69489 0.05865-0.62174 0-1.7189-0.43988-1.088-0.44-1.664-0.44-0.60345 0-1.7646 0.4301-1.152 0.43988-1.8286 0.43988-1.6732 0-1.6732-1.4272 0-0.84065 0.51202-1.867 0.51202-1.0362 1.2709-1.8866 0.76803-0.85043 1.7189-1.4272 0.951-0.577 1.765-0.577zm2.1852-2.0625q-0.55774 0-0.96004-0.38122t-0.57602-0.8993q-0.17372-0.52785-0.17372-1.1144 0-0.72335 0.2743-1.476 0.2743-0.76245 0.83204-1.3196 0.56688-0.56695 1.2709-0.56695 0.55774 0 0.96004 0.38122t0.57602 0.90908q0.17372 0.51808 0.17372 1.1046 0 0.71358-0.2743 1.476-0.2743 0.76245-0.84118 1.3294-0.56688 0.55718-1.2618 0.55718zm3.9499-1.0166q0.70403 0 1.088 0.5865 0.38402 0.57673 0.38402 1.3587 0 0.72335-0.32001 1.4858t-0.92347 1.3099q-0.59431 0.53763-1.2892 0.53763-0.70403 0-1.088-0.57672-0.38402-0.57673-0.38402-1.3587 0-0.72335 0.32001-1.4858 0.32001-0.77222 0.91432-1.3099 0.60345-0.5474 1.2983-0.5474z"/>
 </g>
</svg>
