<?xml version="1.0" encoding="UTF-8" standalone="no"?>
<!-- Created with Inkscape (http://www.inkscape.org/) -->

<svg
   xmlns:dc="http://purl.org/dc/elements/1.1/"
   xmlns:cc="http://creativecommons.org/ns#"
   xmlns:rdf="http://www.w3.org/1999/02/22-rdf-syntax-ns#"
   xmlns:svg="http://www.w3.org/2000/svg"
   xmlns="http://www.w3.org/2000/svg"
   xmlns:sodipodi="http://sodipodi.sourceforge.net/DTD/sodipodi-0.dtd"
   xmlns:inkscape="http://www.inkscape.org/namespaces/inkscape"
   width="50"
   height="50"
   viewBox="0 0 50.000001 50.000001"
   id="svg2"
   version="1.1"
   inkscape:version="0.91 r13725"
   sodipodi:docname="bicycle.svg"
   inkscape:export-filename="/home/local/RG/kas/repos/traccar/traccar-web/web/images/default.svg.png"
   inkscape:export-xdpi="90"
   inkscape:export-ydpi="90">
  <defs
     id="defs4" />
  <sodipodi:namedview
     id="base"
     pagecolor="#ffffff"
     bordercolor="#666666"
     borderopacity="1.0"
     inkscape:pageopacity="0.0"
     inkscape:pageshadow="2"
     inkscape:zoom="8.0000004"
     inkscape:cx="15.977102"
     inkscape:cy="28.79197"
     inkscape:document-units="px"
     inkscape:current-layer="layer2"
     showgrid="false"
     units="px"
     inkscape:window-width="1920"
     inkscape:window-height="981"
     inkscape:window-x="0"
     inkscape:window-y="0"
     inkscape:window-maximized="1" />
  <metadata
     id="metadata7">
    <rdf:RDF>
      <cc:Work
         rdf:about="">
        <dc:format>image/svg+xml</dc:format>
        <dc:type
           rdf:resource="http://purl.org/dc/dcmitype/StillImage" />
        <dc:title />
        <cc:license
           rdf:resource="http://creativecommons.org/licenses/by-sa/3.0/" />
      </cc:Work>
      <cc:License
         rdf:about="http://creativecommons.org/licenses/by-sa/3.0/">
        <cc:permits
           rdf:resource="http://creativecommons.org/ns#Reproduction" />
        <cc:permits
           rdf:resource="http://creativecommons.org/ns#Distribution" />
        <cc:requires
           rdf:resource="http://creativecommons.org/ns#Notice" />
        <cc:requires
           rdf:resource="http://creativecommons.org/ns#Attribution" />
        <cc:permits
           rdf:resource="http://creativecommons.org/ns#DerivativeWorks" />
        <cc:requires
           rdf:resource="http://creativecommons.org/ns#ShareAlike" />
      </cc:License>
    </rdf:RDF>
  </metadata>
  <g
     inkscape:groupmode="layer"
     id="layer2"
     inkscape:label="Layer 2">
    <path
       style="opacity:1;fill:#008000;fill-opacity:1;stroke:#000000;stroke-width:1;stroke-miterlimit:4;stroke-dasharray:none"
       d="M 24.861328,1.5332031 C 22.988281,4.0058594 21.115235,6.4785156 19.242188,8.9511719 12.384811,11.305004 7.56648,18.411829 7.9656275,25.658945 8.1243699,33.146749 13.834,40.035153 21.150251,41.610345 27.989532,43.285719 35.647133,40.179534 39.361234,34.187995 43.421356,28.066366 42.795931,19.360483 37.916491,13.875765 36.03007,11.625208 33.474003,10.003272 30.796946,8.9054182 28.818406,6.4480132 26.839867,3.9906081 24.861328,1.5332031 Z M 25,10.332031 C 32.308131,10.16753 39.022437,16.25267 39.595703,23.535156 40.48381,30.788539 35.105845,38.081555 27.914062,39.375 20.786251,40.98485 12.992585,36.360512 10.986328,29.333984 8.6726776,22.401128 12.498474,14.188659 19.287109,11.490234 21.087914,10.727308 23.044264,10.329914 25,10.332031 Z"
       id="path4148"
       inkscape:connector-curvature="0" />
    <path
       style="fill:none;stroke-width:1;stroke-miterlimit:4;stroke-dasharray:none"
       id="path9144"
       ry="5.0823298"
       rx="5.2149124"
       cy="16.191458"
       cx="-31.99658" />
    <path
       d="m 21.136144,27.536275 -3.110899,0 q -0.396293,0 -0.574625,-0.346757 -0.168424,-0.346756 0.06935,-0.66379 l 1.862577,-2.486738 q -0.643976,-0.307127 -1.357303,-0.307127 -1.307767,0 -2.239055,0.931288 -0.931289,0.931288 -0.931289,2.239055 0,1.307767 0.931289,2.239055 0.931288,0.931289 2.239055,0.931289 1.139342,0 2.011186,-0.713328 0.871845,-0.723235 1.099713,-1.822947 z m -1.842762,-1.268138 1.842762,0 q -0.178332,-0.842122 -0.743049,-1.466283 l -1.099713,1.466283 z m 4.755515,0 2.853309,-3.804411 -4.755515,0 -0.980825,1.307766 q 1.040269,1.020454 1.248323,2.496645 l 1.634708,0 z m 10.164913,2.873124 q 0.931289,-0.931288 0.931289,-2.239055 0,-1.307767 -0.931289,-2.239055 -0.931288,-0.931288 -2.239055,-0.931288 -0.594439,0 -1.198786,0.237776 l 1.723874,2.575903 q 0.14861,0.227869 0.09907,0.485459 -0.04954,0.257591 -0.267497,0.396293 -0.14861,0.108981 -0.356664,0.108981 -0.346756,0 -0.525088,-0.287313 L 29.72579,24.673058 q -0.921381,0.941196 -0.921381,2.229148 0,1.307767 0.931288,2.239055 0.931289,0.931289 2.239055,0.931289 1.307767,0 2.239055,-0.931289 z m 0.891659,-5.369769 q 1.307767,1.297859 1.307767,3.130714 0,1.832855 -1.307767,3.140621 -1.297859,1.29786 -3.130714,1.29786 -1.832855,0 -3.140621,-1.29786 -1.29786,-1.307766 -1.29786,-3.140621 0,-0.96101 0.386386,-1.81304 0.396293,-0.861937 1.089806,-1.486098 l -0.643977,-0.970918 -3.497284,4.646534 q -0.178332,0.257591 -0.505274,0.257591 l -1.951742,0 q -0.227869,1.624801 -1.476191,2.714606 -1.248323,1.089806 -2.912753,1.089806 -1.832855,0 -3.140622,-1.29786 -1.297859,-1.307766 -1.297859,-3.140621 0,-1.832855 1.297859,-3.130714 1.307767,-1.307766 3.140622,-1.307766 1.129434,0 2.130074,0.544902 l 1.357303,-1.81304 -2.21924,0 q -0.25759,0 -0.44583,-0.188239 -0.188239,-0.188239 -0.188239,-0.445829 0,-0.257591 0.188239,-0.44583 0.18824,-0.188239 0.44583,-0.188239 l 3.804412,0 0,1.268137 4.309685,0 -0.842122,-1.268137 -2.199426,0 q -0.25759,0 -0.445829,-0.188239 -0.188239,-0.188239 -0.188239,-0.44583 0,-0.25759 0.188239,-0.445829 0.188239,-0.18824 0.445829,-0.18824 l 2.536275,0 q 0.326941,0 0.525088,0.277406 l 2.645255,3.962928 q 0.901567,-0.435921 1.902206,-0.435921 1.832855,0 3.130714,1.307766 z"
       style="fill:#008000;stroke:#000000;stroke-width:0.71658581;stroke-miterlimit:4;stroke-dasharray:none;stroke-opacity:1"
       id="path4282"
       inkscape:connector-curvature="0" />
  </g>
</svg>
