<?xml version="1.0" encoding="UTF-8" standalone="no"?>
<svg id="svg4145" xmlns:rdf="http://www.w3.org/1999/02/22-rdf-syntax-ns#" xmlns="http://www.w3.org/2000/svg" height="40" width="40" version="1.1" xmlns:cc="http://creativecommons.org/ns#" xmlns:dc="http://purl.org/dc/elements/1.1/" viewBox="0 0 40 40">
 <g id="layer1">
  <path id="background" d="m20.002 3.6816l-1.131 3.3907a12.374 12.374 0 0 1 1.131 -0.0625 12.374 12.374 0 0 1 1.129 0.0566l-1.129-3.3848zm-0.002 3.9434a12.374 12.374 0 0 0 -12.375 12.375 12.374 12.374 0 0 0 12.375 12.375 12.374 12.374 0 0 0 12.375 -12.375 12.374 12.374 0 0 0 -12.375 -12.375z" stroke="#333" stroke-width="1.9" fill="#008000"/>
  <path id="icon" d="m16.793 22.105h-2.5821q-0.32893 0-0.47695-0.28781-0.1398-0.28782 0.05757-0.55096l1.546-2.064q-0.53451-0.25492-1.1266-0.25492-1.0855 0-1.8585 0.77299-0.77299 0.77299-0.77299 1.8585t0.77299 1.8585q0.77299 0.77299 1.8585 0.77299 0.94568 0 1.6693-0.59208 0.72365-0.6003 0.91278-1.5131zm-1.5295-1.0526h1.5295q-0.14802-0.69898-0.61674-1.217l-0.91278 1.217zm3.9472 0 2.3683-3.1577h-3.9472l-0.8141 1.0855q0.86344 0.847 1.0361 2.0723h1.3568zm8.4371 2.3848q0.77299-0.77299 0.77299-1.8585t-0.77299-1.8585q-0.77299-0.77299-1.8585-0.77299-0.4934 0-0.99502 0.19736l1.4308 2.1381q0.12335 0.18914 0.08224 0.40294-0.04112 0.2138-0.22203 0.32893-0.12335 0.09046-0.29604 0.09046-0.28781 0-0.43583-0.23847l-1.4308-2.1381q-0.76476 0.78121-0.76476 1.8502 0 1.0855 0.77299 1.8585 0.77299 0.77299 1.8585 0.77299t1.8585-0.77299zm0.74009-4.457q1.0855 1.0772 1.0855 2.5986 0 1.5213-1.0855 2.6068-1.0772 1.0772-2.5986 1.0772-1.5213 0-2.6068-1.0772-1.0772-1.0855-1.0772-2.6068 0-0.79766 0.32071-1.5049 0.32893-0.71542 0.90456-1.2335l-0.53451-0.80588-2.9028 3.8567q-0.14802 0.2138-0.41939 0.2138h-1.62q-0.18914 1.3486-1.2253 2.2532-1.0361 0.90456-2.4176 0.90456-1.5213 0-2.6068-1.0772-1.0772-1.0855-1.0772-2.6068t1.0772-2.5986q1.0855-1.0855 2.6068-1.0855 0.93745 0 1.768 0.45228l1.1266-1.5049h-1.842q-0.21381 0-0.37005-0.15624t-0.15624-0.37005q0-0.2138 0.15624-0.37005 0.15624-0.15624 0.37005-0.15624h3.1577v1.0526h3.5771l-0.69898-1.0526h-1.8256q-0.21381 0-0.37005-0.15624t-0.15624-0.37005 0.15624-0.37005 0.37005-0.15624h2.1052q0.27137 0 0.43583 0.23025l2.1956 3.2893q0.74832-0.36182 1.5789-0.36182 1.5213 0 2.5986 1.0855z"/>
 </g>
</svg>
