<?xml version="1.0" encoding="UTF-8" standalone="no"?>

<svg
   xmlns:dc="http://purl.org/dc/elements/1.1/"
   xmlns:cc="http://creativecommons.org/ns#"
   xmlns:rdf="http://www.w3.org/1999/02/22-rdf-syntax-ns#"
   xmlns:svg="http://www.w3.org/2000/svg"
   xmlns="http://www.w3.org/2000/svg"
   xmlns:sodipodi="http://sodipodi.sourceforge.net/DTD/sodipodi-0.dtd"
   width="40"
   height="40"
   viewBox="0 0 40 40"
   id="svg4145"
   version="1.1"
   sodipodi:docname="bicycle.svg">
  <defs
     id="defs4147" />
  <sodipodi:namedview
     id="base"
     pagecolor="#ffffff"
     bordercolor="#666666"
     borderopacity="1.0"
     showgrid="false"
     units="px" />
  <metadata
     id="metadata4150">
    <rdf:RDF>
      <cc:Work
         rdf:about="">
        <dc:format>image/svg+xml</dc:format>
        <dc:type
           rdf:resource="http://purl.org/dc/dcmitype/StillImage" />
        <dc:title></dc:title>
      </cc:Work>
    </rdf:RDF>
  </metadata>
  <g
     id="layer1">
    <path
       style="fill:#008000;fill-opacity:1;stroke:#333333;stroke-width:1.89999998;stroke-miterlimit:4;stroke-dasharray:none;stroke-opacity:1"
       d="M 20.001953 3.6816406 L 18.871094 7.0722656 A 12.37437 12.37437 0 0 1 20.001953 7.0097656 A 12.37437 12.37437 0 0 1 21.130859 7.0664062 L 20.001953 3.6816406 z M 20 7.625 A 12.37437 12.37437 0 0 0 7.625 20 A 12.37437 12.37437 0 0 0 20 32.375 A 12.37437 12.37437 0 0 0 32.375 20 A 12.37437 12.37437 0 0 0 20 7.625 z "
       id="background" />
    <path
       id="icon"
       style="font-style:normal;font-variant:normal;font-weight:normal;font-stretch:normal;font-size:medium;line-height:125%;font-family:FontAwesome;-inkscape-font-specification:'FontAwesome, Normal';text-align:start;letter-spacing:0px;word-spacing:0px;writing-mode:lr-tb;text-anchor:start;fill:#000000;fill-opacity:1;stroke:none;stroke-width:1.17888892px;stroke-linecap:butt;stroke-linejoin:miter;stroke-opacity:1"
       d="m 16.792922,22.105158 -2.582108,0 q -0.328931,0 -0.47695,-0.287814 -0.139797,-0.287815 0.05757,-0.550959 l 1.545976,-2.064042 q -0.534513,-0.254922 -1.126589,-0.254922 -1.085472,0 -1.85846,0.772988 -0.772988,0.772988 -0.772988,1.85846 0,1.085473 0.772988,1.858461 0.772988,0.772988 1.85846,0.772988 0.945677,0 1.669324,-0.592076 0.72365,-0.600299 0.912785,-1.513084 z m -1.529529,-1.052579 1.529529,0 q -0.148019,-0.698978 -0.616745,-1.217045 l -0.912784,1.217045 z m 3.947172,0 2.368304,-3.157737 -3.947172,0 -0.814105,1.085472 q 0.863444,0.846998 1.036133,2.072265 l 1.35684,0 z m 8.437082,2.384751 q 0.772988,-0.772988 0.772988,-1.858461 0,-1.085472 -0.772988,-1.85846 -0.772988,-0.772988 -1.858461,-0.772988 -0.493395,0 -0.995016,0.197359 l 1.43085,2.138052 q 0.12335,0.189135 0.08224,0.40294 -0.04112,0.213805 -0.22203,0.328931 -0.123348,0.09046 -0.296038,0.09046 -0.287814,0 -0.435833,-0.238474 l -1.43085,-2.138053 q -0.764764,0.781212 -0.764764,1.850238 0,1.085472 0.772988,1.85846 0.772987,0.772988 1.858459,0.772988 1.085473,0 1.858461,-0.772988 z m 0.740094,-4.457016 q 1.085473,1.077249 1.085473,2.598555 0,1.521306 -1.085473,2.606778 -1.077248,1.07725 -2.598555,1.07725 -1.521305,0 -2.606778,-1.07725 -1.07725,-1.085472 -1.07725,-2.606778 0,-0.797657 0.320709,-1.50486 0.328931,-0.715425 0.90456,-1.233491 l -0.534513,-0.805881 -2.902817,3.856717 q -0.148019,0.213804 -0.419386,0.213804 l -1.619986,0 q -0.189136,1.348619 -1.225268,2.253179 -1.036133,0.90456 -2.417643,0.90456 -1.521307,0 -2.606779,-1.07725 -1.077249,-1.085472 -1.077249,-2.606778 0,-1.521306 1.077249,-2.598555 1.085472,-1.085472 2.606779,-1.085472 0.937453,0 1.768004,0.452279 l 1.126589,-1.504859 -1.842014,0 q -0.213806,0 -0.370047,-0.156242 -0.156243,-0.156242 -0.156243,-0.370048 0,-0.213804 0.156243,-0.370047 0.156241,-0.156242 0.370047,-0.156242 l 3.157738,0 0,1.052579 3.577126,0 -0.698979,-1.052579 -1.825567,0 q -0.213806,0 -0.370049,-0.156243 -0.156241,-0.156241 -0.156241,-0.370047 0,-0.213806 0.156241,-0.370047 0.156243,-0.156243 0.370049,-0.156243 l 2.105158,0 q 0.271369,0 0.435834,0.230252 l 2.195615,3.289311 q 0.748317,-0.361824 1.578868,-0.361824 1.521307,0 2.598555,1.085472 z" />
  </g>
</svg>
