<?xml version="1.0" encoding="utf-8"?>
<!-- Generator: Adobe Illustrator 15.0.2, SVG Export Plug-In . SVG Version: 6.00 Build 0)  -->
<!DOCTYPE svg PUBLIC "-//W3C//DTD SVG 1.1//EN" "http://www.w3.org/Graphics/SVG/1.1/DTD/svg11.dtd">
<svg version="1.1"
	 id="svg171" xmlns:rdf="http://www.w3.org/1999/02/22-rdf-syntax-ns#" xmlns:dc="http://purl.org/dc/elements/1.1/" xmlns:cc="http://creativecommons.org/ns#" xmlns:svg="http://www.w3.org/2000/svg"
	 xmlns="http://www.w3.org/2000/svg" xmlns:xlink="http://www.w3.org/1999/xlink" x="0px" y="0px" width="595.279px"
	 height="841.891px" viewBox="0 0 595.279 841.891" enable-background="new 0 0 595.279 841.891" xml:space="preserve">
<path id="rect959" fill="#60585A" d="M132.802,664.502h11.311c5.057,0,9.156,4.1,9.156,9.156v65.62c0,5.058-4.1,9.156-9.156,9.156
	h-11.311c-5.057,0-9.156-4.099-9.156-9.156v-65.62C123.646,668.602,127.745,664.502,132.802,664.502z"/>
<path id="rect958" fill="#60585A" d="M447.437,653.836h11.311c5.057,0,9.156,4.1,9.156,9.156v65.621c0,5.057-4.1,9.156-9.156,9.156
	h-11.311c-5.058,0-9.156-4.1-9.156-9.156v-65.621C438.281,657.936,442.379,653.836,447.437,653.836z"/>
<g id="g786" transform="matrix(-1 0 0 -1 282.65 766.12)">
	<path id="path787" fill="#4A00AD" d="M-43.37,694.736c-5.837-0.343-11.878-0.414-17.669,0.362
		c-3.812,0.759-12.237,4.018-8.165,9.254c5.595,5.377,15.498,4.553,22.569,3.95l0.548,6.393c-9.736,0.8-21.507,1.058-28.627-6.75
		c-6.379-10.154,3.601-17.49,12.825-19.216c6.167-0.782,12.333-0.373,18.518-0.734L-43.37,694.736L-43.37,694.736z"/>
	<path id="path788" fill="#4A00AD" d="M-43.37,728.46c-5.837,0.342-11.878,0.414-17.669-0.363
		c-3.812-0.759-12.237-4.018-8.165-9.254c5.595-5.377,15.498-4.553,22.569-3.95l0.548-6.393c-9.736-0.8-21.507-1.058-28.627,6.75
		c-6.379,10.155,3.601,17.49,12.825,19.216c6.167,0.782,12.333,0.373,18.518,0.734L-43.37,728.46L-43.37,728.46z"/>
	<path id="path789" fill="#4A00AD" d="M-20.595,713.818c-2.202-0.21-4.466-0.119-6.673-0.131c-1.868-0.006-8.14-0.962-9.303,1.064
		c-0.41,1.444,0.288,3.097,1.502,3.904c2.941,1.512,6.912,0.742,10.068,0.59c3.86-0.185,9.098-0.611,10.277,4.087
		c0.365,3.836-2.024,7.516-5.007,9.742c-3.944,2.426-8.436,1.978-12.836,1.423c-2.62-0.348-5.233-0.749-7.86-1.044l0.483-4.055
		c2.636,0.314,5.254,0.75,7.885,1.099c3.218,0.394,6.911,0.992,9.856-0.722c1.696-1.197,3.331-3.406,3.344-5.57
		c0.016-1.612-5.018-0.976-5.934-0.93c-4.258,0.228-8.887,0.915-12.751-1.287c-3.112-2.333-4.487-6.792-2.073-10.116
		c3.153-2.994,8.341-2.221,12.348-2.234c2.207-0.011,4.471,0.081,6.673-0.129V713.818L-20.595,713.818z"/>
	<g id="g790" transform="matrix(1.166 0 0 1.0624 -26.21 -45.238)">
		<path id="path791" fill="#4A00AD" d="M7.758,710.522c2.191,0.243,4.459,0.147,6.658,0.16c4.147,0.016,8.293-0.018,12.442-0.036
			c0.831-0.005,1.663-0.012,2.493-0.039v3.442c-0.831-0.028-1.663-0.034-2.493-0.04c-4.148-0.018-8.295-0.052-12.442-0.036
			c-2.199,0.013-4.467-0.083-6.658,0.16V710.522L7.758,710.522z"/>
		<path id="path792" fill="#4A00AD" d="M19.975,713.045c-0.17,1.325-0.085,2.721-0.093,4.051c-0.012,2.653-0.013,5.307,0.007,7.962
			c0.013,1.758,0.029,3.516,0.034,5.273c0.001,1.052-0.003,2.104-0.005,3.156h-3.542c-0.002-1.052-0.005-2.104-0.003-3.156
			c0.003-1.758,0.02-3.516,0.033-5.273c0.019-2.655,0.019-5.308,0.008-7.962c-0.01-1.33,0.077-2.726-0.094-4.051H19.975z"/>
	</g>
	<g id="g793">
		<path id="path794" fill="#4A00AD" d="M12.991,710.382c-0.233,1.819-0.121,3.735-0.143,5.564
			c-0.049,4.597-0.055,9.195-0.009,13.793c0.019,1.505,0.041,3.011,0.07,4.516H9.416c0.029-1.505,0.053-3.011,0.07-4.516
			c0.046-4.598,0.04-9.196-0.008-13.793c-0.022-1.829,0.091-3.745-0.144-5.564H12.991L12.991,710.382z"/>
		<path id="path795" fill="#4A00AD" d="M10.804,709.284c1.504,0.167,3.054,0.079,4.565,0.121c3.229,0.147,6.067,1.089,6.49,4.705
			c0.098,3.621-1.89,5.792-5.406,6.463c-1.649,0.208-3.262,0.145-4.911-0.031l0.377-3.377c1.302,0.146,2.583,0.213,3.887,0.054
			c1.712-0.315,2.579-0.938,2.565-2.747c-0.132-1.637-1.703-1.587-3.088-1.653c-1.475-0.03-3.009-0.086-4.479,0.078V709.284
			L10.804,709.284z"/>
		<path id="path796" fill="#4A00AD" d="M12.244,718.957c1.304,0.145,2.657,0.077,3.967,0.087c2.814,0.022,5.97-0.196,8.307,1.637
			c1.977,2.09,1.296,4.663,0.556,7.142c-0.503,1.677-0.932,3.325-0.986,5.084c-0.003,0.344,0,0.684,0.009,1.026l-3.525,0.09
			c-0.011-0.409-0.014-0.816-0.01-1.225c0.066-2.06,0.562-3.992,1.154-5.955c0.269-0.9,1.017-2.566,0.519-3.509
			c-1.19-1.353-4.451-0.867-6.022-0.854c-1.31,0.011-2.663-0.057-3.967,0.087V718.957L12.244,718.957z"/>
		<rect id="rect797" x="9.365" y="709.294" fill="#4A00AD" width="2.51" height="3.227"/>
	</g>
	<path id="path798" fill="#4A00AD" d="M51.312,722.018c0,7.421-5.542,13.445-12.37,13.445s-12.368-6.024-12.368-13.445
		c0-7.422,5.54-13.445,12.368-13.445S51.312,714.596,51.312,722.018L51.312,722.018z M47.367,721.675
		c0,5.055-3.775,9.158-8.426,9.158c-4.651,0-8.426-4.103-8.426-9.158c0-5.057,3.774-9.158,8.426-9.158
		C43.592,712.516,47.367,716.619,47.367,721.675z"/>
</g>
<path id="rect317" fill="#60585A" d="M455.436,104.562h11.311c5.057,0,9.156,4.1,9.156,9.156v65.621c0,5.057-4.1,9.156-9.156,9.156
	h-11.311c-5.057,0-9.156-4.099-9.156-9.156v-65.621C446.28,108.662,450.379,104.562,455.436,104.562z"/>
<path id="rect316" fill="#60585A" d="M124.639,107.849h11.311c5.058,0,9.156,4.1,9.156,9.156v65.621
	c0,5.057-4.099,9.156-9.156,9.156h-11.311c-5.057,0-9.156-4.099-9.156-9.156v-65.621
	C115.483,111.949,119.582,107.849,124.639,107.849z"/>
<radialGradient id="path184_1_" cx="669.6125" cy="537.1904" r="548.8004" gradientTransform="matrix(0.7018 0 0 -1.197 -170.9626 1041.4243)" gradientUnits="userSpaceOnUse">
	<stop  offset="0" style="stop-color:#1F1F1F"/>
	<stop  offset="1" style="stop-color:#000000"/>
</radialGradient>
<path id="path184" fill="url(#path184_1_)" stroke="#000000" d="M296.899,835.086c-120.595,2.519-139.077-19.113-156.899-22.676
	c-17.817-41.357-21.2-390.069-10.511-418.578c7.991-64.569-5.265-75.261-9.266-153.082c-7.615-90.884,10.469-40.347-4.734-132.764
	c23.1-96.22-20.409-98.179,179.734-107.327C478.893,3.221,453.03,11.769,476.12,107.987c-15.203,92.418,2.881,41.881-4.734,132.764
	c-4.001,77.816-17.257,88.508-9.266,153.082c10.689,28.505,7.307,377.216-10.511,418.578
	c-27.894,16.161-101.812,22.676-154.724,22.676H296.899z"/>
<radialGradient id="path272_1_" cx="917.0979" cy="694.1172" r="15.8491" gradientTransform="matrix(0.4169 0 0 -3.8752 -267.8295 3111.9834)" gradientUnits="userSpaceOnUse">
	<stop  offset="0" style="stop-color:#FFFFFF"/>
	<stop  offset="1" style="stop-color:#696969"/>
</radialGradient>
<path id="path272" fill="url(#path272_1_)" d="M150.576,300.639l22.967,87.928c0,0,0,164.867-3.28,167.608
	c-3.282,2.747-29.529,49.458-29.529,49.458s6.562-299.497,9.844-305L150.576,300.639z"/>
<radialGradient id="path274_1_" cx="877.6614" cy="694.1172" r="15.8491" gradientTransform="matrix(-0.4169 0 0 -3.8752 848.3018 3106.6514)" gradientUnits="userSpaceOnUse">
	<stop  offset="0" style="stop-color:#FFFFFF"/>
	<stop  offset="1" style="stop-color:#696969"/>
</radialGradient>
<path id="path274" fill="url(#path274_1_)" d="M446.332,295.306l-22.967,87.928c0,0,0,164.868,3.28,167.608
	c3.282,2.748,29.528,49.458,29.528,49.458s-6.561-299.497-9.843-305L446.332,295.306z"/>
<path id="path230" fill="#333333" stroke="#000000" stroke-opacity="0.4591" d="M145.949,47.484
	c-12.443,19.909-11.536,209.278,8.373,224.209c19.23-15.839,130.631-30.552,151.813-29.185
	c21.638-1.591,106.328,8.591,132.348,24.208c7.015,2.272,21.04-219.229,1.13-234.161C377.389,15.124,170.83,15.124,145.949,47.477
	V47.484z"/>
<radialGradient id="path275_1_" cx="299.6829" cy="273.77" r="91.231" gradientTransform="matrix(1.6042 0 0 -0.7914 -183.7809 533.9191)" gradientUnits="userSpaceOnUse">
	<stop  offset="0" style="stop-color:#FFFFFF"/>
	<stop  offset="1" style="stop-color:#696969"/>
</radialGradient>
<path id="path275" fill="url(#path275_1_)" d="M150.818,274.519c0,0,69.892-28.687,147.866-29.42
	c70.214-0.684,101.925,10.263,144.635,26.684c-5.177,52-10.354,101.261-23.297,117.683c-119.069-30.108-126.833-30.108-245.902,0
	c-2.592-16.414-25.889-112.211-23.3-114.942L150.818,274.519z"/>
<path id="path185" opacity="0.62" fill-opacity="0.7044" stroke="#000000" d="M154.814,277.516c0,0,68.027-26.41,143.931-27.085
	c68.342-0.629,99.206,9.449,140.783,24.566c-5.038,47.872-10.077,93.222-22.676,108.34
	c-115.901-27.715-123.452-27.714-239.354,0.001c-2.52-15.117-25.195-103.301-22.677-105.821L154.814,277.516z"/>
<radialGradient id="path270_1_" cx="396.345" cy="32.5439" r="128.2708" gradientTransform="matrix(1.2471 0 0 -0.8235 -193.3944 702.9675)" gradientUnits="userSpaceOnUse">
	<stop  offset="0" style="stop-color:#FFFFFF"/>
	<stop  offset="0.2095" style="stop-color:#DADADA"/>
	<stop  offset="0.5821" style="stop-color:#9D9D9D"/>
	<stop  offset="0.8562" style="stop-color:#777777"/>
	<stop  offset="1" style="stop-color:#696969"/>
</radialGradient>
<path id="path270" fill="url(#path270_1_)" d="M187.009,566.796c-13.192,63.318-23.744,184.683-23.744,184.683
	c21.106,18.469,129.276,26.384,131.921,26.384c7.915,0,116.083-7.915,134.556-34.298c0-15.83-10.554-129.276-21.107-179.404
	c-92.34,13.19-216.338,7.915-221.617,2.638L187.009,566.796z"/>
<path id="path188" opacity="0.62" fill-opacity="0.7862" stroke="#000000" d="M192.607,572.299
	c-12.599,60.468-22.676,176.364-22.676,176.364c20.156,17.637,123.452,25.195,125.98,25.195c7.559,0,110.856-7.559,128.497-32.754
	c0-15.117-10.079-123.453-20.156-171.33c-88.184,12.597-206.601,7.559-211.646,2.52V572.299z"/>
<path id="path189" fill="#333333" stroke="#000000" stroke-opacity="0.4591" d="M449.596,297.663l30.234,2.52
	c0,0,15.118,15.117,5.04,22.676c-10.079,7.559-35.274-2.519-35.274-2.519V297.663z"/>
<path id="path190" fill="#333333" stroke="#000000" stroke-opacity="0.4591" d="M145.68,302.708l-30.235,2.519
	c0,0-15.117,15.118-5.039,22.676c10.079,7.559,35.274-2.52,35.274-2.52V302.708z"/>
<path id="path304" fill="#F7FFD7" stroke="#000000" stroke-width="1.082" stroke-opacity="0.2516" d="M162.356,18.158
	c-9.623,1.677-20.605,20.262-15.555,23.359c12.032-6.068,35.545-14.405,58.644-16.728c4.571-2.453,10.813-9.979,11.047-11.657
	C200.616,12.23,172.854,16.093,162.356,18.158L162.356,18.158z"/>
<path id="path306" fill="#F7FFD7" stroke="#000000" stroke-width="1.082" stroke-opacity="0.2516" d="M424.853,12.921
	c9.623,1.678,20.605,15.606,15.554,18.704c-12.03-6.067-35.544-8.004-58.643-10.328c-4.57-2.453-10.809-11.723-11.05-13.401
	C386.593,6.992,414.355,10.856,424.853,12.921L424.853,12.921z"/>
<path id="path307" fill="none" stroke="#000000" stroke-opacity="0.3711" d="M226.037,11.071
	c39.566-6.983,106.48-6.401,134.993-2.911"/>
<path id="path308" fill="none" stroke="#000000" stroke-opacity="0.3711" d="M226.037,13.98
	c39.566-6.983,106.48-6.401,134.993-2.911"/>
<path id="path309" fill="none" stroke="#000000" stroke-opacity="0.3711" d="M226.037,17.471
	c39.566-6.983,106.48-6.401,134.993-2.911"/>
<path id="path310" fill="none" stroke="#000000" stroke-opacity="0.3711" d="M226.037,21.544
	c39.566-6.4,104.734-5.238,132.668-3.493"/>
<path id="path186" opacity="0.62" fill-opacity="0.6855" stroke="#000000" d="M152.294,315.304l17.637,80.625
	c0,0,0,151.172-2.52,153.69c-2.521,2.519-22.676,45.351-22.676,45.351s5.038-274.625,7.559-279.67V315.304z"/>
<path id="path211" fill="none" stroke="#000000" d="M145.044,331.195c-2.488,27.375-15.989,472.96,4.977,472.843
	c74.504,28.229,236.367,25.153,297.054-7.466c18.697-0.076,7.465-445.476,4.977-472.843"/>
<path id="path187" opacity="0.62" fill-opacity="0.7484" stroke="#000000" d="M444.562,310.27l-17.636,80.625
	c0,0,0,151.172,2.519,153.69c2.521,2.519,22.676,45.351,22.676,45.351s-5.038-274.625-7.559-279.67V310.27z"/>
</svg>
