<?xml version="1.0" encoding="UTF-8" standalone="no"?>
<svg
   xmlns:dc="http://purl.org/dc/elements/1.1/"
   xmlns:cc="http://creativecommons.org/ns#"
   xmlns:rdf="http://www.w3.org/1999/02/22-rdf-syntax-ns#"
   xmlns:svg="http://www.w3.org/2000/svg"
   xmlns="http://www.w3.org/2000/svg"
   xmlns:sodipodi="http://sodipodi.sourceforge.net/DTD/sodipodi-0.dtd"
   xmlns:inkscape="http://www.inkscape.org/namespaces/inkscape"
   id="svg4145"
   height="40"
   width="40"
   version="1.1"
   viewBox="0 0 40 40"
   sodipodi:docname="bmw.svg"
   inkscape:version="1.0.1 (3bc2e813f5, 2020-09-07)">
  <metadata
     id="metadata172">
    <rdf:RDF>
      <cc:Work
         rdf:about="">
        <dc:format>image/svg+xml</dc:format>
        <dc:type
           rdf:resource="http://purl.org/dc/dcmitype/StillImage" />
        <dc:title></dc:title>
      </cc:Work>
    </rdf:RDF>
  </metadata>
  <defs
     id="defs170" />
  <sodipodi:namedview
     pagecolor="#ffffff"
     bordercolor="#666666"
     borderopacity="1"
     objecttolerance="10"
     gridtolerance="10"
     guidetolerance="10"
     inkscape:pageopacity="0"
     inkscape:pageshadow="2"
     inkscape:window-width="1920"
     inkscape:window-height="1017"
     id="namedview168"
     showgrid="false"
     inkscape:zoom="15.026019"
     inkscape:cx="23.770984"
     inkscape:cy="20.009286"
     inkscape:window-x="-8"
     inkscape:window-y="-8"
     inkscape:window-maximized="1"
     inkscape:current-layer="layer1" />
  <g
     id="layer1">
    <path
       id="background"
       d="m20.002 3.6816-1.1309 3.3906a12.374 12.374 0 0 1 1.1309 -0.0625 12.374 12.374 0 0 1 1.1289 0.056641l-1.129-3.3847zm-0.002 3.9434a12.374 12.374 0 0 0 -12.375 12.375 12.374 12.374 0 0 0 12.375 12.375 12.374 12.374 0 0 0 12.375 -12.375 12.374 12.374 0 0 0 -12.375 -12.375z"
       stroke="#333"
       stroke-width="1.9"
       fill="#008000" />
    <g
       transform="matrix(0.00159661,0,0,-0.00159661,9.7993205,24.876756)"
       fill="#000000"
       stroke="none"
       id="g144">
      <path
         d="m 5820,8119 c -96,-4 -362,-12 -590,-19 -535,-14 -1073,-40 -1604,-75 l -218,-15 -57,-47 c -207,-173 -454,-407 -602,-569 -309,-338 -453,-551 -813,-1201 -60,-108 -72,-117 -113,-88 -33,23 -43,75 -43,216 0,144 -6,159 -75,179 -72,21 -319,24 -422,6 -187,-32 -336,-105 -374,-182 -29,-61 -29,-193 0,-260 57,-129 182,-191 401,-201 l 126,-5 11,25 c 35,76 130,140 228,154 63,8 58,-11 -7,-32 -73,-24 -116,-52 -134,-87 -25,-48 -15,-55 83,-61 100,-6 163,-22 163,-41 0,-7 -50,-71 -112,-142 -131,-151 -216,-259 -255,-320 -29,-46 -53,-57 -53,-26 0,31 56,132 115,210 30,39 52,72 47,72 -16,0 -216,-131 -327,-215 C 947,5208 726,5000 399,4642 L 213,4440 172,4292 C 98,4030 55,3820 30,3605 24,3550 15,3472 10,3432 4,3392 0,3327 0,3287 v -73 l 62,-63 c 47,-47 85,-74 155,-108 51,-25 93,-47 93,-50 0,-3 -30,-3 -66,1 -77,8 -152,34 -199,70 -18,14 -35,26 -38,26 -2,0 0,-28 4,-62 4,-35 24,-398 44,-808 20,-410 38,-750 40,-757 2,-6 30,-19 61,-28 83,-24 169,-70 220,-117 72,-67 41,-68 -88,-4 -62,31 -129,59 -149,62 l -36,6 -6,-43 C 72,1158 81,929 125,608 152,417 171,347 222,262 273,178 379,78 463,35 L 535,-2 915,9 c 209,7 593,15 852,19 l 473,7 26,27 c 20,19 28,39 32,77 l 5,51 h -123 c -161,0 -370,41 -370,72 0,6 29,7 67,4 131,-10 1721,-17 1948,-8 176,7 262,15 365,35 159,31 322,52 515,68 196,16 3194,16 3390,0 193,-16 356,-37 515,-68 103,-20 189,-28 365,-35 227,-9 1817,-2 1948,8 38,3 67,2 67,-4 0,-31 -209,-72 -370,-72 h -123 l 5,-51 c 4,-38 12,-58 32,-77 l 26,-27 473,-7 c 259,-4 643,-12 852,-18 l 380,-12 60,30 c 135,66 261,211 309,356 21,62 61,355 76,556 11,142 9,266 -6,394 l -6,48 -37,-5 c -20,-4 -87,-32 -149,-63 -129,-64 -160,-63 -88,4 51,47 137,93 220,117 31,9 59,22 61,28 2,7 20,347 40,757 20,410 40,773 44,808 4,34 6,62 4,62 -3,0 -20,-12 -38,-26 -47,-36 -122,-62 -199,-70 -36,-4 -66,-4 -66,-1 0,3 42,25 93,50 70,34 108,61 155,108 l 62,63 v 61 c 0,78 -35,385 -61,540 -25,148 -57,285 -111,477 l -41,148 -85,92 c -467,509 -662,694 -952,903 -104,76 -259,175 -272,175 -5,0 17,-33 47,-72 59,-78 115,-179 115,-210 0,-31 -24,-20 -53,26 -39,61 -124,169 -255,320 -62,71 -112,135 -112,142 0,19 63,35 163,41 98,6 108,13 83,61 -18,35 -61,63 -133,87 -66,21 -71,40 -8,32 98,-14 193,-78 227,-153 11,-23 15,-24 105,-24 224,0 387,79 438,213 25,66 19,224 -11,264 -56,75 -194,139 -368,169 -102,18 -350,15 -421,-6 -69,-20 -75,-35 -75,-179 0,-141 -10,-193 -43,-216 -41,-29 -53,-20 -113,88 -360,650 -504,863 -812,1200 -152,166 -407,407 -609,575 l -52,43 -193,14 c -475,35 -970,60 -1468,75 -201,6 -491,15 -645,20 -316,11 -1002,11 -1265,-1 z M 3530,7992 c 0,-4 -26,-26 -57,-49 -55,-39 -102,-97 -86,-106 5,-2 69,2 143,9 1966,190 4077,192 5723,6 87,-10 160,-16 162,-12 9,14 -40,71 -90,106 -57,39 -71,60 -32,49 226,-67 731,-704 1235,-1558 143,-243 179,-314 167,-326 -6,-5 -93,-4 -230,5 -1281,79 -2595,117 -4085,117 -1502,0 -2822,-39 -4055,-118 -126,-8 -214,-9 -220,-4 -13,12 20,77 160,314 496,840 976,1455 1218,1560 37,17 47,18 47,7 z M 2495,5098 c 23,-51 93,-210 155,-353 62,-143 118,-265 126,-271 8,-6 87,-14 186,-18 222,-9 556,-40 569,-53 17,-17 -7,-63 -33,-63 -13,0 -129,11 -258,24 -129,14 -292,28 -362,32 -74,4 -132,11 -137,18 -18,21 -301,742 -301,766 0,25 14,4 55,-82 z m 7855,45 c -22,-68 -281,-717 -290,-729 -6,-6 -60,-14 -133,-18 -67,-4 -231,-18 -365,-31 -134,-14 -252,-25 -263,-25 -23,0 -45,48 -30,63 13,13 347,44 569,53 99,4 178,12 186,18 8,6 64,128 126,271 141,326 198,450 206,442 3,-3 0,-23 -6,-44 z M 1296,4679 c 32,-5 140,-37 239,-69 351,-115 583,-157 967,-176 75,-4 141,-10 146,-13 5,-3 160,-305 344,-671 352,-699 372,-744 583,-1313 53,-142 123,-322 156,-400 174,-408 378,-710 655,-969 81,-75 83,-76 294,-112 282,-48 579,-71 1060,-81 355,-7 476,-15 435,-27 -16,-5 -284,-10 -595,-11 -485,-2 -589,1 -735,16 -183,20 -448,62 -468,74 -7,5 -49,46 -92,93 -235,251 -426,532 -580,853 -86,180 -127,283 -270,677 -121,334 -169,455 -248,622 l -55,116 -63,6 c -35,3 -183,10 -329,16 -915,38 -1666,121 -2035,226 -182,52 -290,125 -333,224 -25,59 -32,163 -22,298 10,123 45,399 56,434 8,28 443,165 593,187 83,12 229,13 297,0 z m 10619,-23 c 180,-44 473,-145 479,-164 11,-36 46,-313 55,-432 10,-141 2,-249 -24,-303 -63,-133 -202,-203 -540,-271 -392,-80 -1072,-145 -1825,-176 -146,-6 -293,-13 -328,-16 l -63,-6 -34,-68 c -62,-123 -151,-341 -239,-585 -263,-725 -365,-942 -596,-1265 -113,-158 -331,-414 -377,-443 -20,-12 -285,-54 -468,-74 -146,-15 -250,-18 -735,-16 -311,1 -578,6 -595,11 -41,12 80,20 435,27 481,10 778,33 1060,81 211,36 213,37 292,111 242,227 409,456 567,778 92,187 147,322 281,685 54,146 121,326 151,400 50,128 721,1478 741,1491 5,3 71,9 146,13 385,19 617,62 967,176 99,33 203,64 230,69 86,17 307,5 420,-23 z m -6795,-26 c 383,-22 950,-78 988,-99 13,-7 36,-34 53,-61 19,-31 40,-52 59,-59 17,-5 34,-20 39,-33 17,-46 44,-457 44,-673 0,-333 -40,-517 -139,-634 -54,-65 -88,-74 -299,-82 -291,-11 -985,-10 -1178,1 -95,6 -215,18 -267,26 -435,72 -714,318 -816,721 -54,215 -53,483 2,655 67,208 586,289 1514,238 z m 3298,10 c 392,-20 626,-77 731,-178 45,-44 64,-108 81,-281 23,-225 -19,-465 -114,-656 -158,-316 -421,-477 -861,-526 -134,-15 -992,-23 -1280,-12 -204,8 -235,12 -270,30 -147,77 -208,281 -208,693 -1,222 26,620 44,668 5,13 22,28 39,34 19,6 40,26 55,53 44,75 42,74 282,100 281,31 529,52 773,65 369,20 494,22 728,10 z M 2077,1830 c 293,-13 666,-35 1013,-60 151,-11 278,-20 283,-20 4,0 7,-9 7,-20 0,-39 -26,-41 -292,-20 -776,62 -1194,79 -1533,62 -210,-11 -414,-29 -424,-38 -2,-2 15,-22 39,-45 142,-138 126,-370 -34,-490 -90,-68 -251,-100 -331,-65 -28,12 -26,13 51,18 185,11 308,132 308,303 0,87 -31,153 -101,215 -56,49 -70,49 -214,5 -123,-39 -216,-87 -282,-146 -32,-28 -60,-50 -62,-47 -11,10 43,95 89,142 114,115 304,177 636,205 140,12 585,12 847,1 z m 9633,-15 c 246,-34 399,-93 493,-187 49,-49 103,-136 92,-147 -3,-3 -24,14 -48,36 -55,54 -124,97 -206,127 -81,31 -208,66 -237,66 -12,0 -44,-20 -72,-45 -156,-140 -118,-387 75,-481 41,-21 75,-29 135,-32 100,-6 90,-23 -16,-30 -183,-11 -353,105 -386,264 -23,108 13,228 90,303 24,23 41,43 39,45 -10,9 -214,27 -424,38 -339,17 -757,0 -1533,-62 -257,-20 -292,-18 -292,15 0,7 4,16 9,20 16,9 789,61 1266,85 273,13 879,5 1015,-15 z M 4635,1641 c 673,-47 1083,-61 1823,-61 758,0 1248,19 1842,70 274,24 280,24 280,5 0,-9 -21,-53 -47,-98 -155,-274 -288,-406 -445,-442 -292,-66 -863,-99 -1728,-99 -1028,1 -1662,49 -1819,141 -73,42 -178,150 -246,253 -81,124 -147,245 -137,255 8,8 48,6 477,-24 z M 2425,1450 c 865,-30 1131,-43 1150,-55 23,-14 51,-62 42,-71 -3,-4 -93,3 -199,15 -326,36 -470,47 -1133,91 -252,17 -430,31 -434,36 -4,4 54,2 574,-16 z m 8524,16 c -4,-5 -180,-19 -434,-36 -500,-33 -631,-42 -830,-60 -121,-11 -275,-27 -342,-35 -148,-18 -163,-18 -163,-2 0,7 13,27 29,45 28,29 35,32 92,32 33,0 280,9 548,20 267,11 603,24 746,29 143,4 282,9 309,9 27,1 47,0 45,-2 z M 3925,770 c 714,-47 1237,-60 2475,-60 1238,0 1761,13 2475,60 375,25 385,25 385,3 0,-11 -6,-25 -12,-30 -7,-6 -71,-13 -143,-17 -71,-4 -254,-13 -405,-21 -806,-42 -1113,-49 -2300,-49 -1187,0 -1494,7 -2300,49 -151,8 -333,17 -405,21 -71,4 -136,11 -142,17 -7,5 -13,19 -13,30 0,22 10,22 385,-3 z M 1515,535 c 847,-75 915,-79 1335,-80 400,0 470,5 653,47 49,11 91,17 95,13 10,-10 -37,-43 -94,-64 -195,-74 -656,-87 -1274,-36 -551,46 -1440,151 -1460,172 -9,10 228,-6 745,-52 z m 10514,50 c -20,-19 -930,-125 -1459,-170 -717,-59 -1212,-32 -1350,74 -37,29 -18,35 53,17 144,-36 263,-47 542,-53 380,-8 626,7 1585,91 217,20 415,37 440,39 74,6 194,7 189,2 z"
         id="path82" />
      <path
         d="m 736,4328 c -46,-73 -69,-243 -46,-351 18,-88 75,-192 140,-257 174,-174 442,-192 639,-44 58,43 139,139 128,150 -3,4 -21,-5 -39,-19 -195,-147 -476,-122 -653,57 -109,110 -159,242 -153,398 1,49 2,88 1,88 -2,0 -9,-10 -17,-22 z"
         id="path84" />
      <path
         d="m 2166,3788 c -3,-13 -6,-50 -6,-84 0,-120 78,-225 194,-259 62,-19 80,-19 145,1 45,13 139,79 128,90 -2,2 -28,-6 -58,-17 -103,-40 -231,-10 -301,70 -43,49 -78,129 -78,179 0,45 -14,57 -24,20 z"
         id="path86" />
      <path
         d="m 12048,4274 c 15,-278 -177,-519 -442,-557 -126,-18 -269,17 -364,89 -18,14 -36,23 -39,20 -11,-10 75,-113 125,-150 254,-186 598,-103 740,180 58,115 67,288 22,409 -35,95 -46,97 -42,9 z"
         id="path88" />
      <path
         d="m 10610,3767 c 0,-55 -49,-156 -93,-193 -85,-72 -190,-92 -289,-54 -28,11 -53,18 -55,16 -11,-11 83,-77 128,-90 65,-20 83,-20 145,-1 116,34 194,139 194,259 0,68 -8,106 -21,106 -5,0 -9,-20 -9,-43 z"
         id="path90" />
      <path
         d="m 3716,4324 c -9,-24 -7,-150 4,-244 16,-130 59,-292 99,-372 38,-77 67,-103 58,-52 -3,16 -14,171 -23,344 -9,173 -21,321 -27,328 -14,18 -103,16 -111,-4 z"
         id="path92" />
      <path
         d="m 3900,4303 c 0,-16 9,-185 21,-378 16,-266 24,-354 35,-366 8,-9 38,-29 66,-44 l 51,-28 -6,94 c -3,52 -14,231 -23,399 -10,168 -21,315 -25,328 -7,19 -16,22 -64,22 -53,0 -55,-1 -55,-27 z"
         id="path94" />
      <path
         d="m 4090,4288 c 0,-52 40,-748 46,-794 4,-39 7,-41 64,-62 l 60,-21 v 62 c 0,34 -4,127 -10,207 -5,80 -14,251 -21,380 -7,129 -16,241 -22,248 -5,7 -32,12 -63,12 h -54 z"
         id="path96" />
      <path
         d="m 4280,4273 c 1,-121 49,-876 56,-882 13,-12 105,-33 112,-26 7,7 -34,907 -43,933 -3,8 -25,12 -65,12 h -60 z"
         id="path98" />
      <path
         d="m 4470,4288 c 0,-32 40,-792 45,-865 l 7,-81 61,-11 c 33,-6 62,-9 64,-7 3,3 -12,300 -38,766 -6,107 -13,198 -15,202 -9,14 -124,9 -124,-4 z"
         id="path100" />
      <path
         d="m 6063,4293 c -20,-4 -23,-11 -23,-56 0,-81 42,-891 47,-897 6,-6 24,24 46,78 61,151 77,678 25,838 -11,33 -17,39 -43,40 -16,1 -40,0 -52,-3 z"
         id="path102" />
      <path
         d="m 4665,4238 c 3,-29 10,-143 15,-253 27,-566 33,-661 41,-670 5,-5 35,-10 66,-10 h 57 l -2,55 c -3,69 -20,415 -35,705 l -12,220 -68,3 -67,3 z"
         id="path104" />
      <path
         d="m 4866,4281 c -6,-9 17,-518 40,-887 l 6,-102 36,-6 c 21,-3 50,-6 66,-6 h 29 l -7,138 c -3,75 -11,223 -16,327 -6,105 -14,266 -19,358 -5,92 -10,170 -12,172 -11,10 -117,16 -123,6 z"
         id="path106" />
      <path
         d="m 5878,4283 c -21,-2 -38,-10 -38,-16 0,-43 42,-836 48,-897 l 7,-74 55,3 c 30,1 59,6 64,11 5,5 4,95 -3,207 -6,109 -15,295 -21,413 -6,118 -13,248 -16,288 -6,80 2,75 -96,65 z"
         id="path108" />
      <path
         d="m 5060,4218 c 0,-35 4,-133 9,-218 6,-85 15,-267 21,-405 15,-339 9,-311 76,-320 32,-4 60,-3 66,3 5,5 5,74 -1,178 -6,93 -15,277 -22,409 -6,132 -14,278 -18,325 l -6,85 -62,3 -63,3 z"
         id="path110" />
      <path
         d="m 5257,4273 c -3,-5 -1,-80 3,-168 5,-88 14,-263 20,-390 7,-126 15,-277 19,-335 l 6,-105 63,-3 62,-3 v 48 c 1,118 -42,920 -51,941 -7,19 -16,22 -63,22 -30,0 -57,-3 -59,-7 z"
         id="path112" />
      <path
         d="m 5454,4266 c -3,-8 -1,-108 5,-223 6,-114 16,-298 21,-408 13,-258 20,-349 30,-355 4,-3 34,-3 65,-2 l 57,4 -6,106 c -3,59 -11,197 -16,307 -20,389 -31,569 -36,577 -9,15 -114,9 -120,-6 z"
         id="path114" />
      <path
         d="m 5647,4273 c -2,-4 -1,-66 3,-138 5,-71 13,-240 20,-375 7,-135 15,-297 19,-360 l 6,-115 60,3 c 33,1 62,6 66,10 3,4 0,122 -8,262 -7,140 -19,359 -26,485 l -12,230 -62,3 c -34,2 -63,-1 -66,-5 z"
         id="path116" />
      <path
         d="m 8973,4328 c -6,-7 -18,-155 -27,-328 -9,-173 -20,-328 -23,-344 -9,-51 20,-25 58,52 60,120 109,358 109,528 0,99 -3,104 -60,104 -26,0 -52,-6 -57,-12 z"
         id="path118" />
      <path
         d="m 8781,4308 c -6,-18 -52,-731 -51,-801 0,-16 5,-16 50,9 27,15 56,34 64,43 10,12 19,104 35,366 12,193 21,362 21,378 0,26 -2,27 -55,27 -48,0 -57,-3 -64,-22 z"
         id="path120" />
      <path
         d="m 8593,4308 c -9,-11 -54,-738 -53,-855 v -43 l 52,20 c 28,11 56,24 61,29 9,9 56,683 57,814 v 47 h -54 c -31,0 -58,-5 -63,-12 z"
         id="path122" />
      <path
         d="m 8395,4298 c -3,-11 -12,-175 -43,-786 -4,-79 -4,-146 0,-148 9,-6 100,16 112,27 4,4 17,157 27,341 10,183 21,388 25,456 l 7,122 h -62 c -40,0 -63,-4 -66,-12 z"
         id="path124" />
      <path
         d="m 6653,4288 c -27,-32 -38,-155 -37,-408 0,-276 15,-388 64,-492 24,-52 40,-62 40,-25 0,12 9,223 22,469 12,246 20,450 17,453 -3,3 -26,8 -50,11 -32,4 -48,2 -56,-8 z"
         id="path126" />
      <path
         d="m 8206,4291 c -3,-4 -14,-181 -25,-392 -11,-211 -23,-428 -27,-482 l -6,-99 29,6 c 15,3 45,8 65,12 l 36,6 6,81 c 5,66 46,843 46,870 0,10 -118,9 -124,-2 z"
         id="path128" />
      <path
         d="m 6826,4218 c -3,-40 -10,-163 -16,-273 -5,-110 -15,-293 -21,-407 -6,-115 -9,-215 -5,-223 4,-11 21,-15 65,-15 h 59 l 6,93 c 12,172 47,880 44,882 -2,2 -31,6 -65,10 l -61,7 z"
         id="path130" />
      <path
         d="m 7843,4283 c -39,-5 -38,4 -53,-333 -6,-135 -16,-315 -21,-400 -5,-85 -9,-182 -9,-214 v -59 l 62,7 c 34,3 63,7 64,9 6,6 54,979 48,988 -5,9 -30,9 -91,2 z"
         id="path132" />
      <path
         d="m 8006,4278 c -2,-7 -9,-114 -15,-238 -24,-488 -31,-627 -35,-684 l -4,-58 59,4 c 33,2 63,9 68,14 5,5 18,207 30,449 12,242 22,458 24,480 l 2,40 -63,3 c -44,2 -63,-1 -66,-10 z"
         id="path134" />
      <path
         d="m 7025,4268 c -2,-7 -8,-119 -15,-248 -6,-129 -15,-309 -20,-400 -5,-91 -10,-201 -12,-245 l -3,-80 59,-9 c 71,-10 75,-5 77,79 0,33 10,248 22,477 12,230 21,422 19,428 -5,15 -122,13 -127,-2 z"
         id="path136" />
      <path
         d="m 7226,4272 c -5,-9 -16,-177 -36,-567 -5,-110 -13,-250 -16,-312 l -6,-111 57,-4 c 31,-1 61,0 66,3 11,6 64,962 55,985 -6,16 -111,20 -120,6 z"
         id="path138" />
      <path
         d="m 7423,4268 c -9,-12 -32,-413 -50,-845 l -6,-153 h 62 c 40,0 63,4 66,13 6,19 53,981 48,990 -7,12 -110,8 -120,-5 z"
         id="path140" />
      <path
         d="m 7616,4272 c -3,-5 -10,-98 -15,-208 -22,-419 -32,-622 -34,-704 l -2,-85 59,3 c 33,1 62,5 65,7 5,5 50,839 51,938 v 57 h -59 c -33,0 -62,-4 -65,-8 z"
         id="path142" />
    </g>
  </g>
</svg>
