<?xml version="1.0" encoding="UTF-8" standalone="no"?>
<svg id="svg4145" xmlns:rdf="http://www.w3.org/1999/02/22-rdf-syntax-ns#" xmlns="http://www.w3.org/2000/svg" height="40" width="40" version="1.1" xmlns:cc="http://creativecommons.org/ns#" xmlns:dc="http://purl.org/dc/elements/1.1/" viewBox="0 0 40 40">
 <g id="layer1">
  <path id="background" d="m20.002 3.6816-1.1309 3.3906a12.374 12.374 0 0 1 1.1309 -0.0625 12.374 12.374 0 0 1 1.1289 0.056641l-1.129-3.3847zm-0.002 3.9434a12.374 12.374 0 0 0 -12.375 12.375 12.374 12.374 0 0 0 12.375 12.375 12.374 12.374 0 0 0 12.375 -12.375 12.374 12.374 0 0 0 -12.375 -12.375z" stroke="#333" stroke-width="1.9" fill="#008000"/>
  <path id="icon" stroke-width=".78953" d="m20 11.146c-2.1317 5.5267-6.3162 6.785-6.3162 6.785l6.316 1.9v-8.685zm0 8.6848h-6.711v0.64149c0 0.93043 0.77808 1.7633 1.8011 2.3686-0.36215 0.12387-0.72989 0.14804-1.0116 0.14804-0.55267 0-1.4212-0.15791-1.9738-0.78953v1.5791c0.55267 0.63162 1.4212 0.78953 1.9738 0.78953 0.55267 0 1.4212-0.15791 1.9738-0.78953 0.55267 0.63162 1.4212 0.78953 1.9738 0.78953 0.55267 0 1.4212-0.15791 1.9738-0.78953 0.55267 0.63162 1.4212 0.78953 1.9738 0.78953 0.55267 0 1.4212-0.15791 1.9738-0.78953 0.55267 0.63162 1.4212 0.78953 1.9738 0.78953 0.55267 0 1.4212-0.15791 1.9738-0.78953v-1.5791c-0.55267 0.63162-1.4212 0.78953-1.9738 0.78953-0.39586 0-0.94322-0.09201-1.431-0.37009 1.0794-0.59227 2.1544-1.4653 2.9361-2.788h-2.6893-4.7372zm4.7372 0s0.0099-4.0167-3.3062-7.2538c0.63162 4.3424-0.64149 5.9215-0.64149 5.9215l3.9476 1.3323zm-12.632 4.7372v1.5791c0.55267 0.63162 1.4212 0.78953 1.9738 0.78953 0.55267 0 1.4212-0.1579 1.9738-0.78953 0.55267 0.63162 1.4212 0.78953 1.9738 0.78953 0.55267 0 1.4212-0.1579 1.9738-0.78953 0.55267 0.63162 1.4212 0.78953 1.9738 0.78953 0.55267 0 1.4212-0.1579 1.9738-0.78953 0.55267 0.63162 1.4212 0.78953 1.9738 0.78953 0.55267 0 1.4212-0.1579 1.9738-0.78953v-1.5791c-0.55267 0.63162-1.4212 0.78953-1.9738 0.78953-0.55267 0-1.4212-0.1579-1.9738-0.78953-0.55267 0.63162-1.4212 0.78953-1.9738 0.78953-0.55267 0-1.4212-0.1579-1.9738-0.78953-0.55267 0.63162-1.4212 0.78953-1.9738 0.78953-0.55267 0-1.4212-0.1579-1.9738-0.78953-0.55267 0.63162-1.4212 0.78953-1.9738 0.78953-0.55267 0-1.4212-0.1579-1.9738-0.78953z"/>
 </g>
</svg>
