<?xml version="1.0" encoding="UTF-8" standalone="no"?>

<svg
   xmlns:dc="http://purl.org/dc/elements/1.1/"
   xmlns:cc="http://creativecommons.org/ns#"
   xmlns:rdf="http://www.w3.org/1999/02/22-rdf-syntax-ns#"
   xmlns:svg="http://www.w3.org/2000/svg"
   xmlns="http://www.w3.org/2000/svg"
   xmlns:sodipodi="http://sodipodi.sourceforge.net/DTD/sodipodi-0.dtd"
   width="40"
   height="40"
   viewBox="0 0 40 40"
   id="svg4145"
   version="1.1"
   sodipodi:docname="boat.svg">
  <defs
     id="defs4147" />
  <sodipodi:namedview
     id="base"
     pagecolor="#ffffff"
     bordercolor="#666666"
     borderopacity="1.0"
     showgrid="false"
     units="px" />
  <metadata
     id="metadata4150">
    <rdf:RDF>
      <cc:Work
         rdf:about="">
        <dc:format>image/svg+xml</dc:format>
        <dc:type
           rdf:resource="http://purl.org/dc/dcmitype/StillImage" />
        <dc:title />
      </cc:Work>
    </rdf:RDF>
  </metadata>
  <g
     id="layer1">
    <path
       style="fill:#008000;fill-opacity:1;stroke:#333333;stroke-width:1.89999998;stroke-miterlimit:4;stroke-dasharray:none;stroke-opacity:1"
       d="m 20.001953,3.6816406 -1.130859,3.390625 a 12.37437,12.37437 0 0 1 1.130859,-0.0625 12.37437,12.37437 0 0 1 1.128906,0.056641 L 20.001953,3.6816406 Z M 20,7.625 A 12.37437,12.37437 0 0 0 7.625,20 12.37437,12.37437 0 0 0 20,32.375 12.37437,12.37437 0 0 0 32.375,20 12.37437,12.37437 0 0 0 20,7.625 Z"
       id="background" />
    <path
       style="stroke-width:0.78952903"
       d="m 20,11.145921 c -2.131729,5.526703 -6.316232,6.785015 -6.316232,6.785015 L 20,19.83074 20,11.145921 Z m 0,8.684819 -6.710997,0 0,0.641492 c 0,0.930433 0.778079,1.763278 1.801113,2.368588 -0.362154,0.123868 -0.729886,0.148037 -1.011584,0.148037 -0.55267,0 -1.421153,-0.157906 -1.973822,-0.789529 l 0,1.579058 c 0.552669,0.631623 1.421152,0.789529 1.973822,0.789529 0.55267,0 1.421153,-0.157906 1.973822,-0.789529 0.552671,0.631623 1.421153,0.789529 1.973823,0.789529 0.552671,0 1.421152,-0.157906 1.973823,-0.789529 0.552671,0.631623 1.421152,0.789529 1.973823,0.789529 0.55267,0 1.421152,-0.157906 1.973823,-0.789529 0.552669,0.631623 1.421152,0.789529 1.973822,0.789529 0.55267,0 1.421153,-0.157906 1.973822,-0.789529 l 0,-1.579058 c -0.552669,0.631623 -1.421152,0.789529 -1.973822,0.789529 -0.395858,0 -0.94322,-0.09201 -1.431022,-0.370092 1.079388,-0.59227 2.154428,-1.46526 2.936061,-2.788025 l -2.689332,0 -4.737175,0 z m 4.737175,0 c 0,0 0.0099,-4.016729 -3.306154,-7.253798 0.631624,4.342409 -0.641492,5.921468 -0.641492,5.921468 l 3.947646,1.33233 z m -12.632465,4.737175 0,1.579057 c 0.552669,0.631624 1.421152,0.789529 1.973822,0.789529 0.55267,0 1.421153,-0.157905 1.973822,-0.789529 0.552671,0.631624 1.421153,0.789529 1.973823,0.789529 0.552671,0 1.421152,-0.157905 1.973823,-0.789529 0.552671,0.631624 1.421152,0.789529 1.973823,0.789529 0.55267,0 1.421152,-0.157905 1.973823,-0.789529 0.552669,0.631624 1.421152,0.789529 1.973822,0.789529 0.55267,0 1.421153,-0.157905 1.973822,-0.789529 l 0,-1.579057 c -0.552669,0.631623 -1.421152,0.789528 -1.973822,0.789528 -0.55267,0 -1.421153,-0.157905 -1.973822,-0.789528 -0.552671,0.631623 -1.421153,0.789528 -1.973823,0.789528 -0.552671,0 -1.421152,-0.157905 -1.973823,-0.789528 -0.552671,0.631623 -1.421152,0.789528 -1.973823,0.789528 -0.55267,0 -1.421152,-0.157905 -1.973823,-0.789528 -0.552669,0.631623 -1.421152,0.789528 -1.973822,0.789528 -0.55267,0 -1.421153,-0.157905 -1.973822,-0.789528 z"
       id="icon" />
  </g>
</svg>
