<?xml version="1.0" encoding="UTF-8" standalone="no"?>
<svg id="svg4145" xmlns:rdf="http://www.w3.org/1999/02/22-rdf-syntax-ns#" xmlns="http://www.w3.org/2000/svg" height="40" width="40" version="1.1" xmlns:cc="http://creativecommons.org/ns#" xmlns:dc="http://purl.org/dc/elements/1.1/" viewBox="0 0 40 40">
 <g id="layer1">
  <path id="background" d="m20.002 3.6816l-1.131 3.3907a12.374 12.374 0 0 1 1.131 -0.0625 12.374 12.374 0 0 1 1.129 0.0566l-1.129-3.3848zm-0.002 3.9434a12.374 12.374 0 0 0 -12.375 12.375 12.374 12.374 0 0 0 12.375 12.375 12.374 12.374 0 0 0 12.375 -12.375 12.374 12.374 0 0 0 -12.375 -12.375z" stroke="#333" stroke-width="1.9" fill="#008000"/>
  <path id="icon" d="m16.144 23.756q0.34724-0.34724 0.34724-0.83154t-0.34724-0.8224q-0.3381-0.34724-0.8224-0.34724-0.48431 0-0.83154 0.34724-0.3381 0.3381-0.3381 0.8224 0 0.48431 0.3381 0.83154 0.34724 0.3381 0.83154 0.3381t0.8224-0.3381zm9.3571 0q0.34724-0.34724 0.34724-0.83154t-0.34724-0.8224q-0.3381-0.34724-0.8224-0.34724-0.48431 0-0.83154 0.34724-0.3381 0.3381-0.3381 0.8224 0 0.48431 0.3381 0.83154 0.34724 0.3381 0.83154 0.3381t0.8224-0.3381zm-0.0731-4.4501-0.65793-3.5089q-0.04569-0.21017-0.21017-0.3381-0.15534-0.13707-0.36551-0.13707h-8.3885q-0.21017 0-0.37465 0.13707-0.15534 0.12793-0.20103 0.3381l-0.65792 3.5089q-0.046 0.274 0.128 0.484t0.448 0.21h9.7044q0.27414 0 0.44775-0.21017 0.17362-0.21017 0.12794-0.48431zm-2.193-5.282q0.12794-0.12794 0.12794-0.31069 0-0.18276-0.12794-0.31069-0.12793-0.12794-0.31069-0.12794h-5.8482q-0.18276 0-0.31069 0.12794-0.12793 0.12793-0.12793 0.31069t0.12793 0.31069q0.12794 0.12794 0.31069 0.12794h5.8482q0.18276 0 0.31069-0.12794zm3.7831 6.3142v5.5101h-1.1696v1.1696q0 0.48431-0.34724 0.8224-0.3381 0.34724-0.8224 0.34724-0.48431 0-0.83154-0.34724-0.3381-0.3381-0.3381-0.8224v-1.1696h-7.0179v1.1696q0 0.48431-0.34724 0.8224-0.3381 0.34724-0.8224 0.34724-0.48431 0-0.83154-0.34724-0.3381-0.3381-0.3381-0.8224v-1.1696h-1.1696v-5.5101q0-1.0234 0.22844-2.0377l0.9412-4.1486q0.08224-0.71275 0.88637-1.2519 0.81327-0.53913 2.1017-0.81327 1.2976-0.27414 2.8601-0.27414 1.5626 0 2.851 0.27414 1.2976 0.27413 2.1017 0.81327 0.81327 0.53913 0.89551 1.2519l0.95948 4.1486q0.21017 0.93206 0.21017 2.0377z"/>
 </g>
</svg>
