<?xml version="1.0" encoding="UTF-8" standalone="no"?>
<!-- Created with Inkscape (http://www.inkscape.org/) -->

<svg
   xmlns:dc="http://purl.org/dc/elements/1.1/"
   xmlns:cc="http://creativecommons.org/ns#"
   xmlns:rdf="http://www.w3.org/1999/02/22-rdf-syntax-ns#"
   xmlns:svg="http://www.w3.org/2000/svg"
   xmlns="http://www.w3.org/2000/svg"
   xmlns:sodipodi="http://sodipodi.sourceforge.net/DTD/sodipodi-0.dtd"
   xmlns:inkscape="http://www.inkscape.org/namespaces/inkscape"
   width="50"
   height="50"
   viewBox="0 0 50.000001 50.000001"
   id="svg2"
   version="1.1"
   inkscape:version="0.91 r13725"
   sodipodi:docname="bus.svg">
  <defs
     id="defs4" />
  <sodipodi:namedview
     id="base"
     pagecolor="#ffffff"
     bordercolor="#666666"
     borderopacity="1.0"
     inkscape:pageopacity="0.0"
     inkscape:pageshadow="2"
     inkscape:zoom="16"
     inkscape:cx="24.67596"
     inkscape:cy="22.389227"
     inkscape:document-units="px"
     inkscape:current-layer="layer2"
     showgrid="false"
     units="px"
     inkscape:window-width="1920"
     inkscape:window-height="981"
     inkscape:window-x="0"
     inkscape:window-y="0"
     inkscape:window-maximized="1" />
  <metadata
     id="metadata7">
    <rdf:RDF>
      <cc:Work
         rdf:about="">
        <dc:format>image/svg+xml</dc:format>
        <dc:type
           rdf:resource="http://purl.org/dc/dcmitype/StillImage" />
        <dc:title />
        <cc:license
           rdf:resource="http://creativecommons.org/licenses/by-sa/3.0/" />
      </cc:Work>
      <cc:License
         rdf:about="http://creativecommons.org/licenses/by-sa/3.0/">
        <cc:permits
           rdf:resource="http://creativecommons.org/ns#Reproduction" />
        <cc:permits
           rdf:resource="http://creativecommons.org/ns#Distribution" />
        <cc:requires
           rdf:resource="http://creativecommons.org/ns#Notice" />
        <cc:requires
           rdf:resource="http://creativecommons.org/ns#Attribution" />
        <cc:permits
           rdf:resource="http://creativecommons.org/ns#DerivativeWorks" />
        <cc:requires
           rdf:resource="http://creativecommons.org/ns#ShareAlike" />
      </cc:License>
    </rdf:RDF>
  </metadata>
  <g
     inkscape:groupmode="layer"
     id="layer2"
     inkscape:label="Layer 2">
    <path
       style="opacity:1;fill:#008000;fill-opacity:1;stroke:#000000;stroke-width:0.9;stroke-miterlimit:4;stroke-dasharray:none"
       d="m 24.835938,15 c -2.029405,0.104367 -4.224031,0.194416 -5.955099,1.384579 -0.967027,0.625001 -0.992823,1.834875 -1.313127,2.824078 -0.634042,2.314087 -1.159315,4.692966 -1.065749,7.106185 -0.0078,1.92435 -0.01563,3.848699 -0.02345,5.773049 0.488281,-0.0013 0.976562,-0.0026 1.464843,-0.0039 0.06247,0.821104 -0.222941,1.763667 0.355267,2.45298 0.725171,0.850603 2.364263,0.385698 2.379597,-0.787667 0.01539,-0.547653 6.57e-4,-1.095919 0.0034,-1.643828 2.901042,-0.0039 5.802083,-0.0078 8.703125,-0.01172 0.04124,0.736959 -0.129081,1.507503 0.114137,2.214921 0.525411,1.082242 2.49727,0.850284 2.589362,-0.416067 0.01489,-0.602538 -0.0036,-1.205791 -0.0024,-1.80862 0.479167,0.002 0.958333,0.0039 1.4375,0.0059 -0.01716,-2.624357 0.02704,-5.250153 -0.03272,-7.87352 C 33.334549,21.925736 32.563956,19.744982 32.054629,17.52153 31.45137,16.048265 29.736634,15.607466 28.321878,15.325483 27.171936,15.117024 26.002455,15.037677 24.835938,15 Z"
       id="path4200"
       inkscape:connector-curvature="0" />
    <path
       style="opacity:1;fill:#f2f2f2;fill-opacity:1;stroke:#000000;stroke-width:0.9;stroke-miterlimit:4;stroke-dasharray:none"
       d="m 28.615234,16.751953 c 0.419884,-0.0036 0.634905,0.382734 0.640625,0.771485 0.0057,0.38875 -0.198295,0.779803 -0.61914,0.783203 l -7.25,-0.03906 c -0.363434,-2.31e-4 -0.540727,-0.374859 -0.533203,-0.748047 0.0075,-0.373187 0.20013,-0.745337 0.574218,-0.742187 l 7.1875,-0.02539 z"
       id="path4198" />
    <path
       style="opacity:1;fill:#008000;fill-opacity:1;stroke:#000000;stroke-width:0.9;stroke-miterlimit:4;stroke-dasharray:none"
       d="m 30.064453,19.763672 c 0.367262,0.01971 0.556422,0.129342 0.662109,0.257812 0.105688,0.12847 0.128063,0.27555 0.164063,0.375 l 0.791016,3.763672 c -0.0052,0.350719 -0.09591,0.53281 -0.220703,0.644532 -0.124796,0.111721 -0.284137,0.152687 -0.431641,0.21875 l -12.011719,-0.01953 c -0.180791,-0.004 -0.334209,-0.05515 -0.445312,-0.183594 -0.111104,-0.128447 -0.179665,-0.333593 -0.1875,-0.646484 l 0.804687,-3.892578 c 0.08303,-0.192819 0.216257,-0.474296 0.730469,-0.509766 l 10.144531,-0.0078 z"
       id="path4196" />
    <path
       style="opacity:1;fill:#f2f2f2;fill-opacity:1;stroke:#000000;stroke-width:0.9;stroke-miterlimit:4;stroke-dasharray:none"
       d="m 30.699219,27.105469 c 0.678139,-0.01219 1.31348,0.51714 1.422706,1.186688 0.125573,0.631851 -0.238002,1.312303 -0.828117,1.56677 -0.586035,0.275196 -1.340663,0.09168 -1.733251,-0.423637 -0.418234,-0.509187 -0.407572,-1.306388 0.02181,-1.80562 0.270416,-0.329597 0.690327,-0.527309 1.116857,-0.524201 z"
       id="path4194"
       inkscape:connector-curvature="0" />
    <path
       style="opacity:1;fill:#f2f2f2;fill-opacity:1;stroke:#000000;stroke-width:0.9;stroke-miterlimit:4;stroke-dasharray:none"
       d="m 19.335938,27.111328 c 0.665875,-0.01325 1.294092,0.494428 1.41792,1.149271 0.137989,0.617714 -0.191102,1.29637 -0.759018,1.574081 -0.583075,0.309284 -1.3635,0.149537 -1.775759,-0.366694 -0.429377,-0.499232 -0.440039,-1.296433 -0.02181,-1.80562 0.269487,-0.345034 0.700603,-0.554527 1.138662,-0.551038 z"
       id="path4181"
       inkscape:connector-curvature="0" />
    <path
       style="opacity:1;fill:#f2f2f2;fill-opacity:1;stroke:#000000;stroke-width:0.9;stroke-miterlimit:4;stroke-dasharray:none"
       d="M 30.064453 19.763672 L 19.919922 19.771484 C 19.40571 19.806954 19.272482 20.088431 19.189453 20.28125 L 18.384766 24.173828 C 18.392601 24.486719 18.461162 24.691865 18.572266 24.820312 C 18.683369 24.94876 18.836787 24.99987 19.017578 25.003906 L 31.029297 25.023438 C 31.176801 24.957375 31.336142 24.916409 31.460938 24.804688 C 31.585733 24.692966 31.67646 24.510875 31.681641 24.160156 L 30.890625 20.396484 C 30.854625 20.297034 30.83225 20.149954 30.726562 20.021484 C 30.620875 19.893014 30.431715 19.783384 30.064453 19.763672 z "
       id="path4185" />
    <path
       style="opacity:1;fill:#008000;fill-opacity:1;stroke:#000000;stroke-width:1;stroke-miterlimit:4;stroke-dasharray:none"
       d="M 24.861328,1.5332031 C 22.988281,4.0058594 21.115235,6.4785156 19.242188,8.9511719 12.384811,11.305004 7.56648,18.411829 7.9656275,25.658945 8.1243699,33.146749 13.834,40.035153 21.150251,41.610345 28.126748,43.324765 35.941754,40.043911 39.57889,33.839327 43.471367,27.647386 42.664931,19.005572 37.705569,13.635688 35.848955,11.500603 33.373153,9.9676699 30.796754,8.9051796 28.818278,6.4478541 26.839803,3.9905286 24.861328,1.5332031 Z M 25,10.445312 C 31.718978,10.31196 38.025287,15.466156 39.259766,22.066406 40.645829,28.295943 37.349871,35.1464 31.626829,37.963035 25.868939,41.028841 18.176824,39.535013 13.993847,34.52613 9.5491383,29.57914 9.2593433,21.544158 13.337144,16.290647 16.025561,12.64863 20.469187,10.408583 25,10.445312 Z"
       id="path4148"
       inkscape:connector-curvature="0" />
  </g>
</svg>
