<?xml version="1.0" encoding="UTF-8" standalone="no"?>
<!-- Created with Inkscape (http://www.inkscape.org/) -->

<svg
   xmlns:dc="http://purl.org/dc/elements/1.1/"
   xmlns:cc="http://creativecommons.org/ns#"
   xmlns:rdf="http://www.w3.org/1999/02/22-rdf-syntax-ns#"
   xmlns:svg="http://www.w3.org/2000/svg"
   xmlns="http://www.w3.org/2000/svg"
   xmlns:sodipodi="http://sodipodi.sourceforge.net/DTD/sodipodi-0.dtd"
   xmlns:inkscape="http://www.inkscape.org/namespaces/inkscape"
   width="50"
   height="50"
   viewBox="0 0 50.000001 50.000001"
   id="svg2"
   version="1.1"
   inkscape:version="0.91 r13725"
   sodipodi:docname="bus.svg">
  <defs
     id="defs4" />
  <sodipodi:namedview
     id="base"
     pagecolor="#ffffff"
     bordercolor="#666666"
     borderopacity="1.0"
     inkscape:pageopacity="0.0"
     inkscape:pageshadow="2"
     inkscape:zoom="7.9999999"
     inkscape:cx="-4.2362527"
     inkscape:cy="18.152102"
     inkscape:document-units="px"
     inkscape:current-layer="layer2"
     showgrid="false"
     units="px"
     inkscape:window-width="1920"
     inkscape:window-height="981"
     inkscape:window-x="0"
     inkscape:window-y="0"
     inkscape:window-maximized="1" />
  <metadata
     id="metadata7">
    <rdf:RDF>
      <cc:Work
         rdf:about="">
        <dc:format>image/svg+xml</dc:format>
        <dc:type
           rdf:resource="http://purl.org/dc/dcmitype/StillImage" />
        <dc:title />
        <cc:license
           rdf:resource="http://creativecommons.org/licenses/by-sa/3.0/" />
      </cc:Work>
      <cc:License
         rdf:about="http://creativecommons.org/licenses/by-sa/3.0/">
        <cc:permits
           rdf:resource="http://creativecommons.org/ns#Reproduction" />
        <cc:permits
           rdf:resource="http://creativecommons.org/ns#Distribution" />
        <cc:requires
           rdf:resource="http://creativecommons.org/ns#Notice" />
        <cc:requires
           rdf:resource="http://creativecommons.org/ns#Attribution" />
        <cc:permits
           rdf:resource="http://creativecommons.org/ns#DerivativeWorks" />
        <cc:requires
           rdf:resource="http://creativecommons.org/ns#ShareAlike" />
      </cc:License>
    </rdf:RDF>
  </metadata>
  <g
     inkscape:groupmode="layer"
     id="layer2"
     inkscape:label="Layer 2">
    <path
       style="opacity:1;fill:#ff5468;fill-opacity:1;stroke:#000000;stroke-width:1;stroke-miterlimit:4;stroke-dasharray:none"
       d="M 42.046474,25 C 42.046474,34.414508 34.414508,42.046474 25,42.046474 15.585492,42.046474 7.9535258,34.414508 7.9535255,25 7.9535253,17.60606 12.661055,11.311623 19.242451,8.9503498 l 5.619408,-7.4180155 6.003402,7.4570729 C 37.390248,11.380441 42.046474,17.64646 42.046474,25 Z"
       id="path4148"
       inkscape:connector-curvature="0"
       sodipodi:nodetypes="ssscccs" />
    <path
       style="opacity:1;fill:#ffffff;fill-opacity:1;stroke:#000000;stroke-width:0.8434273;stroke-miterlimit:4;stroke-dasharray:none"
       d="M 25,10.444761 C 16.961442,10.444954 10.444954,16.961442 10.444761,25 10.444954,33.038558 16.961442,39.555046 25,39.555239 33.038558,39.555046 39.555046,33.038558 39.555239,25 39.555046,16.961442 33.038558,10.444954 25,10.444761 Z m -0.164733,4.556013 0.0024,0 c 3.155084,0.0979 6.515016,0.567167 7.217613,2.520398 0.583475,2.537942 1.473743,4.963655 1.461405,7.532955 l 0.0071,7.036405 -1.437875,-0.0071 0.0094,1.656732 c 0.0036,1.678026 -2.685458,1.674435 -2.725136,0.02824 l 0.01412,-1.675559 -8.70255,0.01181 0.0047,1.475528 c 0.0035,1.863548 -2.688814,1.852016 -2.751022,0.01181 l 0.0071,-1.508474 -1.463761,0.0047 0.02824,-7.212904 c 0.150002,-2.626816 0.92017,-5.079313 1.543772,-7.476474 0.814705,-1.822141 3.854148,-2.309935 6.7846,-2.398025 z m 3.779421,1.750865 -7.187017,0.02589 c -0.748177,-0.0063 -0.767618,1.489368 -0.04075,1.489831 L 28.6366,18.3065 c 0.84169,-0.0068 0.817847,-1.561956 -0.02192,-1.554848 z m 1.449641,3.012147 -10.145131,0.0071 c -0.514212,0.03547 -0.646498,0.31785 -0.729527,0.510669 l -0.804832,3.892472 c 0.01567,0.625782 0.271458,0.822646 0.63304,0.830719 l 12.011308,0.01883 c 0.295009,-0.132124 0.641506,-0.162229 0.651867,-0.863667 l -0.790712,-3.763037 c -0.072,-0.198901 -0.09149,-0.593618 -0.826013,-0.633043 z m 0.635395,7.342429 c -0.799321,-4.68e-4 -1.447491,0.64454 -1.447287,1.440227 -2.04e-4,0.795688 0.647966,1.440697 1.447287,1.440228 0.798401,-8.25e-4 1.445138,-0.645454 1.444934,-1.440228 2.04e-4,-0.794772 -0.646533,-1.439401 -1.444934,-1.440227 z m -11.364148,0.0047 c -0.799321,-4.69e-4 -1.447491,0.644541 -1.447287,1.440228 -2.04e-4,0.795687 0.647966,1.440695 1.447287,1.440227 0.799321,4.68e-4 1.447492,-0.64454 1.447287,-1.440227 2.05e-4,-0.795687 -0.647966,-1.440697 -1.447287,-1.440228 z"
       id="path4179"
       inkscape:connector-curvature="0"
       sodipodi:nodetypes="cccccccccccccccccccccccccccccccccccccccccccccc" />
  </g>
</svg>
