<?xml version="1.0" encoding="UTF-8" standalone="no"?>

<svg
   xmlns:dc="http://purl.org/dc/elements/1.1/"
   xmlns:cc="http://creativecommons.org/ns#"
   xmlns:rdf="http://www.w3.org/1999/02/22-rdf-syntax-ns#"
   xmlns:svg="http://www.w3.org/2000/svg"
   xmlns="http://www.w3.org/2000/svg"
   xmlns:sodipodi="http://sodipodi.sourceforge.net/DTD/sodipodi-0.dtd"
   width="40"
   height="40"
   viewBox="0 0 40 40"
   id="svg4145"
   version="1.1"
   sodipodi:docname="bus.svg">
  <defs
     id="defs4147" />
  <sodipodi:namedview
     id="base"
     pagecolor="#ffffff"
     bordercolor="#666666"
     borderopacity="1.0"
     showgrid="false"
     units="px" />
  <metadata
     id="metadata4150">
    <rdf:RDF>
      <cc:Work
         rdf:about="">
        <dc:format>image/svg+xml</dc:format>
        <dc:type
           rdf:resource="http://purl.org/dc/dcmitype/StillImage" />
        <dc:title></dc:title>
      </cc:Work>
    </rdf:RDF>
  </metadata>
  <g
     id="layer1">
    <path
       style="fill:#008000;fill-opacity:1;stroke:#333333;stroke-width:1.89999998;stroke-miterlimit:4;stroke-dasharray:none;stroke-opacity:1"
       d="M 20.001953 3.6816406 L 18.871094 7.0722656 A 12.37437 12.37437 0 0 1 20.001953 7.0097656 A 12.37437 12.37437 0 0 1 21.130859 7.0664062 L 20.001953 3.6816406 z M 20 7.625 A 12.37437 12.37437 0 0 0 7.625 20 A 12.37437 12.37437 0 0 0 20 32.375 A 12.37437 12.37437 0 0 0 32.375 20 A 12.37437 12.37437 0 0 0 20 7.625 z "
       id="background" />
    <path
       id="icon"
       style="font-style:normal;font-variant:normal;font-weight:normal;font-stretch:normal;font-size:medium;line-height:125%;font-family:FontAwesome;-inkscape-font-specification:'FontAwesome, Normal';text-align:start;letter-spacing:0px;word-spacing:0px;writing-mode:lr-tb;text-anchor:start;fill:#000000;fill-opacity:1;stroke:none;stroke-width:1.31000006px;stroke-linecap:butt;stroke-linejoin:miter;stroke-opacity:1"
       d="m 16.143829,23.755651 q 0.347238,-0.347238 0.347238,-0.831544 0,-0.484305 -0.347238,-0.822405 -0.338101,-0.347237 -0.822405,-0.347237 -0.484306,0 -0.831543,0.347237 -0.3381,0.3381 -0.3381,0.822405 0,0.484306 0.3381,0.831544 0.347237,0.338099 0.831543,0.338099 0.484304,0 0.822405,-0.338099 z m 9.357143,0 q 0.347237,-0.347238 0.347237,-0.831544 0,-0.484305 -0.347237,-0.822405 -0.3381,-0.347237 -0.822405,-0.347237 -0.484306,0 -0.831544,0.347237 -0.338099,0.3381 -0.338099,0.822405 0,0.484306 0.338099,0.831544 0.347238,0.338099 0.831544,0.338099 0.484305,0 0.822405,-0.338099 z m -0.0731,-4.450127 -0.657926,-3.508928 q -0.04569,-0.210169 -0.210169,-0.3381 -0.155343,-0.137067 -0.365514,-0.137067 l -8.388533,0 q -0.21017,0 -0.37465,0.137067 -0.155343,0.127934 -0.201033,0.3381 l -0.657924,3.508928 Q 14.526432,19.57966 14.70006,19.78983 14.873679,20 15.147814,20 l 9.70438,0 q 0.274136,0 0.447754,-0.21017 0.17362,-0.21017 0.127935,-0.484306 z M 23.23479,14.023856 q 0.127935,-0.127935 0.127935,-0.310686 0,-0.182757 -0.127935,-0.310686 -0.127934,-0.127935 -0.310686,-0.127935 l -5.848213,0 q -0.182757,0 -0.310688,0.127935 -0.127934,0.127934 -0.127934,0.310686 0,0.182757 0.127934,0.310686 0.127935,0.127935 0.310688,0.127935 l 5.848213,0 q 0.182757,0 0.310686,-0.127935 z m 3.783065,6.314245 0,5.510114 -1.169644,0 0,1.169642 q 0,0.484306 -0.347237,0.822405 -0.3381,0.347238 -0.822405,0.347238 -0.484306,0 -0.831544,-0.347238 -0.338099,-0.338099 -0.338099,-0.822405 l 0,-1.169642 -7.017857,0 0,1.169642 q 0,0.484306 -0.347238,0.822405 -0.338101,0.347238 -0.822405,0.347238 -0.484306,0 -0.831544,-0.347238 -0.338099,-0.338099 -0.338099,-0.822405 l 0,-1.169642 -1.169642,0 0,-5.510114 q 0,-1.023438 0.228445,-2.037738 l 0.941197,-4.148578 q 0.08224,-0.71275 0.88637,-1.251883 0.813268,-0.539132 2.101702,-0.813266 1.297568,-0.274136 2.860138,-0.274136 1.56257,0 2.851005,0.274136 1.297572,0.274134 2.101701,0.813266 0.813268,0.539133 0.895508,1.251883 l 0.959475,4.148578 q 0.210169,0.93206 0.210169,2.037738 z" />
  </g>
</svg>
