<?xml version="1.0" encoding="UTF-8" standalone="no"?>
<!-- Created with Inkscape (http://www.inkscape.org/) -->

<svg
   xmlns:dc="http://purl.org/dc/elements/1.1/"
   xmlns:cc="http://creativecommons.org/ns#"
   xmlns:rdf="http://www.w3.org/1999/02/22-rdf-syntax-ns#"
   xmlns:svg="http://www.w3.org/2000/svg"
   xmlns="http://www.w3.org/2000/svg"
   xmlns:sodipodi="http://sodipodi.sourceforge.net/DTD/sodipodi-0.dtd"
   xmlns:inkscape="http://www.inkscape.org/namespaces/inkscape"
   width="40"
   height="40"
   viewBox="0 0 40 40"
   id="svg4145"
   version="1.1"
   inkscape:version="0.91 r13725"
   sodipodi:docname="bus.svg">
  <defs
     id="defs4147" />
  <sodipodi:namedview
     id="base"
     pagecolor="#ffffff"
     bordercolor="#666666"
     borderopacity="1.0"
     inkscape:pageopacity="0.0"
     inkscape:pageshadow="2"
     inkscape:zoom="11.313708"
     inkscape:cx="-29.149417"
     inkscape:cy="17.209557"
     inkscape:document-units="px"
     inkscape:current-layer="layer1"
     showgrid="false"
     units="px"
     inkscape:window-width="1920"
     inkscape:window-height="981"
     inkscape:window-x="0"
     inkscape:window-y="0"
     inkscape:window-maximized="1" />
  <metadata
     id="metadata4150">
    <rdf:RDF>
      <cc:Work
         rdf:about="">
        <dc:format>image/svg+xml</dc:format>
        <dc:type
           rdf:resource="http://purl.org/dc/dcmitype/StillImage" />
        <dc:title />
      </cc:Work>
    </rdf:RDF>
  </metadata>
  <g
     inkscape:label="Layer 1"
     inkscape:groupmode="layer"
     id="layer1">
    <path
       style="fill:#008000;fill-opacity:1;stroke:#000000;stroke-width:0.94994837;stroke-miterlimit:4;stroke-dasharray:none;stroke-opacity:1"
       d="m 33.525025,20 c 0,7.469665 -6.05536,13.525025 -13.525025,13.525025 -7.469665,0 -13.5250252,-6.05536 -13.5250254,-13.525025 -2e-7,-5.309252 3.0591749,-9.903995 7.5109944,-12.117699 L 20,1.4749746 26.049865,7.9001866 C 30.482258,10.120688 33.525025,14.705006 33.525025,20 Z"
       id="path4724"
       inkscape:connector-curvature="0"
       sodipodi:nodetypes="ssscccs" />
    <path
       inkscape:connector-curvature="0"
       id="path4477"
       style="font-style:normal;font-variant:normal;font-weight:normal;font-stretch:normal;font-size:medium;line-height:125%;font-family:FontAwesome;-inkscape-font-specification:'FontAwesome, Normal';text-align:start;letter-spacing:0px;word-spacing:0px;writing-mode:lr-tb;text-anchor:start;fill:#000000;fill-opacity:1;stroke:none;stroke-width:1px;stroke-linecap:butt;stroke-linejoin:miter;stroke-opacity:1"
       d="m 17.056362,22.866908 q 0.265067,-0.265067 0.265067,-0.634766 0,-0.369699 -0.265067,-0.62779 -0.258092,-0.265067 -0.62779,-0.265067 -0.369699,0 -0.634766,0.265067 -0.258091,0.258091 -0.258091,0.62779 0,0.369699 0.258091,0.634766 0.265067,0.258091 0.634766,0.258091 0.369698,0 0.62779,-0.258091 z m 7.142857,0 q 0.265067,-0.265067 0.265067,-0.634766 0,-0.369699 -0.265067,-0.62779 -0.258091,-0.265067 -0.62779,-0.265067 -0.369699,0 -0.634766,0.265067 -0.258091,0.258091 -0.258091,0.62779 0,0.369699 0.258091,0.634766 0.265067,0.258091 0.634766,0.258091 0.369699,0 0.62779,-0.258091 z m -0.0558,-3.397043 -0.502233,-2.678571 q -0.03488,-0.160435 -0.160435,-0.258092 -0.118582,-0.104631 -0.279018,-0.104631 l -6.40346,0 q -0.160435,0 -0.285993,0.104631 -0.118582,0.09766 -0.15346,0.258092 l -0.502232,2.678571 q -0.03488,0.209264 0.09766,0.369699 0.132534,0.160435 0.341797,0.160435 l 7.407924,0 q 0.209264,0 0.341797,-0.160435 0.132534,-0.160435 0.09766,-0.369699 z m -1.674108,-4.031808 q 0.09766,-0.09766 0.09766,-0.237165 0,-0.139509 -0.09766,-0.237165 -0.09766,-0.09766 -0.237165,-0.09766 l -4.464285,0 q -0.139509,0 -0.237166,0.09766 -0.09766,0.09766 -0.09766,0.237165 0,0.139509 0.09766,0.237165 0.09766,0.09766 0.237166,0.09766 l 4.464285,0 q 0.139509,0 0.237165,-0.09766 z m 2.887835,4.820034 0,4.206194 -0.892857,0 0,0.892857 q 0,0.369699 -0.265067,0.62779 -0.258091,0.265067 -0.62779,0.265067 -0.369699,0 -0.634766,-0.265067 -0.258091,-0.258091 -0.258091,-0.62779 l 0,-0.892857 -5.357143,0 0,0.892857 q 0,0.369699 -0.265067,0.62779 -0.258092,0.265067 -0.62779,0.265067 -0.369699,0 -0.634766,-0.265067 -0.258091,-0.258091 -0.258091,-0.62779 l 0,-0.892857 -0.892857,0 0,-4.206194 q 0,-0.78125 0.174386,-1.555525 l 0.718471,-3.166853 q 0.06278,-0.544084 0.676618,-0.955636 0.620815,-0.411551 1.604353,-0.620814 0.99051,-0.209264 2.183311,-0.209264 1.192802,0 2.17634,0.209264 0.990513,0.209263 1.604352,0.620814 0.620815,0.411552 0.683594,0.955636 l 0.732422,3.166853 q 0.160435,0.711496 0.160435,1.555525 z" />
  </g>
</svg>
