<?xml version="1.0" encoding="UTF-8" standalone="no"?>
<!-- Created with Inkscape (http://www.inkscape.org/) -->

<svg
   xmlns:dc="http://purl.org/dc/elements/1.1/"
   xmlns:cc="http://creativecommons.org/ns#"
   xmlns:rdf="http://www.w3.org/1999/02/22-rdf-syntax-ns#"
   xmlns:svg="http://www.w3.org/2000/svg"
   xmlns="http://www.w3.org/2000/svg"
   xmlns:sodipodi="http://sodipodi.sourceforge.net/DTD/sodipodi-0.dtd"
   xmlns:inkscape="http://www.inkscape.org/namespaces/inkscape"
   width="500"
   height="500"
   id="svg2"
   version="1.1"
   inkscape:version="0.91 r13725"
   sodipodi:docname="car.svg">
  <defs
     id="defs4" />
  <sodipodi:namedview
     id="base"
     pagecolor="#ffffff"
     bordercolor="#666666"
     borderopacity="1.0"
     inkscape:pageopacity="0.0"
     inkscape:pageshadow="2"
     inkscape:zoom="0.7"
     inkscape:cx="-332.69084"
     inkscape:cy="476.11054"
     inkscape:document-units="px"
     inkscape:current-layer="layer1"
     showgrid="false"
     inkscape:window-width="1920"
     inkscape:window-height="981"
     inkscape:window-x="0"
     inkscape:window-y="0"
     inkscape:window-maximized="1" />
  <metadata
     id="metadata7">
    <rdf:RDF>
      <cc:Work
         rdf:about="">
        <dc:format>image/svg+xml</dc:format>
        <dc:type
           rdf:resource="http://purl.org/dc/dcmitype/StillImage" />
        <dc:title />
        <cc:license
           rdf:resource="http://creativecommons.org/licenses/by-sa/3.0/" />
      </cc:Work>
      <cc:License
         rdf:about="http://creativecommons.org/licenses/by-sa/3.0/">
        <cc:permits
           rdf:resource="http://creativecommons.org/ns#Reproduction" />
        <cc:permits
           rdf:resource="http://creativecommons.org/ns#Distribution" />
        <cc:requires
           rdf:resource="http://creativecommons.org/ns#Notice" />
        <cc:requires
           rdf:resource="http://creativecommons.org/ns#Attribution" />
        <cc:permits
           rdf:resource="http://creativecommons.org/ns#DerivativeWorks" />
        <cc:requires
           rdf:resource="http://creativecommons.org/ns#ShareAlike" />
      </cc:License>
    </rdf:RDF>
  </metadata>
  <g
     inkscape:label="Layer 1"
     inkscape:groupmode="layer"
     id="layer1">
    <g
       id="g4207">
      <path
         sodipodi:nodetypes="zccczczccczcz"
         inkscape:connector-curvature="0"
         id="path4149"
         d="m 164.31862,85.468446 c -4.19906,39.571694 6.55669,91.762434 6.06092,147.482284 -10.52016,-1.80797 -20.2496,-2.39539 -19.86866,17.20586 l 19.27693,-7.70658 c -1.71236,42.20755 -11.244,119.22302 -5.46918,163.23681 5.77482,44.01379 37.68226,70.86495 98.99495,68.69037 57.16171,-0.22437 86.65984,-29.45295 90.49531,-70.49531 3.83547,-41.04236 -5.62278,-121.15641 -7.1144,-159.69692 l 20.41226,5.93837 c 2.35433,-15.05893 -9.06025,-22.05503 -20.45559,-18.18275 -1.71417,-0.64282 8.60748,-110.55723 6.06091,-143.946754 -2.54656,-33.389517 -38.86205,-60.167876 -92.5497,-62.358976 -53.46176,1.44606 -91.64469,20.261919 -95.84375,59.833596 z"
         style="fill:#008000;fill-rule:evenodd;stroke:#000000;stroke-width:18px;stroke-linecap:butt;stroke-linejoin:miter;stroke-opacity:1" />
      <path
         sodipodi:nodetypes="zcccccccz"
         inkscape:connector-curvature="0"
         id="path4151"
         d="m 256.92615,171.78049 c -44.12883,0.0136 -75.14588,18.92974 -76.71251,52.74454 l 5.82327,27.11352 33.05682,-9.37798 38.66401,-1.22862 38.32614,0.83942 34.40484,9.26211 5.51905,-27.34552 c 0.87812,-33.65356 -34.95279,-52.02103 -79.08162,-52.00747 z"
         style="fill:#f2f2f2;fill-rule:evenodd;stroke:#000000;stroke-width:10px;stroke-linecap:butt;stroke-linejoin:miter;stroke-opacity:1" />
      <path
         sodipodi:nodetypes="cczccc"
         inkscape:connector-curvature="0"
         id="path4153"
         d="m 198.15874,345.07766 -1.51523,52.02286 c 5.65793,29.35218 29.45066,42.46306 59.09392,42.42641 29.64326,-0.0367 60.86511,-12.41133 65.15484,-43.43656 l -0.50508,-51.51778 z"
         style="fill:#f2f2f2;fill-rule:evenodd;stroke:#000000;stroke-width:10px;stroke-linecap:butt;stroke-linejoin:miter;stroke-opacity:1" />
      <path
         sodipodi:nodetypes="cczc"
         inkscape:connector-curvature="0"
         id="path4157"
         d="m 180.22853,226.53267 -3.03046,98.0894 c 5.0681,37.51079 14.77304,32.79101 14.39468,-18.68782 -0.37837,-51.47882 -2.37697,-64.13759 -11.36422,-79.40158 z"
         style="fill:#f2f2f2;fill-rule:evenodd;stroke:#000000;stroke-width:10px;stroke-linecap:butt;stroke-linejoin:miter;stroke-opacity:1" />
      <path
         sodipodi:nodetypes="cczc"
         inkscape:connector-curvature="0"
         id="path4157-3"
         d="m 336.17606,224.45923 4.54569,98.61614 c -5.0681,37.51079 -14.77304,32.79101 -14.39468,-18.68782 0.37837,-51.47882 3.63966,-56.58311 9.84899,-79.92832 z"
         style="fill:#f2f2f2;fill-rule:evenodd;stroke:#000000;stroke-width:10px;stroke-linecap:butt;stroke-linejoin:miter;stroke-opacity:1" />
      <ellipse
         ry="16.293392"
         rx="12.721964"
         cy="64.4645"
         cx="198.43823"
         id="path4174"
         style="opacity:1;fill:#f9f9f9;fill-opacity:1;stroke:#000000;stroke-width:5" />
      <ellipse
         ry="16.293392"
         rx="12.721964"
         cy="63.750187"
         cx="316.84073"
         id="path4174-6"
         style="opacity:1;fill:#f9f9f9;fill-opacity:1;stroke:#000000;stroke-width:5" />
    </g>
  </g>
</svg>
