<?xml version="1.0" encoding="UTF-8" standalone="no"?>
<!-- Created with Inkscape (http://www.inkscape.org/) -->

<svg
   xmlns:dc="http://purl.org/dc/elements/1.1/"
   xmlns:cc="http://creativecommons.org/ns#"
   xmlns:rdf="http://www.w3.org/1999/02/22-rdf-syntax-ns#"
   xmlns:svg="http://www.w3.org/2000/svg"
   xmlns="http://www.w3.org/2000/svg"
   xmlns:sodipodi="http://sodipodi.sourceforge.net/DTD/sodipodi-0.dtd"
   xmlns:inkscape="http://www.inkscape.org/namespaces/inkscape"
   width="50"
   height="50"
   viewBox="0 0 50.000001 50.000001"
   id="svg2"
   version="1.1"
   inkscape:version="0.91 r13725"
   sodipodi:docname="car.svg">
  <defs
     id="defs4" />
  <sodipodi:namedview
     id="base"
     pagecolor="#ffffff"
     bordercolor="#666666"
     borderopacity="1.0"
     inkscape:pageopacity="0.0"
     inkscape:pageshadow="2"
     inkscape:zoom="32.000001"
     inkscape:cx="28.992205"
     inkscape:cy="19.572065"
     inkscape:document-units="px"
     inkscape:current-layer="layer2"
     showgrid="false"
     units="px"
     inkscape:window-width="1920"
     inkscape:window-height="981"
     inkscape:window-x="0"
     inkscape:window-y="0"
     inkscape:window-maximized="1" />
  <metadata
     id="metadata7">
    <rdf:RDF>
      <cc:Work
         rdf:about="">
        <dc:format>image/svg+xml</dc:format>
        <dc:type
           rdf:resource="http://purl.org/dc/dcmitype/StillImage" />
        <dc:title />
        <cc:license
           rdf:resource="http://creativecommons.org/licenses/by-sa/3.0/" />
      </cc:Work>
      <cc:License
         rdf:about="http://creativecommons.org/licenses/by-sa/3.0/">
        <cc:permits
           rdf:resource="http://creativecommons.org/ns#Reproduction" />
        <cc:permits
           rdf:resource="http://creativecommons.org/ns#Distribution" />
        <cc:requires
           rdf:resource="http://creativecommons.org/ns#Notice" />
        <cc:requires
           rdf:resource="http://creativecommons.org/ns#Attribution" />
        <cc:permits
           rdf:resource="http://creativecommons.org/ns#DerivativeWorks" />
        <cc:requires
           rdf:resource="http://creativecommons.org/ns#ShareAlike" />
      </cc:License>
    </rdf:RDF>
  </metadata>
  <g
     inkscape:groupmode="layer"
     id="layer2"
     inkscape:label="Layer 2">
    <path
       style="opacity:1;fill:#ff5468;fill-opacity:1;stroke:#000000;stroke-width:0.90704989"
       d="M 42.046474,25 C 42.046474,34.414508 34.414508,42.046474 25,42.046474 15.585492,42.046474 7.9535258,34.414508 7.9535255,25 7.9535253,17.60606 12.661055,11.311623 19.242451,8.9503498 l 5.619408,-7.4180155 6.003402,7.4570729 C 37.390248,11.380441 42.046474,17.64646 42.046474,25 Z"
       id="path4148"
       inkscape:connector-curvature="0"
       sodipodi:nodetypes="ssscccs" />
    <path
       style="opacity:1;fill:#ffffff;fill-opacity:1;stroke:#000000;stroke-width:0.60713017;stroke-miterlimit:4;stroke-dasharray:none"
       d="M 25,10.33164 A 14.668712,14.668712 0 0 0 10.33164,25 14.668712,14.668712 0 0 0 25,39.66836 14.668712,14.668712 0 0 0 39.66836,25 14.668712,14.668712 0 0 0 25,10.33164 Z m -3.865712,6.635744 7.835774,0.04032 c 1.53138,0.145913 2.201745,0.919069 2.637222,1.864078 l 1.128883,4.49893 c 1.541149,-0.02204 2.241616,0.731963 2.485439,1.845106 l 0,4.546362 -1.247463,0.0166 0,1.501224 c 0.0043,2.349095 -3.798813,2.290352 -3.794564,-0.0095 l 0.01186,-1.517826 -10.352045,0.02135 -0.0047,1.460907 c 0.0074,2.412595 -3.843637,2.383667 -3.813536,-0.0047 l 0.02371,-1.444305 -1.052991,-0.0095 c -0.113588,0.0033 -0.213279,-0.01916 -0.213445,-0.237161 l 0.0072,-4.311572 c 0.36842,-1.045963 0.870527,-1.961458 2.549472,-1.845107 l 1.107538,-4.562963 c 0.252447,-0.737352 1.125378,-1.818866 2.691768,-1.852221 z m 0.03083,2.56133 c -0.180038,0.01554 -0.320307,0.07228 -0.362855,0.225302 l -0.879865,3.675983 10.269038,0 -0.93204,-3.555031 c -0.08363,-0.303493 -0.218321,-0.308551 -0.346254,-0.346254 l -7.748024,0 z m -3.199292,5.435712 a 1.6132596,1.6218878 0 0 0 -1.61506,1.622177 1.6132596,1.6218878 0 0 0 1.61506,1.622174 1.6132596,1.6218878 0 0 0 1.61269,-1.622174 1.6132596,1.6218878 0 0 0 -1.61269,-1.622177 z m 14.092061,0.0498 a 1.6132596,1.6218878 0 0 0 -1.612689,1.622175 1.6132596,1.6218878 0 0 0 1.612689,1.619805 1.6132596,1.6218878 0 0 0 1.61269,-1.619805 1.6132596,1.6218878 0 0 0 -1.61269,-1.622175 z"
       id="path4179"
       inkscape:connector-curvature="0" />
  </g>
</svg>
