<?xml version="1.0" encoding="UTF-8" standalone="no"?>

<svg
   xmlns:dc="http://purl.org/dc/elements/1.1/"
   xmlns:cc="http://creativecommons.org/ns#"
   xmlns:rdf="http://www.w3.org/1999/02/22-rdf-syntax-ns#"
   xmlns:svg="http://www.w3.org/2000/svg"
   xmlns="http://www.w3.org/2000/svg"
   xmlns:sodipodi="http://sodipodi.sourceforge.net/DTD/sodipodi-0.dtd"
   width="40"
   height="40"
   viewBox="0 0 40 40"
   id="svg4145"
   version="1.1"
   sodipodi:docname="crane.svg">
  <defs
     id="defs4147" />
  <sodipodi:namedview
     id="base"
     pagecolor="#ffffff"
     bordercolor="#666666"
     borderopacity="1.0"
     showgrid="false"
     units="px" />
  <metadata
     id="metadata4150">
    <rdf:RDF>
      <cc:Work
         rdf:about="">
        <dc:format>image/svg+xml</dc:format>
        <dc:type
           rdf:resource="http://purl.org/dc/dcmitype/StillImage" />
        <dc:title />
      </cc:Work>
    </rdf:RDF>
  </metadata>
  <g
     id="layer1">
    <path
       style="fill:#008000;fill-opacity:1;stroke:#333333;stroke-width:1.89999998;stroke-miterlimit:4;stroke-dasharray:none;stroke-opacity:1"
       d="m 20.001953,3.6816406 -1.130859,3.390625 a 12.37437,12.37437 0 0 1 1.130859,-0.0625 12.37437,12.37437 0 0 1 1.128906,0.056641 L 20.001953,3.6816406 Z M 20,7.625 A 12.37437,12.37437 0 0 0 7.625,20 12.37437,12.37437 0 0 0 20,32.375 12.37437,12.37437 0 0 0 32.375,20 12.37437,12.37437 0 0 0 20,7.625 Z"
       id="background" />
    <path
       style="stroke-width:0.75357449"
       d="m 24.334389,12.464255 -4.215308,3.014298 c 0.103994,0.11605 0.203466,0.238883 0.282591,0.376787 l 0.518083,0.91842 2.025231,-1.460051 -1.577796,2.237174 0.494532,0.871321 c 0.140166,0.186132 0.252825,0.393742 0.329689,0.612279 l 4.592095,-6.570228 -2.449117,0 z m 2.449117,1.318755 -1.507149,2.142978 0,4.074012 c 0,0.415973 0.337602,0.753574 0.753575,0.753574 0.415219,0 0.753574,0.338356 0.753574,0.753575 0,0.41522 -0.338355,0.753574 -0.753574,0.753574 -0.41522,0 -0.753575,-0.338354 -0.753575,-0.753574 l -1.507149,0 c 0,1.385823 1.252064,2.476622 2.684609,2.213625 0.887711,-0.162772 1.616418,-0.879987 1.78974,-1.76619 0.229086,-1.171809 -0.453275,-2.207408 -1.460051,-2.566863 l 0,-5.604711 z m -12.057192,1.695543 c -0.8327,0 -1.507149,0.674449 -1.507149,1.507149 l 0,3.767872 c 0,0.415973 0.337602,0.753575 0.753575,0.753575 l 0.753574,0 0,0.753574 5.275021,0 0,-0.753574 0.753575,0 c 0.415973,0 0.753575,-0.337602 0.753575,-0.753575 l 0,-1.507148 -1.836839,-3.014298 C 19.402621,15.764158 18.916,15.478553 18.37644,15.478553 l -3.650126,0 z m 1.507149,1.507149 2.142977,0 1.295206,2.260724 -3.438183,0 0,-2.260724 z m -2.260723,6.028596 c -1.248673,0 -2.260723,1.012051 -2.260723,2.260723 0,1.248673 1.01205,2.260724 2.260723,2.260724 l 6.78217,0 c 1.248673,0 2.260724,-1.012051 2.260724,-2.260724 0,-1.248672 -1.012051,-2.260723 -2.260724,-2.260723 l -6.78217,0 z m 0,1.507149 c 0.415973,0 0.753574,0.337601 0.753574,0.753574 0,0.415974 -0.337601,0.753575 -0.753574,0.753575 -0.415973,0 -0.753575,-0.337601 -0.753575,-0.753575 0,-0.415973 0.337602,-0.753574 0.753575,-0.753574 z m 2.260723,0 c 0.415973,0 0.753575,0.337601 0.753575,0.753574 0,0.415974 -0.337602,0.753575 -0.753575,0.753575 -0.415973,0 -0.753574,-0.337601 -0.753574,-0.753575 0,-0.415973 0.337601,-0.753574 0.753574,-0.753574 z m 2.260723,0 c 0.415974,0 0.753575,0.337601 0.753575,0.753574 0,0.415974 -0.337601,0.753575 -0.753575,0.753575 -0.415973,0 -0.753574,-0.337601 -0.753574,-0.753575 0,-0.415973 0.337601,-0.753574 0.753574,-0.753574 z m 2.260724,0 c 0.415973,0 0.753575,0.337601 0.753575,0.753574 0,0.415974 -0.337602,0.753575 -0.753575,0.753575 -0.415973,0 -0.753575,-0.337601 -0.753575,-0.753575 0,-0.415973 0.337602,-0.753574 0.753575,-0.753574 z"
       id="icon" />
  </g>
</svg>
