<?xml version="1.0" encoding="UTF-8" standalone="no"?>
<svg
   xmlns:dc="http://purl.org/dc/elements/1.1/"
   xmlns:cc="http://creativecommons.org/ns#"
   xmlns:rdf="http://www.w3.org/1999/02/22-rdf-syntax-ns#"
   xmlns:svg="http://www.w3.org/2000/svg"
   xmlns="http://www.w3.org/2000/svg"
   xmlns:sodipodi="http://sodipodi.sourceforge.net/DTD/sodipodi-0.dtd"
   xmlns:inkscape="http://www.inkscape.org/namespaces/inkscape"
   id="svg4145"
   height="40"
   width="40"
   version="1.1"
   viewBox="0 0 40 40"
   sodipodi:docname="harvest.svg"
   inkscape:version="1.0.2 (e86c870879, 2021-01-15, custom)">
  <metadata
     id="metadata672">
    <rdf:RDF>
      <cc:Work
         rdf:about="">
        <dc:format>image/svg+xml</dc:format>
        <dc:type
           rdf:resource="http://purl.org/dc/dcmitype/StillImage" />
        <dc:title></dc:title>
      </cc:Work>
    </rdf:RDF>
  </metadata>
  <defs
     id="defs670" />
  <sodipodi:namedview
     pagecolor="#ffffff"
     bordercolor="#666666"
     borderopacity="1"
     objecttolerance="10"
     gridtolerance="10"
     guidetolerance="10"
     inkscape:pageopacity="0"
     inkscape:pageshadow="2"
     inkscape:window-width="1920"
     inkscape:window-height="1017"
     id="namedview668"
     showgrid="false"
     inkscape:zoom="15.026019"
     inkscape:cx="29.106894"
     inkscape:cy="22.681049"
     inkscape:window-x="-8"
     inkscape:window-y="-8"
     inkscape:window-maximized="1"
     inkscape:current-layer="svg4145" />
  <g
     id="layer1">
    <path
       id="background"
       d="m20.002 3.6816-1.1309 3.3906a12.374 12.374 0 0 1 1.1309 -0.0625 12.374 12.374 0 0 1 1.1289 0.056641l-1.129-3.3847zm-0.002 3.9434a12.374 12.374 0 0 0 -12.375 12.375 12.374 12.374 0 0 0 12.375 12.375 12.374 12.374 0 0 0 12.375 -12.375 12.374 12.374 0 0 0 -12.375 -12.375z"
       stroke="#333"
       stroke-width="1.9"
       fill="#008000" />
  </g>
  <path
     d="m 12.468297,16.846345 c 0.930729,0.04296 1.933054,0.171827 2.477173,0.05728 0.601395,0.01432 0.930731,-0.01432 1.116876,-0.186147 0.186147,-0.171827 0.243423,-0.515481 0.300698,-1.102557 -0.873455,0.214784 -2.777871,-0.100228 -4.410229,-0.114551 -1.632357,-0.01432 -2.9783358,0.27206 -2.749233,1.675314 0.042957,0.229103 0.3150166,0.415249 0.6157144,0.458206 0.2863776,0.04296 0.5870756,-0.04296 0.6300316,-0.329336 0.243422,-0.458205 1.102557,-0.501162 2.018969,-0.458205 z m 16.051514,2.477174 c -0.243422,-0.229103 -0.486843,-0.415249 -0.715947,-0.572758 -1.016643,-0.644351 -1.875779,-0.329335 -2.13352,2.448537 -0.08592,0.773222 0.94505,0.902092 2.13352,0.859135 1.188471,-0.04296 2.534451,-0.229102 3.07857,-0.08592 -0.229104,-0.243422 -0.458206,-0.5298 -0.715947,-0.830498 -0.515481,-0.615713 -1.088238,-1.303022 -1.646676,-1.818503 z m -3.665645,-1.703953 c 0.773222,0 1.174152,0 1.417574,-0.186145 0.243421,-0.186147 0.343654,-0.558439 0.558438,-1.317342 0.501162,-1.116876 0.01432,-1.374616 -0.758903,-1.403254 -0.773222,-0.02864 -1.832822,0.200465 -2.477174,0.05728 0.200464,0.515481 0.12887,1.274384 0.200464,1.875779 0.08592,0.615714 0.300698,1.073919 1.059601,0.973686 z m 0.486843,-2.376941 c 0.415249,0 0.844817,0 1.288703,0 -0.200464,0.830497 -0.272059,1.374617 -0.544119,1.689633 -0.272059,0.315016 -0.730264,0.386612 -1.689632,0.27206 -0.05727,-0.329336 -0.100229,-0.658671 -0.157508,-0.973687 -0.05728,-0.329335 -0.100229,-0.658671 -0.157509,-0.988006 0.415249,0 0.830498,0 1.260065,0 z m -2.820827,4.968667 c -1.546444,-0.04296 -2.333985,1.159833 -2.348304,2.376941 -0.01432,1.202791 0.744584,2.419898 2.305347,2.40558 1.560762,0.04296 2.348304,-1.159833 2.348304,-2.362623 0.01432,-1.20279 -0.758903,-2.419898 -2.305347,-2.419898 z m -0.01432,3.708601 c -0.859135,0.01432 -1.274383,-0.644351 -1.274383,-1.303021 0,-0.658672 0.429567,-1.33166 1.274383,-1.317342 0.844817,-0.01432 1.274385,0.65867 1.288703,1.317342 -0.01432,0.644351 -0.429567,1.31734 -1.288703,1.303021 z m 6.013952,-4.725244 c 0.02863,0.02864 0.04296,0.04296 0.07159,0.07159 0.200466,0.186146 0.443887,0.315016 0.80186,0.229102 0.229103,0.28638 0.386611,0.644352 0.572757,1.002325 0.100229,0.200466 0.229103,0.400931 0.372293,0.587076 0.114551,0.14319 0.243421,0.286379 0.400929,0.40093 0.80186,-1.303022 0.630033,-2.448536 -0.02863,-3.078568 -0.658672,-0.615714 -1.789866,-0.715946 -2.906743,0.128869 0.286379,0.14319 0.486844,0.429568 0.715947,0.658672 z m -15.392844,2.79219 c -0.773222,-0.01432 -1.532125,0.486843 -1.517806,1.489168 -0.01432,0.973687 0.744584,1.46053 1.503487,1.46053 0.758903,0 1.532125,-0.486843 1.532125,-1.446211 0.01432,-0.988007 -0.744584,-1.503487 -1.517806,-1.503487 z m 0.01432,2.13352 c -0.429567,0.01432 -0.658671,-0.315017 -0.658671,-0.658672 0,-0.329335 0.200465,-0.672988 0.630033,-0.65867 0.429568,-0.02864 0.65867,0.300698 0.65867,0.630033 0,0.343654 -0.200464,0.687309 -0.630032,0.687309 z M 25.741943,17.84867 c -0.343655,-0.04296 -1.116877,0.415248 -1.961693,-0.558439 -0.143189,-0.329335 -0.100229,-0.859135 -0.157509,-1.303022 -0.05728,-0.443886 -0.200465,-0.816178 -0.687308,-0.816178 -0.830497,0.01432 -1.675314,0.01432 -2.505811,0.01432 -0.830498,0 -1.675315,0 -2.505812,0 -0.687309,-0.100229 -0.988006,0.08592 -1.174152,0.415249 -0.186147,0.329335 -0.243422,0.816178 -0.415249,1.331659 -0.315016,0.515482 -0.973687,0.558438 -1.689633,0.515482 -0.715946,-0.04296 -1.489168,-0.186146 -2.033287,-0.07159 -0.558438,0.12887 -0.773222,0.758903 -0.916411,1.474849 -0.143189,0.715947 -0.200465,1.517807 -0.458206,1.99033 -0.257741,0.67299 1.532125,0.988007 3.536774,1.20279 2.004649,0.200466 4.238402,0.300698 4.868435,0.544119 0.315016,-1.446211 1.288703,-2.291028 2.376941,-2.491492 1.088239,-0.200465 2.291028,0.25774 3.06425,1.403254 0.902092,-3.035612 1.002324,-3.608369 0.658671,-3.651325 z m -3.264715,3.923385 c -0.443887,0.01432 -0.859136,0.300697 -0.830498,0.873454 0,0.544119 0.443887,0.80186 0.873455,0.787541 0.429568,-0.01432 0.859135,-0.300698 0.844816,-0.844817 0,-0.558437 -0.443887,-0.830497 -0.887773,-0.816178 z m -5.226408,0.758903 c -0.830497,-0.08592 -1.746908,-0.01432 -2.520131,-0.243422 0.157509,1.016643 0.859136,1.274384 1.718271,1.317341 0.873455,0.04296 1.918736,-0.114551 2.749234,0.08592 -0.386611,-0.844817 -1.116876,-1.073919 -1.947374,-1.159833 z"
     id="path711"
     style="stroke-width:1.4319" />
</svg>
