<?xml version="1.0" encoding="UTF-8" standalone="no"?>
<svg
   xmlns:dc="http://purl.org/dc/elements/1.1/"
   xmlns:cc="http://creativecommons.org/ns#"
   xmlns:rdf="http://www.w3.org/1999/02/22-rdf-syntax-ns#"
   xmlns:svg="http://www.w3.org/2000/svg"
   xmlns="http://www.w3.org/2000/svg"
   xmlns:sodipodi="http://sodipodi.sourceforge.net/DTD/sodipodi-0.dtd"
   xmlns:inkscape="http://www.inkscape.org/namespaces/inkscape"
   id="svg4145"
   height="40"
   width="40"
   version="1.1"
   viewBox="0 0 40 40"
   sodipodi:docname="hatch.svg"
   inkscape:version="1.0.1 (3bc2e813f5, 2020-09-07)">
  <metadata
     id="metadata128">
    <rdf:RDF>
      <cc:Work
         rdf:about="">
        <dc:format>image/svg+xml</dc:format>
        <dc:type
           rdf:resource="http://purl.org/dc/dcmitype/StillImage" />
        <dc:title></dc:title>
      </cc:Work>
    </rdf:RDF>
  </metadata>
  <defs
     id="defs126" />
  <sodipodi:namedview
     pagecolor="#ffffff"
     bordercolor="#666666"
     borderopacity="1"
     objecttolerance="10"
     gridtolerance="10"
     guidetolerance="10"
     inkscape:pageopacity="0"
     inkscape:pageshadow="2"
     inkscape:window-width="1920"
     inkscape:window-height="1017"
     id="namedview124"
     showgrid="false"
     inkscape:zoom="7.5130095"
     inkscape:cx="37.783882"
     inkscape:cy="13.881884"
     inkscape:window-x="-8"
     inkscape:window-y="-8"
     inkscape:window-maximized="1"
     inkscape:current-layer="layer1"
     inkscape:document-rotation="0" />
  <g
     id="layer1">
    <path
       id="background"
       d="m20.002 3.6816l-1.131 3.3907a12.374 12.374 0 0 1 1.131 -0.0625 12.374 12.374 0 0 1 1.129 0.0566l-1.129-3.3848zm-0.002 3.9434a12.374 12.374 0 0 0 -12.375 12.375 12.374 12.374 0 0 0 12.375 12.375 12.374 12.374 0 0 0 12.375 -12.375 12.374 12.374 0 0 0 -12.375 -12.375z"
       stroke="#333"
       stroke-width="1.9"
       fill="#008000" />
    <g
       transform="matrix(0.04215522,0,0,-0.04215522,9.324007,268.63625)"
       fill="#000000"
       stroke="none"
       id="g44">
      <path
         d="m 165.63531,6016.4658 c -46.40024,-1.5904 -77.532534,-6.8785 -98.446439,-16.6596 -2.98202,-1.3916 -6.242363,-2.4253 -13.478733,-4.2145 -5.248356,-1.3121 -9.621986,-2.4652 -9.701507,-2.5845 -0.07952,-0.079 0.675925,-1.4313 1.709692,-2.9422 l 1.868733,-2.823 -5.129076,-5.8448 c -13.08113,-14.9896 -23.697123,-28.4683 -30.337089,-38.5674 -4.3338703,-6.5207 -5.0495552,-8.1906 -5.5664388,-12.6836 -0.5168835,-4.2145 -0.6759246,-21.2717 -0.3578424,-33.1203 l 0.1988013,-7.3556 -3.6977055,-2.3856 L -1,5884.8991 l 0.19880137,-2.9821 c 0.0795206,-1.7892 0.55664385,-4.0953 1.19280825,-5.7652 0.71568498,-1.9483 1.47113018,-6.1629 2.62417818,-14.3137 0.9144863,-6.3219 1.9880137,-13.1209 2.4253767,-15.1089 0.4373631,-1.9483 1.0337672,-5.3279 1.3518494,-7.4749 0.5566438,-3.5785 1.4711301,-6.2822 2.7036987,-7.8726 0.3976027,-0.5169 1.8687324,-0.6759 8.8267814,-0.8747 8.985822,-0.2783 17.931884,-0.9145 34.114315,-2.4651 5.68572,-0.5567 10.377432,-0.994 10.456953,-0.994 0.07952,0 0.159041,0.6361 0.159041,1.3916 0,1.1928 0.119281,1.3916 0.914486,1.3916 1.47113,0 1.828973,-0.5169 2.82298,-3.817 4.930274,-16.421 15.90411,-28.031 30.37685,-32.0468 4.135071,-1.153 13.677531,-1.2723 17.574041,-0.1988 3.22058,0.8747 8.15086,2.982 10.97384,4.7315 3.6977,2.2265 8.54846,6.7195 11.49072,10.5762 1.82897,2.4254 3.37962,4.0556 4.57243,4.7315 2.38561,1.4313 4.97003,3.3796 7.27613,5.5664 1.19281,1.1531 2.02777,1.6699 2.22657,1.3916 0.15904,-0.3181 25.7249,-0.3181 91.6872,-0.079 50.29674,0.1988 104.0924,0.3578 119.5989,0.3976 h 28.11052 v 1.6302 1.5904 l 1.70969,-1.0338 c 0.91449,-0.5964 3.14106,-1.7494 4.89051,-2.6242 2.7037,-1.2723 3.49891,-1.9084 4.97004,-3.8169 5.00979,-6.6798 12.72329,-12.286 20.23798,-14.6716 15.78483,-5.0893 32.96127,1.5109 43.5375,16.7391 1.55065,2.147 1.70969,2.3061 5.08931,3.4194 4.45315,1.4711 5.72548,2.147 6.04357,3.141 0.31808,0.9543 0.83496,1.0338 1.15304,0.1988 0.83497,-2.2265 11.49072,2.2266 18.80661,7.8726 2.54466,1.9482 5.68572,5.1688 6.48093,6.6002 0.71568,1.3518 0.15904,3.2603 -1.43137,5.1688 l -1.43137,1.6699 0.91448,2.4652 c 0.47713,1.3518 1.82898,3.976 2.94227,5.8447 l 2.06753,3.3797 0.47712,5.4074 c 0.23856,2.982 0.55665,7.9123 0.67593,10.934 0.23856,5.3677 0.23856,5.5665 -0.67593,6.8786 -0.55664,0.8349 -2.06753,1.988 -3.6977,2.8627 l -2.78322,1.5109 -0.11928,6.0038 c -0.15904,7.3954 -1.27233,14.1149 -2.86274,17.6536 -1.39161,3.0615 -2.86274,4.2543 -9.58223,7.7532 -14.35346,7.4352 -36.38065,13.8764 -66.20086,19.3235 -10.81479,1.988 -30.49613,4.8905 -41.54948,6.1231 -11.25216,1.2723 -7.63398,-0.6759 -57.33432,31.3311 -46.47976,29.9395 -50.33651,32.2058 -60.1573,35.3866 -12.08712,3.9363 -15.42698,4.4134 -41.54948,5.9243 -9.74127,0.5567 -46.75809,1.0338 -55.66439,0.7157 z m 36.97706,-5.3279 c 17.53428,-0.6361 38.64698,-2.5049 40.55548,-3.5784 0.3976,-0.2386 0.11928,-0.3181 -0.79521,-0.159 -8.34966,1.1132 -44.61103,1.6699 -62.82123,0.994 -13.16065,-0.4772 -29.62141,-1.3916 -39.28315,-2.1869 -3.33987,-0.2385 -6.16285,-0.3976 -6.24237,-0.2783 -0.11928,0.079 -0.1988,0.9145 -0.1988,1.829 v 1.6699 l 1.9085,0.2386 c 11.84856,1.5109 45.08815,2.2266 66.87678,1.4711 z m -78.88439,-4.0555 c -0.15904,-0.7157 -0.47712,-1.5109 -0.75544,-1.7892 -0.31809,-0.3181 -3.61819,-0.835 -8.82678,-1.3121 -4.6122,-0.4374 -9.70151,-0.994 -11.33168,-1.1928 -1.63017,-0.1988 -3.021783,-0.2784 -3.101304,-0.1988 -0.198801,0.1988 6.679724,2.3458 10.059354,3.1808 3.3001,0.7554 12.4052,2.5049 13.47873,2.5446 0.63616,0.04 0.71568,-0.159 0.47712,-1.2325 z m 83.65562,-10.2184 c 0,-0.6759 4.21459,-45.9629 5.12908,-54.909 0.15904,-1.8687 0.23856,-3.4989 0.0795,-3.6181 -0.23857,-0.1988 -29.93949,0.159 -52.76189,0.6759 l -12.0076,0.2385 -0.63617,3.4592 c -1.94825,10.775 -4.49291,31.848 -6.32188,51.9667 -0.11928,1.2723 -0.0795,1.2723 2.1073,1.5109 1.86873,0.1988 16.18243,0.7952 27.23578,1.153 1.74946,0.08 10.8148,0.159 20.19822,0.1988 16.58004,0.079 16.97764,0.079 16.97764,-0.6759 z m 47.27497,-0.4374 c 9.06534,-1.3121 17.97164,-3.8965 23.89592,-6.9183 3.33987,-1.6699 12.08713,-6.8785 19.68134,-11.6895 5.04955,-3.1808 21.03318,-13.9558 23.4188,-15.7848 0.87473,-0.6759 0.5964,-1.2326 -0.83497,-1.5109 -0.63616,-0.1193 -1.43137,-0.4771 -1.78921,-0.7555 -1.19281,-0.8747 -1.63017,-4.6917 -1.35185,-11.3316 0.31809,-6.7593 0.11928,-7.5147 -2.62418,-10.5763 l -1.31208,-1.4711 -36.9373,0.6759 -36.93729,0.7157 -8.46894,29.8202 c -4.65196,16.421 -8.46894,29.8997 -8.5087,29.9793 0,0.079 6.0038,0.04 13.35945,-0.1193 9.70151,-0.1988 14.75106,-0.4771 18.40901,-1.0338 z m -118.44586,-1.4711 c 0,-1.1531 1.86873,-19.6018 2.78322,-27.3551 0.994,-8.4689 2.58442,-19.8404 3.37962,-24.214 0.31808,-1.7097 0.59641,-3.3398 0.59641,-3.6579 0,-0.6362 -3.10131,-0.7157 -17.25596,-0.2784 l -9.02559,0.2386 0.27833,1.2326 c 2.74345,13.2004 9.34366,36.1023 14.35345,49.8594 l 1.78922,4.8507 h 1.55065 c 1.19281,0 1.55065,-0.159 1.55065,-0.6759 z m -20.5163,-2.3856 c -4.01579,-9.622 -13.75706,-39.0049 -16.85836,-50.9727 l -0.477123,-1.7494 -32.444384,0.2783 c -17.852364,0.1988 -32.563666,0.3976 -32.643186,0.4771 -0.07952,0.08 0.795205,2.9025 1.948253,6.2424 1.948254,5.7254 2.345857,6.4809 5.68572,11.2521 5.089315,7.2364 10.496712,13.9161 13.916096,17.0969 4.691712,4.3737 14.353459,9.7015 22.424795,12.445 3.260342,1.0735 8.946062,2.2266 18.607809,3.817 4.97003,0.7952 17.93188,2.5049 19.40301,2.5446 l 1.07353,0.04 z"
         id="path42"
         style="stroke-width:0.0397603" />
    </g>
  </g>
</svg>
