<?xml version="1.0" encoding="UTF-8" standalone="no"?>
<svg id="svg4145" xmlns:rdf="http://www.w3.org/1999/02/22-rdf-syntax-ns#" xmlns="http://www.w3.org/2000/svg" height="40" width="40" version="1.1" xmlns:cc="http://creativecommons.org/ns#" xmlns:dc="http://purl.org/dc/elements/1.1/" viewBox="0 0 40 40">
 <g id="layer1">
  <path id="background" d="m20.002 3.6816-1.1309 3.3906a12.374 12.374 0 0 1 1.1309 -0.0625 12.374 12.374 0 0 1 1.1289 0.056641l-1.129-3.3847zm-0.002 3.9434a12.374 12.374 0 0 0 -12.375 12.375 12.374 12.374 0 0 0 12.375 12.375 12.374 12.374 0 0 0 12.375 -12.375 12.374 12.374 0 0 0 -12.375 -12.375z" stroke="#333" stroke-width="1.9" fill="#008000"/>
  <path id="icon" stroke-width=".88712" d="m14.606 13.91v1.7742h6.2098v0.88712c-2.6614 0-3.5165 1.7281-3.5485 1.7742h-3.5485v0.88712 0.88712l3.5485 0.88712c0 1.3236 1.3378 2.6614 2.6614 2.6614h2.6614c2.6614 0 4.4356-0.76026 4.4356-2.6614 0-1.6225-2.2284-3.988-5.3227-4.3802v-0.94256h6.2098v-1.7742l-6.2098 0.88712v-0.44356c0-0.24485-0.19872-0.44356-0.44356-0.44356s-0.44356 0.19871-0.44356 0.44356v0.44356l-6.2098-0.88712zm-0.88712 5.3227c0-0.97989-0.79436-1.7742-1.7742-1.7742-0.97988 0-1.7742 0.79435-1.7742 1.7742 0 0.97988 0.79436 1.7742 1.7742 1.7742 0.97989 0 1.7742-0.79436 1.7742-1.7742zm7.9841-0.88712c0.2821-0.03992 2.8831 0.79042 3.5485 2.6614h-3.5485v-2.6614zm4.4356 5.3227v0.88712h-8.8712v1.7742h8.8712c0.98027 0 1.7742-0.79397 1.7742-1.7742v-0.88712h-1.7742z"/>
 </g>
</svg>
