<?xml version="1.0" encoding="UTF-8" standalone="no"?>
<svg
   xmlns:dc="http://purl.org/dc/elements/1.1/"
   xmlns:cc="http://creativecommons.org/ns#"
   xmlns:rdf="http://www.w3.org/1999/02/22-rdf-syntax-ns#"
   xmlns:svg="http://www.w3.org/2000/svg"
   xmlns="http://www.w3.org/2000/svg"
   xmlns:sodipodi="http://sodipodi.sourceforge.net/DTD/sodipodi-0.dtd"
   width="40"
   height="40"
   viewBox="0 0 40 40"
   id="svg4145"
   version="1.1"
   sodipodi:docname="helicopter.svg">
  <defs
     id="defs4147" />
  <sodipodi:namedview
     id="base"
     pagecolor="#ffffff"
     bordercolor="#666666"
     borderopacity="1.0"
     showgrid="false"
     units="px" />
  <metadata
     id="metadata4150">
    <rdf:RDF>
      <cc:Work
         rdf:about="">
        <dc:format>image/svg+xml</dc:format>
        <dc:type
           rdf:resource="http://purl.org/dc/dcmitype/StillImage" />
        <dc:title />
      </cc:Work>
    </rdf:RDF>
  </metadata>
  <g
     id="layer1">
    <path
       style="fill:#008000;fill-opacity:1;stroke:#333333;stroke-width:1.89999998;stroke-miterlimit:4;stroke-dasharray:none;stroke-opacity:1"
       d="m 20.001953,3.6816406 -1.130859,3.390625 a 12.37437,12.37437 0 0 1 1.130859,-0.0625 12.37437,12.37437 0 0 1 1.128906,0.056641 L 20.001953,3.6816406 Z M 20,7.625 A 12.37437,12.37437 0 0 0 7.625,20 12.37437,12.37437 0 0 0 20,32.375 12.37437,12.37437 0 0 0 32.375,20 12.37437,12.37437 0 0 0 20,7.625 Z"
       id="background" />
    <path
       style="stroke-width:0.88712007"
       d="m 14.605611,13.910009 0,1.77424 6.20984,0 0,0.88712 c -2.66136,0 -3.516544,1.72811 -3.54848,1.77424 l -3.54848,0 0,0.88712 0,0.88712 3.54848,0.88712 c 0,1.323583 1.337777,2.66136 2.66136,2.66136 l 2.66136,0 c 2.661361,0 4.435601,-0.760262 4.435601,-2.66136 0,-1.622543 -2.228446,-3.988048 -5.322721,-4.380155 l 0,-0.942565 6.209841,0 0,-1.77424 -6.209841,0.88712 0,-0.44356 c 0,-0.244846 -0.198715,-0.44356 -0.44356,-0.44356 -0.244845,0 -0.44356,0.198714 -0.44356,0.44356 l 0,0.44356 -6.20984,-0.88712 z m -0.88712,5.32272 c 0,-0.979886 -0.794355,-1.77424 -1.774241,-1.77424 -0.979885,0 -1.77424,0.794354 -1.77424,1.77424 0,0.979885 0.794355,1.77424 1.77424,1.77424 0.979886,0 1.774241,-0.794355 1.774241,-1.77424 z m 7.98408,-0.88712 c 0.282104,-0.03992 2.88314,0.790424 3.548481,2.66136 l -3.548481,0 0,-2.66136 z m 4.435601,5.32272 0,0.88712 -8.871201,0 0,1.774241 8.871201,0 c 0.980267,0 1.77424,-0.793973 1.77424,-1.774241 l 0,-0.88712 -1.77424,0 z"
       id="icon" />
  </g>
</svg>
