<?xml version="1.0" encoding="UTF-8" standalone="no"?>
<svg
   id="svg4145"
   height="40"
   width="40"
   version="1.1"
   viewBox="0 0 40 40"
   sodipodi:docname="loadertruck.svg"
   inkscape:version="1.2 (1:1.2.1+202207142221+cd75a1ee6d)"
   xmlns:inkscape="http://www.inkscape.org/namespaces/inkscape"
   xmlns:sodipodi="http://sodipodi.sourceforge.net/DTD/sodipodi-0.dtd"
   xmlns="http://www.w3.org/2000/svg"
   xmlns:svg="http://www.w3.org/2000/svg">
  <defs
     id="defs56" />
  <sodipodi:namedview
     id="namedview54"
     pagecolor="#ffffff"
     bordercolor="#000000"
     borderopacity="0.25"
     inkscape:showpageshadow="2"
     inkscape:pageopacity="0.0"
     inkscape:pagecheckerboard="0"
     inkscape:deskcolor="#d1d1d1"
     showgrid="false"
     inkscape:zoom="7.5130096"
     inkscape:cx="28.350822"
     inkscape:cy="41.461414"
     inkscape:window-width="1858"
     inkscape:window-height="1016"
     inkscape:window-x="62"
     inkscape:window-y="27"
     inkscape:window-maximized="1"
     inkscape:current-layer="layer1" />
  <g
     id="layer1">
    <path
       id="background"
       d="m20.002 3.6816l-1.131 3.3907a12.374 12.374 0 0 1 1.131 -0.0625 12.374 12.374 0 0 1 1.129 0.0566l-1.129-3.3848zm-0.002 3.9434a12.374 12.374 0 0 0 -12.375 12.375 12.374 12.374 0 0 0 12.375 12.375 12.374 12.374 0 0 0 12.375 -12.375 12.374 12.374 0 0 0 -12.375 -12.375z"
       stroke="#333"
       stroke-width="1.9"
       fill="#008000" />
    <path
       id="icon"
       d="m 19.494996,20.488779 q 0.01295,-0.01296 0.01295,-0.03078 0,-0.01778 -0.01295,-0.03079 -0.01296,-0.01296 -0.03079,-0.01296 -0.01779,0 -0.03078,0.01296 -0.01296,0.01295 -0.01296,0.03079 0,0.01779 0.01296,0.03078 0.01295,0.01295 0.03078,0.01295 0.01778,0 0.03079,-0.01295 z m -0.118421,-0.206033 h 0.131424 v -0.08762 h -0.0541 q -0.0043,0 -0.0075,0.0032 l -0.06673,0.06673 q -0.0032,0.0032 -0.0032,0.0075 v 0.01033 z m 0.425082,0.206033 q 0.01296,-0.01296 0.01296,-0.03078 0,-0.01778 -0.01296,-0.03079 -0.01296,-0.01296 -0.03079,-0.01296 -0.01779,0 -0.03078,0.01296 -0.01295,0.01295 -0.01295,0.03079 0,0.01779 0.01295,0.03078 0.01296,0.01295 0.03078,0.01295 0.01778,0 0.03079,-0.01295 z m 0.100624,-0.40317 v 0.350463 q 0,0.0049 -0.0012,0.0092 -0.0012,0.0038 -0.0049,0.0062 -0.0032,0.0026 -0.0056,0.0043 -0.0026,0.0012 -0.0083,0.0019 -0.0056,3.46e-4 -0.0075,6.28e-4 -0.0019,0 -0.0089,0 -0.0064,-3.4e-4 -0.0075,-3.4e-4 0,0.03626 -0.02564,0.06195 -0.02569,0.0257 -0.06195,0.0257 -0.03626,0 -0.06195,-0.0257 -0.0257,-0.02564 -0.0257,-0.06195 h -0.131424 q 0,0.03626 -0.0257,0.06195 -0.0257,0.0257 -0.06195,0.0257 -0.03626,0 -0.06195,-0.0257 -0.02569,-0.0257 -0.02569,-0.06195 h -0.02193 q -0.0012,0 -0.0078,3.4e-4 -0.0064,0 -0.0085,0 -0.0019,-3.4e-4 -0.0078,-6.28e-4 -0.0056,-6.28e-4 -0.0078,-0.0019 -0.0026,-0.0019 -0.0056,-0.0043 -0.0032,-0.0026 -0.0043,-0.0062 -0.0012,-0.0043 -0.0012,-0.0092 0,-0.0089 0.0064,-0.01545 0.0065,-0.0065 0.01545,-0.0065 v -0.109523 q 0,-0.0026 -3.41e-4,-0.01201 0,-0.0092 0,-0.01296 3.41e-4,-0.0038 0.0012,-0.01155 6.3e-4,-0.0082 0.0019,-0.01265 0.0019,-0.0049 0.0049,-0.01061 0.0032,-0.0056 0.0078,-0.01033 l 0.06776,-0.06776 q 0.0065,-0.0064 0.0171,-0.01093 0.01093,-0.0043 0.02016,-0.0043 h 0.0548 v -0.06572 q 0,-0.0089 0.0064,-0.01545 0.0064,-0.0065 0.01545,-0.0065 h 0.350469 q 0.0089,0 0.01545,0.0065 0.0065,0.0064 0.0065,0.01545 z m -6.87874,7.832339 c -1.046578,-0.223786 -1.98656,-1.033188 -2.362284,-2.034122 -0.657922,-1.75269 0.274281,-3.675322 2.071306,-4.272015 0.345338,-0.114658 0.405258,-0.122557 0.950528,-0.125164 0.493271,-0.0026 0.627653,0.01044 0.881822,0.08415 1.317766,0.382114 2.242851,1.463849 2.391653,2.796647 0.186599,1.671311 -0.927264,3.20688 -2.580213,3.557081 -0.338822,0.07178 -1.001374,0.06856 -1.352812,-0.0066 z m 1.235905,-1.122177 c 0.925032,-0.238504 1.579368,-1.08506 1.586807,-2.052972 0.0043,-0.605743 -0.199134,-1.100933 -0.630683,-1.53248 -0.838959,-0.838961 -2.171362,-0.831432 -3.009525,0.01703 -0.318668,0.322583 -0.48644,0.62739 -0.58218,1.05772 -0.118483,0.532582 -0.0097,1.129001 0.291506,1.59842 0.265685,0.414036 0.774507,0.784738 1.25461,0.91405 0.274651,0.07398 0.79903,0.07314 1.089465,-0.0019 z m 8.114159,0.838967 C 21.72639,27.557016 21.195107,27.2917 20.70325,26.80059 c -0.297568,-0.297115 -0.378703,-0.407067 -0.530785,-0.719302 -0.243649,-0.500226 -0.317582,-0.859877 -0.290292,-1.412077 0.02351,-0.475628 0.08527,-0.719791 0.287061,-1.134977 0.271812,-0.559218 0.739775,-1.008318 1.350839,-1.296389 1.529117,-0.72086 3.35943,0.0787 3.888863,1.698824 0.132766,0.40627 0.164732,1.077199 0.07133,1.497011 -0.119202,0.535779 -0.473478,1.132563 -0.895236,1.508021 -0.580999,0.51722 -1.438275,0.785883 -2.211429,0.693037 z m 0.84752,-1.192548 c 0.450078,-0.141758 0.804827,-0.452291 1.024504,-0.896769 0.126147,-0.255235 0.144005,-0.328497 0.157976,-0.648 0.01941,-0.444381 -0.07294,-0.761529 -0.31909,-1.095504 -0.383032,-0.519695 -1.021085,-0.785423 -1.633859,-0.680461 -1.222791,0.209458 -1.832429,1.519289 -1.205247,2.589501 0.219424,0.374417 0.757661,0.732421 1.197767,0.796684 0.248671,0.03632 0.530039,0.01265 0.777949,-0.06545 z m -5.923627,-1.301726 c 0.05705,-0.289374 0.03342,-1.225925 -0.03752,-1.48625 -0.408875,-1.500735 -1.621323,-2.523327 -3.169517,-2.67323 -0.284902,-0.02758 -0.835757,0.02615 -1.183312,0.115329 -0.289989,0.07447 -0.797922,0.314089 -1.094296,0.516264 -0.286629,0.195541 -0.679575,0.587181 -0.860225,0.857378 l -0.140509,0.210163 -0.01078,-0.547084 c -0.01233,-0.626599 0.03965,-0.948404 0.215008,-1.330889 0.316537,-0.690521 0.90867,-1.190832 1.650139,-1.394252 0.237315,-0.06512 0.384389,-0.07971 0.705629,-0.07006 l 0.405828,0.01218 0.01078,-2.347215 c 0.01003,-2.168076 0.01595,-2.354901 0.07919,-2.447925 0.03764,-0.05535 0.11266,-0.120856 0.166718,-0.145488 0.142756,-0.06505 5.093355,-0.06355 5.236301,0.0019 0.05594,0.0255 0.129269,0.09962 0.162947,0.164737 0.04871,0.09418 1.911604,5.471972 1.911604,5.518382 0,0.0069 0.06108,0.0125 0.135795,0.0125 0.129784,0 0.135794,0.0062 0.135794,0.138246 0,0.131485 0.0056,0.137652 0.120918,0.126085 0.120027,-0.01201 0.128505,-0.02865 1.154211,-2.259559 l 1.033295,-2.247401 0.601356,-0.168728 c 0.330739,-0.09281 0.666493,-0.186305 0.746107,-0.207801 l 0.144771,-0.03909 -0.02444,-0.23392 -0.02444,-0.23392 1.178535,-1.180868 c 0.791135,-0.792699 1.205076,-1.180871 1.259267,-1.180871 0.204564,0 0.20673,0.0084 0.408717,1.588818 0.10461,0.818432 0.194775,1.492295 0.200393,1.49748 0.0056,0.0049 0.289059,0.04021 0.629884,0.07777 0.533143,0.05882 0.658754,0.08615 0.89953,0.195886 0.153917,0.07014 0.299924,0.165027 0.324448,0.210861 0.06422,0.119981 0.01697,0.253627 -0.106993,0.302638 -0.05894,0.0233 -0.997572,0.217621 -2.085828,0.4318 -1.088252,0.214178 -2.018295,0.398514 -2.06676,0.409637 -0.152623,0.035 -0.256259,-0.116252 -0.313013,-0.456928 -0.02966,-0.178008 -0.06887,-0.300679 -0.09614,-0.300679 -0.0793,0 -0.853953,0.229756 -0.880458,0.261136 -0.01389,0.01641 -0.502935,1.072995 -1.08683,2.347964 l -1.061633,2.318116 h -0.477425 -0.477427 v 0.13158 c 0,0.110272 -0.01678,0.135793 -0.103703,0.157613 -0.203502,0.05107 -0.678149,0.311297 -0.919485,0.504104 -0.516511,0.412635 -0.881992,0.946084 -1.077941,1.573318 -0.07808,0.249925 -0.09089,0.371702 -0.09089,0.863227 v 0.572258 H 18.34506 17.265034 Z m 3.078067,-5.218255 c 0,-0.01604 -0.372879,-1.067925 -0.828624,-2.337515 l -0.828618,-2.308351 -2.003557,-0.01003 -2.003557,-0.01003 0.0012,2.240872 0.0012,2.240871 0.140618,0.106696 0.140619,0.106698 h 2.690139 c 1.479578,0 2.69014,-0.01311 2.69014,-0.02916 z"
       style="stroke-width:0.0375844" />
  </g>
</svg>
