<?xml version="1.0" encoding="UTF-8" standalone="no"?>
<!-- Created with Inkscape (http://www.inkscape.org/) -->

<svg
   xmlns:dc="http://purl.org/dc/elements/1.1/"
   xmlns:cc="http://creativecommons.org/ns#"
   xmlns:rdf="http://www.w3.org/1999/02/22-rdf-syntax-ns#"
   xmlns:svg="http://www.w3.org/2000/svg"
   xmlns="http://www.w3.org/2000/svg"
   xmlns:sodipodi="http://sodipodi.sourceforge.net/DTD/sodipodi-0.dtd"
   xmlns:inkscape="http://www.inkscape.org/namespaces/inkscape"
   width="50"
   height="50"
   viewBox="0 0 50.000001 50.000001"
   id="svg2"
   version="1.1"
   inkscape:version="0.91 r13725"
   sodipodi:docname="motorcycle.svg"
   inkscape:export-filename="/home/local/RG/kas/repos/traccar/traccar-web/web/images/default.svg.png"
   inkscape:export-xdpi="90"
   inkscape:export-ydpi="90">
  <defs
     id="defs4" />
  <sodipodi:namedview
     id="base"
     pagecolor="#ffffff"
     bordercolor="#666666"
     borderopacity="1.0"
     inkscape:pageopacity="0.0"
     inkscape:pageshadow="2"
     inkscape:zoom="8.0000004"
     inkscape:cx="25.580285"
     inkscape:cy="37.395"
     inkscape:document-units="px"
     inkscape:current-layer="layer2"
     showgrid="false"
     units="px"
     inkscape:window-width="1920"
     inkscape:window-height="981"
     inkscape:window-x="0"
     inkscape:window-y="0"
     inkscape:window-maximized="1" />
  <metadata
     id="metadata7">
    <rdf:RDF>
      <cc:Work
         rdf:about="">
        <dc:format>image/svg+xml</dc:format>
        <dc:type
           rdf:resource="http://purl.org/dc/dcmitype/StillImage" />
        <dc:title />
        <cc:license
           rdf:resource="http://creativecommons.org/licenses/by-sa/3.0/" />
      </cc:Work>
      <cc:License
         rdf:about="http://creativecommons.org/licenses/by-sa/3.0/">
        <cc:permits
           rdf:resource="http://creativecommons.org/ns#Reproduction" />
        <cc:permits
           rdf:resource="http://creativecommons.org/ns#Distribution" />
        <cc:requires
           rdf:resource="http://creativecommons.org/ns#Notice" />
        <cc:requires
           rdf:resource="http://creativecommons.org/ns#Attribution" />
        <cc:permits
           rdf:resource="http://creativecommons.org/ns#DerivativeWorks" />
        <cc:requires
           rdf:resource="http://creativecommons.org/ns#ShareAlike" />
      </cc:License>
    </rdf:RDF>
  </metadata>
  <g
     inkscape:groupmode="layer"
     id="layer2"
     inkscape:label="Layer 2">
    <path
       style="opacity:1;fill:#008000;fill-opacity:1;stroke:#000000;stroke-width:1;stroke-miterlimit:4;stroke-dasharray:none"
       d="M 24.861328,1.5332031 C 22.988281,4.0058594 21.115235,6.4785156 19.242188,8.9511719 12.384811,11.305004 7.56648,18.411829 7.9656275,25.658945 8.1243699,33.146749 13.834,40.035153 21.150251,41.610345 27.989532,43.285719 35.647133,40.179534 39.361234,34.187995 43.421356,28.066366 42.795931,19.360483 37.916491,13.875765 36.03007,11.625208 33.474003,10.003272 30.796946,8.9054182 28.818406,6.4480132 26.839867,3.9906081 24.861328,1.5332031 Z M 25,10.332031 C 32.308131,10.16753 39.022437,16.25267 39.595703,23.535156 40.48381,30.788539 35.105845,38.081555 27.914062,39.375 20.786251,40.98485 12.992585,36.360512 10.986328,29.333984 8.6726776,22.401128 12.498474,14.188659 19.287109,11.490234 21.087914,10.727308 23.044264,10.329914 25,10.332031 Z"
       id="path4148"
       inkscape:connector-curvature="0" />
    <path
       style="fill:none;stroke-width:1;stroke-miterlimit:4;stroke-dasharray:none"
       id="path9144"
       ry="5.0823298"
       rx="5.2149124"
       cy="16.191458"
       cx="-31.99658" />
    <path
       d="m 36.550791,26.40708 q 0.120641,1.035497 -0.221174,2.000621 -0.341815,0.955071 -0.995284,1.638701 -0.65347,0.683629 -1.598487,1.065657 -0.934964,0.382029 -1.970462,0.311655 -1.618593,-0.110587 -2.814945,-1.256672 -1.186298,-1.146085 -1.347152,-2.754625 -0.120641,-1.115924 0.271441,-2.111208 0.402135,-1.005338 1.196352,-1.719128 L 28.35729,22.50637 q -0.965124,0.80427 -1.51806,1.950355 -0.552936,1.146084 -0.552936,2.453023 0,0.271442 -0.191014,0.472509 -0.18096,0.191014 -0.452401,0.191014 l -2.573665,0 -0.693682,0 q -0.231228,1.648754 -1.497954,2.754625 -1.266725,1.105872 -2.955692,1.105872 -1.859874,0 -3.18692,-1.316993 -1.316992,-1.327045 -1.316992,-3.18692 0,-1.859874 1.316992,-3.176866 1.327046,-1.327046 3.18692,-1.327046 0.764056,0 1.528113,0.271441 l 0.241281,-0.452402 q -1.236565,-1.105871 -3.056226,-1.105871 l -0.643416,0 q -0.261388,0 -0.452402,-0.191014 -0.191014,-0.191014 -0.191014,-0.452402 0,-0.261388 0.191014,-0.452402 0.191014,-0.191014 0.452402,-0.191014 l 1.286832,0 q 0.784163,0 1.45774,0.140747 0.673575,0.130694 1.166191,0.382028 0.502669,0.251335 0.723843,0.402135 0.221174,0.140748 0.512722,0.361922 l 5.147328,0 1.156139,0 -0.854537,-1.286832 -2.23185,0 q -0.301601,0 -0.492615,-0.221174 -0.191014,-0.231228 -0.140747,-0.53283 0.04021,-0.231227 0.231227,-0.382028 0.191014,-0.150801 0.432295,-0.150801 l 2.543505,0 q 0.331761,0 0.532829,0.281495 l 0.703736,1.055604 1.146084,-1.146084 q 0.191015,-0.191015 0.462456,-0.191015 l 1.015391,0 q 0.261388,0 0.452402,0.191015 0.191014,0.191014 0.191014,0.452402 l 0,1.286832 q 0,0.261388 -0.191014,0.452402 -0.191014,0.191014 -0.452402,0.191014 l -1.799554,0 1.156138,1.729181 q 1.316992,-0.633363 2.764678,-0.361922 1.437633,0.261388 2.453024,1.357206 1.015391,1.085764 1.186298,2.543504 z m -18.628905,3.739855 q 1.156138,0 2.040835,-0.723843 0.884697,-0.733896 1.115925,-1.849821 l -3.15676,0 q -0.351868,0 -0.552936,-0.311654 -0.18096,-0.321709 -0.01005,-0.633363 l 1.477847,-2.784785 q -0.472509,-0.130694 -0.914858,-0.130694 -1.327045,0 -2.272063,0.945017 -0.945017,0.945017 -0.945017,2.272063 0,1.327046 0.945017,2.272063 0.945018,0.945017 2.272063,0.945017 z m 11.88309,-0.945017 q 0.945018,0.945017 2.272063,0.945017 1.327046,0 2.272063,-0.945017 0.945017,-0.945017 0.945017,-2.272063 0,-1.327046 -0.945017,-2.272063 -0.945017,-0.945017 -2.272063,-0.945017 -0.603202,0 -1.216459,0.241281 l 1.749288,2.613878 q 0.1508,0.231227 0.100534,0.492615 -0.05027,0.261388 -0.271441,0.402135 -0.150801,0.110587 -0.361922,0.110587 -0.351868,0 -0.532829,-0.291548 l -1.749287,-2.613877 q -0.934964,0.95507 -0.934964,2.262009 0,1.327046 0.945017,2.272063 z"
       style="fill:#008000;fill-opacity:1;stroke:#000000;stroke-width:0.80562139;stroke-miterlimit:4;stroke-dasharray:none;stroke-opacity:1"
       id="path4256"
       inkscape:connector-curvature="0" />
  </g>
</svg>
