<?xml version="1.0" encoding="UTF-8" standalone="no"?>
<svg id="svg4145" xmlns:rdf="http://www.w3.org/1999/02/22-rdf-syntax-ns#" xmlns="http://www.w3.org/2000/svg" height="40" width="40" version="1.1" xmlns:cc="http://creativecommons.org/ns#" xmlns:dc="http://purl.org/dc/elements/1.1/" viewBox="0 0 40 40">
 <g id="layer1">
  <path id="background" d="m20.002 3.6816-1.1309 3.3906a12.374 12.374 0 0 1 1.1309 -0.0625 12.374 12.374 0 0 1 1.1289 0.056641l-1.129-3.3847zm-0.002 3.9434a12.374 12.374 0 0 0 -12.375 12.375 12.374 12.374 0 0 0 12.375 12.375 12.374 12.374 0 0 0 12.375 -12.375 12.374 12.374 0 0 0 -12.375 -12.375z" stroke="#333" stroke-width="1.9" fill="#008000"/>
  <path id="icon" style="block-progression:tb;text-transform:none;text-indent:0" stroke-width=".80151" overflow="visible" d="m12.987 13.989c-0.51858 0-0.78749 0.10941-1.052 0.55104-0.2645 0.44164-1.5529 4.3925-1.5529 5.0345v2.7803c0 0.65003 0.60274 1.2524 1.2023 1.2524h0.40076c0 1.3281 1.0764 2.4045 2.4045 2.4045s2.4045-1.0764 2.4045-2.4045h7.2136c0 1.3281 1.0764 2.4045 2.4045 2.4045s2.4045-1.0764 2.4045-2.4045c0-0.07005-0.01918-0.13186-0.02505-0.20038 0.37553-0.28539 0.82656-0.80321 0.82656-1.052v-2.2292c0-0.86884-1.5457-1.1858-4.258-1.8535 0 0-2.4963-2.9345-3.156-3.732-0.42881-0.51858-0.98827-0.55104-1.4026-0.55104h-7.8148zm2.655 1.2774h1.9537v3.5317h-2.8303c-0.36549 0-0.64622-0.1066-0.52599-0.70132 0.12504-0.62037 0.51638-2.1555 0.62618-2.4296 0.12504-0.31099 0.38132-0.40076 0.77647-0.40076zm3.5567 0h1.7283c0.30858 0 0.65684 0.09879 0.85161 0.32562l2.2793 2.7051c0.25408 0.33664 0.14287 0.50095-0.17533 0.50095h-4.6838v-3.5317zm-4.8091 7.1385c0.66285 0 1.2023 0.53942 1.2023 1.2023 0 0.66285-0.53942 1.2023-1.2023 1.2023-0.66285 0-1.2023-0.53942-1.2023-1.2023 0-0.66285 0.53942-1.2023 1.2023-1.2023zm12.023 0c0.66285 0 1.2023 0.53942 1.2023 1.2023 0 0.66285-0.53942 1.2023-1.2023 1.2023-0.66285 0-1.2023-0.53942-1.2023-1.2023 0-0.66285 0.53942-1.2023 1.2023-1.2023z"/>
 </g>
</svg>
