<?xml version="1.0" encoding="UTF-8" standalone="no"?>
<svg
   xmlns:dc="http://purl.org/dc/elements/1.1/"
   xmlns:cc="http://creativecommons.org/ns#"
   xmlns:rdf="http://www.w3.org/1999/02/22-rdf-syntax-ns#"
   xmlns:svg="http://www.w3.org/2000/svg"
   xmlns="http://www.w3.org/2000/svg"
   xmlns:sodipodi="http://sodipodi.sourceforge.net/DTD/sodipodi-0.dtd"
   width="40"
   height="40"
   viewBox="0 0 40 40"
   id="svg4145"
   version="1.1"
   sodipodi:docname="offroad.svg">
  <defs
     id="defs4147" />
  <sodipodi:namedview
     id="base"
     pagecolor="#ffffff"
     bordercolor="#666666"
     borderopacity="1.0"
     showgrid="false"
     units="px" />
  <metadata
     id="metadata4150">
    <rdf:RDF>
      <cc:Work
         rdf:about="">
        <dc:format>image/svg+xml</dc:format>
        <dc:type
           rdf:resource="http://purl.org/dc/dcmitype/StillImage" />
        <dc:title />
      </cc:Work>
    </rdf:RDF>
  </metadata>
  <g
     id="layer1">
    <path
       style="fill:#008000;fill-opacity:1;stroke:#333333;stroke-width:1.89999998;stroke-miterlimit:4;stroke-dasharray:none;stroke-opacity:1"
       d="m 20.001953,3.6816406 -1.130859,3.390625 a 12.37437,12.37437 0 0 1 1.130859,-0.0625 12.37437,12.37437 0 0 1 1.128906,0.056641 L 20.001953,3.6816406 Z M 20,7.625 A 12.37437,12.37437 0 0 0 7.625,20 12.37437,12.37437 0 0 0 20,32.375 12.37437,12.37437 0 0 0 32.375,20 12.37437,12.37437 0 0 0 20,7.625 Z"
       id="background" />
    <path
       style="line-height:normal;font-family:'Bitstream Vera Sans';-inkscape-font-specification:'Bitstream Vera Sans';text-indent:0;text-align:start;text-transform:none;block-progression:tb;overflow:visible;stroke-width:0.80151391;enable-background:accumulate"
       d="m 12.986753,13.988646 c -0.518579,0 -0.787487,0.109406 -1.051987,0.55104 -0.2645,0.441635 -1.552933,4.392497 -1.552933,5.03451 l 0,2.780251 c 0,0.650028 0.602738,1.252366 1.202271,1.252366 l 0.400757,0 c 0,1.328108 1.076433,2.404541 2.404541,2.404541 1.328109,0 2.404542,-1.076433 2.404542,-2.404541 l 7.213626,0 c 0,1.328108 1.076433,2.404541 2.404541,2.404541 1.328109,0 2.404542,-1.076433 2.404542,-2.404541 0,-0.07005 -0.01918,-0.131856 -0.02505,-0.200379 0.375528,-0.285391 0.826561,-0.803212 0.826561,-1.051987 l 0,-2.22921 c 0,-0.868842 -1.545719,-1.18584 -4.258043,-1.853501 0,0 -2.496315,-2.934543 -3.155961,-3.73205 -0.42881,-0.518579 -0.988266,-0.55104 -1.402649,-0.55104 l -7.814761,0 z m 2.655015,1.277412 1.95369,0 0,3.531671 -2.830346,0 c -0.36549,0 -0.64622,-0.106601 -0.525993,-0.701325 0.125036,-0.620371 0.516375,-2.155471 0.626182,-2.429589 0.125037,-0.310987 0.381321,-0.400757 0.776467,-0.400757 z m 3.556718,0 1.728264,0 c 0.308583,0 0.656841,0.09879 0.851609,0.325615 l 2.279305,2.70511 c 0.25408,0.336636 0.14287,0.500946 -0.175331,0.500946 l -4.683847,0 0,-3.531671 z m -4.809084,7.138484 c 0.662853,0 1.202271,0.539419 1.202271,1.202271 0,0.662852 -0.539418,1.202271 -1.202271,1.202271 -0.662852,0 -1.20227,-0.539419 -1.20227,-1.202271 0,-0.662852 0.539418,-1.202271 1.20227,-1.202271 z m 12.022709,0 c 0.662852,0 1.202271,0.539419 1.202271,1.202271 0,0.662852 -0.539419,1.202271 -1.202271,1.202271 -0.662852,0 -1.20227,-0.539419 -1.20227,-1.202271 0,-0.662852 0.539418,-1.202271 1.20227,-1.202271 z"
       overflow="visible"
       id="icon" />
  </g>
</svg>
