<?xml version="1.0" encoding="UTF-8" standalone="no"?>
<svg id="svg4145" xmlns:rdf="http://www.w3.org/1999/02/22-rdf-syntax-ns#" xmlns="http://www.w3.org/2000/svg" height="40" width="40" version="1.1" xmlns:cc="http://creativecommons.org/ns#" xmlns:dc="http://purl.org/dc/elements/1.1/" viewBox="0 0 40 40">
 <g id="layer1">
  <path id="background" d="m20.002 3.6816-1.1309 3.3906a12.374 12.374 0 0 1 1.1309 -0.0625 12.374 12.374 0 0 1 1.1289 0.056641l-1.129-3.3847zm-0.002 3.9434a12.374 12.374 0 0 0 -12.375 12.375 12.374 12.374 0 0 0 12.375 12.375 12.374 12.374 0 0 0 12.375 -12.375 12.374 12.374 0 0 0 -12.375 -12.375z" stroke="#333" stroke-width="1.9" fill="#008000"/>
  <path id="icon" stroke-width=".88152" d="m17.19 14.711a0.8816 0.8816 0 0 0 -0.68868 0.66114l-0.71623 2.8649h-3.2781c-0.96967 0-1.763 0.79336-1.763 1.763v2.1211c0 0.35261 0.17079 0.62257 0.5234 0.79887l1.2672 0.4683c0.14704 1.0824 1.0477 1.9008 2.1762 1.9008 1.0799 0 1.9462-0.75066 2.1487-1.763h7.1623c0.20247 1.0124 1.0688 1.763 2.1487 1.763 1.157 0 2.0652-0.85999 2.1762-1.9834l0.4683-0.30302c0.26446-0.1763 0.44076-0.52891 0.44076-0.88152v-1.5151c0-0.35261-0.25344-0.68318-0.60604-0.77133l-3.9668-1.3498-2.1762-2.7272-0.0551-0.08264-0.02755 0.02755c-0.44623-0.66103-1.2059-0.99171-1.9008-0.99171h-3.1679a0.8816 0.8816 0 0 0 -0.08265 0 0.8816 0.8816 0 0 0 -0.08264 0zm0.85397 1.763h2.4793c0.33302 0 0.40036 0.03368 0.49585 0.19283a0.8816 0.8816 0 0 0 0.0551 0.08264l1.1845 1.4876h-4.6555l0.44076-1.763zm-3.3332 5.8125c0.44076 0 0.79887 0.35812 0.79887 0.79887 0 0.44076-0.35812 0.79887-0.79887 0.79887-0.44076 0-0.79887-0.35812-0.79887-0.79887 0-0.44076 0.35812-0.79887 0.79887-0.79887zm11.46 0c0.44076 0 0.79887 0.35812 0.79887 0.79887 0 0.44076-0.35812 0.79887-0.79887 0.79887-0.44076 0-0.79887-0.35812-0.79887-0.79887 0-0.44076 0.35812-0.79887 0.79887-0.79887z"/>
 </g>
</svg>
