<?xml version="1.0" encoding="UTF-8" standalone="no"?>
<svg
   xmlns:dc="http://purl.org/dc/elements/1.1/"
   xmlns:cc="http://creativecommons.org/ns#"
   xmlns:rdf="http://www.w3.org/1999/02/22-rdf-syntax-ns#"
   xmlns:svg="http://www.w3.org/2000/svg"
   xmlns="http://www.w3.org/2000/svg"
   xmlns:sodipodi="http://sodipodi.sourceforge.net/DTD/sodipodi-0.dtd"
   width="40"
   height="40"
   viewBox="0 0 40 40"
   id="svg4145"
   version="1.1"
   sodipodi:docname="pickup.svg">
  <defs
     id="defs4147" />
  <sodipodi:namedview
     id="base"
     pagecolor="#ffffff"
     bordercolor="#666666"
     borderopacity="1.0"
     showgrid="false"
     units="px" />
  <metadata
     id="metadata4150">
    <rdf:RDF>
      <cc:Work
         rdf:about="">
        <dc:format>image/svg+xml</dc:format>
        <dc:type
           rdf:resource="http://purl.org/dc/dcmitype/StillImage" />
        <dc:title />
      </cc:Work>
    </rdf:RDF>
  </metadata>
  <g
     id="layer1">
    <path
       style="fill:#008000;fill-opacity:1;stroke:#333333;stroke-width:1.89999998;stroke-miterlimit:4;stroke-dasharray:none;stroke-opacity:1"
       d="m 20.001953,3.6816406 -1.130859,3.390625 a 12.37437,12.37437 0 0 1 1.130859,-0.0625 12.37437,12.37437 0 0 1 1.128906,0.056641 L 20.001953,3.6816406 Z M 20,7.625 A 12.37437,12.37437 0 0 0 7.625,20 12.37437,12.37437 0 0 0 20,32.375 12.37437,12.37437 0 0 0 32.375,20 12.37437,12.37437 0 0 0 20,7.625 Z"
       id="background" />
    <path
       style="stroke-width:0.8815155"
       d="m 17.19017,14.711392 a 0.8816036,0.8816036 0 0 0 -0.688684,0.661137 l -0.716232,2.864925 -3.278135,0 c -0.969667,0 -1.763031,0.793364 -1.763031,1.763031 l 0,2.121146 c 0,0.352606 0.170794,0.622571 0.5234,0.798874 l 1.267178,0.468305 c 0.147037,1.082397 1.047732,1.900767 2.176241,1.900767 1.079857,0 1.946221,-0.750665 2.148694,-1.76303 l 7.162313,0 c 0.202474,1.012365 1.068837,1.76303 2.148694,1.76303 1.156989,0 2.065191,-0.859994 2.176241,-1.983409 l 0.468305,-0.303022 c 0.264455,-0.176303 0.440758,-0.528909 0.440758,-0.881515 l 0,-1.515104 c 0,-0.352607 -0.253435,-0.683175 -0.60604,-0.771327 l -3.966821,-1.34982 -2.176241,-2.727189 -0.0551,-0.08264 -0.02755,0.02755 c -0.446231,-0.66103 -1.205887,-0.99171 -1.900764,-0.99171 l -3.167945,0 a 0.8816036,0.8816036 0 0 0 -0.08265,0 0.8816036,0.8816036 0 0 0 -0.08264,0 z m 0.853968,1.763031 2.479261,0 c 0.333018,0 0.400363,0.03368 0.495853,0.192832 a 0.8816036,0.8816036 0 0 0 0.0551,0.08264 l 1.184537,1.487557 -4.655503,0 0.440757,-1.76303 z m -3.333231,5.812492 c 0.440758,0 0.798874,0.358116 0.798874,0.798874 0,0.440758 -0.358116,0.798873 -0.798874,0.798873 -0.440758,0 -0.798873,-0.358115 -0.798873,-0.798873 0,-0.440758 0.358115,-0.798874 0.798873,-0.798874 z m 11.459701,0 c 0.440758,0 0.798874,0.358116 0.798874,0.798874 0,0.440758 -0.358116,0.798873 -0.798874,0.798873 -0.440758,0 -0.798873,-0.358115 -0.798873,-0.798873 0,-0.440758 0.358115,-0.798874 0.798873,-0.798874 z"
       id="icon" />
  </g>
</svg>
