<?xml version="1.0" encoding="UTF-8" standalone="no"?>
<svg id="svg4145" xmlns:rdf="http://www.w3.org/1999/02/22-rdf-syntax-ns#" xmlns="http://www.w3.org/2000/svg" height="40" width="40" version="1.1" xmlns:cc="http://creativecommons.org/ns#" xmlns:dc="http://purl.org/dc/elements/1.1/" viewBox="0 0 40 40">
 <g id="layer1">
  <path id="background" d="m20.002 3.6816l-1.131 3.3907a12.374 12.374 0 0 1 1.131 -0.0625 12.374 12.374 0 0 1 1.129 0.0566l-1.129-3.3848zm-0.002 3.9434a12.374 12.374 0 0 0 -12.375 12.375 12.374 12.374 0 0 0 12.375 12.375 12.374 12.374 0 0 0 12.375 -12.375 12.374 12.374 0 0 0 -12.375 -12.375z" stroke="#333" stroke-width="1.9" fill="#008000"/>
  <path id="icon" d="m26.238 13.763q0.4325 0.51114 0.11796 1.4548-0.31455 0.94364-1.0616 1.6907l-1.5826 1.5826 1.5727 6.8414q0.04915 0.18676-0.11796 0.32438l-1.2582 0.94364q-0.06881 0.05897-0.18676 0.05897-0.03931 0-0.06881-0.0099-0.14744-0.0295-0.20642-0.15727l-2.7425-4.9934-2.5459 2.5459 0.52097 1.9069q0.04915 0.1671-0.07864 0.30472l-0.94364 0.94364q-0.08847 0.08847-0.22608 0.08847h-0.01966q-0.14744-0.01966-0.23591-0.12778l-1.8578-2.477-2.4771-1.8578q-0.10813-0.06881-0.12778-0.22608-0.0099-0.12778 0.08847-0.24574l0.94364-0.95343q0.08847-0.08847 0.22608-0.08847 0.05898 0 0.07864 0.0099l1.9069 0.52097 2.5459-2.5459-4.9934-2.7425q-0.13762-0.07863-0.1671-0.23591-0.01966-0.15728 0.08847-0.2654l1.2582-1.2582q0.13762-0.12778 0.29489-0.07864l6.5367 1.5629 1.5727-1.5727q0.74705-0.74705 1.6907-1.0616 0.94364-0.31455 1.4548 0.11796z"/>
 </g>
</svg>
