<?xml version="1.0" encoding="UTF-8" standalone="no"?>
<svg id="svg4145" xmlns:rdf="http://www.w3.org/1999/02/22-rdf-syntax-ns#" xmlns="http://www.w3.org/2000/svg" height="40" width="40" version="1.1" xmlns:cc="http://creativecommons.org/ns#" xmlns:dc="http://purl.org/dc/elements/1.1/" viewBox="0 0 40 40">
 <g id="layer1">
  <path id="background" d="m20.002 3.6816l-1.131 3.3907a12.374 12.374 0 0 1 1.131 -0.0625 12.374 12.374 0 0 1 1.129 0.0566l-1.129-3.3848zm-0.002 3.9434a12.374 12.374 0 0 0 -12.375 12.375 12.374 12.374 0 0 0 12.375 12.375 12.374 12.374 0 0 0 12.375 -12.375 12.374 12.374 0 0 0 -12.375 -12.375z" stroke="#333" stroke-width="1.9" fill="#008000"/>
  <path id="icon" style="text-decoration-color:#000000;block-progression:tb;isolation:auto;mix-blend-mode:normal;text-indent:0;text-decoration-line:none;white-space:normal;text-transform:none;text-decoration-style:solid" stroke-width=".60887" d="m20.609 12.298a0.60893 0.60893 0 1 0 0 1.2177h1.3795l2.0228 6.443-2.5163 3.9077h-5.871c-0.25412-0.70466-0.92507-1.2177-1.7124-1.2177-1.0016 0-1.8266 0.82501-1.8266 1.8266s0.82501 1.8266 1.8266 1.8266c0.78736 0 1.4583-0.51307 1.7124-1.2177h6.2028a0.60893 0.60893 0 0 0 0.51135 -0.27946l2.1477-3.3345 0.49232 1.5697c-0.43114 0.33547-0.71589 0.85238-0.71589 1.4354 0 1.0016 0.82501 1.8266 1.8266 1.8266s1.8266-0.82501 1.8266-1.8266c0-0.98654-0.80143-1.7976-1.7826-1.8218l-3.1157-9.9286a0.60893 0.60893 0 0 0 -0.58151 -0.42692h-1.8266zm-6.6975 11.568c0.33112 0 0.58355 0.24891 0.60173 0.57438a0.60893 0.60893 0 0 0 0 0.07017c-0.01874 0.32487-0.27102 0.57319-0.60173 0.57319-0.34348 0-0.60887-0.26539-0.60887-0.60887s0.26539-0.60887 0.60887-0.60887zm12.177 0c0.34348 0 0.60887 0.26539 0.60887 0.60886 0 0.34348-0.26539 0.60887-0.60887 0.60887s-0.60886-0.26539-0.60886-0.60887 0.26539-0.60886 0.60886-0.60886z" white-space="normal" overflow="visible" font-weight="400"/>
 </g>
</svg>
