<?xml version="1.0" encoding="UTF-8" standalone="no"?>

<svg
   xmlns:dc="http://purl.org/dc/elements/1.1/"
   xmlns:cc="http://creativecommons.org/ns#"
   xmlns:rdf="http://www.w3.org/1999/02/22-rdf-syntax-ns#"
   xmlns:svg="http://www.w3.org/2000/svg"
   xmlns="http://www.w3.org/2000/svg"
   xmlns:sodipodi="http://sodipodi.sourceforge.net/DTD/sodipodi-0.dtd"
   width="40"
   height="40"
   viewBox="0 0 40 40"
   id="svg4145"
   version="1.1"
   sodipodi:docname="ship.svg">
  <defs
     id="defs4147" />
  <sodipodi:namedview
     id="base"
     pagecolor="#ffffff"
     bordercolor="#666666"
     borderopacity="1.0"
     showgrid="false"
     units="px" />
  <metadata
     id="metadata4150">
    <rdf:RDF>
      <cc:Work
         rdf:about="">
        <dc:format>image/svg+xml</dc:format>
        <dc:type
           rdf:resource="http://purl.org/dc/dcmitype/StillImage" />
        <dc:title></dc:title>
      </cc:Work>
    </rdf:RDF>
  </metadata>
  <g
     id="layer1">
    <path
       style="fill:#008000;fill-opacity:1;stroke:#333333;stroke-width:1.89999998;stroke-miterlimit:4;stroke-dasharray:none;stroke-opacity:1"
       d="M 20.001953 3.6816406 L 18.871094 7.0722656 A 12.37437 12.37437 0 0 1 20.001953 7.0097656 A 12.37437 12.37437 0 0 1 21.130859 7.0664062 L 20.001953 3.6816406 z M 20 7.625 A 12.37437 12.37437 0 0 0 7.625 20 A 12.37437 12.37437 0 0 0 20 32.375 A 12.37437 12.37437 0 0 0 32.375 20 A 12.37437 12.37437 0 0 0 20 7.625 z "
       id="background" />
    <path
       id="icon"
       style="font-style:normal;font-variant:normal;font-weight:normal;font-stretch:normal;font-size:medium;line-height:125%;font-family:FontAwesome;-inkscape-font-specification:'FontAwesome, Normal';text-align:start;letter-spacing:0px;word-spacing:0px;writing-mode:lr-tb;text-anchor:start;fill:#000000;fill-opacity:1;stroke:none;stroke-width:1.11000001px;stroke-linecap:butt;stroke-linejoin:miter;stroke-opacity:1"
       d="m 26.093541,25.102469 q 0.147112,-0.147112 0.348424,-0.147112 0.201312,0 0.348423,0.147112 l 0.991072,0.991072 -0.696847,0.696847 -0.642648,-0.642647 -0.642648,0.642647 q -0.139369,0.147112 -0.348423,0.147112 -0.209054,0 -0.348424,-0.147112 l -0.642648,-0.642647 -0.642647,0.642647 q -0.147113,0.147112 -0.348424,0.147112 -0.201312,0 -0.348423,-0.147112 l -0.642649,-0.642647 -0.642649,0.642647 q -0.147112,0.147112 -0.348424,0.147112 -0.20131,0 -0.348423,-0.147112 l -0.642648,-0.642647 -0.642648,0.642647 q -0.147111,0.147112 -0.348423,0.147112 -0.201312,0 -0.348424,-0.147112 l -0.642647,-0.642647 -0.642648,0.642647 q -0.147113,0.147112 -0.348424,0.147112 -0.201312,0 -0.348423,-0.147112 l -0.642648,-0.642647 -0.642648,0.642647 q -0.147113,0.147112 -0.348424,0.147112 -0.201311,0 -0.348424,-0.147112 l -0.642648,-0.642647 -0.642647,0.642647 q -0.147112,0.147112 -0.348424,0.147112 -0.201311,0 -0.348423,-0.147112 l -0.991072,-0.991071 0.696847,-0.696848 0.642648,0.642648 0.642648,-0.642648 q 0.147113,-0.147112 0.348423,-0.147112 0.201312,0 0.348424,0.147112 l 0.642648,0.642648 0.642649,-0.642648 q 0.147111,-0.147112 0.348423,-0.147112 0.201311,0 0.348423,0.147112 l 0.642648,0.642648 0.642648,-0.642648 q 0.147112,-0.147112 0.348424,-0.147112 0.20131,0 0.348423,0.147112 l 0.642648,0.642648 0.642648,-0.642648 q 0.147112,-0.147112 0.348423,-0.147112 0.201312,0 0.348424,0.147112 l 0.642647,0.642648 0.642648,-0.642648 q 0.147113,-0.147112 0.348425,-0.147112 0.201312,0 0.348424,0.147112 l 0.642648,0.642648 0.642648,-0.642648 q 0.147112,-0.147112 0.348423,-0.147112 0.201311,0 0.348424,0.147112 l 0.642648,0.642648 0.642647,-0.642648 z M 13.906459,24.808245 q -0.147112,0.147112 -0.348424,0.147112 -0.201311,0 -0.348423,-0.147112 l -0.991072,-0.991072 0.696847,-0.696846 0.642648,0.634905 0.642648,-0.634905 q 0.147113,-0.147112 0.348423,-0.147112 0.201312,0 0.348424,0.147112 l 0.642648,0.634905 0.495536,-0.495536 0,-2.268625 -1.625977,-2.431222 q -0.131626,-0.20131 -0.0542,-0.433593 0.07743,-0.240026 0.30971,-0.317453 l 1.370466,-0.449079 0,-2.315081 0.991071,0 0,-0.991072 1.982142,0 0,-0.991071 1.982144,0 0,0.991071 1.982144,0 0,0.991072 0.991071,0 0,2.315081 1.370466,0.449079 q 0.232283,0.07742 0.30971,0.317453 0.07743,0.232283 -0.0542,0.433593 l -1.625977,2.431222 0,2.268625 0.147113,-0.139369 q 0.147111,-0.147112 0.348423,-0.147112 0.201311,0 0.348423,0.147112 l 0.642648,0.634905 0.642648,-0.634905 q 0.147112,-0.147112 0.348424,-0.147112 0.201311,0 0.348423,0.147112 l 0.991071,0.991071 -0.696847,0.696847 -0.642647,-0.642648 -0.642648,0.642648 q -0.13937,0.147112 -0.348424,0.147112 -0.209054,0 -0.348423,-0.147112 l -0.642648,-0.642648 -0.642648,0.642648 q -0.147113,0.147112 -0.348423,0.147112 -0.201312,0 -0.348424,-0.147112 l -0.642649,-0.642648 -0.642649,0.642648 q -0.147111,0.147112 -0.348423,0.147112 -0.201311,0 -0.348424,-0.147112 l -0.642647,-0.642648 -0.642648,0.642648 q -0.147112,0.147112 -0.348424,0.147112 -0.201311,0 -0.348423,-0.147112 l -0.642648,-0.642648 -0.642648,0.642648 q -0.147112,0.147112 -0.348423,0.147112 -0.201312,0 -0.348424,-0.147112 l -0.642643,-0.642648 -0.642648,0.642648 q -0.147113,0.147112 -0.348424,0.147112 -0.201311,0 -0.348424,-0.147112 l -0.642648,-0.642648 -0.642647,0.642648 z m 3.120326,-8.77253 0,0.991071 L 20,16.035715 l 2.973215,0.991071 0,-0.991071 -0.991072,0 0,-0.991072 -3.964287,0 0,0.991072 -0.991071,0 z" />
  </g>
</svg>
