<?xml version="1.0" encoding="UTF-8" standalone="no"?>
<!-- Created with Inkscape (http://www.inkscape.org/) -->

<svg
   xmlns:dc="http://purl.org/dc/elements/1.1/"
   xmlns:cc="http://creativecommons.org/ns#"
   xmlns:rdf="http://www.w3.org/1999/02/22-rdf-syntax-ns#"
   xmlns:svg="http://www.w3.org/2000/svg"
   xmlns="http://www.w3.org/2000/svg"
   xmlns:sodipodi="http://sodipodi.sourceforge.net/DTD/sodipodi-0.dtd"
   xmlns:inkscape="http://www.inkscape.org/namespaces/inkscape"
   width="40"
   height="40"
   viewBox="0 0 40 40"
   id="svg4145"
   version="1.1"
   inkscape:version="0.91 r13725"
   sodipodi:docname="ship.svg">
  <defs
     id="defs4147" />
  <sodipodi:namedview
     id="base"
     pagecolor="#ffffff"
     bordercolor="#666666"
     borderopacity="1.0"
     inkscape:pageopacity="0.0"
     inkscape:pageshadow="2"
     inkscape:zoom="11.313708"
     inkscape:cx="14.337652"
     inkscape:cy="17.209557"
     inkscape:document-units="px"
     inkscape:current-layer="layer1"
     showgrid="false"
     units="px"
     inkscape:window-width="1920"
     inkscape:window-height="981"
     inkscape:window-x="0"
     inkscape:window-y="0"
     inkscape:window-maximized="1" />
  <metadata
     id="metadata4150">
    <rdf:RDF>
      <cc:Work
         rdf:about="">
        <dc:format>image/svg+xml</dc:format>
        <dc:type
           rdf:resource="http://purl.org/dc/dcmitype/StillImage" />
        <dc:title></dc:title>
      </cc:Work>
    </rdf:RDF>
  </metadata>
  <g
     inkscape:label="Layer 1"
     inkscape:groupmode="layer"
     id="layer1">
    <path
       style="fill:#008000;fill-opacity:1;stroke:#000000;stroke-width:0.94994837;stroke-miterlimit:4;stroke-dasharray:none;stroke-opacity:1"
       d="m 33.525025,20 c 0,7.469665 -6.05536,13.525025 -13.525025,13.525025 -7.469665,0 -13.5250252,-6.05536 -13.5250254,-13.525025 -2e-7,-5.309252 3.0591749,-9.903995 7.5109944,-12.117699 L 20,1.4749746 26.049865,7.9001866 C 30.482258,10.120688 33.525025,14.705006 33.525025,20 Z"
       id="path4724"
       inkscape:connector-curvature="0"
       sodipodi:nodetypes="ssscccs" />
    <path
       inkscape:connector-curvature="0"
       id="path4511"
       style="font-style:normal;font-variant:normal;font-weight:normal;font-stretch:normal;font-size:medium;line-height:125%;font-family:FontAwesome;-inkscape-font-specification:'FontAwesome, Normal';text-align:start;letter-spacing:0px;word-spacing:0px;writing-mode:lr-tb;text-anchor:start;fill:#000000;fill-opacity:1;stroke:none;stroke-width:1px;stroke-linecap:butt;stroke-linejoin:miter;stroke-opacity:1"
       d="m 25.489676,24.596818 q 0.132533,-0.132533 0.313895,-0.132533 0.181362,0 0.313895,0.132533 l 0.892857,0.892858 -0.62779,0.62779 -0.578962,-0.578962 -0.578962,0.578962 q -0.125558,0.132533 -0.313895,0.132533 -0.188337,0 -0.313895,-0.132533 l -0.578962,-0.578962 -0.578962,0.578962 q -0.132534,0.132533 -0.313895,0.132533 -0.181362,0 -0.313895,-0.132533 l -0.578963,-0.578962 -0.578962,0.578962 q -0.132533,0.132533 -0.313895,0.132533 -0.181361,0 -0.313895,-0.132533 l -0.578962,-0.578962 -0.578962,0.578962 q -0.132533,0.132533 -0.313895,0.132533 -0.181362,0 -0.313895,-0.132533 l -0.578962,-0.578962 -0.578962,0.578962 q -0.132534,0.132533 -0.313895,0.132533 -0.181362,0 -0.313895,-0.132533 L 16.875,25.538504 16.296038,26.117466 q -0.132534,0.132533 -0.313896,0.132533 -0.181361,0 -0.313895,-0.132533 l -0.578962,-0.578962 -0.578962,0.578962 q -0.132533,0.132533 -0.313895,0.132533 -0.181361,0 -0.313895,-0.132533 l -0.892857,-0.892857 0.62779,-0.627791 0.578962,0.578962 0.578962,-0.578962 q 0.132534,-0.132533 0.313895,-0.132533 0.181362,0 0.313895,0.132533 l 0.578962,0.578962 0.578963,-0.578962 q 0.132533,-0.132533 0.313895,-0.132533 0.181361,0 0.313895,0.132533 l 0.578962,0.578962 0.578962,-0.578962 q 0.132533,-0.132533 0.313895,-0.132533 0.181361,0 0.313895,0.132533 l 0.578962,0.578962 0.578962,-0.578962 q 0.132534,-0.132533 0.313895,-0.132533 0.181362,0 0.313895,0.132533 l 0.578962,0.578962 0.578962,-0.578962 q 0.132534,-0.132533 0.313895,-0.132533 0.181362,0 0.313896,0.132533 L 23.125,25.17578 23.703962,24.596818 q 0.132533,-0.132533 0.313895,-0.132533 0.181361,0 0.313895,0.132533 l 0.578962,0.578962 0.578962,-0.578962 z M 14.510323,24.331751 q -0.132533,0.132534 -0.313895,0.132534 -0.181361,0 -0.313895,-0.132534 l -0.892857,-0.892857 0.62779,-0.62779 0.578962,0.571987 0.578962,-0.571987 q 0.132534,-0.132533 0.313895,-0.132533 0.181362,0 0.313895,0.132533 l 0.578962,0.571987 0.446429,-0.446429 0,-2.043806 -1.464844,-2.19029 q -0.118582,-0.181361 -0.04883,-0.390625 0.06976,-0.216239 0.279018,-0.285993 l 1.234654,-0.404576 0,-2.085659 0.892857,0 0,-0.892857 1.785714,0 0,-0.892857 1.785715,0 0,0.892857 1.785714,0 0,0.892857 0.892857,0 0,2.085659 1.234654,0.404576 q 0.209264,0.06975 0.279018,0.285993 0.06976,0.209264 -0.04883,0.390625 l -1.464844,2.19029 0,2.043806 0.132534,-0.125558 q 0.132533,-0.132533 0.313895,-0.132533 0.181361,0 0.313895,0.132533 l 0.578962,0.571987 0.578962,-0.571987 q 0.132533,-0.132533 0.313895,-0.132533 0.181362,0 0.313895,0.132533 l 0.892857,0.892857 -0.62779,0.62779 -0.578962,-0.578962 -0.578962,0.578962 q -0.125558,0.132534 -0.313895,0.132534 -0.188337,0 -0.313895,-0.132534 l -0.578962,-0.578962 -0.578962,0.578962 q -0.132534,0.132534 -0.313895,0.132534 -0.181362,0 -0.313895,-0.132534 l -0.578963,-0.578962 -0.578962,0.578962 q -0.132533,0.132534 -0.313895,0.132534 -0.181361,0 -0.313895,-0.132534 l -0.578962,-0.578962 -0.578962,0.578962 q -0.132533,0.132534 -0.313895,0.132534 -0.181362,0 -0.313895,-0.132534 l -0.578962,-0.578962 -0.578962,0.578962 q -0.132534,0.132534 -0.313895,0.132534 -0.181362,0 -0.313895,-0.132534 L 16.875,23.752789 16.296038,24.331751 q -0.132534,0.132534 -0.313896,0.132534 -0.181361,0 -0.313895,-0.132534 l -0.578962,-0.578962 -0.578962,0.578962 z m 2.811105,-7.90318 0,0.892857 L 20,16.428571 l 2.678571,0.892857 0,-0.892857 -0.892857,0 0,-0.892858 -3.571429,0 0,0.892858 -0.892857,0 z" />
  </g>
</svg>
