<?xml version="1.0" encoding="UTF-8" standalone="no"?>
<!-- Created with Inkscape (http://www.inkscape.org/) -->

<svg
   xmlns:dc="http://purl.org/dc/elements/1.1/"
   xmlns:cc="http://creativecommons.org/ns#"
   xmlns:rdf="http://www.w3.org/1999/02/22-rdf-syntax-ns#"
   xmlns:svg="http://www.w3.org/2000/svg"
   xmlns="http://www.w3.org/2000/svg"
   xmlns:sodipodi="http://sodipodi.sourceforge.net/DTD/sodipodi-0.dtd"
   xmlns:inkscape="http://www.inkscape.org/namespaces/inkscape"
   width="50"
   height="50"
   viewBox="0 0 50.000001 50.000001"
   id="svg2"
   version="1.1"
   inkscape:version="0.91 r13725"
   sodipodi:docname="ship.svg"
   inkscape:export-filename="/home/local/RG/kas/repos/traccar/traccar-web/web/images/default.svg.png"
   inkscape:export-xdpi="90"
   inkscape:export-ydpi="90">
  <defs
     id="defs4" />
  <sodipodi:namedview
     id="base"
     pagecolor="#ffffff"
     bordercolor="#666666"
     borderopacity="1.0"
     inkscape:pageopacity="0.0"
     inkscape:pageshadow="2"
     inkscape:zoom="11.313709"
     inkscape:cx="36.757017"
     inkscape:cy="20.285436"
     inkscape:document-units="px"
     inkscape:current-layer="layer2"
     showgrid="false"
     units="px"
     inkscape:window-width="1920"
     inkscape:window-height="981"
     inkscape:window-x="0"
     inkscape:window-y="0"
     inkscape:window-maximized="1" />
  <metadata
     id="metadata7">
    <rdf:RDF>
      <cc:Work
         rdf:about="">
        <dc:format>image/svg+xml</dc:format>
        <dc:type
           rdf:resource="http://purl.org/dc/dcmitype/StillImage" />
        <dc:title />
        <cc:license
           rdf:resource="http://creativecommons.org/licenses/by-sa/3.0/" />
      </cc:Work>
      <cc:License
         rdf:about="http://creativecommons.org/licenses/by-sa/3.0/">
        <cc:permits
           rdf:resource="http://creativecommons.org/ns#Reproduction" />
        <cc:permits
           rdf:resource="http://creativecommons.org/ns#Distribution" />
        <cc:requires
           rdf:resource="http://creativecommons.org/ns#Notice" />
        <cc:requires
           rdf:resource="http://creativecommons.org/ns#Attribution" />
        <cc:permits
           rdf:resource="http://creativecommons.org/ns#DerivativeWorks" />
        <cc:requires
           rdf:resource="http://creativecommons.org/ns#ShareAlike" />
      </cc:License>
    </rdf:RDF>
  </metadata>
  <g
     inkscape:groupmode="layer"
     id="layer2"
     inkscape:label="Layer 2">
    <path
       style="opacity:1;fill:#008000;fill-opacity:1;stroke:#000000;stroke-width:1;stroke-miterlimit:4;stroke-dasharray:none"
       d="M 24.861328,1.5332031 C 22.988281,4.0058594 21.115235,6.4785156 19.242188,8.9511719 12.384811,11.305004 7.56648,18.411829 7.9656275,25.658945 8.1243699,33.146749 13.834,40.035153 21.150251,41.610345 27.989532,43.285719 35.647133,40.179534 39.361234,34.187995 43.421356,28.066366 42.795931,19.360483 37.916491,13.875765 36.03007,11.625208 33.474003,10.003272 30.796946,8.9054182 28.818406,6.4480132 26.839867,3.9906081 24.861328,1.5332031 Z M 25,10.332031 C 32.308131,10.16753 39.022437,16.25267 39.595703,23.535156 40.48381,30.788539 35.105845,38.081555 27.914062,39.375 20.786251,40.98485 12.992585,36.360512 10.986328,29.333984 8.6726776,22.401128 12.498474,14.188659 19.287109,11.490234 21.087914,10.727308 23.044264,10.329914 25,10.332031 Z"
       id="path4148"
       inkscape:connector-curvature="0" />
    <path
       style="fill:none;stroke-width:1;stroke-miterlimit:4;stroke-dasharray:none"
       id="path9144"
       ry="5.0823298"
       rx="5.2149124"
       cy="16.191458"
       cx="-31.99658" />
    <path
       d="m 31.631482,30.552917 q 0.160099,-0.160099 0.379182,-0.160099 0.219083,0 0.379182,0.160099 l 1.078564,1.078564 -0.758365,0.758365 -0.699381,-0.699381 -0.699381,0.699381 q -0.151673,0.1601 -0.379183,0.1601 -0.227509,0 -0.379182,-0.1601 l -0.699381,-0.699381 -0.699381,0.699381 q -0.1601,0.1601 -0.379183,0.1601 -0.219083,0 -0.379182,-0.1601 l -0.699382,-0.699381 -0.699381,0.699381 q -0.160099,0.1601 -0.379182,0.1601 -0.219084,0 -0.379183,-0.1601 l -0.699381,-0.699381 -0.699381,0.699381 q -0.160099,0.1601 -0.379182,0.1601 -0.219084,0 -0.379183,-0.1601 l -0.699381,-0.699381 -0.699381,0.699381 q -0.160099,0.1601 -0.379182,0.1601 -0.219084,0 -0.379183,-0.1601 l -0.699381,-0.699381 -0.699381,0.699381 q -0.1601,0.1601 -0.379183,0.1601 -0.219083,0 -0.379182,-0.1601 L 19.0679,31.690465 18.368519,32.389846 q -0.160099,0.1601 -0.379182,0.1601 -0.219084,0 -0.379183,-0.1601 l -1.078564,-1.078563 0.758366,-0.758366 0.699381,0.699382 0.699381,-0.699382 q 0.160099,-0.160099 0.379182,-0.160099 0.219083,0 0.379183,0.160099 l 0.699381,0.699382 0.699381,-0.699382 q 0.1601,-0.160099 0.379183,-0.160099 0.219083,0 0.379182,0.160099 l 0.699382,0.699382 0.69938,-0.699382 q 0.1601,-0.160099 0.379183,-0.160099 0.219083,0 0.379183,0.160099 l 0.699381,0.699382 0.699381,-0.699382 q 0.160099,-0.160099 0.379182,-0.160099 0.219083,0 0.379183,0.160099 l 0.699381,0.699382 0.699381,-0.699382 q 0.160099,-0.160099 0.379182,-0.160099 0.219084,0 0.379183,0.160099 l 0.699381,0.699382 0.699381,-0.699382 q 0.160099,-0.160099 0.379183,-0.160099 0.219083,0 0.379182,0.160099 l 0.699381,0.699382 0.699382,-0.699382 z M 18.368519,30.232719 q -0.160099,0.160099 -0.379182,0.160099 -0.219084,0 -0.379183,-0.160099 l -1.078564,-1.078564 0.758366,-0.758365 0.699381,0.690955 0.699381,-0.690955 q 0.160099,-0.160099 0.379182,-0.160099 0.219083,0 0.379183,0.160099 l 0.699381,0.690955 0.539282,-0.539282 0,-2.468899 -1.769519,-2.645852 q -0.143246,-0.219083 -0.05898,-0.471871 0.08426,-0.261215 0.337051,-0.345478 l 1.491452,-0.488724 0,-2.519457 1.078563,0 0,-1.078564 2.157128,0 0,-1.078564 2.157127,0 0,1.078564 2.157127,0 0,1.078564 1.078564,0 0,2.519457 1.491451,0.488724 q 0.252788,0.08426 0.337051,0.345478 0.08426,0.252788 -0.05898,0.471871 l -1.769518,2.645852 0,2.468899 0.160099,-0.151673 q 0.160099,-0.160099 0.379183,-0.160099 0.219083,0 0.379182,0.160099 l 0.699381,0.690955 0.699382,-0.690955 q 0.160099,-0.160099 0.379182,-0.160099 0.219083,0 0.379182,0.160099 l 1.078564,1.078564 -0.758365,0.758365 -0.699381,-0.699381 -0.699381,0.699381 q -0.151673,0.160099 -0.379183,0.160099 -0.227509,0 -0.379182,-0.160099 l -0.699381,-0.699381 -0.699381,0.699381 q -0.1601,0.160099 -0.379183,0.160099 -0.219083,0 -0.379182,-0.160099 l -0.699382,-0.699381 -0.699381,0.699381 q -0.160099,0.160099 -0.379182,0.160099 -0.219084,0 -0.379183,-0.160099 l -0.699381,-0.699381 -0.699381,0.699381 q -0.160099,0.160099 -0.379182,0.160099 -0.219084,0 -0.379183,-0.160099 l -0.699381,-0.699381 -0.699381,0.699381 q -0.160099,0.160099 -0.379182,0.160099 -0.219084,0 -0.379183,-0.160099 l -0.699381,-0.699381 -0.699381,0.699381 q -0.1601,0.160099 -0.379183,0.160099 -0.219083,0 -0.379182,-0.160099 l -0.69939,-0.699381 -0.699381,0.699381 z m 3.39579,-9.546973 0,1.078563 3.235692,-1.078563 3.23569,1.078563 0,-1.078563 -1.078563,0 0,-1.078564 -4.314255,0 0,1.078564 -1.078564,0 z"
       id="path4177"
       inkscape:connector-curvature="0"
       style="fill:#008000;stroke:#000000;stroke-width:0.66699368;stroke-miterlimit:4;stroke-dasharray:none;stroke-opacity:1" />
  </g>
</svg>
