<?xml version="1.0" encoding="UTF-8" standalone="no"?>
<svg
   xmlns:dc="http://purl.org/dc/elements/1.1/"
   xmlns:cc="http://creativecommons.org/ns#"
   xmlns:rdf="http://www.w3.org/1999/02/22-rdf-syntax-ns#"
   xmlns:svg="http://www.w3.org/2000/svg"
   xmlns="http://www.w3.org/2000/svg"
   xmlns:sodipodi="http://sodipodi.sourceforge.net/DTD/sodipodi-0.dtd"
   width="40"
   height="40"
   viewBox="0 0 40 40"
   id="svg4145"
   version="1.1"
   sodipodi:docname="tractor.svg">
  <defs
     id="defs4147" />
  <sodipodi:namedview
     id="base"
     pagecolor="#ffffff"
     bordercolor="#666666"
     borderopacity="1.0"
     showgrid="false"
     units="px" />
  <metadata
     id="metadata4150">
    <rdf:RDF>
      <cc:Work
         rdf:about="">
        <dc:format>image/svg+xml</dc:format>
        <dc:type
           rdf:resource="http://purl.org/dc/dcmitype/StillImage" />
        <dc:title />
      </cc:Work>
    </rdf:RDF>
  </metadata>
  <g
     id="layer1">
    <path
       style="fill:#008000;fill-opacity:1;stroke:#333333;stroke-width:1.89999998;stroke-miterlimit:4;stroke-dasharray:none;stroke-opacity:1"
       d="m 20.001953,3.6816406 -1.130859,3.390625 a 12.37437,12.37437 0 0 1 1.130859,-0.0625 12.37437,12.37437 0 0 1 1.128906,0.056641 L 20.001953,3.6816406 Z M 20,7.625 A 12.37437,12.37437 0 0 0 7.625,20 12.37437,12.37437 0 0 0 20,32.375 12.37437,12.37437 0 0 0 32.375,20 12.37437,12.37437 0 0 0 20,7.625 Z"
       id="background" />
    <path
       style="stroke-width:0.84153426"
       d="m 13.104551,12.426654 a 0.84161836,0.84161836 0 0 0 -0.683747,0.841534 l 0,5.049206 a 0.84161836,0.84161836 0 0 0 0,0.07889 l 0,1.867154 c 0.841534,-0.673228 1.851375,-1.104514 2.94537,-1.104514 2.524602,0 4.628437,2.103835 4.628437,4.628438 l 0,0.420767 3.786905,0 c -0.25895,0.349608 -0.420768,0.785152 -0.420768,1.262302 0,1.178148 0.925688,2.103835 2.103836,2.103835 1.178148,0 2.103835,-0.925687 2.103835,-2.103835 0,-0.55373 -0.213184,-1.047793 -0.552257,-1.420089 0.497179,-0.226205 0.855209,-0.673228 0.973024,-1.262302 l 0.420767,-2.708688 c 0.08415,-0.420767 -0.336613,-0.920428 -0.841534,-0.920428 l -7.126743,-0.788938 -1.314897,-5.312185 a 0.84161836,0.84161836 0 0 0 -0.815236,-0.631149 l -5.049205,0 a 0.84161836,0.84161836 0 0 0 -0.07889,0 0.84161836,0.84161836 0 0 0 -0.07889,0 z m 0.999321,1.683069 3.550223,0 1.025619,4.049883 -4.575842,-0.499661 0,-3.550222 z m 10.098411,0 0,3.629117 1.683068,0.236681 0,-3.865798 -1.683068,0 z m -8.836109,5.89074 c -2.103836,0 -3.786905,1.683067 -3.786905,3.786903 0,2.103836 1.683069,3.786904 3.786905,3.786904 2.103835,0 3.786903,-1.683068 3.786903,-3.786904 0,-2.103836 -1.683068,-3.786903 -3.786903,-3.786903 z m 0,1.2623 c 1.430608,0 2.524602,1.093995 2.524602,2.524603 0,1.430608 -1.093994,2.524603 -2.524602,2.524603 -1.430609,0 -2.524603,-1.093995 -2.524603,-2.524603 0,-1.430608 1.093994,-2.524603 2.524603,-2.524603 z m 10.09841,3.366137 c 0.504921,0 0.841535,0.336614 0.841535,0.841535 0,0.50492 -0.336614,0.841534 -0.841535,0.841534 -0.50492,0 -0.841534,-0.336614 -0.841534,-0.841534 0,-0.504921 0.336614,-0.841535 0.841534,-0.841535 z"
       id="icon" />
  </g>
</svg>
