<?xml version="1.0" encoding="UTF-8" standalone="no"?>

<svg
   xmlns:dc="http://purl.org/dc/elements/1.1/"
   xmlns:cc="http://creativecommons.org/ns#"
   xmlns:rdf="http://www.w3.org/1999/02/22-rdf-syntax-ns#"
   xmlns:svg="http://www.w3.org/2000/svg"
   xmlns="http://www.w3.org/2000/svg"
   xmlns:sodipodi="http://sodipodi.sourceforge.net/DTD/sodipodi-0.dtd"
   width="40"
   height="40"
   viewBox="0 0 40 40"
   id="svg4145"
   version="1.1"
   sodipodi:docname="train.svg">
  <defs
     id="defs4147" />
  <sodipodi:namedview
     id="base"
     pagecolor="#ffffff"
     bordercolor="#666666"
     borderopacity="1.0"
     showgrid="false"
     units="px" />
  <metadata
     id="metadata4150">
    <rdf:RDF>
      <cc:Work
         rdf:about="">
        <dc:format>image/svg+xml</dc:format>
        <dc:type
           rdf:resource="http://purl.org/dc/dcmitype/StillImage" />
        <dc:title></dc:title>
      </cc:Work>
    </rdf:RDF>
  </metadata>
  <g
     id="layer1">
    <path
       style="fill:#008000;fill-opacity:1;stroke:#333333;stroke-width:1.89999998;stroke-miterlimit:4;stroke-dasharray:none;stroke-opacity:1"
       d="M 20.001953 3.6816406 L 18.871094 7.0722656 A 12.37437 12.37437 0 0 1 20.001953 7.0097656 A 12.37437 12.37437 0 0 1 21.130859 7.0664062 L 20.001953 3.6816406 z M 20 7.625 A 12.37437 12.37437 0 0 0 7.625 20 A 12.37437 12.37437 0 0 0 20 32.375 A 12.37437 12.37437 0 0 0 32.375 20 A 12.37437 12.37437 0 0 0 20 7.625 z "
       id="background" />
    <path
       id="icon"
       style="font-style:normal;font-variant:normal;font-weight:normal;font-stretch:normal;font-size:medium;line-height:125%;font-family:FontAwesome;-inkscape-font-specification:'FontAwesome, Normal';text-align:start;letter-spacing:0px;word-spacing:0px;writing-mode:lr-tb;text-anchor:start;fill:#000000;fill-opacity:1;stroke:none;stroke-width:1.30545557px;stroke-linecap:butt;stroke-linejoin:miter;stroke-opacity:1"
       d="m 18.126937,11.484292 c -0.598635,0 -1.086857,0.44565 -1.170666,1.021671 H 16.59443 c -1.314337,0 -2.383899,1.026991 -2.383899,2.288117 v 9.727159 c 0,0.877999 0.517487,1.638931 1.277089,2.022057 l -1.638931,1.362228 c -0.146333,0.121058 -0.168948,0.337897 -0.04789,0.484229 0.121057,0.146334 0.337896,0.168949 0.484229,0.04789 l 1.968844,-1.649572 c 0.111746,0.01596 0.224822,0.02128 0.340558,0.02128 h 6.81114 c 0.115736,0 0.228811,-0.0054 0.340557,-0.02128 l 1.968845,1.649572 c 0.146333,0.121057 0.363172,0.09844 0.484229,-0.04789 0.121058,-0.146332 0.09844,-0.363171 -0.04789,-0.484229 l -1.638933,-1.362228 c 0.759601,-0.383126 1.277088,-1.144058 1.277088,-2.022057 V 14.79408 c 0,-1.261126 -1.069563,-2.288117 -2.383899,-2.288117 h -0.361834 c -0.08381,-0.576021 -0.57203,-1.021671 -1.170665,-1.021671 -0.598635,0 -1.086856,0.44565 -1.170664,1.021671 h -1.404803 c -0.08381,-0.576021 -0.572029,-1.021671 -1.170664,-1.021671 z m 0,0.681114 c 0.282023,0 0.510835,0.228811 0.510835,0.510836 0,0.282023 -0.228812,0.510835 -0.510835,0.510835 -0.282024,0 -0.510836,-0.228812 -0.510836,-0.510835 0,-0.282025 0.228812,-0.510836 0.510836,-0.510836 z m 3.746126,0 c 0.282024,0 0.510836,0.228811 0.510836,0.510836 0,0.282023 -0.228812,0.510835 -0.510836,0.510835 -0.282023,0 -0.510836,-0.228812 -0.510836,-0.510835 0,-0.282025 0.228813,-0.510836 0.510836,-0.510836 z m -3.916405,2.724456 h 4.086683 c 0.188903,0 0.340558,0.152984 0.340558,0.340556 v 0.681114 h -4.767798 v -0.681114 c 0,-0.187572 0.152984,-0.340556 0.340557,-0.340556 z m -1.362228,1.702784 h 6.81114 c 0.376475,0 0.681113,0.283355 0.681113,0.627903 v 2.490323 c 0,0.344548 -0.304638,0.627901 -0.681113,0.627901 h -6.81114 c -0.376476,0 -0.681114,-0.283353 -0.681114,-0.627901 v -2.490323 c 0,-0.344548 0.304638,-0.627903 0.681114,-0.627903 z m 0.340556,6.130026 c 0.564048,0 1.021672,0.457623 1.021672,1.021671 0,0.564048 -0.457624,1.021672 -1.021672,1.021672 -0.564047,0 -1.02167,-0.457624 -1.02167,-1.021672 0,-0.564048 0.457623,-1.021671 1.02167,-1.021671 z m 6.130027,0 c 0.564047,0 1.02167,0.457623 1.02167,1.021671 0,0.564048 -0.457623,1.021672 -1.02167,1.021672 -0.564048,0 -1.021672,-0.457624 -1.021672,-1.021672 0,-0.564048 0.457624,-1.021671 1.021672,-1.021671 z" />
  </g>
</svg>
