<?xml version="1.0" encoding="UTF-8" standalone="no"?>

<svg
   xmlns:dc="http://purl.org/dc/elements/1.1/"
   xmlns:cc="http://creativecommons.org/ns#"
   xmlns:rdf="http://www.w3.org/1999/02/22-rdf-syntax-ns#"
   xmlns:svg="http://www.w3.org/2000/svg"
   xmlns="http://www.w3.org/2000/svg"
   xmlns:sodipodi="http://sodipodi.sourceforge.net/DTD/sodipodi-0.dtd"
   width="40"
   height="40"
   viewBox="0 0 40 40"
   id="svg4145"
   version="1.1"
   sodipodi:docname="tram.svg">
  <defs
     id="defs4147" />
  <sodipodi:namedview
     id="base"
     pagecolor="#ffffff"
     bordercolor="#666666"
     borderopacity="1.0"
     showgrid="false"
     units="px" />
  <metadata
     id="metadata4150">
    <rdf:RDF>
      <cc:Work
         rdf:about="">
        <dc:format>image/svg+xml</dc:format>
        <dc:type
           rdf:resource="http://purl.org/dc/dcmitype/StillImage" />
        <dc:title></dc:title>
      </cc:Work>
    </rdf:RDF>
  </metadata>
  <g
     id="layer1">
    <path
       style="fill:#008000;fill-opacity:1;stroke:#333333;stroke-width:1.89999998;stroke-miterlimit:4;stroke-dasharray:none;stroke-opacity:1"
       d="M 20.001953 3.6816406 L 18.871094 7.0722656 A 12.37437 12.37437 0 0 1 20.001953 7.0097656 A 12.37437 12.37437 0 0 1 21.130859 7.0664062 L 20.001953 3.6816406 z M 20 7.625 A 12.37437 12.37437 0 0 0 7.625 20 A 12.37437 12.37437 0 0 0 20 32.375 A 12.37437 12.37437 0 0 0 32.375 20 A 12.37437 12.37437 0 0 0 20 7.625 z "
       id="background" />
    <path
       id="icon"
       style="font-style:normal;font-variant:normal;font-weight:normal;font-stretch:normal;font-size:medium;line-height:125%;font-family:FontAwesome;-inkscape-font-specification:'FontAwesome, Normal';text-align:start;letter-spacing:0px;word-spacing:0px;writing-mode:lr-tb;text-anchor:start;fill:#000000;fill-opacity:1;stroke:none;stroke-width:1.30545557px;stroke-linecap:butt;stroke-linejoin:miter;stroke-opacity:1"
       d="m 19.999996,11.299402 c -2.576193,0 -3.828263,0.455422 -3.828263,1.392096 0,0.191685 0.156339,0.348024 0.348024,0.348024 0.191685,0 0.348024,-0.156339 0.348024,-0.348024 0,-0.171294 0.346664,-0.451344 1.424722,-0.598166 L 18.58615,13.8117 c -2.814101,0.315397 -4.502561,1.551154 -4.502561,2.70806 v 8.102434 c 0,1.072621 0.754505,1.978026 1.783624,2.251279 l -1.457351,1.218084 c -0.145463,0.122352 -0.165855,0.333071 -0.0435,0.478533 0.06797,0.08157 0.163136,0.130509 0.26102,0.130509 0.07749,0 0.163137,-0.03264 0.22839,-0.087 l 1.979387,-1.653114 h 6.329685 l 1.979386,1.653114 c 0.06525,0.05438 0.150901,0.087 0.228392,0.087 0.09788,0 0.193043,-0.04894 0.261016,-0.130509 0.122353,-0.145462 0.101962,-0.356181 -0.0435,-0.478533 l -1.457351,-1.218084 c 1.029118,-0.273253 1.783624,-1.178658 1.783624,-2.251279 v -8.102433 c 0,-1.156907 -1.68846,-2.392664 -4.50256,-2.708061 l 0.293645,-1.718368 c 1.078059,0.146822 1.424724,0.426872 1.424724,0.598166 0,0.191685 0.154979,0.348024 0.348024,0.348024 0.193044,0 0.348025,-0.156339 0.348025,-0.348024 0,-0.936674 -1.252072,-1.392096 -3.828265,-1.392096 z m 0,0.696047 c 0.377933,0 0.702846,0.01359 1.000569,0.03264 l -0.293646,1.729245 c -0.231109,-0.01223 -0.463578,-0.02175 -0.706923,-0.02175 -0.243346,0 -0.475813,0.0095 -0.706923,0.02175 L 18.999428,12.02809 c 0.297722,-0.01903 0.622637,-0.03264 1.000568,-0.03264 z m -2.088143,3.828263 h 4.176287 c 0.193044,0 0.348024,0.15634 0.348024,0.348025 v 0.696046 h -4.872337 v -0.696046 c 0,-0.191685 0.156341,-0.348025 0.348026,-0.348025 z m -1.392096,1.74012 h 6.960479 c 0.38473,0 0.696047,0.289566 0.696047,0.641669 v 2.544926 c 0,0.352102 -0.311317,0.641669 -0.696047,0.641669 h -6.960479 c -0.384731,0 -0.696048,-0.289567 -0.696048,-0.641669 v -2.544926 c 0,-0.352103 0.311317,-0.641669 0.696048,-0.641669 z m 0.348024,5.568384 c 0.576414,0 1.044072,0.467656 1.044072,1.044071 0,0.576415 -0.467658,1.044072 -1.044072,1.044072 -0.576415,0 -1.044072,-0.467657 -1.044072,-1.044072 0,-0.576415 0.467657,-1.044071 1.044072,-1.044071 z m 6.264432,0 c 0.576413,0 1.044071,0.467656 1.044071,1.044071 0,0.576415 -0.467658,1.044072 -1.044071,1.044072 -0.576415,0 -1.044073,-0.467657 -1.044073,-1.044072 0,-0.576415 0.467658,-1.044071 1.044073,-1.044071 z" />
  </g>
</svg>
