<?xml version="1.0" encoding="UTF-8" standalone="no"?>
<svg id="svg4145" xmlns:rdf="http://www.w3.org/1999/02/22-rdf-syntax-ns#" xmlns="http://www.w3.org/2000/svg" height="40" width="40" version="1.1" xmlns:cc="http://creativecommons.org/ns#" xmlns:dc="http://purl.org/dc/elements/1.1/" viewBox="0 0 40 40">
 <g id="layer1">
  <path id="background" d="m20.002 3.6816l-1.131 3.3907a12.374 12.374 0 0 1 1.131 -0.0625 12.374 12.374 0 0 1 1.129 0.0566l-1.129-3.3848zm-0.002 3.9434a12.374 12.374 0 0 0 -12.375 12.375 12.374 12.374 0 0 0 12.375 12.375 12.374 12.374 0 0 0 12.375 -12.375 12.374 12.374 0 0 0 -12.375 -12.375z" stroke="#333" stroke-width="1.9" fill="#008000"/>
  <path id="icon" d="m20 11.299c-2.5762 0-3.8283 0.45542-3.8283 1.3921 0 0.19168 0.15634 0.34802 0.34802 0.34802s0.34802-0.15634 0.34802-0.34802c0-0.17129 0.34666-0.45134 1.4247-0.59817l0.294 1.719c-2.8141 0.3154-4.5026 1.5512-4.5026 2.7081v8.1024c0 1.0726 0.7545 1.978 1.7836 2.2513l-1.4574 1.2181c-0.14546 0.12235-0.16586 0.33307-0.0435 0.47853 0.06797 0.08157 0.16314 0.13051 0.26102 0.13051 0.07749 0 0.16314-0.03264 0.22839-0.087l1.9794-1.6531h6.3297l1.9794 1.6531c0.06525 0.05438 0.1509 0.087 0.22839 0.087 0.09788 0 0.19304-0.04894 0.26102-0.13051 0.12235-0.14546 0.10196-0.35618-0.0435-0.47853l-1.4574-1.2181c1.0291-0.27325 1.7836-1.1787 1.7836-2.2513v-8.1024c0-1.1569-1.6885-2.3927-4.5026-2.7081l0.29364-1.7184c1.0781 0.14682 1.4247 0.42687 1.4247 0.59817 0 0.19168 0.15498 0.34802 0.34802 0.34802s0.34802-0.15634 0.34802-0.34802c0-0.93667-1.2521-1.3921-3.8283-1.3921zm0 0.69605c0.37793 0 0.70285 0.01359 1.0006 0.03264l-0.29365 1.7292c-0.23111-0.01223-0.46358-0.02175-0.70692-0.02175-0.24335 0-0.47581 0.0095-0.70692 0.02175l-0.294-1.729c0.29772-0.01903 0.62264-0.03264 1.0006-0.03264zm-2.0881 3.8283h4.1763c0.19304 0 0.34802 0.15634 0.34802 0.34802v0.69605h-4.8723v-0.69605c0-0.19168 0.15634-0.34802 0.34803-0.34802zm-1.3921 1.7401h6.9605c0.38473 0 0.69605 0.28957 0.69605 0.64167v2.5449c0 0.3521-0.31132 0.64167-0.69605 0.64167h-6.9605c-0.38473 0-0.69605-0.28957-0.69605-0.64167v-2.5449c0-0.3521 0.31132-0.64167 0.69605-0.64167zm0.34802 5.5684c0.57641 0 1.0441 0.46766 1.0441 1.0441 0 0.57642-0.46766 1.0441-1.0441 1.0441-0.57642 0-1.0441-0.46766-1.0441-1.0441 0-0.57642 0.46766-1.0441 1.0441-1.0441zm6.2644 0c0.57641 0 1.0441 0.46766 1.0441 1.0441 0 0.57642-0.46766 1.0441-1.0441 1.0441-0.57642 0-1.0441-0.46766-1.0441-1.0441 0-0.57642 0.46766-1.0441 1.0441-1.0441z"/>
 </g>
</svg>
