<?xml version="1.0" encoding="UTF-8" standalone="no"?>

<svg
   xmlns:dc="http://purl.org/dc/elements/1.1/"
   xmlns:cc="http://creativecommons.org/ns#"
   xmlns:rdf="http://www.w3.org/1999/02/22-rdf-syntax-ns#"
   xmlns:svg="http://www.w3.org/2000/svg"
   xmlns="http://www.w3.org/2000/svg"
   xmlns:sodipodi="http://sodipodi.sourceforge.net/DTD/sodipodi-0.dtd"
   width="40"
   height="40"
   viewBox="0 0 40 40"
   id="svg4145"
   version="1.1"
   sodipodi:docname="trolleybus.svg">
  <defs
     id="defs4147" />
  <sodipodi:namedview
     id="base"
     pagecolor="#ffffff"
     bordercolor="#666666"
     borderopacity="1.0"
     showgrid="false"
     units="px" />
  <metadata
     id="metadata4150">
    <rdf:RDF>
      <cc:Work
         rdf:about="">
        <dc:format>image/svg+xml</dc:format>
        <dc:type
           rdf:resource="http://purl.org/dc/dcmitype/StillImage" />
        <dc:title></dc:title>
      </cc:Work>
    </rdf:RDF>
  </metadata>
  <g
     id="layer1">
    <path
       style="fill:#008000;fill-opacity:1;stroke:#333333;stroke-width:1.89999998;stroke-miterlimit:4;stroke-dasharray:none;stroke-opacity:1"
       d="M 20.001953 3.6816406 L 18.871094 7.0722656 A 12.37437 12.37437 0 0 1 20.001953 7.0097656 A 12.37437 12.37437 0 0 1 21.130859 7.0664062 L 20.001953 3.6816406 z M 20 7.625 A 12.37437 12.37437 0 0 0 7.625 20 A 12.37437 12.37437 0 0 0 20 32.375 A 12.37437 12.37437 0 0 0 32.375 20 A 12.37437 12.37437 0 0 0 20 7.625 z "
       id="background" />
    <path
       id="icon"
       style="font-style:normal;font-variant:normal;font-weight:normal;font-stretch:normal;font-size:medium;line-height:125%;font-family:FontAwesome;-inkscape-font-specification:'FontAwesome, Normal';text-align:start;letter-spacing:0px;word-spacing:0px;writing-mode:lr-tb;text-anchor:start;fill:#000000;fill-opacity:1;stroke:none;stroke-width:1.30545557px;stroke-linecap:butt;stroke-linejoin:miter;stroke-opacity:1"
       d="m 16.908545,11.560864 c -0.109467,0.01846 -0.203108,0.091 -0.249268,0.192555 -0.04615,0.100237 -0.03956,0.218935 0.01715,0.313894 l 0.70692,1.181716 h -1.772574 c -1.303054,0 -2.363433,1.060381 -2.363433,2.363434 v 10.466631 c 0,0.298066 0.131888,0.563161 0.337633,0.749123 v 0.601409 c 0,0.557885 0.455014,1.0129 1.012901,1.0129 h 1.350532 c 0.557886,0 1.0129,-0.455015 1.0129,-1.0129 v -0.337634 h 6.077399 v 0.337634 c 0,0.557885 0.455012,1.0129 1.012899,1.0129 h 1.350532 c 0.557888,0 1.012901,-0.455015 1.012901,-1.0129 V 26.828217 C 26.62078,26.642255 26.75267,26.37716 26.75267,26.079094 V 15.612463 c 0,-1.303053 -1.060381,-2.363434 -2.363434,-2.363434 h -1.772575 l 0.70692,-1.181716 c 0.06594,-0.112104 0.062,-0.251906 -0.0092,-0.358735 -0.07254,-0.108148 -0.20047,-0.166178 -0.328401,-0.147714 -0.09892,0.01846 -0.183325,0.08045 -0.232123,0.168816 l -0.907386,1.519349 H 18.153607 L 17.246218,11.72968 c -0.06726,-0.120018 -0.201789,-0.185963 -0.337634,-0.168816 z m -0.960144,3.376332 h 8.103197 c 0.573712,0 1.012901,0.439187 1.012901,1.012899 v 4.726867 c 0,0.573712 -0.439188,1.012898 -1.012901,1.012898 h -8.103197 c -0.573712,0 -1.0129,-0.439186 -1.0129,-1.012898 v -4.726867 c 0,-0.573712 0.439187,-1.012899 1.0129,-1.012899 z m -3.038698,2.0258 c -0.391708,0 -0.675267,0.283558 -0.675267,0.675265 v 2.0258 c 0,0.391708 0.283559,0.675267 0.675267,0.675267 z m 14.180593,0 v 3.376332 c 0.391707,0 0.675268,-0.283559 0.675268,-0.675267 v -2.0258 c 0,-0.391707 -0.283561,-0.675265 -0.675268,-0.675265 z m -11.141895,6.415031 c 0.559203,0 1.012899,0.453695 1.012899,1.0129 0,0.559205 -0.453696,1.012899 -1.012899,1.012899 -0.559206,0 -1.0129,-0.453694 -1.0129,-1.012899 0,-0.559205 0.453694,-1.0129 1.0129,-1.0129 z m 8.103197,0 c 0.559205,0 1.0129,0.453695 1.0129,1.0129 0,0.559205 -0.453696,1.012899 -1.0129,1.012899 -0.559206,0 -1.012899,-0.453694 -1.012899,-1.012899 0,-0.559205 0.453693,-1.0129 1.012899,-1.0129 z" />
  </g>
</svg>
