<?xml version="1.0" encoding="UTF-8" standalone="no"?>
<!-- Created with Inkscape (http://www.inkscape.org/) -->

<svg
   xmlns:dc="http://purl.org/dc/elements/1.1/"
   xmlns:cc="http://creativecommons.org/ns#"
   xmlns:rdf="http://www.w3.org/1999/02/22-rdf-syntax-ns#"
   xmlns:svg="http://www.w3.org/2000/svg"
   xmlns="http://www.w3.org/2000/svg"
   xmlns:sodipodi="http://sodipodi.sourceforge.net/DTD/sodipodi-0.dtd"
   xmlns:inkscape="http://www.inkscape.org/namespaces/inkscape"
   width="50"
   height="50"
   viewBox="0 0 50.000001 50.000001"
   id="svg2"
   version="1.1"
   inkscape:version="0.91 r13725"
   sodipodi:docname="truck.svg">
  <defs
     id="defs4" />
  <sodipodi:namedview
     id="base"
     pagecolor="#ffffff"
     bordercolor="#666666"
     borderopacity="1.0"
     inkscape:pageopacity="0.0"
     inkscape:pageshadow="2"
     inkscape:zoom="16"
     inkscape:cx="40.268129"
     inkscape:cy="20.202497"
     inkscape:document-units="px"
     inkscape:current-layer="layer2"
     showgrid="false"
     units="px"
     inkscape:window-width="1920"
     inkscape:window-height="981"
     inkscape:window-x="0"
     inkscape:window-y="0"
     inkscape:window-maximized="1" />
  <metadata
     id="metadata7">
    <rdf:RDF>
      <cc:Work
         rdf:about="">
        <dc:format>image/svg+xml</dc:format>
        <dc:type
           rdf:resource="http://purl.org/dc/dcmitype/StillImage" />
        <dc:title></dc:title>
        <cc:license
           rdf:resource="http://creativecommons.org/licenses/by-sa/3.0/" />
      </cc:Work>
      <cc:License
         rdf:about="http://creativecommons.org/licenses/by-sa/3.0/">
        <cc:permits
           rdf:resource="http://creativecommons.org/ns#Reproduction" />
        <cc:permits
           rdf:resource="http://creativecommons.org/ns#Distribution" />
        <cc:requires
           rdf:resource="http://creativecommons.org/ns#Notice" />
        <cc:requires
           rdf:resource="http://creativecommons.org/ns#Attribution" />
        <cc:permits
           rdf:resource="http://creativecommons.org/ns#DerivativeWorks" />
        <cc:requires
           rdf:resource="http://creativecommons.org/ns#ShareAlike" />
      </cc:License>
    </rdf:RDF>
  </metadata>
  <g
     inkscape:groupmode="layer"
     id="layer2"
     inkscape:label="Layer 2">
    <path
       style="opacity:1;fill:#ff5468;fill-opacity:1;stroke:#000000;stroke-width:0.90704989"
       d="M 42.046474,25 C 42.046474,34.414508 34.414508,42.046474 25,42.046474 15.585492,42.046474 7.9535258,34.414508 7.9535255,25 7.9535253,17.60606 12.661055,11.311623 19.242451,8.9503498 l 5.619408,-7.4180155 6.003402,7.4570729 C 37.390248,11.380441 42.046474,17.64646 42.046474,25 Z"
       id="path4148"
       inkscape:connector-curvature="0"
       sodipodi:nodetypes="ssscccs" />
    <path
       style="opacity:1;fill:#ffffff;fill-opacity:1;stroke:#000000;stroke-width:0.84430718;stroke-miterlimit:4;stroke-dasharray:none"
       d="M 25,10.429576 C 16.953056,10.429769 10.429769,16.953056 10.429576,25 10.429769,33.046944 16.953056,39.570231 25,39.570424 33.046944,39.570231 39.570231,33.046944 39.570424,25 39.570231,16.953056 33.046944,10.429769 25,10.429576 Z m 8.841196,6.770477 c 0.460634,0.02953 0.622705,0.267803 0.650193,0.603076 l 0.03534,11.540907 c -0.07256,0.299323 -0.236494,0.572403 -0.69024,0.579519 l -0.770337,0.01885 c -0.07661,3.844781 -5.58244,3.657007 -5.564323,-0.0025 l -4.29221,-0.01183 c 0.0137,3.807627 -5.659897,3.856665 -5.630285,-0.01413 l -1.394615,-0.0047 c -0.958858,0.01435 -0.940133,-1.339998 0.01182,-1.363989 l 0.0025,-5.029565 c 0,0 0.03734,-0.309502 0.55596,-0.904614 l 2.108412,-2.113124 c 0.192955,-0.194626 0.404056,-0.415465 1.144904,-0.433461 l 1.821009,0.0025 -0.0047,-2.167306 c 0.02174,-0.279544 0.07758,-0.641486 0.636056,-0.69024 z m -13.472636,4.461824 -2.433508,2.13197 0.0071,0.525336 3.868171,-0.04004 0.02827,-2.617258 z m 0.02356,7.293457 c -0.565965,7.6e-4 -1.024459,0.465576 -1.02476,1.038894 3.01e-4,0.573318 0.458795,1.038134 1.02476,1.038894 0.566886,5.56e-4 1.026813,-0.464646 1.027115,-1.038894 -3.02e-4,-0.574249 -0.460229,-1.03945 -1.027115,-1.038894 z m 9.92485,0.05653 c -0.566874,7.61e-4 -1.025743,0.467012 -1.024759,1.041249 3.01e-4,0.573316 0.458793,1.038133 1.024759,1.038894 0.566885,5.57e-4 1.026813,-0.464645 1.027115,-1.038894 9.85e-4,-0.575169 -0.45932,-1.041808 -1.027115,-1.041249 z"
       id="path4179"
       inkscape:connector-curvature="0"
       sodipodi:nodetypes="ccccccccccccccccccccccccccccccccccccccc" />
  </g>
</svg>
