<?xml version="1.0" encoding="UTF-8" standalone="no"?>
<svg id="svg4145" xmlns:rdf="http://www.w3.org/1999/02/22-rdf-syntax-ns#" xmlns="http://www.w3.org/2000/svg" height="40" width="40" version="1.1" xmlns:cc="http://creativecommons.org/ns#" xmlns:dc="http://purl.org/dc/elements/1.1/" viewBox="0 0 40 40">
 <g id="layer1">
  <path id="background" d="m20.002 3.6816l-1.131 3.3907a12.374 12.374 0 0 1 1.131 -0.0625 12.374 12.374 0 0 1 1.129 0.0566l-1.129-3.3848zm-0.002 3.9434a12.374 12.374 0 0 0 -12.375 12.375 12.374 12.374 0 0 0 12.375 12.375 12.374 12.374 0 0 0 12.375 -12.375 12.374 12.374 0 0 0 -12.375 -12.375z" stroke="#333" stroke-width="1.9" fill="#008000"/>
  <path id="icon" d="m17.031 24.899q0.34603-0.34603 0.34603-0.81955t-0.34603-0.81955-0.81955-0.34603-0.81955 0.34603-0.34603 0.81955 0.34603 0.81955 0.81955 0.34603 0.81955-0.34603zm-3.1507-5.4819h3.4968v-2.3312h-1.4388q-0.11838 0-0.20034 0.08196l-1.7757 1.7757q-0.08196 0.08196-0.08196 0.20033v0.27318zm11.31 5.4819q0.34603-0.34603 0.34603-0.81955t-0.34603-0.81955-0.81955-0.34603-0.81955 0.34603-0.34603 0.81955 0.34603 0.81955 0.81955 0.34603 0.81955-0.34603zm2.6772-10.727v9.3247q0 0.13659-0.03642 0.24587-0.03642 0.10017-0.12749 0.16391-0.08196 0.06375-0.1457 0.10927-0.06374 0.03642-0.21855 0.05463-0.1457 0.0091-0.20034 0.01821-0.05463 0-0.23676 0-0.17302-0.0091-0.20034-0.0091 0 0.96525-0.68296 1.6482-0.68296 0.68296-1.6482 0.68296-0.96525 0-1.6482-0.68296-0.68296-0.68292-0.68296-1.6482h-3.4968q0 0.96525-0.68296 1.6482-0.68296 0.68296-1.6482 0.68296-0.96525 0-1.6482-0.68296-0.68296-0.68296-0.68296-1.6482h-0.58279q-0.02732 0-0.20944 0.0091-0.17302 0-0.22765 0-0.05463-0.0091-0.20944-0.01821-0.1457-0.01821-0.20944-0.05463-0.06375-0.04553-0.1548-0.10927-0.08196-0.06375-0.11838-0.16391-0.03642-0.10927-0.03642-0.24586 0-0.23676 0.17302-0.40978t0.40978-0.17302v-2.914q0-0.07285-0.0091-0.31871 0-0.24587 0-0.34603 0.0091-0.10017 0.02732-0.30961 0.01821-0.21855 0.05463-0.33693 0.04554-0.12749 0.12749-0.28229 0.09106-0.1548 0.20944-0.27318l1.803-1.803q0.17302-0.17302 0.45531-0.2914 0.2914-0.11838 0.53726-0.11838h1.457v-1.7484q0-0.23676 0.17302-0.40978t0.40978-0.17302h9.3247q0.23676 0 0.40978 0.17302t0.17302 0.40978z"/>
 </g>
</svg>
