<?xml version="1.0" encoding="UTF-8" standalone="no"?>
<!-- Created with Inkscape (http://www.inkscape.org/) -->

<svg
   xmlns:dc="http://purl.org/dc/elements/1.1/"
   xmlns:cc="http://creativecommons.org/ns#"
   xmlns:rdf="http://www.w3.org/1999/02/22-rdf-syntax-ns#"
   xmlns:svg="http://www.w3.org/2000/svg"
   xmlns="http://www.w3.org/2000/svg"
   xmlns:sodipodi="http://sodipodi.sourceforge.net/DTD/sodipodi-0.dtd"
   xmlns:inkscape="http://www.inkscape.org/namespaces/inkscape"
   width="50"
   height="50"
   viewBox="0 0 50.000001 50.000001"
   id="svg2"
   version="1.1"
   inkscape:version="0.91 r13725"
   sodipodi:docname="truck.svg">
  <defs
     id="defs4" />
  <sodipodi:namedview
     id="base"
     pagecolor="#ffffff"
     bordercolor="#666666"
     borderopacity="1.0"
     inkscape:pageopacity="0.0"
     inkscape:pageshadow="2"
     inkscape:zoom="16"
     inkscape:cx="12.420548"
     inkscape:cy="24.226399"
     inkscape:document-units="px"
     inkscape:current-layer="layer2"
     showgrid="false"
     units="px"
     inkscape:window-width="1920"
     inkscape:window-height="981"
     inkscape:window-x="0"
     inkscape:window-y="0"
     inkscape:window-maximized="1" />
  <metadata
     id="metadata7">
    <rdf:RDF>
      <cc:Work
         rdf:about="">
        <dc:format>image/svg+xml</dc:format>
        <dc:type
           rdf:resource="http://purl.org/dc/dcmitype/StillImage" />
        <dc:title />
        <cc:license
           rdf:resource="http://creativecommons.org/licenses/by-sa/3.0/" />
      </cc:Work>
      <cc:License
         rdf:about="http://creativecommons.org/licenses/by-sa/3.0/">
        <cc:permits
           rdf:resource="http://creativecommons.org/ns#Reproduction" />
        <cc:permits
           rdf:resource="http://creativecommons.org/ns#Distribution" />
        <cc:requires
           rdf:resource="http://creativecommons.org/ns#Notice" />
        <cc:requires
           rdf:resource="http://creativecommons.org/ns#Attribution" />
        <cc:permits
           rdf:resource="http://creativecommons.org/ns#DerivativeWorks" />
        <cc:requires
           rdf:resource="http://creativecommons.org/ns#ShareAlike" />
      </cc:License>
    </rdf:RDF>
  </metadata>
  <g
     inkscape:groupmode="layer"
     id="layer2"
     inkscape:label="Layer 2">
    <path
       style="opacity:1;fill:#ff5468;fill-opacity:1;stroke:#000000;stroke-width:0.90704989"
       d="M 30.316406 29.011719 C 30.032969 29.012099 29.77725 29.129922 29.591797 29.318359 C 29.406343 29.506797 29.292477 29.765616 29.292969 30.052734 C 29.293119 30.339392 29.406391 30.599146 29.591797 30.787109 C 29.777203 30.975073 30.033423 31.091416 30.316406 31.091797 C 30.599849 31.092075 30.857088 30.977075 31.042969 30.789062 C 31.228849 30.60105 31.343599 30.339859 31.34375 30.052734 C 31.344243 29.76515 31.228896 29.504892 31.042969 29.316406 C 30.857041 29.12792 30.600304 29.011439 30.316406 29.011719 z "
       id="path4330" />
    <path
       style="opacity:1;fill:#008000;fill-opacity:1;stroke:#000000;stroke-width:0.90704989"
       d="m 33.841797,17.199219 c -3.79362,0.0033 -7.587239,0.0065 -11.380859,0.0098 -0.69659,0.0028 -0.655606,0.76697 -0.635167,1.261258 0.0014,0.532055 0.0029,1.064109 0.0043,1.596164 -0.818995,0.03277 -1.654099,-0.08495 -2.459094,0.09178 -0.632659,0.315896 -1.044459,0.93882 -1.568543,1.403598 -0.56765,0.63639 -1.366187,1.150658 -1.603243,2.005594 -6.59e-4,1.659164 -0.0013,3.318328 -0.002,4.977492 -1.027034,-0.04909 -0.863853,1.622575 0.143695,1.365669 0.413039,0.0012 0.826078,0.0023 1.239117,0.0035 -0.100744,1.404697 0.999905,2.745148 2.412469,2.862533 1.463988,0.236545 3.041103,-0.817833 3.182341,-2.338018 -0.193618,-0.695013 0.435198,-0.483296 0.862971,-0.50858 1.154698,0.0032 2.309396,0.0063 3.464094,0.0095 -0.08973,1.41597 1.077973,2.71414 2.487157,2.80097 1.412682,0.199315 2.875611,-0.838574 3.031898,-2.283519 -0.189293,-0.741658 0.532546,-0.463074 0.971937,-0.547762 0.650835,-0.120978 0.531304,-0.853948 0.532032,-1.34246 -0.01093,-3.587977 -0.02186,-7.175954 -0.03278,-10.763931 0.0027,-0.357707 -0.302217,-0.611902 -0.650391,-0.603515 z"
       id="path4336"
       inkscape:connector-curvature="0" />
    <path
       style="opacity:1;fill:#f2f2f2;fill-opacity:1;stroke:#000000;stroke-width:0.90704989"
       d="m 20.369141,21.662109 1.46875,0 -0.02734,2.617188 -3.869141,0.03906 -0.0059,-0.52539 2.433594,-2.13086 z"
       id="path4334" />
    <path
       style="opacity:1;fill:#f2f2f2;fill-opacity:1;stroke:#000000;stroke-width:0.90704989"
       d="m 20.392578,28.955078 c 0.495617,-0.01 0.949054,0.392744 1.015279,0.880782 0.08326,0.480935 -0.222962,0.990466 -0.686539,1.142734 -0.433519,0.157426 -0.953792,-0.03157 -1.192133,-0.42471 -0.264966,-0.402656 -0.196351,-0.982659 0.156372,-1.311528 0.187059,-0.182377 0.44554,-0.288296 0.707021,-0.287278 z"
       id="path4322"
       inkscape:connector-curvature="0" />
    <path
       style="opacity:1;fill:#f2f2f2;fill-opacity:1;stroke:#000000;stroke-width:0.90704989"
       d="m 30.316406,29.011719 c 0.478158,-0.0097 0.92095,0.363157 1.006701,0.831145 0.100881,0.459837 -0.150196,0.969495 -0.58392,1.158109 -0.416503,0.197732 -0.954004,0.0628 -1.228859,-0.307059 -0.31121,-0.389351 -0.284147,-1.000054 0.06429,-1.357684 0.189169,-0.203633 0.463259,-0.325919 0.741784,-0.324511 z"
       id="path4328"
       inkscape:connector-curvature="0" />
    <path
       style="opacity:1;fill:#008000;fill-opacity:1;stroke:#000000;stroke-width:1;stroke-miterlimit:4;stroke-dasharray:none"
       d="M 24.861328,1.5332031 C 22.988281,4.0058594 21.115235,6.4785156 19.242188,8.9511719 12.384811,11.305004 7.56648,18.411829 7.9656275,25.658945 8.1243699,33.146749 13.834,40.035153 21.150251,41.610345 27.989532,43.285719 35.647133,40.179534 39.361234,34.187995 43.421356,28.066366 42.795931,19.360483 37.916491,13.875765 36.03007,11.625208 33.474003,10.003272 30.796946,8.9054182 28.818406,6.4480132 26.839867,3.9906081 24.861328,1.5332031 Z M 25,10.429688 c 6.598201,-0.123185 12.819493,4.830867 14.196406,11.280617 1.543338,6.202211 -1.588945,13.143604 -7.251063,16.101735 -5.688194,3.206782 -13.425166,1.899164 -17.73054,-3.015306 C 9.647006,29.954251 9.1668508,21.921033 13.117741,16.56535 15.789672,12.756758 20.34357,10.392898 25,10.429688 Z"
       id="path4148"
       inkscape:connector-curvature="0" />
  </g>
</svg>
