<?xml version="1.0" encoding="UTF-8" standalone="no"?>
<svg id="svg4145" xmlns:rdf="http://www.w3.org/1999/02/22-rdf-syntax-ns#" xmlns="http://www.w3.org/2000/svg" height="40" width="40" version="1.1" xmlns:cc="http://creativecommons.org/ns#" xmlns:dc="http://purl.org/dc/elements/1.1/" viewBox="0 0 40 40">
 <g id="layer1">
  <path id="background" d="m20.002 3.6816-1.1309 3.3906a12.374 12.374 0 0 1 1.1309 -0.0625 12.374 12.374 0 0 1 1.1289 0.056641l-1.129-3.3847zm-0.002 3.9434a12.374 12.374 0 0 0 -12.375 12.375 12.374 12.374 0 0 0 12.375 12.375 12.374 12.374 0 0 0 12.375 -12.375 12.374 12.374 0 0 0 -12.375 -12.375z" stroke="#333" stroke-width="1.9" fill="#008000"/>
  <path id="icon" stroke-width="0.87" d="m12.17 13.91c-0.48024 0-0.87 0.38976-0.87 0.87v3.48 4.35c0 0.96135 0.77865 1.74 1.74 1.74h0.05438c0.20276 0.99123 1.0693 1.74 2.1206 1.74s1.9179-0.74877 2.1206-1.74h5.3287c0.20277 0.99123 1.0693 1.74 2.1206 1.74s1.9179-0.74877 2.1206-1.74h0.05438c0.96135 0 1.74-0.77865 1.74-1.74v-3.2081-0.27188s-1.1719-3.5328-3.2625-5.0841c-0.13137-0.09831-0.29863-0.13594-0.46219-0.13594h-12.805zm10.44 1.74h2.0119c0.74211 0.65859 1.3787 1.7078 1.8216 2.61h-3.8334v-2.61zm-7.395 7.395c0.47937 0 0.87 0.39063 0.87 0.87s-0.39063 0.87-0.87 0.87-0.87-0.39063-0.87-0.87 0.39063-0.87 0.87-0.87zm9.57 0c0.47937 0 0.87 0.39063 0.87 0.87s-0.39063 0.87-0.87 0.87-0.87-0.39063-0.87-0.87 0.39063-0.87 0.87-0.87z"/>
 </g>
</svg>
