<?xml version="1.0" encoding="UTF-8" standalone="no"?>
<svg
   xmlns:dc="http://purl.org/dc/elements/1.1/"
   xmlns:cc="http://creativecommons.org/ns#"
   xmlns:rdf="http://www.w3.org/1999/02/22-rdf-syntax-ns#"
   xmlns:svg="http://www.w3.org/2000/svg"
   xmlns="http://www.w3.org/2000/svg"
   xmlns:sodipodi="http://sodipodi.sourceforge.net/DTD/sodipodi-0.dtd"
   width="40"
   height="40"
   viewBox="0 0 40 40"
   id="svg4145"
   version="1.1"
   sodipodi:docname="van.svg">
  <defs
     id="defs4147" />
  <sodipodi:namedview
     id="base"
     pagecolor="#ffffff"
     bordercolor="#666666"
     borderopacity="1.0"
     showgrid="false"
     units="px" />
  <metadata
     id="metadata4150">
    <rdf:RDF>
      <cc:Work
         rdf:about="">
        <dc:format>image/svg+xml</dc:format>
        <dc:type
           rdf:resource="http://purl.org/dc/dcmitype/StillImage" />
        <dc:title />
      </cc:Work>
    </rdf:RDF>
  </metadata>
  <g
     id="layer1">
    <path
       style="fill:#008000;fill-opacity:1;stroke:#333333;stroke-width:1.89999998;stroke-miterlimit:4;stroke-dasharray:none;stroke-opacity:1"
       d="m 20.001953,3.6816406 -1.130859,3.390625 a 12.37437,12.37437 0 0 1 1.130859,-0.0625 12.37437,12.37437 0 0 1 1.128906,0.056641 L 20.001953,3.6816406 Z M 20,7.625 A 12.37437,12.37437 0 0 0 7.625,20 12.37437,12.37437 0 0 0 20,32.375 12.37437,12.37437 0 0 0 32.375,20 12.37437,12.37437 0 0 0 20,7.625 Z"
       id="background" />
    <path
       style="stroke-width:0.86999887"
       d="m 12.17001,13.910008 c -0.480239,0 -0.869998,0.38976 -0.869998,0.869999 l 0,3.479995 0,4.349995 c 0,0.961349 0.778649,1.739998 1.739997,1.739998 l 0.05438,0 c 0.202765,0.991229 1.069336,1.739997 2.120622,1.739997 1.051284,0 1.917855,-0.748768 2.120622,-1.739997 l 5.328742,0 c 0.202766,0.991229 1.069338,1.739997 2.120622,1.739997 1.051286,0 1.917857,-0.748768 2.120622,-1.739997 l 0.05438,0 c 0.961348,0 1.739997,-0.778649 1.739997,-1.739998 l 0,-3.208121 0,-0.271875 c 0,0 -1.171888,-3.532847 -3.262496,-5.084056 -0.131369,-0.09831 -0.298627,-0.135937 -0.462186,-0.135937 l -12.805296,0 z m 10.439987,1.739997 2.011872,0 c 0.742109,0.65859 1.37873,1.707808 1.82156,2.609997 l -3.833432,0 0,-2.609997 z m -7.39499,7.394991 c 0.479369,0 0.869998,0.39063 0.869998,0.869999 0,0.479369 -0.390629,0.869998 -0.869998,0.869998 -0.47937,0 -0.87,-0.390629 -0.87,-0.869998 0,-0.479369 0.39063,-0.869999 0.87,-0.869999 z m 9.569987,0 c 0.479369,0 0.869999,0.39063 0.869999,0.869999 0,0.479369 -0.39063,0.869998 -0.869999,0.869998 -0.47937,0 -0.869999,-0.390629 -0.869999,-0.869998 0,-0.479369 0.390629,-0.869999 0.869999,-0.869999 z"
       id="icon" />
  </g>
</svg>
