<svg id="svg8" xmlns="http://www.w3.org/2000/svg" viewBox="0 0 177.3 36.09"><defs><style>.cls-1,.cls-3{fill:red;}.cls-1{fill-opacity:0.34;}.cls-2{fill:#fff;}</style></defs><path id="path1063-8" class="cls-1" d="M166.6,23.7l6.7-12.1L158.8,14Z"/><ellipse id="path1059-2" class="cls-2" cx="161.24" cy="20.06" rx="4.1" ry="5.4" transform="translate(-1.14 14.27) rotate(-5.05)"/><path id="path1189" class="cls-3" d="M3.8,4.7H34L30,9.3l-8.8.2L18,26.6l-3.3,5.5-1.2-5.7,3.2-17H7.5Z"/><path class="cls-3" d="M27.6,21.5c.1,3.3,2.4,4.7,5.1,4.7a10.44,10.44,0,0,0,4.1-.7l.5,1.8a12.62,12.62,0,0,1-5,.9c-4.6,0-7.3-2.8-7.3-6.8s2.6-7.3,7-7.3c4.8,0,6.1,3.9,6.1,6.4,0,.5-.1.9-.1,1.1H27.6Zm7.9-1.8c0-1.5-.7-4-3.8-4-2.7,0-3.9,2.3-4.2,4Z"/><path class="cls-3" d="M47.1,8.2h2.7V28.1H47.1Z"/><path class="cls-3" d="M67.8,21c0,5-4,7.1-7.5,7.1a6.8,6.8,0,0,1-7.1-7c0-4.5,3.4-7.1,7.4-7.1C64.8,14,67.8,16.7,67.8,21ZM56,21.1c0,2.7,1.5,5.2,4.5,5.2s4.6-2.5,4.6-5.2c0-2.4-1.2-5.3-4.6-5.3S56,18.7,56,21.1Z"/><path class="cls-3" d="M167.6,21c0,5-4,7.1-7.5,7.1a6.8,6.8,0,0,1-7.1-7c0-4.5,3.4-7.1,7.4-7.1C164.7,14,167.6,16.7,167.6,21Zm-11.8.1c0,2.7,1.5,5.2,4.5,5.2s4.6-2.5,4.6-5.2c0-2.4-1.2-5.3-4.6-5.3S155.8,18.7,155.8,21.1Z"/><path class="cls-3" d="M75.8,9.5A26.81,26.81,0,0,1,81,9.1c2.9,0,4.7.5,6,1.5a4.53,4.53,0,0,1,1.6,3.6c0,2.5-1.7,4.1-3.9,4.8v.1a4.65,4.65,0,0,1,3,3.8,30.31,30.31,0,0,0,1.6,5.2H86.5a27.41,27.41,0,0,1-1.4-4.5c-.6-2.6-1.7-3.6-4.2-3.7H78.4v8.2H75.7V9.5Zm2.7,8.6h2.7c2.9,0,4.7-1.4,4.7-3.6C85.9,12,84,11,81.1,11a12.59,12.59,0,0,0-2.6.2v6.9Z"/><path class="cls-3" d="M103.2,24.5a28.8,28.8,0,0,0,.2,3.2H101l-.2-1.7h-.1a5.87,5.87,0,0,1-4.6,2c-3,0-4.6-2-4.6-3.9,0-3.3,3.2-5.1,9-5v-.3c0-1.1-.4-3.1-3.4-3.1a8.05,8.05,0,0,0-3.9,1l-.6-1.6a10.12,10.12,0,0,1,4.9-1.2c4.6,0,5.7,2.8,5.7,5.5Zm-2.6-3.6c-3-.1-6.3.4-6.3,3a2.36,2.36,0,0,0,2.6,2.4,3.56,3.56,0,0,0,3.6-2.3,2.2,2.2,0,0,0,.1-.8V20.9Z"/><rect id="rect1201" class="cls-2" x="127.91" y="20.94" width="33.1" height="34.3"/><path class="cls-3" d="M107.2,25.3a7.31,7.31,0,0,0,3.6,1c2,0,2.9-.9,2.9-2s-.8-1.8-2.8-2.5c-2.7-.9-3.9-2.2-3.9-3.9,0-2.2,1.9-3.9,5.1-3.9a9.23,9.23,0,0,1,3.7.8l-.7,1.8a6.88,6.88,0,0,0-3.1-.8c-1.6,0-2.5.9-2.5,1.9s.9,1.6,2.8,2.3c2.6.9,3.9,2,3.9,4.1,0,2.4-2,4.1-5.6,4.1a9,9,0,0,1-4.2-1Z"/><path class="cls-3" d="M123,10.3v3.9h3.9V16H123v7.3c0,1.7.5,2.6,2,2.6a6.27,6.27,0,0,0,1.6-.2l.1,1.8a7,7,0,0,1-2.4.4,4.22,4.22,0,0,1-2.9-1,5.34,5.34,0,0,1-1-3.6V15.9h-2.3V14.1h2.3V10.8Z"/><path class="cls-3" d="M129.9,18.8c0-1.6-.1-2.9-.1-4.2h2.4l.1,2.7h.1a4.61,4.61,0,0,1,4.2-3,1.48,1.48,0,0,1,.7.1v2.3a2.22,2.22,0,0,0-.9-.1,3.58,3.58,0,0,0-3.6,3.2,4.1,4.1,0,0,0-.1,1.1v7.3H130V18.8Z"/><path class="cls-3" d="M141.2,21.5c.1,3.3,2.4,4.7,5.1,4.7a10.44,10.44,0,0,0,4.1-.7l.5,1.8a12.62,12.62,0,0,1-5,.9c-4.6,0-7.3-2.8-7.3-6.8s2.6-7.3,7-7.3c4.8,0,6.1,3.9,6.1,6.4,0,.5-.1.9-.1,1.1H141.2Zm8-1.8c0-1.5-.7-4-3.8-4-2.7,0-3.9,2.3-4.2,4Z"/></svg>