<svg id="b391ad30-56b9-4b42-98f5-8f8400326e10" data-name="Layer 1" xmlns="http://www.w3.org/2000/svg" viewBox="0 0 90.95 20.37"><defs><style>.a82e4c4a-cfec-492c-b208-98461626aea9{fill:#ff863f;}.f73567e9-d0c9-4c69-a7fa-c43dd75c1507{fill:#333;}.f94f79ea-2f01-401f-bf47-738204fd31d6{fill:#ff8641;}.a7103311-5c36-41ec-9d4a-ea5568b7cc39{fill:#fff;}</style></defs><title>logo-ai-vetor-grey-escrita</title><path class="a82e4c4a-cfec-492c-b208-98461626aea9" d="M293.78,221c-.91,2.21-1.64,4.92-3.26,6.75a7.21,7.21,0,0,1,1.63,2.67c-1-1.55-3.87-2.94-4.49-2.84a14.93,14.93,0,0,1,4.14,5l-1.14,1.09,2.14-.63c-2.83,2.64-5.89,5.74-8.88,8.18H283c-3-2.43-6.05-5.55-8.88-8.18l2.15.63-1.15-1.09a15.06,15.06,0,0,1,4.15-5,8,8,0,0,0-4.49,2.84,7.16,7.16,0,0,1,1.63-2.67c-1.63-1.83-2.34-4.53-3.27-6.75a10,10,0,0,1,7.29,3.28l-.24.31a15.52,15.52,0,0,0-4.19-2.64l2.92,3.86a9.15,9.15,0,0,1,9.12,0l2.92-3.86a15.77,15.77,0,0,0-4.19,2.64l-.25-.31A10.08,10.08,0,0,1,293.78,221Z" transform="translate(-273.11 -220.97)"/><path class="f73567e9-d0c9-4c69-a7fa-c43dd75c1507" d="M279,232.12c1.46,1.79,2.3,1.37,2.91,2.47H282c-.3-2.54-1.53-2.35-3.07-2.61Z" transform="translate(-273.11 -220.97)"/><path class="f73567e9-d0c9-4c69-a7fa-c43dd75c1507" d="M288,232.2c-1.46,1.79-2.3,1.37-2.91,2.47H285c.3-2.55,1.53-2.35,3.07-2.61Z" transform="translate(-273.11 -220.97)"/><path class="f73567e9-d0c9-4c69-a7fa-c43dd75c1507" d="M286.16,239.36c-3,3.16-3.17,2.08-5.42,0,.25-.62.91-2.26,1.12-2.85,0,.89-.26,1.93-.2,2.83a1.31,1.31,0,0,0,.61.35c1.08-1.35,1.61-.83,2.35,0a1.19,1.19,0,0,0,.61-.35c.07-.87-.18-1.94-.2-2.83C285.25,237.13,285.92,238.76,286.16,239.36Z" transform="translate(-273.11 -220.97)"/><path class="f94f79ea-2f01-401f-bf47-738204fd31d6" d="M279.92,225a6.52,6.52,0,0,1-2.06,1.57c-1.06-1.64-2.26-3.34-3.27-5A9.2,9.2,0,0,1,279.92,225Z" transform="translate(-273.11 -220.97)"/><path class="f94f79ea-2f01-401f-bf47-738204fd31d6" d="M287,225a6.68,6.68,0,0,0,2.07,1.57c1.05-1.64,2.26-3.34,3.26-5A9.27,9.27,0,0,0,287,225Z" transform="translate(-273.11 -220.97)"/><path class="a7103311-5c36-41ec-9d4a-ea5568b7cc39" d="M280.16,232.75c.78.94,1.22.72,1.54,1.3h.05c-.16-1.34-.81-1.24-1.62-1.38Z" transform="translate(-273.11 -220.97)"/><path class="a7103311-5c36-41ec-9d4a-ea5568b7cc39" d="M286.83,232.89c-.77,1-1.21.72-1.53,1.3h-.05c.16-1.34.81-1.24,1.62-1.37Z" transform="translate(-273.11 -220.97)"/><path class="f73567e9-d0c9-4c69-a7fa-c43dd75c1507" d="M287.71,224.83a4.44,4.44,0,0,0,1.38,1c.71-1.1,1.52-2.24,2.2-3.36A6.2,6.2,0,0,0,287.71,224.83Z" transform="translate(-273.11 -220.97)"/><path class="f73567e9-d0c9-4c69-a7fa-c43dd75c1507" d="M279.22,224.83a4.44,4.44,0,0,1-1.38,1c-.71-1.1-1.52-2.24-2.2-3.36A6.2,6.2,0,0,1,279.22,224.83Z" transform="translate(-273.11 -220.97)"/><polyline class="a7103311-5c36-41ec-9d4a-ea5568b7cc39" points="6.31 15.86 6.57 16.39 8.52 16.14 7.62 18.38 4.76 15.67"/><polyline class="a7103311-5c36-41ec-9d4a-ea5568b7cc39" points="14.37 15.86 14.11 16.39 12.15 16.14 13.06 18.38 15.92 15.67"/><path class="a7103311-5c36-41ec-9d4a-ea5568b7cc39" d="M281.82,237.17l1.63-.72,1.63.72c.06.47.16,1.49.18,2l0,.21a1,1,0,0,1-.61.35,4.42,4.42,0,0,0-.86-.76l-.31-.07-.32.07a4.12,4.12,0,0,0-.86.76l-.1,0-.16-.06-.19-.12h0l-.15-.14,0-.36,0-.42Z" transform="translate(-273.11 -220.97)"/><path class="f73567e9-d0c9-4c69-a7fa-c43dd75c1507" d="M302.83,229l-.34,1.68h4.09l-.5,2.5H302l-.63,3.13h-3.31l2-9.8h8l-.51,2.49Z" transform="translate(-273.11 -220.97)"/><path class="f73567e9-d0c9-4c69-a7fa-c43dd75c1507" d="M307.56,232.17c0-3.46,2.57-5.87,6.17-5.87,3.06,0,5,1.81,5,4.39,0,3.46-2.58,5.87-6.18,5.87C309.47,236.56,307.56,234.75,307.56,232.17Zm7.81-1.29a1.78,1.78,0,0,0-1.92-1.9c-1.62,0-2.56,1.39-2.56,3a1.78,1.78,0,0,0,1.92,1.9C314.43,233.88,315.37,232.5,315.37,230.88Z" transform="translate(-273.11 -220.97)"/><path class="f73567e9-d0c9-4c69-a7fa-c43dd75c1507" d="M325.84,231.46l2.64,4.87h-3.57l-1.22-2.52-2.13,2.52h-3.95l4.62-5.07-2.48-4.73h3.53l1.21,2.45,2.1-2.45h3.72Z" transform="translate(-273.11 -220.97)"/><path class="f73567e9-d0c9-4c69-a7fa-c43dd75c1507" d="M340.92,231.16h2.87L343,235.4a6.81,6.81,0,0,1-4,1.16c-3,0-5-1.78-5-4.39,0-3.44,2.56-5.87,6.3-5.87a5.14,5.14,0,0,1,4.45,1.92l-2.36,1.84A2.57,2.57,0,0,0,340.1,229a2.74,2.74,0,0,0-2.82,3,1.91,1.91,0,0,0,2.16,1.92,3.19,3.19,0,0,0,1-.14Z" transform="translate(-273.11 -220.97)"/><path class="f73567e9-d0c9-4c69-a7fa-c43dd75c1507" d="M354.6,229.78c0,2.48-2,4.14-5,4.14H348l-.48,2.41h-3.3l2-9.8h4.35C353.12,226.53,354.6,227.73,354.6,229.78Zm-3.35.29c0-.7-.47-1-1.23-1h-1.11l-.46,2.3h1.36A1.26,1.26,0,0,0,351.25,230.07Z" transform="translate(-273.11 -220.97)"/><path class="f73567e9-d0c9-4c69-a7fa-c43dd75c1507" d="M354.22,235.56l1.27-2.43a6.57,6.57,0,0,0,3.31.91c.85,0,1.3-.23,1.3-.58,0-1-4.66-.43-4.66-3.47,0-2.23,1.86-3.69,5-3.69a7.41,7.41,0,0,1,3.67.84l-1.19,2.41a5.12,5.12,0,0,0-2.69-.72c-1,0-1.45.32-1.45.65,0,1.08,4.68.4,4.68,3.42,0,2.19-1.9,3.66-5,3.66A8.47,8.47,0,0,1,354.22,235.56Z" transform="translate(-273.11 -220.97)"/></svg>