<?xml version="1.0" encoding="UTF-8"?>
<svg width="24" height="24" fill="#000000" version="1.1" viewBox="0 0 24 24" xmlns="http://www.w3.org/2000/svg">
<path d="m17.9 5.6c-.77.031-1.7.249-2.29.0781.211.704.137 1.74.213 2.56.0906.84.317 1.46 1.12 1.33.816 0 1.24.000194 1.49-.254.257-.254.363-.763.59-1.8.529-1.52.0148-1.87-.801-1.91-.102-.00489-.208-.00443-.318 0zm-8.75.611c-.404.0348-.618.262-.766.6-.196.45-.256 1.11-.438 1.82-.332.704-1.03.762-1.78.703-.755-.0586-1.57-.254-2.14-.0977-.589.176-.816 1.04-.967 2.01-.151.977-.212 2.07-.484 2.72-.272.919 1.62 1.35 3.73 1.64 2.11.274 4.47.41 5.13.742.332-1.97 1.36-3.13 2.51-3.4 1.15-.274 2.42.35 3.23 1.91.952-4.14 1.06-4.93.693-4.98-.362-.0586-1.18.567-2.07-.762-.151-.45-.106-1.17-.166-1.78-.0604-.606-.211-1.11-.725-1.11-.876.0195-1.77.0195-2.64.0195h-2.64c-.181-.0342-.338-.0448-.473-.0332zm6.97.111h1.33 1.36c-.211 1.13-.287 1.88-.574 2.31-.287.43-.771.527-1.78.371-.0604-.45-.106-.898-.166-1.33-.0604-.45-.106-.9-.166-1.35zm-12.8.352c-1.72-.0195-3.14.372-2.9 2.29.0453.313.333.566.65.625.302.0586.619-.0583.664-.449.257-.625 1.16-.684 2.13-.625.982.0586 2.04.234 2.61.0781.634.0195.983-.0193 1.18-.254.196-.235.256-.704.316-1.51-.921.293-2.93-.137-4.65-.156zm18.4 3.31c-.532.00489-1.13.259-1.71.836.302.195.514.586.756.898.0302.0391.044.0586.0742.0977.211.254.468.43.846.312.242.391.409.88.605 1.37.106.274.242.547.393.801.121.195.256.391.422.547.846-1.78.665-3.34-.0293-4.2-.347-.42-.819-.665-1.35-.66zm-2.48.746c-.72-.0724-1.28.881-1.48 3.72-.0906 1.06.996 1.23 2.25 1.17 1.25-.0586 2.67-.313 3.25-.117-.242-.332-.484-.724-.756-1.13-.544-.84-1.15-1.78-1.74-2.48-.257-.313-.514-.566-.756-.781-.268-.22-.526-.359-.766-.383zm-4.81 2.38c-1.63-.0586-2.46 1.58-2.48 3.24-.0151 1.64.785 3.3 2.43 3.28 1.65.0586 2.48-1.58 2.48-3.22.0151-1.64-.8-3.3-2.43-3.3zm-.0137 1.48c.891-.0196 1.34.9 1.36 1.8-.0151.88-.453 1.8-1.36 1.78-.906.0195-1.35-.88-1.35-1.78 0-.899.455-1.82 1.35-1.8zm-.0312.646c-.468.0196-.905.41-.875 1.19 0 .743.467 1.09.92 1.07.453-.0196.908-.41.893-1.15 0-.762-.469-1.13-.938-1.11zm-9.86.293c-.816-.0196-1.61.663-1.6 2.03-.0151 1.33.785 1.99 1.59 1.99.801 0 1.62-.665 1.62-1.97.0151-1.35-.786-2.05-1.6-2.05zm1.69.41c.166 1.39.906 1.74 1.81 1.8.921.0586 2.02-.156 2.9.117-.408-1.15-1.18-1.47-2.05-1.58-.876-.117-1.84-.0193-2.66-.332zm-1.71.703c.453-.0391.693.41.693.859 0 .469-.211.939-.664.939-.453.0195-.695-.431-.695-.9 0-.45.213-.918.666-.898z" stroke-width="1.72"/>
</svg>
