<?xml version="1.0" encoding="UTF-8"?>
<svg width="24" height="24" fill="#000000" version="1.1" viewBox="0 0 24 24" xmlns="http://www.w3.org/2000/svg">
<path d="m14.7 5.31c-.202-.0192-.341.258-.66.896.34.227.566.455.793.795-.113 0-.113.115-.113.455-.454-.227-.794-.455-1.25-.568-.113 0-.34.226-.453.34l.34.342.682.34c-1.59.908-3.06 1.59-4.65.908-.908-.34-1.82-.794-2.72-1.13-.34-.227-.794-.681-1.13-.113.34.681.568 1.25.795 1.81-.567.794-1.59.226-1.81 1.47h16.1c-.908-1.59-1.93-2.72-3.18-3.52-.681-.454-1.36-.907-2.04-1.47-.347-.347-.544-.542-.701-.557zm-10.2 6.46c-.794 0-1.7.341-2.5.682-.34.113-.455.566-.795.906.567.227 1.02.341 1.25.682.227.454.226 1.13.34 1.7 0 .113-.113.229-.113.115-.908-.567-1.7-1.14-2.61-1.7 1.25 2.5 3.97 2.95 6.01.455 1.93 2.16 3.97 2.15 5.9-.115 1.82 2.5 3.97 2.27 5.79.115 2.27 2.27 5.67 1.93 6.01-.568-.681.454-1.25 1.02-1.82 1.36-.908.567-1.47.567-1.93.113l1.7-1.36c.227-.113.455-.339.682-.566.113-.113.34-.342.34-.455 0-.227-.113-.566-.227-.68-.567-.34-1.25-.682-1.82-.682h-16.2zm-4.43 4.2c.567 2.72 3.86 2.95 6.01.566 1.36 1.82 3.06 2.38 4.88 1.02.794-.567 1.25-.681 2.04 0 1.59 1.48 3.06 1.02 4.88-.908 2.16 2.5 4.88 2.27 6.01-.566-2.04 2.27-4.08 2.61-6.01 0-.794 1.02-1.82 1.81-2.95 1.81s-2.15-.68-2.95-1.81c-2.04 2.38-4.08 2.27-5.9 0-1.93 2.27-3.97 2.38-6.01-.113z" stroke-width="1.13"/>
</svg>
