<svg width="240" height="64" viewBox="0 0 240 64" xmlns="http://www.w3.org/2000/svg">
 <g id="img">
  <rect id="rect3778" height="64" width="240" y="0" x="0" fill="none"/>
  <g id="g4194">
   <g id="g4145" fill="currentColor">
    <circle id="path2993" stroke-width="1.3262" transform="rotate(-30)" cy="43.713" cx="9.4364" r="2.2765"/>
    <path id="path3004" stroke-width="1.0095" d="m37.012 24.177-2.8428 3.6128c0.66345 0.52205 1.3255 1.1576 1.7734 1.9333 0.4479 0.77578 0.66726 1.6669 0.78764 2.5025l4.5502-0.65558c-0.193-1.42-0.633-2.804-1.394-4.123s-1.74-2.391-2.874-3.27z"/>
    <path id="path3014" stroke-width="1.0095" d="m42.504 16.9-2.8428 3.6128c1.607 1.2355 3.0914 2.7935 4.1679 4.6581s1.6835 3.9291 1.95 5.9386l4.5502-0.65558c-0.33967-2.5954-1.1669-5.1513-2.5573-7.5594-1.3903-2.4081-3.1901-4.4025-5.268-5.9944z"/>
    <path id="path3036" stroke-width="3.6204" d="m28.667 44.439a9.1058 9.1058 0 0 1 -9.1058 0.000023 9.1058 9.1058 0 0 1 -4.5529 -7.8859 9.1058 9.1058 0 0 1 4.5529 -7.8859l4.5529 7.8859z"/>
    <path id="path3038-8" stroke-width="1.0095" d="m17.502 6.8895c-13.868 8.0065-18.619 25.74-10.612 39.608 8.006 13.868 25.739 18.619 39.608 10.613 13.868-8.007 18.619-25.74 10.613-39.609-8.007-13.868-25.74-18.62-39.609-10.612zm1.706 2.9541c12.237-7.0648 27.884-2.8722 34.948 9.3644 7.065 12.237 2.873 27.884-9.364 34.948-12.237 7.065-27.884 2.873-34.948-9.364-7.0652-12.237-2.8726-27.884 9.364-34.948z"/>
   </g>
  </g>
  <g id="logotext" aria-label="Sanjay" transform="translate(72, 12)" stroke-linecap="round" fill-rule="evenodd" font-size="9pt" stroke="#000" stroke-width="0.01mm" fill="#000" style="stroke:#000;stroke-width:0.01mm;fill:#000">
   <path d="M 2.28 23.4 L 3.56 29.88 A 8.032 8.032 0 0 0 5.84 30.942 Q 7.644 31.48 10.08 31.48 Q 12.18 31.48 13.504 30.583 A 4.269 4.269 0 0 0 14.34 29.84 A 5.783 5.783 0 0 0 15.76 25.956 A 7.287 7.287 0 0 0 15.76 25.92 Q 15.76 25.001 15.643 24.305 A 5.724 5.724 0 0 0 15.56 23.9 A 4.529 4.529 0 0 0 15.334 23.226 Q 15.196 22.898 14.999 22.541 A 9.827 9.827 0 0 0 14.7 22.04 A 5.716 5.716 0 0 0 14.037 21.197 Q 13.674 20.81 13.204 20.424 A 12.251 12.251 0 0 0 12.6 19.96 Q 11.526 19.184 9.961 18.341 A 41.442 41.442 0 0 0 8.84 17.76 A 47.626 47.626 0 0 1 6.983 16.783 Q 5.503 15.959 4.44 15.2 Q 3.08 14.229 2.27 13.205 A 6.779 6.779 0 0 1 1.92 12.72 Q 1.154 11.553 0.854 10.486 A 5.674 5.674 0 0 1 0.8 10.28 Q 0.52 9.12 0.52 7.4 A 6.996 6.996 0 0 1 0.968 4.846 Q 1.612 3.189 3.183 2.051 A 7.941 7.941 0 0 1 3.34 1.94 A 11.005 11.005 0 0 1 8.454 0.083 A 14.051 14.051 0 0 1 10 0 A 19.026 19.026 0 0 1 18.887 2.234 A 22.308 22.308 0 0 1 19.2 2.4 L 19.2 10.08 A 8.373 8.373 0 0 1 18.557 10.169 Q 17.614 10.261 16.92 10.08 L 15.64 3.16 Q 13.08 1.76 9.92 1.76 A 5.91 5.91 0 0 0 8.078 2.037 A 5.017 5.017 0 0 0 6.34 3.02 A 4.109 4.109 0 0 0 4.971 5.484 A 6.065 6.065 0 0 0 4.88 6.56 Q 4.88 7.84 5.04 8.56 A 3.396 3.396 0 0 0 5.207 9.086 Q 5.42 9.616 5.838 10.258 A 9.972 9.972 0 0 0 5.84 10.26 Q 6.48 11.24 7.96 12.22 A 22.288 22.288 0 0 0 9.096 12.92 Q 9.694 13.266 10.4 13.636 A 53.17 53.17 0 0 0 11.92 14.4 Q 20.48 18.56 20.48 24.32 A 8.62 8.62 0 0 1 19.806 27.776 A 8.216 8.216 0 0 1 17.36 30.92 A 10.931 10.931 0 0 1 12.978 33.024 Q 11.362 33.412 9.471 33.438 A 19.853 19.853 0 0 1 9.2 33.44 Q 4.2 33.44 0 31.08 L 0 23.4 A 8.373 8.373 0 0 1 0.643 23.311 Q 1.586 23.219 2.28 23.4 Z" id="0" vector-effect="non-scaling-stroke"/>
   <path d="M 37.08 20.56 L 37.08 18.52 A 23.649 23.649 0 0 0 37.025 16.845 Q 36.873 14.711 36.3 13.58 A 2.889 2.889 0 0 0 35.562 12.634 Q 34.838 12.04 33.72 12.04 A 4.665 4.665 0 0 0 32.392 12.22 A 3.634 3.634 0 0 0 30.76 13.22 Q 29.74 14.294 29.318 16.744 A 16.191 16.191 0 0 0 29.24 17.24 Q 27.96 17.52 27.36 17.52 Q 25.8 17.52 25.52 16.4 A 4.86 4.86 0 0 1 27.198 12.609 A 6.507 6.507 0 0 1 27.88 12.08 A 9.004 9.004 0 0 1 31.091 10.744 A 12.79 12.79 0 0 1 33.76 10.48 A 15.035 15.035 0 0 1 35.662 10.591 Q 37.744 10.858 38.915 11.761 A 3.934 3.934 0 0 1 39.26 12.06 A 4.354 4.354 0 0 1 40.215 13.519 Q 40.88 15.106 40.88 17.72 L 40.88 29 A 13.986 13.986 0 0 0 40.9 29.766 Q 40.92 30.128 40.96 30.443 A 7.14 7.14 0 0 0 41 30.72 L 44.16 31.12 A 2.314 2.314 0 0 1 44.225 31.482 Q 44.275 31.978 44.16 32.64 Q 41.32 32.76 38.12 33.2 A 1.416 1.416 0 0 1 37.734 32.474 A 1.751 1.751 0 0 1 37.72 32.4 L 37.52 29.64 Q 34.2 33.44 30.12 33.44 Q 27.781 33.44 26.39 32.199 A 4.506 4.506 0 0 1 26.18 32 A 4.805 4.805 0 0 1 24.899 29.547 A 6.985 6.985 0 0 1 24.76 28.12 A 6.369 6.369 0 0 1 25.311 25.427 Q 26.117 23.676 28.1 22.56 A 13.547 13.547 0 0 1 31.193 21.323 Q 33.731 20.631 37.08 20.56 Z M 37.08 28.24 L 37.08 22 A 25.228 25.228 0 0 0 34.72 22.241 Q 32.281 22.616 30.76 23.46 A 4.295 4.295 0 0 0 29.318 24.71 Q 28.56 25.771 28.56 27.32 Q 28.56 29.063 29.094 29.949 A 2.116 2.116 0 0 0 29.32 30.26 A 2.333 2.333 0 0 0 30.319 30.912 Q 30.704 31.047 31.179 31.094 A 5.442 5.442 0 0 0 31.72 31.12 A 4.627 4.627 0 0 0 32.861 30.968 Q 33.582 30.785 34.38 30.38 A 8.579 8.579 0 0 0 36.273 29.06 A 10.668 10.668 0 0 0 37.08 28.24 Z" id="1" vector-effect="non-scaling-stroke"/>
   <path d="M 62.36 25.68 L 62.36 18.36 A 18.345 18.345 0 0 0 62.309 16.935 Q 62.199 15.535 61.855 14.66 A 3.331 3.331 0 0 0 61.54 14.04 Q 60.72 12.8 58.8 12.8 Q 55.84 12.8 52.84 17.24 L 52.84 30.6 L 56.08 31.2 A 2.62 2.62 0 0 1 56.145 31.585 Q 56.194 32.104 56.082 32.785 A 7.145 7.145 0 0 1 56.08 32.8 Q 53.56 32.68 50.92 32.68 Q 49.511 32.68 47.212 32.727 A 437.699 437.699 0 0 0 45.72 32.76 Q 45.48 32 45.72 31.2 L 48.88 30.76 Q 49.04 28.56 49.04 25.68 L 49.04 14.72 A 9.401 9.401 0 0 0 49.002 13.858 A 7.535 7.535 0 0 0 48.92 13.24 L 45.76 12.84 A 2.314 2.314 0 0 1 45.695 12.478 Q 45.645 11.982 45.76 11.32 Q 48.52 11.12 52.64 10.48 A 1.981 1.981 0 0 1 52.854 10.761 Q 53.014 11.021 53.04 11.28 Q 52.84 12.32 52.84 14.84 A 14.183 14.183 0 0 1 54.734 12.684 Q 55.977 11.547 57.328 10.997 A 6.912 6.912 0 0 1 59.96 10.48 A 9.444 9.444 0 0 1 62.371 10.76 Q 65.451 11.576 66.027 14.765 A 8.979 8.979 0 0 1 66.16 16.36 L 66.16 30.6 L 69.4 31.2 A 2.62 2.62 0 0 1 69.465 31.585 Q 69.514 32.104 69.402 32.785 A 7.145 7.145 0 0 1 69.4 32.8 Q 66.88 32.68 64.24 32.68 Q 62.831 32.68 60.532 32.727 A 437.699 437.699 0 0 0 59.04 32.76 Q 58.8 32 59.04 31.2 L 62.2 30.76 Q 62.36 28.56 62.36 25.68 Z" id="2" vector-effect="non-scaling-stroke"/>
   <path d="M 74.16 34.36 L 74.16 17.16 Q 74.16 14.544 74.042 13.263 A 13.574 13.574 0 0 0 74.04 13.24 L 70.48 12.84 A 2.314 2.314 0 0 1 70.415 12.478 Q 70.365 11.982 70.48 11.32 A 79.624 79.624 0 0 0 76.358 10.692 A 89.312 89.312 0 0 0 77.76 10.48 A 1.981 1.981 0 0 1 77.974 10.761 Q 78.134 11.021 78.16 11.28 A 5.657 5.657 0 0 0 78.092 11.825 Q 77.983 13.071 77.964 16.282 A 246.848 246.848 0 0 0 77.96 17.76 L 77.96 32.24 Q 77.96 35.48 77.38 38.08 Q 76.8 40.68 75.34 42.46 A 5.112 5.112 0 0 1 74.011 43.629 A 4.389 4.389 0 0 1 71.72 44.24 Q 69.77 44.24 68.731 43.765 A 2.676 2.676 0 0 1 68.3 43.52 Q 67.28 42.8 67.28 41.24 A 3.06 3.06 0 0 1 69.495 39.91 A 4.134 4.134 0 0 1 70 39.88 Q 70.56 39.88 71.16 40 A 16.137 16.137 0 0 0 71.322 40.892 Q 71.738 42.84 72.4 42.84 A 0.937 0.937 0 0 0 73.13 42.476 Q 73.435 42.119 73.639 41.413 A 6.761 6.761 0 0 0 73.76 40.92 Q 74.157 39.016 74.16 34.436 A 106.804 106.804 0 0 0 74.16 34.36 Z M 72.12 3.48 Q 72.04 3.28 72.04 3.06 L 72.04 2.64 A 2.024 2.024 0 0 1 72.717 1.083 A 2.636 2.636 0 0 1 72.94 0.9 A 3.359 3.359 0 0 1 74.367 0.306 A 4.576 4.576 0 0 1 75.16 0.24 A 3.389 3.389 0 0 1 76.083 0.36 A 2.591 2.591 0 0 1 77.18 0.98 A 2.446 2.446 0 0 1 77.902 2.34 A 3.562 3.562 0 0 1 77.96 3 A 1.924 1.924 0 0 1 77.301 4.487 A 2.618 2.618 0 0 1 77.06 4.68 Q 76.209 5.285 74.912 5.318 A 5.949 5.949 0 0 1 74.76 5.32 A 3.262 3.262 0 0 1 73.73 5.162 A 2.898 2.898 0 0 1 73.06 4.84 Q 72.32 4.36 72.12 3.48 Z" id="3" vector-effect="non-scaling-stroke"/>
   <path d="M 95.04 20.56 L 95.04 18.52 A 23.649 23.649 0 0 0 94.985 16.845 Q 94.833 14.711 94.26 13.58 A 2.889 2.889 0 0 0 93.522 12.634 Q 92.798 12.04 91.68 12.04 A 4.665 4.665 0 0 0 90.352 12.22 A 3.634 3.634 0 0 0 88.72 13.22 Q 87.7 14.294 87.278 16.744 A 16.191 16.191 0 0 0 87.2 17.24 Q 85.92 17.52 85.32 17.52 Q 83.76 17.52 83.48 16.4 A 4.86 4.86 0 0 1 85.158 12.609 A 6.507 6.507 0 0 1 85.84 12.08 A 9.004 9.004 0 0 1 89.051 10.744 A 12.79 12.79 0 0 1 91.72 10.48 A 15.035 15.035 0 0 1 93.622 10.591 Q 95.704 10.858 96.875 11.761 A 3.934 3.934 0 0 1 97.22 12.06 A 4.354 4.354 0 0 1 98.175 13.519 Q 98.84 15.106 98.84 17.72 L 98.84 29 A 13.986 13.986 0 0 0 98.86 29.766 Q 98.88 30.128 98.92 30.443 A 7.14 7.14 0 0 0 98.96 30.72 L 102.12 31.12 A 2.314 2.314 0 0 1 102.185 31.482 Q 102.235 31.978 102.12 32.64 Q 99.28 32.76 96.08 33.2 A 1.416 1.416 0 0 1 95.694 32.474 A 1.751 1.751 0 0 1 95.68 32.4 L 95.48 29.64 Q 92.16 33.44 88.08 33.44 Q 85.741 33.44 84.35 32.199 A 4.506 4.506 0 0 1 84.14 32 A 4.805 4.805 0 0 1 82.859 29.547 A 6.985 6.985 0 0 1 82.72 28.12 A 6.369 6.369 0 0 1 83.271 25.427 Q 84.077 23.676 86.06 22.56 A 13.547 13.547 0 0 1 89.153 21.323 Q 91.691 20.631 95.04 20.56 Z M 95.04 28.24 L 95.04 22 A 25.228 25.228 0 0 0 92.68 22.241 Q 90.241 22.616 88.72 23.46 A 4.295 4.295 0 0 0 87.278 24.71 Q 86.52 25.771 86.52 27.32 Q 86.52 29.063 87.054 29.949 A 2.116 2.116 0 0 0 87.28 30.26 A 2.333 2.333 0 0 0 88.279 30.912 Q 88.664 31.047 89.139 31.094 A 5.442 5.442 0 0 0 89.68 31.12 A 4.627 4.627 0 0 0 90.821 30.968 Q 91.542 30.785 92.34 30.38 A 8.579 8.579 0 0 0 94.233 29.06 A 10.668 10.668 0 0 0 95.04 28.24 Z" id="4" vector-effect="non-scaling-stroke"/>
   <path d="M 110.4 38.56 L 112.96 32.52 L 105.2 13.4 L 102.08 12.76 Q 101.88 11.96 102.08 11.16 Q 104.28 11.32 107.44 11.32 Q 110.28 11.32 112.84 11.2 A 2.791 2.791 0 0 1 112.956 11.843 Q 112.983 12.309 112.84 12.76 L 109.4 13.32 L 113.2 22.32 A 23.696 23.696 0 0 1 113.708 23.697 Q 114.275 25.38 114.88 27.8 L 114.96 27.8 Q 115.64 25.4 116.84 22.52 L 120.32 13.2 L 117.2 12.76 A 2.62 2.62 0 0 1 117.135 12.375 Q 117.086 11.856 117.198 11.175 A 7.145 7.145 0 0 1 117.2 11.16 Q 119.4 11.32 121.48 11.32 Q 123.24 11.32 125.84 11.2 A 2.791 2.791 0 0 1 125.956 11.843 Q 125.983 12.309 125.84 12.76 L 122.68 13.2 L 112.12 39.04 A 13.447 13.447 0 0 1 111.526 40.284 Q 111.208 40.866 110.865 41.325 A 5.82 5.82 0 0 1 110.24 42.04 A 3.508 3.508 0 0 1 108.418 42.956 A 5.026 5.026 0 0 1 107.48 43.04 A 8.782 8.782 0 0 1 106.709 43.008 Q 105.895 42.936 105.38 42.7 A 2.972 2.972 0 0 1 104.799 42.34 Q 104.343 41.985 103.88 41.4 A 4.554 4.554 0 0 1 105.735 38.179 A 6.426 6.426 0 0 1 106.16 37.88 A 10.928 10.928 0 0 0 106.902 38.641 Q 108.072 39.72 108.96 39.72 A 1.34 1.34 0 0 0 110.089 39.147 Q 110.247 38.935 110.367 38.645 A 3.164 3.164 0 0 0 110.4 38.56 Z" id="5" vector-effect="non-scaling-stroke"/>
  </g>
 </g>
</svg>

