<svg version="1.0" xmlns="http://www.w3.org/2000/svg" width="1418.000000pt" height="1419.000000pt" viewBox="0 0 1418.000000 1419.000000" preserveAspectRatio="xMidYMid meet">
    <g transform="translate(0.000000,1419.000000) scale(0.100000,-0.100000)" fill="currentColor" stroke="none">
        <path d="M7189 12940 c-157 -27 -293 -150 -334 -303 -23 -87 -17 -239 13 -317 31 -79 88 -149 160 -197 78 -53 104 -60 272 -78 311 -34 566 -96 843 -206 705 -280 1313 -836 1677 -1532 169 -323 272 -626 340 -1002 36 -193 58 -249 131 -330 156 -170 442 -177 612 -16 89 84 137 194 137 316 0 132 -90 541 -176 803 -322 973 -963 1786 -1814 2302 -486 295 -1041 486 -1595 549 -148 17 -217 20 -266 11z"/>
        <path d="M5673 11945 c-837 -261 -1537 -801 -1992 -1535 -280 -452 -439 -898
        -517 -1450 -23 -159 -26 -688 -6 -850 43 -335 110 -606 223 -896 374 -958
        1153 -1720 2120 -2074 220 -80 503 -149 769 -187 180 -25 731 -25 909 0 187
        27 365 63 523 108 1121 317 2028 1174 2412 2279 62 179 115 378 122 465 16
        179 -84 348 -253 428 l-68 32 -1032 3 -1033 2 0 83 c0 173 -51 373 -137 540
        -154 297 -422 511 -750 598 -110 30 -345 37 -470 15 -484 -84 -859 -476 -948
        -990 -19 -112 -19 -260 0 -351 73 -344 357 -827 810 -1380 190 -232 222 -257
        330 -258 121 0 147 22 380 313 136 170 256 331 340 458 l48 72 854 0 855 0
        -57 -107 c-585 -1108 -1877 -1675 -3070 -1348 -179 49 -299 95 -490 190 -281
        138 -489 288 -716 514 -621 622 -901 1480 -758 2331 77 461 266 881 562 1250
        110 137 344 364 482 467 232 174 493 309 775 403 85 28 179 66 209 83 68 41
        123 103 164 186 31 64 32 69 32 196 0 126 -1 132 -32 198 -42 87 -117 163
        -207 207 -63 31 -79 35 -170 37 -92 3 -111 0 -213 -32z"/>
        <path d="M6862 11160 c-75 -27 -145 -82 -191 -151 -49 -74 -65 -140 -59 -255
        3 -73 9 -101 35 -156 66 -140 158 -195 380 -228 342 -49 624 -175 882 -393
        257 -218 438 -505 539 -854 17 -57 41 -122 55 -146 35 -59 107 -124 175 -155
        51 -24 68 -27 167 -27 136 1 198 22 280 96 80 74 118 156 123 268 3 76 -1 101
        -33 211 -169 585 -531 1075 -1038 1409 -318 208 -648 333 -1022 386 -137 20
        -229 18 -293 -5z"/>
        <path d="M7450 3165 l0 -846 343 3 342 3 65 28 c123 52 216 144 264 261 17 44
        20 73 21 201 0 191 -15 236 -115 338 l-68 69 48 63 c69 91 85 145 85 285 -1
        153 -21 208 -114 301 -71 70 -140 109 -229 128 -32 7 -169 11 -347 11 l-295 0
        0 -845z m612 635 c57 -16 129 -71 152 -114 24 -48 32 -136 17 -193 -17 -61
        -69 -124 -131 -158 l-55 -30 -197 -3 -198 -4 0 256 0 256 188 0 c103 0 204 -5
        224 -10z m34 -715 c86 -25 142 -68 171 -131 23 -50 25 -65 21 -152 -5 -108
        -18 -144 -76 -205 -65 -67 -111 -77 -352 -77 l-210 0 0 290 0 290 198 0 c145
        0 212 -4 248 -15z"/>
        <path d="M3795 3976 c-151 -36 -253 -92 -361 -200 -169 -170 -254 -374 -254
        -612 0 -387 257 -729 607 -808 415 -93 822 195 907 644 9 45 16 109 16 141 l0
        59 -310 0 -310 0 0 -80 0 -80 225 0 c137 0 225 -4 225 -10 0 -5 -11 -43 -24
        -85 -67 -210 -236 -379 -432 -430 -32 -8 -95 -15 -139 -15 -160 0 -276 50
        -401 175 -66 66 -89 97 -128 175 -102 207 -101 420 1 630 38 79 60 109 127
        175 125 125 241 175 401 175 202 0 380 -102 497 -285 17 -27 33 -52 35 -54 5
        -6 143 61 143 69 0 22 -94 146 -159 211 -88 86 -187 149 -293 186 -91 32 -278
        41 -373 19z"/>
        <path d="M9039 3417 c-218 -74 -366 -264 -385 -495 -14 -171 45 -333 165 -452
        214 -213 536 -215 747 -5 114 113 168 245 168 410 0 129 -26 217 -95 319 -57
        85 -107 133 -194 181 -121 68 -281 85 -406 42z m294 -212 c64 -30 124 -91 164
        -167 25 -48 28 -62 28 -158 0 -94 -3 -111 -28 -166 -35 -76 -104 -145 -180
        -180 -51 -23 -69 -26 -135 -22 -132 6 -235 78 -296 208 -27 57 -31 75 -30 150
        1 108 29 184 92 252 82 88 158 120 264 114 43 -3 85 -14 121 -31z"/>
        <path d="M9860 3426 c0 -2 92 -122 205 -267 l204 -262 -67 -86 c-37 -47 -135
        -174 -219 -281 -83 -107 -149 -198 -147 -202 3 -4 60 -8 127 -8 l122 0 160
        210 c88 115 162 209 165 210 3 0 78 -94 165 -210 l160 -209 128 -1 c70 0 127
        2 127 5 0 4 -98 133 -217 287 -120 155 -218 283 -218 284 0 2 87 114 194 249
        106 136 196 256 198 266 5 18 -2 19 -120 19 -122 0 -125 -1 -141 -25 -27 -41
        -268 -350 -275 -352 -3 -1 -71 83 -151 187 l-144 190 -128 0 c-70 0 -128 -2
        -128 -4z"/>
        <path d="M5290 3404 c-167 -45 -322 -212 -365 -395 -63 -270 77 -550 325 -649
        68 -27 194 -37 272 -21 125 26 248 114 328 233 22 33 40 64 40 68 0 4 -33 21
        -72 39 -66 29 -74 31 -83 15 -63 -105 -123 -160 -206 -190 -136 -48 -300 11
        -388 140 -27 38 -71 149 -71 176 0 7 141 10 429 10 l429 0 6 28 c14 59 -12
        173 -60 269 -71 143 -188 242 -329 279 -65 18 -185 17 -255 -2z m245 -165 c73
        -27 158 -105 196 -180 16 -32 29 -61 29 -64 0 -3 -151 -5 -335 -5 -224 0 -335
        3 -335 10 0 26 55 116 95 155 42 42 103 80 155 96 49 15 138 9 195 -12z"/>
        <path d="M6523 3405 c-164 -45 -305 -176 -365 -340 -27 -75 -36 -233 -18 -314
        28 -128 116 -260 219 -329 103 -69 159 -86 286 -86 132 -1 184 14 288 84 227
        153 304 467 175 714 -39 74 -154 191 -224 228 -104 56 -249 73 -361 43z m223
        -160 c157 -46 275 -223 261 -393 -8 -110 -39 -176 -121 -258 -55 -55 -83 -75
        -124 -89 -170 -56 -352 25 -434 193 -31 63 -33 73 -33 177 0 99 3 115 27 165
        85 172 256 255 424 205z"/>
        <path d="M5721 1579 c-5 -13 -53 -123 -106 -244 -53 -121 -99 -226 -102 -232
        -3 -7 -1 -13 4 -13 6 0 27 41 49 90 l38 90 131 0 131 0 42 -92 c23 -50 44 -89
        47 -86 6 6 -200 487 -215 502 -6 6 -13 0 -19 -15z m77 -150 l59 -134 -115 -3
        c-63 -1 -117 0 -120 2 -2 3 22 66 54 140 32 74 60 134 61 132 1 -1 29 -63 61
        -137z"/>
        <path d="M6192 1343 c1 -142 4 -201 5 -130 l4 127 129 0 c80 0 130 4 130 10 0
        6 -50 10 -130 10 l-130 0 0 110 0 110 155 0 c97 0 155 4 155 10 0 6 -60 10
        -160 10 l-160 0 2 -257z"/>
        <path d="M6757 1593 c-11 -11 -8 -491 3 -498 6 -4 10 30 10 94 l0 101 93 0 92
        0 64 -100 c35 -55 68 -100 73 -100 10 0 12 -4 -60 110 -30 46 -50 86 -44 88
        32 10 79 52 94 82 39 77 8 174 -67 210 -33 16 -62 20 -146 20 -58 0 -109 -3
        -112 -7z m282 -47 c56 -54 60 -136 11 -199 -28 -35 -76 -47 -187 -47 l-93 0 0
        141 0 141 119 -4 c117 -3 120 -4 150 -32z"/>
        <path d="M7354 1345 c0 -143 2 -200 3 -127 2 73 2 190 0 260 -1 70 -3 10 -3
        -133z"/>
        <path d="M7766 1585 c-81 -29 -145 -118 -153 -215 -14 -147 97 -280 233 -280
        59 0 141 36 172 75 38 48 24 50 -26 3 -119 -111 -267 -76 -347 81 -38 75 -17
        201 43 264 85 90 245 90 310 0 11 -15 24 -25 28 -21 4 4 -11 25 -32 47 -59 58
        -145 76 -228 46z"/>
        <path d="M8427 1574 c-43 -85 -209 -476 -203 -481 5 -5 49 83 77 155 8 21 13
        22 141 22 l133 0 39 -92 c22 -51 41 -87 44 -80 3 9 -164 406 -203 481 l-13 25
        -15 -30z m130 -281 c-3 -2 -57 -2 -120 -1 l-116 3 52 120 c29 66 57 129 61
        140 6 16 20 -10 67 -119 33 -76 58 -141 56 -143z"/>
    </g>
</svg>
