<?xml version="1.0" encoding="utf-8"?>
<svg xmlns="http://www.w3.org/2000/svg" viewBox="0 0 24 24" width="24" height="24" fill="#000000"><path d="M22,6h-2v2.65l-1.02-4.84C18.89,3.34,18.48,3,18,3H6C5.52,3,5.11,3.34,5.02,3.81L4,8.64V6H2v3h1.62L2.3,10.28 C2.11,10.47,2,10.73,2,11v9c0,0.552,0.448,1,1,1h2l-0.006-3h14.011L19,21h2c0.552,0,1-0.448,1-1v-9c0-0.27-0.11-0.53-0.31-0.72 L20.37,9H22V6z M6.82,5h10.36l0.79,4H6.03L6.82,5z M5.5,15C4.67,15,4,14.33,4,13.5C4,12.67,4.67,12,5.5,12S7,12.67,7,13.5 C7,14.33,6.33,15,5.5,15z M15,16H9v-4h6V16z M18.5,15c-0.83,0-1.5-0.67-1.5-1.5c0-0.83,0.67-1.5,1.5-1.5s1.5,0.67,1.5,1.5 C20,14.33,19.33,15,18.5,15z" fill="#000000"/></svg>
