<?xml version="1.0" encoding="utf-8"?>
<svg xmlns="http://www.w3.org/2000/svg" viewBox="0 0 24 24" width="24" height="24" fill="#000000"><path d="M 11 2 L 11 3 L 9 3 A 1.0001 1.0001 0 0 0 8 4 L 8 5 L 6 5 A 1.0001 1.0001 0 0 0 5 6 L 5 10.880859 L 4.1601562 11.109375 C 3.3001563 11.289375 2.5804688 11.889219 2.2304688 12.699219 C 1.8804687 13.509219 1.940625 14.439453 2.390625 15.189453 L 4 17.880859 L 4 18.980469 C 3.9171433 18.988279 3.8366386 19 3.75 19 C 3.1869011 19 2.694455 18.824995 2.3925781 18.605469 C 2.0907013 18.385943 2 18.181158 2 18 L 0 18 C 0 18.923842 0.52342369 19.718432 1.2167969 20.222656 C 1.91017 20.72688 2.7940989 21 3.75 21 C 4.7059011 21 5.58983 20.72688 6.2832031 20.222656 C 6.3611489 20.165974 6.4268517 20.093089 6.5 20.029297 C 6.5731483 20.093089 6.6388511 20.165974 6.7167969 20.222656 C 7.41017 20.72688 8.2940989 21 9.25 21 C 10.205901 21 11.08983 20.72688 11.783203 20.222656 C 11.861149 20.165974 11.926852 20.093089 12 20.029297 C 12.073148 20.093089 12.138851 20.165974 12.216797 20.222656 C 12.91017 20.72688 13.794099 21 14.75 21 C 15.705901 21 16.58983 20.72688 17.283203 20.222656 C 17.361149 20.165974 17.426852 20.093089 17.5 20.029297 C 17.573148 20.093089 17.638851 20.165974 17.716797 20.222656 C 18.41017 20.72688 19.294099 21 20.25 21 C 21.205901 21 22.08983 20.72688 22.783203 20.222656 C 23.476576 19.718432 24 18.923842 24 18 L 22 18 C 22 18.181158 21.9093 18.385943 21.607422 18.605469 C 21.305545 18.824995 20.813099 19 20.25 19 C 20.163361 19 20.082857 18.988279 20 18.980469 L 20 17.880859 L 21.609375 15.199219 C 22.059375 14.439219 22.119531 13.509219 21.769531 12.699219 C 21.419531 11.889219 20.700625 11.299141 19.890625 11.119141 L 19 10.876953 L 19 6 A 1.0001 1.0001 0 0 0 18 5 L 16 5 L 16 4 A 1.0001 1.0001 0 0 0 15 3 L 13 3 L 13 2 L 11 2 z M 10 5 L 14 5 L 14 6 A 1.0001 1.0001 0 0 0 15 7 L 17 7 L 17 10.335938 L 12 8.9804688 L 7 10.337891 L 7 7 L 9 7 A 1.0001 1.0001 0 0 0 10 6 L 10 5 z M 8 14 C 8.6 14 9 14.47 9 15 C 9 15.53 8.6 16 8 16 C 7.4 16 7 15.53 7 15 C 7 14.47 7.4 14 8 14 z M 16 14 C 16.6 14 17 14.47 17 15 C 17 15.53 16.6 16 16 16 C 15.4 16 15 15.53 15 15 C 15 14.47 15.4 14 16 14 z" fill="#000000"/></svg>
