<?xml version="1.0" encoding="utf-8"?>
<svg xmlns="http://www.w3.org/2000/svg" viewBox="0 0 24 24" width="24" height="24" fill="#000000"><path d="M 5 4 C 4.448 4 4 4.448 4 5 L 4 11.609375 C 2.2234889 12.523708 1 14.3737 1 16.5 C 1 19.525721 3.4742785 22 6.5 22 C 9.0054253 22 11.12762 20.301307 11.785156 18 L 16.050781 18 C 16.026575 18.164905 16 18.328781 16 18.5 C 16 20.421152 17.578848 22 19.5 22 C 21.421152 22 23 20.421152 23 18.5 C 23 17.116848 22.175306 15.9223 21 15.355469 L 21 10 C 21 9.448 20.552 9 20 9 L 17 9 L 17 6 L 18 6 L 19 6 L 19 4 L 18 4 L 17 4 C 15.906937 4 15 4.9069372 15 6 L 15 9 L 12.677734 9 L 10.927734 4.6289062 C 10.775734 4.2499062 10.409 4 10 4 L 5 4 z M 6.5 13 C 8.4448413 13 10 14.555159 10 16.5 C 10 18.444841 8.4448413 20 6.5 20 C 4.5551587 20 3 18.444841 3 16.5 C 3 14.555159 4.5551587 13 6.5 13 z M 6.5 15 A 1.5 1.5 0 0 0 5 16.5 A 1.5 1.5 0 0 0 6.5 18 A 1.5 1.5 0 0 0 8 16.5 A 1.5 1.5 0 0 0 6.5 15 z M 19.5 17 C 20.340272 17 21 17.659728 21 18.5 C 21 19.340272 20.340272 20 19.5 20 C 18.659728 20 18 19.340272 18 18.5 C 18 17.659728 18.659728 17 19.5 17 z" fill="#000000"/></svg>
