<?xml version="1.0" encoding="utf-8"?>
<svg xmlns="http://www.w3.org/2000/svg" viewBox="0 0 24 24" width="24" height="24" fill="#000000"><path d="M 3 3 C 2.45 3 2 3.45 2 4 L 2 17 C 2 17.55 2.45 18 3 18 L 3.0507812 18 C 3.2958204 19.692046 4.7411114 21 6.5 21 C 8.2588886 21 9.7041796 19.692046 9.9492188 18 L 14.050781 18 C 14.29582 19.692046 15.741111 21 17.5 21 C 19.258889 21 20.70418 19.692046 20.949219 18 L 22 18 C 22.55 18 23 17.55 23 17 L 23 12.310547 C 23 11.750547 22.850781 11.210469 22.550781 10.730469 L 20.519531 7.4296875 C 19.969531 6.5496875 19.000937 6 17.960938 6 L 14 6 L 14 4 C 14 3.45 13.55 3 13 3 L 3 3 z M 14 8 L 17.960938 8 C 18.310938 8 18.630547 8.1804687 18.810547 8.4804688 L 20.849609 11.779297 C 20.949609 11.939297 21 12.120547 21 12.310547 L 21 16 L 20.648438 16 C 20.084435 14.821937 18.891001 14 17.5 14 C 16.108999 14 14.915565 14.821937 14.351562 16 L 14 16 L 14 8 z M 6.5 16 C 7.327 16 8 16.673 8 17.5 C 8 18.327 7.327 19 6.5 19 C 5.673 19 5 18.327 5 17.5 C 5 16.673 5.673 16 6.5 16 z M 17.5 16 C 18.327 16 19 16.673 19 17.5 C 19 18.327 18.327 19 17.5 19 C 16.673 19 16 18.327 16 17.5 C 16 16.673 16.673 16 17.5 16 z" fill="#000000"/></svg>
