<svg width="24" height="24" viewBox="0 0 24 24" fill="none" xmlns="http://www.w3.org/2000/svg">
<path fill-rule="evenodd" clip-rule="evenodd" d="M17 8H19.5C19.81 8 20.11 8.15 20.3 8.4L22.6 11.47C22.86 11.82 23 12.24 23 12.67V16C23 16.55 22.55 17 22 17H21C21 18.66 19.66 20 18 20C16.34 20 15 18.66 15 17H9C9 18.66 7.66 20 6 20C4.34 20 3 18.66 3 17C1.9 17 1 16.1 1 15V6C1 4.9 1.9 4 3 4H15C16.1 4 17 4.9 17 6V8ZM5 17C5 17.55 5.45 18 6 18C6.55 18 7 17.55 7 17C7 16.45 6.55 16 6 16C5.45 16 5 16.45 5 17ZM21.46 12L19.5 9.5H17V12H21.46ZM17 17C17 17.55 17.45 18 18 18C18.55 18 19 17.55 19 17C19 16.45 18.55 16 18 16C17.45 16 17 16.45 17 17ZM7.7704 16.1299L8.3613 16.2341C8.3613 16.2341 9.91885 14.1732 13.0446 10.0602L13.1033 9.96899C13.1774 9.86019 13.1742 9.63624 12.8847 9.58519L10.8165 9.22052L12.2178 4.72894L11.6269 4.62475C10.789 5.73304 10.0364 6.72746 9.36924 7.60897C8.4039 8.88444 7.61745 9.92355 7.01063 10.7292C6.99419 10.7534 7.10701 10.5973 6.95538 10.8007C6.80375 11.0041 6.7608 11.2132 7.10352 11.2736L9.17166 11.6383L7.7704 16.1299Z" fill="#F3A813"/>
</svg>
