<?xml version="1.0" encoding="utf-8"?>
<svg xmlns="http://www.w3.org/2000/svg" viewBox="0 0 24 24" width="24" height="24" fill="#000000"><path d="M 8.9003906 3.0019531 C 8.7956094 2.9959687 8.6911875 3.0029844 8.5859375 3.0214844 C 7.4759375 3.2044844 6.813875 4.6223594 7.046875 6.3183594 C 7.182875 7.3053594 7.6113594 8.1708594 8.1933594 8.6308594 C 8.5023594 8.8738594 8.8396406 9 9.1816406 9 C 9.2586406 9 9.3360625 8.9934687 9.4140625 8.9804688 C 10.524062 8.7974688 11.186125 7.3795937 10.953125 5.6835938 C 10.817125 4.6965937 10.390594 3.8310937 9.8085938 3.3710938 C 9.5243437 3.1468438 9.2147344 3.0199063 8.9003906 3.0019531 z M 15.097656 3.0039062 C 14.782656 3.0227031 14.474906 3.1448906 14.191406 3.3691406 C 13.609406 3.8291406 13.181875 4.6936406 13.046875 5.6816406 C 12.814875 7.3786406 13.474984 8.7974688 14.583984 8.9804688 C 14.661984 8.9924688 14.740359 9 14.818359 9 C 15.161359 9 15.499594 8.8738594 15.808594 8.6308594 C 16.390594 8.1708594 16.818125 7.3063594 16.953125 6.3183594 C 17.185125 4.6213594 16.524062 3.2025312 15.414062 3.0195312 C 15.308063 3.0025313 15.202656 2.9976406 15.097656 3.0039062 z M 4.6484375 8 C 4.5197266 8.0056641 4.39225 8.0274063 4.265625 8.0664062 C 3.824625 8.2044063 3.4583281 8.5369062 3.2363281 9.0039062 C 2.9493281 9.6089062 2.9221094 10.382 3.1621094 11.125 C 3.5271094 12.257 4.4012969 13 5.2792969 13 C 5.4322969 13 5.584375 12.977641 5.734375 12.931641 C 6.175375 12.793641 6.5416719 12.461141 6.7636719 11.994141 C 7.0506719 11.389141 7.0778906 10.616047 6.8378906 9.8730469 C 6.4625156 8.7110469 5.5494141 7.9603516 4.6484375 8 z M 19.349609 8 C 18.447197 7.9608438 17.537484 8.7101719 17.162109 9.8730469 C 16.922109 10.615047 16.948328 11.389141 17.236328 11.994141 C 17.458328 12.461141 17.824625 12.793641 18.265625 12.931641 C 18.415625 12.977641 18.568703 13 18.720703 13 C 19.598703 13 20.471891 12.256047 20.837891 11.123047 C 21.077891 10.381047 21.051672 9.6089063 20.763672 9.0039062 C 20.541672 8.5369062 20.175375 8.2044062 19.734375 8.0664062 C 19.607375 8.0275313 19.478525 8.0055937 19.349609 8 z M 12 10 C 10.835 10 9.7605 11.077125 9.0625 12.828125 C 8.5395 14.138125 7.503625 15.152125 6.265625 15.828125 C 5.154625 16.434125 5 17.11725 5 17.65625 C 5 19.82025 8.533 20.998047 12 20.998047 C 15.467 20.998047 19 19.82025 19 17.65625 C 19 17.11725 18.845375 16.433172 17.734375 15.826172 C 16.495375 15.151172 15.4605 14.138125 14.9375 12.828125 C 14.2395 11.078125 13.165 10 12 10 z" fill="#000000"/></svg>
