<?xml version="1.0" encoding="utf-8"?>
<svg xmlns="http://www.w3.org/2000/svg" viewBox="0 0 24 24" width="24" height="24" fill="#000000"><path d="M 10.740522,22.431687 C 6.6372172,21.905163 3.1885815,19.078838 1.8910479,15.179113 c -0.3908768,-1.174779 -0.54261,-2.122069 -0.54261,-3.387585 0,-1.209357 0.1475515,-2.1766167 0.49792,-3.2640662 1.2882882,-3.9984965 4.7661227,-6.8617637 8.9649971,-7.3807943 0.560638,-0.069299 1.910999,-0.069299 2.471638,0 3.647768,0.450908 6.780262,2.6704764 8.380974,5.9384444 1.245077,2.541917 1.431529,5.5132591 0.513191,8.1783611 -1.17821,3.419274 -4.011502,6.025761 -7.525319,6.922918 -1.074007,0.274218 -2.828449,0.384247 -3.911317,0.245296 z m 1.923887,-4.79799 c 2.289013,-0.15747 4.483588,-2.03049 5.068688,-4.326009 C 18.43748,10.544193 17.144653,7.7349869 14.595475,6.4898879 12.684639,5.5565761 10.273283,5.7797577 8.5718132,7.0474051 6.8980359,8.2944193 6.0348947,10.197522 6.1926888,12.293031 c 0.1831082,2.431679 1.9882247,4.583598 4.3522482,5.188412 0.472704,0.120936 1.324859,0.223288 1.605109,0.192787 0.07072,-0.0077 0.302188,-0.02594 0.514363,-0.04053 z M 12.047174,14.190926 V 11.791528 H 9.6477759 7.2483772 L 7.2794053,11.34146 C 7.4335485,9.1060233 9.3616638,7.1779069 11.597101,7.0237637 l 0.450067,-0.031028 v 2.3993987 2.3993986 h 2.399399 2.399398 l -0.03103,0.450067 c -0.154046,2.234035 -2.083659,4.163648 -4.317695,4.317696 l -0.450067,0.03104 z M 7.4751086,6.3487965 C 7.5838537,6.0652934 7.4984367,5.7590408 7.2444522,5.5217764 7.0698096,5.3586336 6.6778724,5.3164667 6.4467984,5.435957 6.2835665,5.5203626 6.2817491,5.5199819 6.2919722,5.4031018 6.3128099,5.1648738 6.283598,5.0579819 6.1560413,4.9064456 5.9763861,4.6929357 5.714756,4.6119168 5.4556393,4.6895501 5.2821691,4.7415246 5.1528386,4.877561 4.488598,5.7067487 L 3.721808,6.6639519 4.8039198,7.5297175 5.8860316,8.3954841 6.6577318,7.4316772 C 7.0821675,6.9015828 7.449987,6.414285 7.4751086,6.34879 Z M 5.6726968,7.3222044 5.4448485,7.125368 5.771233,6.7194676 c 0.5104889,-0.6348558 0.6214484,-0.740235 0.7794372,-0.740235 0.1496342,0 0.3014446,0.1594124 0.3014446,0.316541 0,0.080806 -0.8358674,1.1864523 -0.9163089,1.212048 -0.019391,0.0062 -0.1377939,-0.077358 -0.2631091,-0.1856172 z M 4.8094479,6.6341615 C 4.6902752,6.5427085 4.5919031,6.449112 4.5908439,6.4261786 4.5897846,6.403242 4.7752278,6.1544212 5.0029379,5.8732389 5.3735296,5.4156218 5.4344939,5.3619974 5.5841672,5.3619974 c 0.208854,0 0.2907158,0.079011 0.2904591,0.2803275 C 5.8744719,5.7602577 5.7776486,5.9205206 5.4846315,6.2878496 5.270244,6.5566043 5.0793771,6.7818837 5.0604818,6.7884711 5.0415909,6.7951052 4.9286227,6.725621 4.8094479,6.6341615 Z M 19.20473,7.8642848 c 0.636338,-0.2928474 1.194872,-0.5536564 1.241186,-0.5795751 0.0748,-0.04186 0.06575,-0.079664 -0.08095,-0.3384521 l -0.16515,-0.2913281 -0.707248,0.3259474 c -0.388987,0.1792702 -0.707248,0.3141559 -0.707248,0.2997447 0,-0.01441 0.21944,-0.3154796 0.487646,-0.6690433 0.534166,-0.7041704 0.524001,-0.6579121 0.221603,-1.0084981 L 19.3254,5.406955 18.584563,5.745232 c -0.40746,0.1860522 -0.747664,0.3314482 -0.756009,0.3231033 -0.0084,-0.00837 0.192684,-0.2889343 0.446731,-0.6235321 0.508271,-0.6694272 0.501526,-0.6273571 0.145756,-0.9091309 L 18.226894,4.3819043 17.395507,5.4693897 16.56412,6.5568751 16.813164,6.780111 c 0.136973,0.1227802 0.260615,0.2240059 0.27476,0.2249467 0.01415,9.407e-4 0.419206,-0.1799935 0.900135,-0.4020744 0.480929,-0.2220809 0.882124,-0.3973467 0.891547,-0.3894771 0.0095,0.00783 -0.251763,0.3668569 -0.580411,0.7977527 -0.328647,0.4308948 -0.590966,0.797581 -0.582929,0.8148569 0.02099,0.045123 0.322422,0.5705048 0.327357,0.5705679 0.0023,2.83e-5 0.524769,-0.2395504 1.161107,-0.5323989 z M 11.082745,4.9183935 c 0.07832,-0.022839 0.0908,-0.1010452 0.09602,-0.6014459 0.0033,-0.3163551 0.02066,-0.7241576 0.03858,-0.9062272 l 0.03256,-0.3310371 0.280713,0.9096943 0.280715,0.9096943 h 0.235833 0.235833 l 0.280715,-0.9096943 0.280713,-0.9096943 0.03256,0.3310371 c 0.01791,0.1820696 0.03527,0.5898721 0.03857,0.9062272 0.0067,0.6403099 -0.0196,0.5987226 0.417502,0.6603177 l 0.231463,0.032616 -0.04297,-1.379888 C 13.497925,2.8710544 13.473955,2.24542 13.468289,2.239694 13.462634,2.23393 13.274642,2.222391 13.050556,2.2139732 l -0.407431,-0.015313 -0.28163,0.9129928 c -0.154896,0.5021463 -0.296344,0.9129929 -0.314329,0.9129929 -0.01799,0 -0.159433,-0.4108466 -0.314329,-0.9129929 l -0.281623,-0.9129928 -0.40743,0.015313 c -0.224087,0.00837 -0.412067,0.019989 -0.417733,0.025721 -0.0057,0.00576 -0.02964,0.6313615 -0.05328,1.3902993 l -0.04297,1.379889 0.231463,-0.032616 c 0.127304,-0.017945 0.271968,-0.044427 0.321476,-0.05887 z" fill="#000000"/></svg>
