<?xml version="1.0" encoding="UTF-8"?>
<svg width="24" height="24" fill="#000000" version="1.1" viewBox="0 0 24 24" xmlns="http://www.w3.org/2000/svg">
<path d="m12 .572c-6.38 0-11.6 5.17-11.6 11.6 0 6.38 5.17 11.6 11.6 11.6 6.38 0 11.6-5.17 11.6-11.6 0-6.38-5.17-11.6-11.6-11.6zm0 1.04c5.81 0 10.5 4.71 10.5 10.5 0 5.81-4.71 10.5-10.5 10.5-5.81 0-10.5-4.71-10.5-10.5 0-5.81 4.71-10.5 10.5-10.5zm0 2.33a8.19 8.19 0 00-2.3.328l2.3 5.1 2.3-5.1c-.73-.213-1.5-.328-2.3-.328zm-4.39 1.28a8.23 8.23 0 00-2.21 2.07l3.77 8.36 1.46-3.24h2.76l1.46 3.24 3.78-8.35a8.24 8.24 0 00-2.22-2.08l-3 6.69h-2.77l-3.01-6.69zm-3.52 4.79a8.2 8.2 0 00-.275 2.12c0 3.21 1.84 5.98 4.53 7.33l-4.26-9.45zm15.8.0176-4.26 9.43c2.69-1.34 4.53-4.12 4.53-7.33 0-.726-.0943-1.43-.271-2.1zm-7.91 4.95-2.27 5.02a8.18 8.18 0 002.27.316c.785 0 1.54-.111 2.26-.316l-2.26-5.02z" clip-rule="evenodd" fill-rule="evenodd" stroke-width=".124"/>
</svg>
