<?xml version="1.0" encoding="utf-8"?>
<svg xmlns="http://www.w3.org/2000/svg" viewBox="0 0 24 24" width="24" height="24" fill="#000000"><path d="M 11 3 C 7.375 3 3 3.237 3 7 L 3 18 C 3 18.884916 3.3906671 19.671627 4 20.220703 L 4 22 C 4 22.552 4.448 23 5 23 L 6 23 C 6.552 23 7 22.552 7 22 L 7 21 L 17 21 L 17 22 C 17 22.552 17.448 23 18 23 L 19 23 C 19.552 23 20 22.552 20 22 L 20 20.220703 C 20.609333 19.671627 21 18.884916 21 18 L 21 7 C 21 3.237 16.625 3 13 3 L 11 3 z M 5 7 L 19 7 L 19 13 L 5 13 L 5 7 z M 6.5 16 C 7.328 16 8 16.672 8 17.5 C 8 18.328 7.328 19 6.5 19 C 5.672 19 5 18.328 5 17.5 C 5 16.672 5.672 16 6.5 16 z M 17.5 16 C 18.328 16 19 16.672 19 17.5 C 19 18.328 18.328 19 17.5 19 C 16.672 19 16 18.328 16 17.5 C 16 16.672 16.672 16 17.5 16 z" fill="#000000"/></svg>
