<?xml version="1.0" encoding="UTF-8" standalone="no"?>
<svg
   viewBox="0 0 24 24"
   version="1.1"
   id="svg1"
   width="24"
   height="24"
   xmlns="http://www.w3.org/2000/svg">
  <defs
     id="defs1" />
  <path
     d="M 2.5714325,1 C 3.440625,1 4.1428558,1.6144508 4.1428558,2.375 V 3.0625 L 7.53125,2.3234375 c 1.8709808,-0.4082008 3.845087,-0.2191383 5.573663,0.5371117 2.273654,0.996875 4.95,0.996875 7.223654,0 L 20.8,2.6542992 C 21.811606,2.2074242 23,2.8519508 23,3.8402367 V 15.858598 c 0,0.571478 -0.407587,1.087103 -1.021433,1.289063 l -1.70401,0.558589 c -2.26875,0.743362 -4.792865,0.627339 -6.95849,-0.317973 C 11.454913,16.571875 9.3236633,16.369924 7.3004425,16.8125 L 4.1428558,17.5 v 4.125 C 4.1428558,22.385549 3.440625,23 2.5714325,23 1.7022308,23 1,22.385549 1,21.625 V 18.1875 15.351563 3.75 2.375 C 1,1.6144508 1.7022308,1 2.5714325,1 Z M 4.1428558,9.0394508 7.2857117,8.4421875 v 2.8144505 l -3.1428559,0.597264 v 2.810161 l 2.3964325,-0.524215 c 0.2504425,-0.05583 0.4959809,-0.103134 0.7464234,-0.141799 v -2.74571 l 1.9102691,-0.360937 c 0.4075867,-0.07737 0.8200872,-0.107415 1.2325872,-0.0902 V 8.0512017 c 0.667864,0.017142 1.33572,0.1117141 1.983932,0.275 l 1.158932,0.2964775 v 2.8660228 l -2.047769,-0.528523 c -0.358481,-0.0902 -0.726788,-0.146089 -1.095095,-0.163276 v 3.067964 c 1.070538,0.08168 2.126345,0.287897 3.142864,0.618759 v -2.999224 l 1.114731,0.287889 c 0.662943,0.171875 1.340625,0.275 2.028125,0.317973 V 9.3316658 C 16.33125,9.2972908 15.948212,9.23284 15.575,9.1383042 L 13.571433,8.6226792 V 5.9586167 C 12.933038,5.79534 12.304462,5.5804917 11.695538,5.31409 11.292856,5.1379158 10.865625,5.0133042 10.428568,4.935965 V 8.0469025 C 9.7901825,8.0296692 9.1517883,8.0812775 8.528125,8.20159 L 7.2857117,8.442215 v -3.23125 l -3.1428559,0.6875 z M 16.714288,15.424612 c 0.825,0.06444 1.664731,-0.03007 2.455356,-0.292188 l 0.6875,-0.223437 v -3.080862 l -0.387952,0.07737 c -0.903567,0.184772 -1.831692,0.244924 -2.754904,0.193361 z M 19.857144,9.0050758 V 5.9628883 C 18.830807,6.225 17.775,6.3539017 16.714288,6.3539017 v 2.9820358 c 0.682587,0.060133 1.375,0.02145 2.047769,-0.1117233 l 1.095087,-0.2234375 z"
  />
</svg>
