<?xml version="1.0" encoding="utf-8"?>
<svg xmlns="http://www.w3.org/2000/svg" viewBox="0 0 24 24" width="24" height="24" fill="#000000">
<path d="M 1.71429,0 C 2.6625,0 3.42857,0.67031 3.42857,1.5 V 2.25 L 7.125,1.44375 c 2.04107,-0.44531 4.19464,-0.23906 6.08036,0.58594 2.48035,1.0875 5.4,1.0875 7.88035,0 L 21.6,1.80469 C 22.70357,1.31719 24,2.02031 24,3.09844 v 13.11094 c 0,0.62343 -0.44464,1.18593 -1.11429,1.40625 L 21.02679,18.225 c -2.475,0.81094 -5.22858,0.68437 -7.59108,-0.34688 C 11.40536,16.9875 9.08036,16.76719 6.87321,17.25 L 3.42857,18 v 4.5 C 3.42857,23.32969 2.6625,24 1.71429,24 0.76607,24 0,23.32969 0,22.5 V 18.75 15.65625 3 1.5 C 0,0.67031 0.76607,0 1.71429,0 Z M 3.42857,8.77031 6.85714,8.11875 v 3.07031 l -3.42857,0.65156 v 3.06563 l 2.61429,-0.57187 c 0.27321,-0.0609 0.54107,-0.11251 0.81428,-0.15469 v -2.99532 l 2.08393,-0.39375 c 0.44464,-0.0844 0.89464,-0.11718 1.34464,-0.0984 v -3 c 0.72858,0.0187 1.45715,0.12187 2.16429,0.3 l 1.26429,0.32343 v 3.12657 l -2.23393,-0.57657 c -0.39107,-0.0984 -0.79286,-0.15937 -1.19465,-0.17812 v 3.34687 c 1.16786,0.0891 2.31965,0.31407 3.42858,0.67501 v -3.27188 l 1.21607,0.31406 c 0.72321,0.1875 1.4625,0.3 2.2125,0.34688 V 9.08909 C 16.725,9.05159 16.30714,8.98128 15.9,8.87815 L 13.71429,8.31565 V 5.4094 C 13.01786,5.23128 12.33214,4.9969 11.66786,4.70628 11.22857,4.51409 10.7625,4.37815 10.28571,4.29378 V 7.68753 C 9.58929,7.66873 8.89286,7.72503 8.2125,7.85628 l -1.35536,0.2625 v -3.525 l -3.42857,0.75 z m 13.71429,6.96563 c 0.9,0.0703 1.81607,-0.0328 2.67857,-0.31875 l 0.75,-0.24375 V 11.8125 l -0.42322,0.0844 C 19.1625,12.09847 18.15,12.16409 17.14286,12.10784 Z M 20.57143,8.73281 V 5.41406 C 19.45179,5.7 18.3,5.84062 17.14286,5.84062 v 3.25313 c 0.74464,0.0656 1.5,0.0234 2.23393,-0.12188 l 1.19464,-0.24375 z" fill="#000000"/>
</svg>
