<?xml version="1.0" encoding="UTF-8"?>
<svg width="24" height="24" fill="#000000" version="1.1" viewBox="0 0 24 24" xmlns="http://www.w3.org/2000/svg">
<path d="m14.6 7.21c-1.08.0114-2.16.14-3.17.5-.853.303-1.72.634-2.51 1.07-.548.304-1.1.771-1.69.975-1.24.428-2.72.549-4.01.773-.522.0909-1.15.108-1.63.344-.701.343-.727 1.3-1.32 1.62 0 .449-.191 1.53.264 1.81.318.193.941.0723 1.3.0723.00558-.677.0989-1.42.473-2 .913-1.42 2.96-1.72 4.08-.377.636.76.752 1.76.521 2.7h10.7c0-1.01.183-2.08.945-2.81 1.94-1.87 4.32.332 4.32 2.49.255 0 .636.063.846-.115.332-.282.158-1.24.158-1.64-.342-.108-.321-.438-.359-.752-.082-.666-.0657-1.43-.293-2.07-.292-.816-1.67-1.42-2.42-1.76-.915-.417-1.96-.535-2.94-.631-1.05-.101-2.14-.207-3.22-.195zm-.443.557c.194 2.29e-5.392.00749.594.0234l-.312 2.45-4.51.188c.174-.734-.399-.809-1-.814.385-.36.971-.594 1.44-.83 1.26-.631 2.44-1.01 3.79-1.01zm1.7.00977c.143-.00376.293.0137.402.0137.679 0 1.43.0025 2.07.273.557.238 1.03.629 1.4 1.11.134.172.352.436.254.672-.144.346-.922.196-1.21.209-1.25.0548-2.51.16-3.76.186.0117-.567.176-1.14.287-1.69.0394-.197.0478-.503.197-.652.0853-.0855.222-.111.365-.115zm-11.3 4.04c-.07-.000119-.143.00432-.217.0117-2.43.242-2.17 3.95.252 3.72 2.31-.221 2.14-3.73-.0352-3.73zm15.7 0c-.0702-8e-5-.143.00431-.217.0117-2.43.243-2.11 3.97.312 3.72 2.31-.237 2.08-3.73-.0957-3.73zm-16.1.984v.689h-.627c.0713-.353.288-.574.627-.689zm.439 0c.37.11.579.319.689.689h-.689v-.689zm15.4 0v.689h-.688c.11-.37.317-.579.688-.689zm.439 0c.339.115.556.336.627.689h-.627v-.689zm-15.1 1.07c-.0963.369-.309.613-.689.689 6.4e-5-.589.1-.689.689-.689zm15.1 0h.627c-.0677.373-.269.575-.627.689v-.689zm-16.9.0625h.627v.627c-.342-.0816-.545-.285-.627-.627zm15.7 0h.688v.627c-.353-.0713-.572-.288-.688-.627z" fill="#030303"/>
</svg>
