<?xml version="1.0" encoding="utf-8"?>
<svg xmlns="http://www.w3.org/2000/svg" viewBox="0 0 24 24" width="24" height="24" fill="#000000"><path d="m 10.973041,11.84389 q 0.01521,-0.01735 0.01521,-0.04121 0,-0.02381 -0.01521,-0.04122 -0.01522,-0.01736 -0.03618,-0.01736 -0.02091,0 -0.03617,0.01736 -0.01522,0.01735 -0.01522,0.04122 0,0.02383 0.01522,0.04121 0.01521,0.01735 0.03617,0.01735 0.02089,0 0.03618,-0.01735 z m -0.139186,-0.275906 h 0.15447 v -0.117336 h -0.06358 q -0.0051,0 -0.0089,0.0043 l -0.07843,0.08936 q -0.0038,0.0043 -0.0038,0.0101 v 0.01384 z m 0.49962,0.275906 q 0.01522,-0.01735 0.01522,-0.04121 0,-0.02381 -0.01522,-0.04122 -0.01522,-0.01736 -0.03618,-0.01736 -0.02091,0 -0.03617,0.01736 -0.01521,0.01735 -0.01521,0.04122 0,0.02383 0.01521,0.04121 0.01522,0.01735 0.03617,0.01735 0.02091,0 0.03618,-0.01735 z m 0.118269,-0.5399 v 0.46932 q 0,0.0066 -0.0014,0.01233 -0.0014,0.0051 -0.0058,0.0084 -0.0038,0.0034 -0.0066,0.0058 -0.0031,0.0016 -0.0098,0.0025 -0.0066,4.64e-4 -0.0089,8.42e-4 -0.0022,0 -0.01046,0 -0.0075,-4.55e-4 -0.0089,-4.55e-4 0,0.04856 -0.03015,0.08296 -0.0302,0.03442 -0.07281,0.03442 -0.04262,0 -0.07281,-0.03442 -0.03021,-0.03434 -0.03021,-0.08296 h -0.15454 q 0,0.04856 -0.03021,0.08296 -0.03021,0.03442 -0.07281,0.03442 -0.04261,0 -0.07281,-0.03442 -0.0302,-0.03442 -0.0302,-0.08296 h -0.02579 q -0.0014,0 -0.0092,4.55e-4 -0.0075,0 -0.01,0 -0.0022,-4.55e-4 -0.0092,-8.42e-4 -0.0066,-8.39e-4 -0.0092,-0.0025 -0.0031,-0.0025 -0.0066,-0.0058 -0.0038,-0.0034 -0.0051,-0.0084 -0.0014,-0.0058 -0.0014,-0.01233 0,-0.01192 0.0075,-0.02069 0.0076,-0.0088 0.01815,-0.0088 v -0.146669 q 0,-0.0034 -4.02e-4,-0.01609 0,-0.01232 0,-0.01736 4.02e-4,-0.0051 0.0014,-0.01547 7.41e-4,-0.01099 0.0022,-0.01694 0.0022,-0.0066 0.0058,-0.01421 0.0038,-0.0074 0.0092,-0.01383 l 0.07964,-0.09073 q 0.0076,-0.0086 0.02009,-0.01464 0.01284,-0.0058 0.02371,-0.0058 h 0.06441 v -0.08801 q 0,-0.01192 0.0075,-0.02069 0.0075,-0.0088 0.01816,-0.0088 h 0.411923 q 0.01046,0 0.01815,0.0088 0.0076,0.0086 0.0076,0.02069 z M 3.3668284,21.792603 C 2.1367346,21.492923 1.0319285,20.409018 0.59032204,19.068627 -0.1829655,16.721526 0.91269766,14.146848 3.0248278,13.347792 c 0.4058923,-0.153544 0.4763193,-0.164124 1.1172014,-0.167614 0.5797653,-0.0035 0.737711,0.014 1.036448,0.112684 1.5488342,0.511705 2.6361311,1.960301 2.8110252,3.745107 0.2193189,2.238123 -1.089858,4.294468 -3.0326488,4.763436 -0.3982339,0.09613 -1.1769632,0.09181 -1.5900252,-0.0089 z M 4.8194471,20.28985 c 1.0872348,-0.319392 1.8563074,-1.45305 1.865051,-2.74922 0.00505,-0.811177 -0.2340519,-1.474306 -0.7412723,-2.052209 -0.986069,-1.123488 -2.5521066,-1.113406 -3.5372399,0.0228 -0.374546,0.431985 -0.5717365,0.840166 -0.6842644,1.416437 -0.1392587,0.713203 -0.0114,1.511893 0.3426211,2.140512 0.3122725,0.554453 0.9103154,1.050876 1.4746038,1.224041 0.3228105,0.09908 0.9391384,0.09793 1.2805007,-0.0025 z m 9.5369619,1.123495 c -0.760702,-0.104077 -1.385144,-0.459376 -1.963248,-1.117043 -0.349746,-0.397877 -0.445109,-0.54512 -0.623858,-0.963246 -0.286371,-0.669874 -0.37327,-1.151499 -0.341193,-1.890971 0.02763,-0.636934 0.100218,-0.963903 0.337395,-1.519897 0.319474,-0.748872 0.869495,-1.35028 1.587707,-1.736049 1.797245,-0.965333 3.9485,0.10539 4.570769,2.274968 0.156047,0.544053 0.193618,1.442521 0.08384,2.004709 -0.140103,0.717484 -0.556501,1.516663 -1.052212,2.019456 -0.682879,0.692629 -1.690476,1.052407 -2.599201,0.928073 z m 0.996133,-1.596992 c 0.528999,-0.189832 0.945951,-0.60568 1.204147,-1.2009 0.148267,-0.341795 0.169257,-0.439903 0.185678,-0.867764 0.02282,-0.595089 -0.08575,-1.019795 -0.375042,-1.467034 -0.450197,-0.695947 -1.200131,-1.051795 -1.920353,-0.911234 -1.437207,0.280494 -2.153743,2.034543 -1.416586,3.46771 0.257901,0.501396 0.890517,0.980813 1.407793,1.066871 0.292276,0.04863 0.622982,0.01694 0.914363,-0.08764 z M 8.3902162,18.073157 c 0.067053,-0.387511 0.03928,-1.641687 -0.0441,-1.990298 -0.48057,-2.009696 -1.9056187,-3.379093 -3.7252857,-3.579836 -0.3348591,-0.03692 -0.9823055,0.03502 -1.3908036,0.154442 -0.3408382,0.09973 -0.9378364,0.420611 -1.286179,0.691353 -0.336889,0.261857 -0.7987374,0.786319 -1.01106391,1.14815 l -0.1651469,0.281439 -0.0126702,-0.732624 c -0.0144921,-0.839106 0.0466026,-1.270047 0.25270921,-1.782249 0.3720417,-0.924707 1.0680041,-1.594694 1.9394884,-1.867102 0.2789278,-0.08721 0.451791,-0.106742 0.8293599,-0.09383 l 0.4769891,0.01631 0.01267,-3.1432546 c 0.011789,-2.9033612 0.018747,-3.1535464 0.093075,-3.2781187 0.04424,-0.074121 0.1324148,-0.1618434 0.1959517,-0.1948292 0.1677879,-0.087111 5.9864668,-0.085103 6.1544758,0.00255 0.06576,0.034149 0.151938,0.1334052 0.191521,0.2206063 0.05725,0.1261202 2.246801,7.3277462 2.246801,7.3898972 0,0.0093 0.07179,0.01674 0.159605,0.01674 0.152543,0 0.159605,0.0084 0.159605,0.18513 0,0.176076 0.0066,0.184336 0.142122,0.168845 0.141073,-0.01609 0.151038,-0.03836 1.3566,-3.0258692 L 16.180421,5.651031 16.887224,5.4250804 c 0.388734,-0.1242859 0.78336,-0.249489 0.876936,-0.2782751 l 0.170156,-0.052347 -0.02873,-0.3132522 -0.02873,-0.3132521 1.385189,-1.5813499 c 0.929859,-1.0615363 1.416384,-1.5813536 1.480076,-1.5813536 0.240435,0 0.242982,0.011248 0.480387,2.1276527 0.122953,1.0959966 0.228928,1.9983947 0.235531,2.0053382 0.0066,0.00657 0.339744,0.053845 0.740333,0.1041443 0.626628,0.078769 0.774265,0.1153671 1.057261,0.2623193 0.180906,0.093927 0.352515,0.2209944 0.381339,0.2823727 0.07548,0.1606716 0.01994,0.3396425 -0.125754,0.4052753 -0.06929,0.031201 -1.172495,0.2914254 -2.451574,0.5782414 -1.279076,0.2868148 -2.372199,0.5336668 -2.429163,0.548562 -0.179387,0.04687 -0.301193,-0.1556779 -0.3679,-0.6118914 -0.03486,-0.238378 -0.08094,-0.4026519 -0.112998,-0.4026519 -0.09322,0 -1.003692,0.3076761 -1.034843,0.3496982 -0.01632,0.021975 -0.591125,1.4368926 -1.277405,3.1442577 l -1.24778,3.104287 H 14.02841 13.467268 v 0.176204 c 0,0.147669 -0.01972,0.181846 -0.121888,0.211066 -0.239186,0.06839 -0.797061,0.41687 -1.080716,0.675066 -0.607079,0.552577 -1.036646,1.266943 -1.266956,2.106896 -0.09177,0.334686 -0.106827,0.497763 -0.106827,1.155985 v 0.766335 H 9.6214663 8.3520598 Z m 3.6178018,-6.987983 c 0,-0.02147 -0.438264,-1.430103 -0.973923,-3.1302641 L 10.060181,4.8637004 7.7053032,4.8502691 5.350426,4.8368379 l 0.00141,3.0008453 0.00141,3.0008448 0.165275,0.142881 0.1652763,0.142883 h 3.1618508 c 1.7390199,0 3.1618509,-0.01755 3.1618509,-0.03904 z" fill="#000000"/></svg>
