<?xml version="1.0" encoding="utf-8"?>
<svg xmlns="http://www.w3.org/2000/svg" viewBox="0 0 24 24" width="24" height="24" fill="#000000"><path d="M 12 4 C 9.789063 4 8 5.789063 8 8 C 8 10.210938 9.789063 12 12 12 C 14.210938 12 16 10.210938 16 8 C 16 5.789063 14.210938 4 12 4 Z M 9.03125 13.40625 C 5.253906 14.550781 4 17.65625 4 17.65625 L 4 20 L 20 20 L 20 17.65625 C 20 17.65625 18.746094 14.550781 14.96875 13.40625 C 14.761719 14.863281 13.511719 16 12 16 C 10.488281 16 9.238281 14.863281 9.03125 13.40625 Z" fill="#000000"/></svg>
