<?xml version="1.0" encoding="UTF-8" standalone="no"?>
<svg
   viewBox="0 0 24 24"
   version="1.1"
   id="svg1"
   sodipodi:docname="start.svg"
   width="24"
   height="24"
   inkscape:version="1.3.2 (091e20e, 2023-11-25)"
   xmlns:inkscape="http://www.inkscape.org/namespaces/inkscape"
   xmlns:sodipodi="http://sodipodi.sourceforge.net/DTD/sodipodi-0.dtd"
   xmlns="http://www.w3.org/2000/svg"
   xmlns:svg="http://www.w3.org/2000/svg">
  <defs
     id="defs1" />
  <sodipodi:namedview
     id="namedview1"
     pagecolor="#ffffff"
     bordercolor="#000000"
     borderopacity="0.25"
     inkscape:showpageshadow="2"
     inkscape:pageopacity="0.0"
     inkscape:pagecheckerboard="0"
     inkscape:deskcolor="#d1d1d1"
     inkscape:zoom="45.708333"
     inkscape:cx="11.989061"
     inkscape:cy="12"
     inkscape:window-width="1728"
     inkscape:window-height="1310"
     inkscape:window-x="0"
     inkscape:window-y="25"
     inkscape:window-maximized="1"
     inkscape:current-layer="svg1" />
  <!--!Font Awesome Free 6.6.0 by @fontawesome - https://fontawesome.com License - https://fontawesome.com/license/free Copyright 2024 Fonticons, Inc.-->
  <path
     d="M 4.1428567,2.375 C 4.1428567,1.6144536 3.440625,1 2.5714288,1 1.7022318,1 1,1.6144536 1,2.375 V 3.75 16.8125 21.625 C 1,22.385546 1.7022318,23 2.5714288,23 3.440625,23 4.1428567,22.385546 4.1428567,21.625 v -5.5 l 3.1575895,-0.691797 c 2.0183038,-0.442578 4.1544648,-0.236328 6.0156248,0.575782 2.170536,0.949609 4.689733,1.065625 6.958483,0.317969 L 21.978571,15.76836 C 22.592411,15.566406 23,15.055079 23,14.479296 V 3.8359375 C 23,2.8476562 21.811607,2.203125 20.8,2.6457027 l -0.471429,0.2062509 c -2.27366,0.996875 -4.949999,0.996875 -7.22366,0 C 11.38125,2.0957036 9.4022318,1.9066402 7.53125,2.3148437 L 4.1428567,3.0625 Z"
     id="path1"
     style="stroke-width:0.0459355"
     inkscape:label="path1" />
</svg>
