<?xml version="1.0" encoding="UTF-8" standalone="no"?>
<svg
   viewBox="0 0 24 24"
   version="1.1"
   width="24"
   height="24"
   xmlns="http://www.w3.org/2000/svg">
  <path
     d="M 4.1428567,2.375 C 4.1428567,1.6144536 3.440625,1 2.5714288,1 1.7022318,1 1,1.6144536 1,2.375 V 3.75 16.8125 21.625 C 1,22.385546 1.7022318,23 2.5714288,23 3.440625,23 4.1428567,22.385546 4.1428567,21.625 v -5.5 l 3.1575895,-0.691797 c 2.0183038,-0.442578 4.1544648,-0.236328 6.0156248,0.575782 2.170536,0.949609 4.689733,1.065625 6.958483,0.317969 L 21.978571,15.76836 C 22.592411,15.566406 23,15.055079 23,14.479296 V 3.8359375 C 23,2.8476562 21.811607,2.203125 20.8,2.6457027 l -0.471429,0.2062509 c -2.27366,0.996875 -4.949999,0.996875 -7.22366,0 C 11.38125,2.0957036 9.4022318,1.9066402 7.53125,2.3148437 L 4.1428567,3.0625 Z"
     />
</svg>
