<svg xmlns="http://www.w3.org/2000/svg" height="24px" viewBox="0 -960 960 960" width="24px" fill="#5f6368"><path d="m240-160c-33.333 0-61.667-11.667-85-35s-35-51.667-35-85h-80v-440c0-22 7.8333-40.833 23.5-56.5s34.5-23.5 56.5-23.5h560v440h240v80h-560c0 33.333-11.667 61.667-35 85s-51.667 35-85 35zm0-80c11.333 0 20.833-3.8333 28.5-11.5s11.5-17.167 11.5-28.5-3.8333-20.833-11.5-28.5-17.167-11.5-28.5-11.5-20.833 3.8333-28.5 11.5-11.5 17.167-11.5 28.5 3.8333 20.833 11.5 28.5 17.167 11.5 28.5 11.5zm-120-120h32c11.333-12 24.333-21.667 39-29s31-11 49-11 34.333 3.6667 49 11 27.667 17 39 29h272v-360h-480z"/></svg>