<?xml version="1.0" encoding="UTF-8" standalone="no"?>
<svg
   xmlns:dc="http://purl.org/dc/elements/1.1/"
   xmlns:cc="http://creativecommons.org/ns#"
   xmlns:rdf="http://www.w3.org/1999/02/22-rdf-syntax-ns#"
   xmlns:svg="http://www.w3.org/2000/svg"
   xmlns="http://www.w3.org/2000/svg"
   xmlns:sodipodi="http://sodipodi.sourceforge.net/DTD/sodipodi-0.dtd"
   xmlns:inkscape="http://www.inkscape.org/namespaces/inkscape"
   id="svg4145"
   height="40"
   width="40"
   version="1.1"
   viewBox="0 0 40 40"
   sodipodi:docname="bmw-logo1.svg"
   inkscape:version="1.0.1 (3bc2e813f5, 2020-09-07)">
  <metadata
     id="metadata128">
    <rdf:RDF>
      <cc:Work
         rdf:about="">
        <dc:format>image/svg+xml</dc:format>
        <dc:type
           rdf:resource="http://purl.org/dc/dcmitype/StillImage" />
        <dc:title></dc:title>
      </cc:Work>
    </rdf:RDF>
  </metadata>
  <defs
     id="defs126" />
  <sodipodi:namedview
     pagecolor="#ffffff"
     bordercolor="#666666"
     borderopacity="1"
     objecttolerance="10"
     gridtolerance="10"
     guidetolerance="10"
     inkscape:pageopacity="0"
     inkscape:pageshadow="2"
     inkscape:window-width="1920"
     inkscape:window-height="1017"
     id="namedview124"
     showgrid="false"
     inkscape:zoom="21.25"
     inkscape:cx="41.114189"
     inkscape:cy="16.194706"
     inkscape:window-x="-8"
     inkscape:window-y="-8"
     inkscape:window-maximized="1"
     inkscape:current-layer="layer1"
     inkscape:document-rotation="0" />
  <g
     id="layer1">
    <path
       id="background"
       d="m20.002 3.6816l-1.131 3.3907a12.374 12.374 0 0 1 1.131 -0.0625 12.374 12.374 0 0 1 1.129 0.0566l-1.129-3.3848zm-0.002 3.9434a12.374 12.374 0 0 0 -12.375 12.375 12.374 12.374 0 0 0 12.375 12.375 12.374 12.374 0 0 0 12.375 -12.375 12.374 12.374 0 0 0 -12.375 -12.375z"
       stroke="#333"
       stroke-width="1.9"
       fill="#008000" />
    <path
       d="M 19.680172,30.438035 C 13.839551,30.173887 9.2805546,25.331164 9.5544801,19.666647 9.8381904,13.835811 14.651567,9.3159375 20.296517,9.5605189 c 5.840621,0.254365 10.39963,5.1166541 10.125692,10.7713901 -0.283711,5.830835 -5.087302,10.360492 -10.742037,10.106126 z m 6.574359,-10.41919 c 0.0098,-3.453498 -2.788228,-6.2613 -6.222155,-6.280866 -3.473066,-0.0098 -6.300434,2.778451 -6.300434,6.241732 -0.0098,3.453497 2.788228,6.261299 6.222168,6.280865 3.473054,0.0098 6.290649,-2.788235 6.300421,-6.241731 z m -6.955905,-9.66588 c -0.352204,0.03914 -0.635914,0.07827 -0.939194,0.10762 -0.04892,0.958762 -0.08806,1.888174 -0.136963,2.846935 0.273926,-0.02935 0.489154,-0.0587 0.772877,-0.08805 0,-0.56743 0,-1.115294 0,-1.653375 0.03914,-0.0098 0.08806,-0.01957 0.127178,-0.01957 0.156532,0.450031 0.30328,0.909844 0.489167,1.340308 0.05871,0.14675 0.254368,0.322849 0.381546,0.313066 0.12719,0 0.30328,-0.185883 0.371761,-0.332631 0.185887,-0.430464 0.332634,-0.890279 0.489167,-1.330527 0.04892,0.0098 0.08806,0.01957 0.136963,0.02936 0,0.547864 0,1.095727 0,1.663158 0.273937,0.02935 0.498951,0.04891 0.655483,0.06848 0,-0.851145 0,-1.663157 0,-2.465386 0,-0.234798 -0.02935,-0.440247 -0.332634,-0.401114 -0.264141,0.02935 -0.616345,-0.254366 -0.753307,0.254365 -0.136963,0.518514 -0.342419,1.027244 -0.567433,1.672941 -0.254368,-0.763096 -0.469597,-1.369659 -0.694611,-2.005572 z m 7.464642,4.157892 c 0.01957,0.01957 0.02935,0.04891 0.04892,0.06848 -0.254356,0.342414 -0.479382,0.723961 -0.772877,1.037027 -0.371762,0.401114 -0.32285,0.723962 0.06849,1.066377 0.831586,-0.381548 1.653375,-0.763096 2.514303,-1.154426 -0.136963,-0.225017 -0.244583,-0.420682 -0.361977,-0.606564 -0.469597,0.205449 -0.890282,0.391331 -1.310955,0.577213 -0.01957,-0.01957 -0.03914,-0.04891 -0.04892,-0.06848 0.313065,-0.410898 0.626129,-0.812011 0.929409,-1.213125 -0.430458,-0.626131 -0.430458,-0.626131 -1.076157,-0.332632 -0.254368,0.117393 -0.518508,0.234798 -0.782661,0.352198 -0.01957,-0.02935 -0.02935,-0.04891 -0.04892,-0.07827 0.273925,-0.371765 0.557648,-0.743528 0.851143,-1.134859 -0.185887,-0.166316 -0.342419,-0.322849 -0.518521,-0.489165 -0.596775,0.782663 -1.154423,1.526192 -1.682717,2.230588 0.273925,0.50873 0.58699,0.557647 1.01746,0.293497 0.361977,-0.215231 0.782662,-0.371763 1.173993,-0.547863 z M 14.387426,13.649929 c -0.215241,-0.763096 -0.812016,-1.01746 -1.252271,-0.528297 -0.508724,0.586996 -0.978321,1.213127 -1.487058,1.839257 0.763105,0.596779 1.487058,1.16421 2.259947,1.770773 0.528294,-0.665263 1.076157,-1.31096 1.555539,-1.995788 0.342407,-0.479381 -0.0098,-1.095728 -0.60656,-1.125078 -0.14676,0 -0.313065,0.02935 -0.469597,0.03913 z"
       id="path321"
       style="stroke-width:0.0978327" />
    <path
       d="m 20.003022,20.009061 c 0,-1.721857 0,-3.443714 0,-5.165572 2.563214,-0.234798 5.380809,2.592569 5.14601,5.146006 -1.721868,0 -3.443724,0 -5.16558,0 z"
       id="path331"
       style="stroke-width:0.0978327" />
    <path
       d="m 19.983452,19.989495 c 0,1.721856 0,3.443713 0,5.165571 -2.55343,0.244582 -5.390582,-2.592569 -5.145998,-5.146005 1.721856,0 3.443712,0 5.165568,0 0,0 -0.01957,-0.01957 -0.01957,-0.01957 z"
       id="path333"
       style="stroke-width:0.0978327" />
    <path
       d="m 13.947171,15.821817 c -0.176102,-0.136966 -0.313065,-0.244583 -0.489167,-0.371764 0.283723,-0.361982 0.547864,-0.723963 0.851156,-1.046811 0.07828,-0.08805 0.28371,-0.04891 0.430458,-0.06848 0.0098,0.156533 0.09785,0.361982 0.02935,0.469597 -0.234798,0.332632 -0.518521,0.645697 -0.821801,1.01746 z"
       id="path335"
       style="stroke-width:0.0978327" />
    <path
       d="m 13.056889,15.117421 c -0.205444,-0.166316 -0.332622,-0.283715 -0.489155,-0.410898 0.254356,-0.313065 0.469597,-0.635913 0.743523,-0.909845 0.09785,-0.09784 0.322849,-0.07827 0.489167,-0.10762 0,0.156532 0.04892,0.352197 -0.01957,0.469597 -0.205444,0.322848 -0.459812,0.616347 -0.723965,0.958761 z"
       id="path337"
       style="stroke-width:0.0978327" />
  </g>
</svg>
