<?xml version="1.0" encoding="UTF-8" standalone="no"?>
<svg
   xmlns:dc="http://purl.org/dc/elements/1.1/"
   xmlns:cc="http://creativecommons.org/ns#"
   xmlns:rdf="http://www.w3.org/1999/02/22-rdf-syntax-ns#"
   xmlns:svg="http://www.w3.org/2000/svg"
   xmlns="http://www.w3.org/2000/svg"
   xmlns:sodipodi="http://sodipodi.sourceforge.net/DTD/sodipodi-0.dtd"
   xmlns:inkscape="http://www.inkscape.org/namespaces/inkscape"
   id="svg4145"
   height="40"
   width="40"
   version="1.1"
   viewBox="0 0 40 40"
   sodipodi:docname="bmw-logo2.svg"
   inkscape:version="1.0.1 (3bc2e813f5, 2020-09-07)">
  <metadata
     id="metadata128">
    <rdf:RDF>
      <cc:Work
         rdf:about="">
        <dc:format>image/svg+xml</dc:format>
        <dc:type
           rdf:resource="http://purl.org/dc/dcmitype/StillImage" />
        <dc:title></dc:title>
      </cc:Work>
    </rdf:RDF>
  </metadata>
  <defs
     id="defs126" />
  <sodipodi:namedview
     pagecolor="#ffffff"
     bordercolor="#666666"
     borderopacity="1"
     objecttolerance="10"
     gridtolerance="10"
     guidetolerance="10"
     inkscape:pageopacity="0"
     inkscape:pageshadow="2"
     inkscape:window-width="1920"
     inkscape:window-height="1017"
     id="namedview124"
     showgrid="false"
     inkscape:zoom="10.625"
     inkscape:cx="30.728913"
     inkscape:cy="7.4792363"
     inkscape:window-x="-8"
     inkscape:window-y="-8"
     inkscape:window-maximized="1"
     inkscape:current-layer="layer1"
     inkscape:document-rotation="0" />
  <g
     id="layer1">
    <path
       id="background"
       d="M 19.954941,6.2227765 18.871,7.0723 c 0.375848,-0.038087 0.753244,-0.058942 1.131,-0.0625 0.376999,0.00166 0.753725,0.020544 1.129,0.0566 z M 20,7.625 C 13.165247,7.6244476 7.6244476,13.165247 7.625,20 7.6244476,26.834753 13.165247,32.375552 20,32.375 26.834753,32.375552 32.375552,26.834753 32.375,20 32.375552,13.165247 26.834753,7.6244476 20,7.625 Z"
       stroke="#333333"
       stroke-width="1.9"
       fill="#008000"
       sodipodi:nodetypes="cccccccccc" />
    <path
       d="m 19.859782,8.3934281 c 6.557282,0.086417 11.677459,5.2379699 11.591074,11.7716949 -0.08642,6.447342 -5.25368,11.41831 -11.583218,11.394744 C 13.341773,31.536303 8.2215954,26.369007 8.3001211,19.819587 8.3708146,13.395809 13.506679,8.4562527 19.859782,8.3934281 Z m 0.0315,11.6067759 c 2.630769,0.008 5.261537,0.008 7.884454,0.0157 0.918802,0 1.829748,-0.008 2.748558,0.008 0.266999,0 0.39265,-0.0707 0.369094,-0.353381 -0.03149,-0.361222 -0.03934,-0.730315 -0.08649,-1.091554 -0.416212,-2.874292 -1.727666,-5.261616 -3.973627,-7.114931 -1.861176,-1.5391984 -4.028611,-2.3323556 -6.431644,-2.4815592 -0.541859,-0.03142 -0.541859,-0.023565 -0.541859,0.479041 0,1.5549012 0,3.1097982 0,4.6725472 0,1.947562 0.008,3.895112 0.0157,5.850516 -3.557431,0 -7.11485,-0.008 -10.6722766,-0.0157 -0.2670001,0 -0.3533814,0.109965 -0.3219685,0.353391 0.05498,0.541859 0.070706,1.099427 0.1806156,1.633426 0.6832162,3.41607 2.5443875,5.991865 5.5756485,7.711675 1.492074,0.84028 3.117658,1.248631 4.821761,1.35072 0.3377,0.02362 0.502598,-0.06286 0.471189,-0.447617 -0.03148,-0.431915 -0.008,-0.863835 -0.008,-1.295756 -0.0236,-3.101941 -0.0315,-6.188185 -0.0315,-9.274429 z"
       id="path672"
       style="stroke-width:0.0785304" />
    <path
       d="M 5.9688536,8.047943 C 6.220154,7.7416743 6.4400402,7.4354066 6.699184,7.1605518 7.3117227,6.5008999 7.9242584,5.8333915 8.5682091,5.2051432 8.8823349,4.8988855 9.2749839,4.7025569 9.7383136,4.7889378 10.37441,4.9066973 10.680678,5.2758262 10.704234,5.927632 c 0,0.078537 0.008,0.157073 0.0157,0.2591419 0.164912,-0.00796 0.314124,-0.023555 0.463329,-0.023555 0.950217,-0.015699 1.531346,0.8481266 1.083725,1.6884047 C 12.023546,8.2992322 11.646595,8.6918832 11.301063,9.0766892 10.657123,9.7834482 9.989602,10.458812 9.2985424,11.1813 8.1834295,10.136847 7.0918499,9.1081072 5.9688687,8.0479376 Z m 3.408213,1.7433762 C 10.044583,9.0609862 10.67282,8.3856262 11.293214,7.6945621 11.465977,7.4982268 11.544506,7.2547859 11.316779,7.0270552 11.096893,6.8071709 10.83775,6.8464399 10.649275,7.0350194 9.9739158,7.702522 9.3221091,8.3857302 8.6389002,9.0846502 c 0.259141,0.251304 0.4711744,0.455477 0.7381752,0.706778 z M 8.0263547,8.5191282 C 8.6545914,7.8359117 9.2671293,7.1919613 9.8482503,6.5323116 10.036734,6.3202879 10.05242,6.0375692 9.8168331,5.8255355 9.5891024,5.6213695 9.3378007,5.6920502 9.1493268,5.8883695 8.5760562,6.4773542 8.0184867,7.0741793 7.46092,7.6867157 c -0.047171,0.054997 -0.054975,0.2355913 0,0.2905706 0.1570723,0.1806159 0.3533929,0.3298219 0.5654287,0.5418549 z"
       id="path674"
       style="stroke-width:0.0785304" />
    <path
       d="M 22.868574,5.7234415 C 22.52305,5.6841733 22.232484,5.6762987 21.965483,5.6134183 21.894798,5.5977157 21.824135,5.4092512 21.824135,5.2992953 21.78487,4.5139962 21.769149,3.7365502 21.737707,2.951235 c -0.008,-0.1727612 -0.03149,-0.3455232 -0.04714,-0.5182964 -0.0315,-0.00805 -0.07071,-0.00805 -0.102127,-0.015705 -0.117809,0.2512969 -0.243444,0.502585 -0.353381,0.7538879 -0.188456,0.4162059 -0.39265,0.8245638 -0.557568,1.2564872 -0.110024,0.2748564 -0.27484,0.3376786 -0.557566,0.3612361 -0.447624,0.039268 -0.651799,-0.1335144 -0.808859,-0.534001 -0.243445,-0.6282479 -0.541858,-1.2250744 -0.816715,-1.8376102 -0.03926,0.00805 -0.07859,0.015705 -0.110022,0.02355 -0.02361,0.5811256 -0.04716,1.1543927 -0.07071,1.7355203 -0.0157,0.3926476 -0.04713,0.7852976 -0.05498,1.1701059 0,0.2198837 -0.102128,0.2905551 -0.314111,0.2984145 -0.227733,0.00802 -0.46333,0.047131 -0.76174,0.086423 0,-0.3062716 -0.008,-0.5732738 0,-0.8402726 0.04715,-1.1622506 0.110023,-2.3244991 0.141349,-3.4867479 0.008,-0.2355907 0.06285,-0.3298263 0.314108,-0.376951 1.185801,-0.204168 1.217217,-0.1963126 1.656982,0.9031064 0.22773,0.5575669 0.447625,1.1072785 0.706773,1.7512178 0.09427,-0.2120233 0.16491,-0.3533818 0.227733,-0.4947314 0.259123,-0.6439492 0.526149,-1.2800453 0.777441,-1.9239926 0.08642,-0.2356002 0.21989,-0.3062672 0.471188,-0.2984258 1.272187,0.047115 1.264331,0.039269 1.287894,1.2878988 0.0157,0.9816312 0.055,1.9554053 0.08642,2.9370379 0.02361,0.1570731 0.0157,0.3141241 0.0157,0.5340021 z"
       id="path676"
       style="stroke-width:0.0785304" />
    <path
       d="M 30.698056,7.3882945 C 30.046253,7.7259739 29.394442,8.047943 28.758352,8.3934812 28.483513,8.5426792 28.271461,8.5819602 28.035875,8.3228112 27.85526,8.1186452 27.627513,7.9694296 27.391928,7.7731008 28.216494,6.4930563 29.017506,5.2287209 29.86563,3.909412 c 0.306264,0.243441 0.588982,0.4633299 0.879542,0.6989177 -0.565416,0.8481228 -1.099427,1.6648401 -1.641287,2.4737086 0.02361,0.031421 0.04714,0.054986 0.06286,0.086428 0.376946,-0.1884802 0.761738,-0.3690933 1.138689,-0.5575713 0.149198,-0.078573 0.306272,-0.1491959 0.455477,-0.227734 0.612533,-0.3062643 0.604682,-0.298413 1.099423,0.164916 0.212024,0.1963102 0.243445,0.3455247 0.102128,0.604678 -0.329822,0.6046813 -0.620382,1.2250742 -0.934508,1.8376002 0.0236,0.03142 0.05499,0.055 0.07859,0.08642 0.816722,-0.534012 1.64129,-1.0601661 2.489418,-1.6177254 0.23557,0.2905563 0.44762,0.5497151 0.706774,0.8559804 -1.303614,0.824568 -2.575805,1.625572 -3.887256,2.4579968 -0.259164,-0.298414 -0.526158,-0.588985 -0.761746,-0.8952528 -0.04717,-0.06283 -0.008,-0.219872 0.03926,-0.314114 0.298427,-0.596836 0.612538,-1.185807 0.918803,-1.7747861 0.05499,-0.1100229 0.110023,-0.2277427 0.157022,-0.3376849 -0.0236,-0.015699 -0.04713,-0.039265 -0.07069,-0.06283 z"
       id="path678"
       style="stroke-width:0.0785304" />
  </g>
</svg>
