<?xml version="1.0" encoding="UTF-8" standalone="no"?>
<svg id="svg4145" xmlns:rdf="http://www.w3.org/1999/02/22-rdf-syntax-ns#" xmlns="http://www.w3.org/2000/svg" height="40" width="40" version="1.1" xmlns:cc="http://creativecommons.org/ns#" xmlns:dc="http://purl.org/dc/elements/1.1/" viewBox="0 0 40 40">
 <g id="layer1" stroke="#333">
  <path id="background" d="m20.002 3.6816l-1.131 3.3907a12.374 12.374 0 0 1 1.131 -0.0625 12.374 12.374 0 0 1 1.129 0.0566l-1.129-3.3848zm-0.002 3.9434a12.374 12.374 0 0 0 -12.375 12.375 12.374 12.374 0 0 0 12.375 12.375 12.374 12.374 0 0 0 12.375 -12.375 12.374 12.374 0 0 0 -12.375 -12.375z" stroke-width="1.9" fill="#008000"/>
  <path id="icon" d="m15.029 22.296q0.39535-0.39535 0.39535-0.95053t-0.39535-0.95053q-0.396-0.395-0.951-0.395-0.55518 0-0.95053 0.39535t-0.39535 0.95053 0.39535 0.95053 0.95053 0.39535 0.95053-0.39535zm0.69818-3.6423h8.5463l-0.74865-3.003q-0.01682-0.06729-0.11777-0.143-0.10094-0.08412-0.17665-0.08412h-6.4602q-0.07572 0-0.17665 0.08412-0.10095 0.07571-0.11777 0.143l-0.74865 3.003zm11.146 3.6423q0.39535-0.39535 0.39535-0.95053t-0.39535-0.95053q-0.396-0.395-0.951-0.395-0.55518 0-0.95053 0.39535t-0.39535 0.95053 0.39535 0.95053 0.95053 0.39535 0.95053-0.39535zm1.7412-1.7581v3.2301q0 0.11777-0.07571 0.19347-0.07572 0.07571-0.19347 0.07571h-0.80753v1.0767q0 0.67294-0.47106 1.144t-1.144 0.47106-1.144-0.47106-0.47106-1.144v-1.0767h-8.6136v1.0767q0 0.67294-0.47106 1.144t-1.144 0.47106-1.144-0.47106-0.47106-1.144v-1.0767h-0.80753q-0.11777 0-0.19347-0.07571-0.07571-0.07572-0.07571-0.19347v-3.2301q0-0.78229 0.54676-1.3291 0.55518-0.55518 1.3375-0.55518h0.23553l0.88324-3.5245q0.19347-0.7907 0.87482-1.3206 0.68135-0.53835 1.5057-0.53835h6.4602q0.82435 0 1.5057 0.53835 0.68135 0.52994 0.87482 1.3206l0.88323 3.5245h0.23553q0.78229 0 1.3291 0.55518 0.55518 0.54676 0.55518 1.3291z" stroke-width=".1"/>
 </g>
</svg>
