<?xml version="1.0" encoding="UTF-8" standalone="no"?>
<svg id="svg4145" xmlns:rdf="http://www.w3.org/1999/02/22-rdf-syntax-ns#" xmlns="http://www.w3.org/2000/svg" height="40" width="40" version="1.1" xmlns:cc="http://creativecommons.org/ns#" xmlns:dc="http://purl.org/dc/elements/1.1/" viewBox="0 0 40 40">
 <g id="layer1">
  <path id="background" d="m20.002 3.6816-1.1309 3.3906a12.374 12.374 0 0 1 1.1309 -0.0625 12.374 12.374 0 0 1 1.1289 0.056641l-1.129-3.3847zm-0.002 3.9434a12.374 12.374 0 0 0 -12.375 12.375 12.374 12.374 0 0 0 12.375 12.375 12.374 12.374 0 0 0 12.375 -12.375 12.374 12.374 0 0 0 -12.375 -12.375z" stroke="#333" stroke-width="1.9" fill="#008000"/>
  <path id="icon" stroke-width=".75357" d="m24.334 12.464-4.2153 3.0143c0.10399 0.11605 0.20347 0.23888 0.28259 0.37679l0.51808 0.91842 2.0252-1.4601-1.5778 2.2372 0.49453 0.87132c0.14017 0.18613 0.25282 0.39374 0.32969 0.61228l4.5921-6.5702h-2.4491zm2.4491 1.3188-1.5071 2.143v4.074c0 0.41597 0.3376 0.75357 0.75358 0.75357 0.41522 0 0.75357 0.33836 0.75357 0.75358s-0.33836 0.75357-0.75357 0.75357c-0.41522 0-0.75358-0.33835-0.75358-0.75357h-1.5071c0 1.3858 1.2521 2.4766 2.6846 2.2136 0.88771-0.16277 1.6164-0.87999 1.7897-1.7662 0.22909-1.1718-0.45328-2.2074-1.4601-2.5669v-5.6047zm-12.057 1.6955c-0.8327 0-1.5071 0.67445-1.5071 1.5071v3.7679c0 0.41597 0.3376 0.75358 0.75358 0.75358h0.75357v0.75357h5.275v-0.75357h0.75358c0.41597 0 0.75358-0.3376 0.75358-0.75358v-1.5071l-1.8368-3.0143c-0.269-0.468-0.756-0.753-1.296-0.753h-3.6501zm1.5071 1.5071h2.143l1.2952 2.2607h-3.4382v-2.2607zm-2.2607 6.0286c-1.2487 0-2.2607 1.0121-2.2607 2.2607 0 1.2487 1.012 2.2607 2.2607 2.2607h6.7822c1.2487 0 2.2607-1.0121 2.2607-2.2607 0-1.2487-1.0121-2.2607-2.2607-2.2607h-6.7822zm0 1.5071c0.41597 0 0.75357 0.3376 0.75357 0.75357s-0.3376 0.75358-0.75357 0.75358-0.75358-0.3376-0.75358-0.75358c0-0.41597 0.3376-0.75357 0.75358-0.75357zm2.2607 0c0.41597 0 0.75358 0.3376 0.75358 0.75357s-0.3376 0.75358-0.75358 0.75358c-0.41597 0-0.75357-0.3376-0.75357-0.75358 0-0.41597 0.3376-0.75357 0.75357-0.75357zm2.2607 0c0.41597 0 0.75358 0.3376 0.75358 0.75357s-0.3376 0.75358-0.75358 0.75358c-0.41597 0-0.75357-0.3376-0.75357-0.75358 0-0.41597 0.3376-0.75357 0.75357-0.75357zm2.2607 0c0.41597 0 0.75358 0.3376 0.75358 0.75357s-0.3376 0.75358-0.75358 0.75358c-0.41597 0-0.75358-0.3376-0.75358-0.75358 0-0.41597 0.3376-0.75357 0.75358-0.75357z"/>
 </g>
</svg>
