<?xml version="1.0" encoding="UTF-8" standalone="no"?>
<svg
   xmlns:dc="http://purl.org/dc/elements/1.1/"
   xmlns:cc="http://creativecommons.org/ns#"
   xmlns:rdf="http://www.w3.org/1999/02/22-rdf-syntax-ns#"
   xmlns:svg="http://www.w3.org/2000/svg"
   xmlns="http://www.w3.org/2000/svg"
   xmlns:sodipodi="http://sodipodi.sourceforge.net/DTD/sodipodi-0.dtd"
   xmlns:inkscape="http://www.inkscape.org/namespaces/inkscape"
   id="svg4145"
   height="40"
   width="40"
   version="1.1"
   viewBox="0 0 40 40"
   sodipodi:docname="jetski2.svg"
   inkscape:version="1.0.1 (3bc2e813f5, 2020-09-07)">
  <metadata
     id="metadata128">
    <rdf:RDF>
      <cc:Work
         rdf:about="">
        <dc:format>image/svg+xml</dc:format>
        <dc:type
           rdf:resource="http://purl.org/dc/dcmitype/StillImage" />
        <dc:title></dc:title>
      </cc:Work>
    </rdf:RDF>
  </metadata>
  <defs
     id="defs126" />
  <sodipodi:namedview
     pagecolor="#ffffff"
     bordercolor="#666666"
     borderopacity="1"
     objecttolerance="10"
     gridtolerance="10"
     guidetolerance="10"
     inkscape:pageopacity="0"
     inkscape:pageshadow="2"
     inkscape:window-width="1920"
     inkscape:window-height="1017"
     id="namedview124"
     showgrid="false"
     inkscape:zoom="15.026019"
     inkscape:cx="10.624154"
     inkscape:cy="17.543957"
     inkscape:window-x="-8"
     inkscape:window-y="-8"
     inkscape:window-maximized="1"
     inkscape:current-layer="layer1" />
  <g
     id="layer1">
    <path
       id="background"
       d="m20.002 3.6816l-1.131 3.3907a12.374 12.374 0 0 1 1.131 -0.0625 12.374 12.374 0 0 1 1.129 0.0566l-1.129-3.3848zm-0.002 3.9434a12.374 12.374 0 0 0 -12.375 12.375 12.374 12.374 0 0 0 12.375 12.375 12.374 12.374 0 0 0 12.375 -12.375 12.374 12.374 0 0 0 -12.375 -12.375z"
       stroke="#333"
       stroke-width="1.9"
       fill="#008000" />
    <path
       d="m 11.758824,22.799676 c -0.1,-0.5 -0.1,-1.1 -0.3,-1.5 -0.2,-0.3 -0.6,-0.4 -1.1,-0.6 0.3,-0.3 0.4,-0.7 0.7,-0.8 0.7,-0.3 1.5,-0.6 2.2,-0.6 4.8,0 9.5,0 14.3,0 0.5,0 1.1,0.3 1.6,0.6 0.1,0.1 0.2,0.4 0.2,0.6 0,0.1 -0.2,0.3 -0.3,0.4 -0.2,0.2 -0.4,0.4 -0.6,0.5 -0.5,0.4 -1,0.8 -1.5,1.2 0.4,0.4 0.9,0.4 1.7,-0.1 0.5,-0.3 1,-0.8 1.6,-1.2 -0.3,2.2 -3.3,2.5 -5.3,0.5 -1.6,1.9 -3.5,2.1 -5.1,-0.1 -1.7,2 -3.5,2 -5.2,0.1 -1.8,2.2 -4.2,1.8 -5.3,-0.4 0.8,0.5 1.5,1 2.3,1.5 0,0.1 0.1,0 0.1,-0.1 z"
       id="path155" />
    <path
       d="m 22.358824,15.099676 c -0.2,-0.3 -0.4,-0.5 -0.7,-0.7 0.5,-1 0.5,-1 1.2,-0.3 0.6,0.5 1.2,0.9 1.8,1.3 1.1,0.7 2,1.7 2.8,3.1 -4.8,0 -9.5,0 -14.2,0 0.2,-1.1 1.1,-0.6 1.6,-1.3 -0.2,-0.5 -0.4,-1 -0.7,-1.6 0.3,-0.5 0.7,-0.1 1,0.1 0.8,0.3 1.6,0.7 2.4,1 1.4,0.6 2.7,0 4.1,-0.8 -0.2,-0.1 -0.4,-0.2 -0.6,-0.3 -0.1,-0.1 -0.2,-0.2 -0.3,-0.3 0.1,-0.1 0.3,-0.3 0.4,-0.3 0.4,0.1 0.7,0.3 1.1,0.5 0,-0.3 0,-0.4 0.1,-0.4 z"
       id="path157" />
    <path
       d="m 14.658824,23.499676 c -1.9,2.1 -4.8,1.9 -5.3,-0.5 1.8,2.2 3.6,2.1 5.3,0.1 1.6,2 3.4,2.1 5.2,0 0.7,1 1.6,1.6 2.6,1.6 1,0 1.9,-0.7 2.6,-1.6 1.7,2.3 3.5,2 5.3,0 -1,2.5 -3.4,2.7 -5.3,0.5 -1.6,1.7 -2.9,2.1 -4.3,0.8 -0.7,-0.6 -1.1,-0.5 -1.8,0 -1.6,1.2 -3.1,0.7 -4.3,-0.9 z"
       id="path159" />
  </g>
</svg>
