<?xml version="1.0" encoding="utf-8"?>
<!-- Generator: Adobe Illustrator 22.0.0, SVG Export Plug-In . SVG Version: 6.00 Build 0)  -->
<svg version="1.1"
	 id="svg4145" xmlns:cc="http://creativecommons.org/ns#" xmlns:dc="http://purl.org/dc/elements/1.1/" xmlns:rdf="http://www.w3.org/1999/02/22-rdf-syntax-ns#"
	 xmlns="http://www.w3.org/2000/svg" xmlns:xlink="http://www.w3.org/1999/xlink" x="0px" y="0px" viewBox="0 0 40 40"
	 style="enable-background:new 0 0 40 40;" xml:space="preserve">
<style type="text/css">
	.st0{fill:#008000;stroke:#333333;stroke-width:1.9;}
	.st1{fill:#FFFFFF;}
</style>
<g id="layer1">
	<path id="background" class="st0" d="M20,3.7l-1.1,3.4C19.2,7,19.6,7,20,7c0.4,0,0.8,0,1.1,0.1L20,3.7z M20,7.6
		C13.2,7.6,7.6,13.2,7.6,20c0,0,0,0,0,0c0,6.8,5.5,12.4,12.4,12.4c0,0,0,0,0,0c6.8,0,12.4-5.5,12.4-12.4c0,0,0,0,0,0
		C32.4,13.2,26.8,7.6,20,7.6C20,7.6,20,7.6,20,7.6z"/>
	<g id="Jetski">
		<path class="st1" d="M12,23.3c-0.1,0.1-0.1,0.2-0.2,0.3c-0.7-0.5-1.5-1-2.3-1.5c1.1,2.2,3.5,2.6,5.3,0.4c1.7,2,3.5,1.9,5.2-0.1
			c1.6,2.1,3.6,2,5.1,0.1c1.9,2,4.9,1.7,5.3-0.5c-0.5,0.4-1,0.9-1.6,1.2c-0.7,0.5-1.3,0.4-1.7,0.1c0.5-0.4,1-0.8,1.5-1.2
			c0.2-0.2,0.4-0.3,0.6-0.5c0.1-0.1,0.3-0.3,0.3-0.4c0-0.2-0.1-0.6-0.2-0.6c-0.5-0.3-1.1-0.6-1.6-0.6c-4.8-0.1-9.5-0.1-14.3,0
			c-0.7,0-1.5,0.4-2.2,0.6c-0.2,0.1-0.4,0.5-0.7,0.8c0.5,0.2,0.9,0.3,1.1,0.6C12,22.2,11.9,22.8,12,23.3z M22.6,15.6
			c0,0.1-0.1,0.1-0.1,0.2c-0.4-0.2-0.7-0.4-1.1-0.5c-0.1,0-0.3,0.2-0.4,0.3c0.1,0.1,0.2,0.2,0.3,0.3c0.2,0.1,0.4,0.2,0.6,0.3
			c-1.4,0.8-2.7,1.4-4.1,0.8c-0.8-0.3-1.6-0.7-2.4-1c-0.3-0.1-0.7-0.5-1-0.1c0.2,0.6,0.5,1.1,0.7,1.6c-0.5,0.7-1.4,0.2-1.6,1.3
			c4.7,0,9.4,0,14.2,0c-0.8-1.4-1.7-2.4-2.8-3.1c-0.6-0.4-1.3-0.8-1.8-1.3c-0.7-0.6-0.7-0.7-1.2,0.3C22.1,15.1,22.3,15.3,22.6,15.6z
			 M14.9,24c1.3,1.7,2.7,2.1,4.3,0.9c0.7-0.5,1.1-0.6,1.8,0c1.4,1.3,2.8,0.9,4.3-0.8c2,2.1,4.3,1.9,5.3-0.5c-1.8,2-3.5,2.3-5.3,0
			c-0.8,0.9-1.6,1.6-2.6,1.6c-1,0-1.9-0.6-2.6-1.6c-1.8,2.2-3.6,2.1-5.2,0c-1.7,2-3.5,2.1-5.3-0.1C10.1,25.8,13,26,14.9,24z"/>
		<path d="M12,23.3c-0.1-0.5-0.1-1.1-0.3-1.5c-0.2-0.3-0.6-0.4-1.1-0.6c0.3-0.3,0.4-0.7,0.7-0.8c0.7-0.3,1.5-0.6,2.2-0.6
			c4.8,0,9.5,0,14.3,0c0.5,0,1.1,0.3,1.6,0.6c0.1,0.1,0.2,0.4,0.2,0.6c0,0.1-0.2,0.3-0.3,0.4c-0.2,0.2-0.4,0.4-0.6,0.5
			c-0.5,0.4-1,0.8-1.5,1.2c0.4,0.4,0.9,0.4,1.7-0.1c0.5-0.3,1-0.8,1.6-1.2c-0.3,2.2-3.3,2.5-5.3,0.5c-1.6,1.9-3.5,2.1-5.1-0.1
			c-1.7,2-3.5,2-5.2,0.1c-1.8,2.2-4.2,1.8-5.3-0.4c0.8,0.5,1.5,1,2.3,1.5C11.9,23.5,12,23.4,12,23.3z"/>
		<path d="M22.6,15.6c-0.2-0.3-0.4-0.5-0.7-0.7c0.5-1,0.5-1,1.2-0.3c0.6,0.5,1.2,0.9,1.8,1.3c1.1,0.7,2,1.7,2.8,3.1
			c-4.8,0-9.5,0-14.2,0c0.2-1.1,1.1-0.6,1.6-1.3c-0.2-0.5-0.4-1-0.7-1.6c0.3-0.5,0.7-0.1,1,0.1c0.8,0.3,1.6,0.7,2.4,1
			c1.4,0.6,2.7,0,4.1-0.8c-0.2-0.1-0.4-0.2-0.6-0.3c-0.1-0.1-0.2-0.2-0.3-0.3c0.1-0.1,0.3-0.3,0.4-0.3c0.4,0.1,0.7,0.3,1.1,0.5
			C22.5,15.7,22.5,15.6,22.6,15.6z"/>
		<path d="M14.9,24c-1.9,2.1-4.8,1.9-5.3-0.5c1.8,2.2,3.6,2.1,5.3,0.1c1.6,2,3.4,2.1,5.2,0c0.7,1,1.6,1.6,2.6,1.6
			c1,0,1.9-0.7,2.6-1.6c1.7,2.3,3.5,2,5.3,0c-1,2.5-3.4,2.7-5.3,0.5c-1.6,1.7-2.9,2.1-4.3,0.8c-0.7-0.6-1.1-0.5-1.8,0
			C17.6,26.1,16.1,25.6,14.9,24z"/>
	</g>
</g>
</svg>
