<?xml version="1.0" encoding="UTF-8" standalone="no"?>
<svg id="svg4145" xmlns:rdf="http://www.w3.org/1999/02/22-rdf-syntax-ns#" xmlns="http://www.w3.org/2000/svg" height="40" width="40" version="1.1" xmlns:cc="http://creativecommons.org/ns#" xmlns:dc="http://purl.org/dc/elements/1.1/" viewBox="0 0 40 40">
 <g id="layer1">
  <path id="background" d="m20.002 3.6816l-1.131 3.3907a12.374 12.374 0 0 1 1.131 -0.0625 12.374 12.374 0 0 1 1.129 0.0566l-1.129-3.3848zm-0.002 3.9434a12.374 12.374 0 0 0 -12.375 12.375 12.374 12.374 0 0 0 12.375 12.375 12.374 12.374 0 0 0 12.375 -12.375 12.374 12.374 0 0 0 -12.375 -12.375z" stroke="#333" stroke-width="1.9" fill="#008000"/>
  <path id="icon" d="m29.386 21.143q0.09803 0.8414-0.17972 1.6256-0.27774 0.77605-0.80873 1.3315-0.53098 0.55549-1.2989 0.86591-0.75971 0.31042-1.6011 0.25324-1.3152-0.08986-2.2873-1.0211-0.96394-0.93126-1.0946-2.2383-0.09803-0.90675 0.22056-1.7155 0.32676-0.8169 0.9721-1.3969l-0.58-0.87408q-0.78422 0.65352-1.2335 1.5848-0.44929 0.93126-0.44929 1.9932 0 0.22056-0.15521 0.38394-0.14704 0.15521-0.3676 0.15521h-2.0913-0.56366q-0.18789 1.3397-1.2172 2.2383-1.0293 0.89858-2.4017 0.89858-1.5113 0-2.5896-1.0701-1.0701-1.0783-1.0701-2.5896t1.0701-2.5814q1.0783-1.0783 2.5896-1.0783 0.62084 0 1.2417 0.22056l0.19606-0.3676q-1.0048-0.89858-2.4834-0.89858h-0.52281q-0.21239 0-0.3676-0.15521t-0.15521-0.3676 0.15521-0.3676 0.3676-0.15521h1.0456q0.63718 0 1.1845 0.11437 0.54732 0.1062 0.9476 0.31042 0.40845 0.20422 0.58816 0.32676 0.17972 0.11437 0.41662 0.29408h4.1825 0.93943l-0.69436-1.0456h-1.8135q-0.24507 0-0.40028-0.17972-0.15521-0.18789-0.11437-0.43296 0.03267-0.18789 0.18788-0.31042t0.35126-0.12253h2.0667q0.26958 0 0.43296 0.22873l0.57183 0.85774 0.93126-0.93126q0.15521-0.15521 0.37577-0.15521h0.82506q0.21239 0 0.3676 0.15521t0.15521 0.3676v1.0456q0 0.21239-0.15521 0.3676t-0.3676 0.15521h-1.4622l0.93943 1.4051q1.0701-0.51465 2.2465-0.29408 1.1682 0.21239 1.9932 1.1028 0.82506 0.88225 0.96394 2.0667zm-15.137 3.039q0.93943 0 1.6583-0.58816 0.71887-0.59634 0.90675-1.5031h-2.5651q-0.28591 0-0.44929-0.25324-0.14704-0.26141-0.0082-0.51464l1.2008-2.2628q-0.38394-0.1062-0.74338-0.1062-1.0783 0-1.8462 0.76788-0.76788 0.76788-0.76788 1.8462t0.76788 1.8462q0.76788 0.76788 1.8462 0.76788zm9.6557-0.76788q0.76788 0.76788 1.8462 0.76788t1.8462-0.76788q0.76788-0.76788 0.76788-1.8462t-0.76788-1.8462q-0.76788-0.76788-1.8462-0.76788-0.49014 0-0.98844 0.19606l1.4214 2.1239q0.12254 0.18789 0.0817 0.40028-0.04085 0.21239-0.22056 0.32676-0.12253 0.08986-0.29408 0.08986-0.28591 0-0.43296-0.2369l-1.4214-2.1239q-0.75971 0.77605-0.75971 1.838 0 1.0783 0.76788 1.8462z"/>
 </g>
</svg>
