<?xml version="1.0" encoding="UTF-8" standalone="no"?>
<svg
   xmlns:dc="http://purl.org/dc/elements/1.1/"
   xmlns:cc="http://creativecommons.org/ns#"
   xmlns:rdf="http://www.w3.org/1999/02/22-rdf-syntax-ns#"
   xmlns:svg="http://www.w3.org/2000/svg"
   xmlns="http://www.w3.org/2000/svg"
   xmlns:sodipodi="http://sodipodi.sourceforge.net/DTD/sodipodi-0.dtd"
   xmlns:inkscape="http://www.inkscape.org/namespaces/inkscape"
   id="svg4145"
   height="40"
   width="40"
   version="1.1"
   viewBox="0 0 40 40"
   sodipodi:docname="motorcycle2.svg"
   inkscape:version="1.0.1 (3bc2e813f5, 2020-09-07)">
  <metadata
     id="metadata87">
    <rdf:RDF>
      <cc:Work
         rdf:about="">
        <dc:format>image/svg+xml</dc:format>
        <dc:type
           rdf:resource="http://purl.org/dc/dcmitype/StillImage" />
        <dc:title></dc:title>
      </cc:Work>
    </rdf:RDF>
  </metadata>
  <defs
     id="defs85" />
  <sodipodi:namedview
     pagecolor="#ffffff"
     bordercolor="#666666"
     borderopacity="1"
     objecttolerance="10"
     gridtolerance="10"
     guidetolerance="10"
     inkscape:pageopacity="0"
     inkscape:pageshadow="2"
     inkscape:window-width="1920"
     inkscape:window-height="1017"
     id="namedview83"
     showgrid="false"
     inkscape:zoom="21.25"
     inkscape:cx="20"
     inkscape:cy="20"
     inkscape:window-x="-8"
     inkscape:window-y="-8"
     inkscape:window-maximized="1"
     inkscape:current-layer="layer1" />
  <g
     id="layer1">
    <path
       id="background"
       d="m20.002 3.6816l-1.131 3.3907a12.374 12.374 0 0 1 1.131 -0.0625 12.374 12.374 0 0 1 1.129 0.0566l-1.129-3.3848zm-0.002 3.9434a12.374 12.374 0 0 0 -12.375 12.375 12.374 12.374 0 0 0 12.375 12.375 12.374 12.374 0 0 0 12.375 -12.375 12.374 12.374 0 0 0 -12.375 -12.375z"
       stroke="#333"
       stroke-width="1.9"
       fill="#008000" />
    <path
       d="m 15.118489,22.932195 c -0.430791,1.169297 -1.252819,1.86385 -2.549609,1.881429 -1.0594,0.01316 -2.022094,-0.633005 -2.395744,-1.622072 -0.4615685,-1.213266 -0.127483,-2.233112 0.848401,-3.103488 -0.180228,-0.0091 -0.34288,-0.01755 -0.501134,-0.02642 -0.0091,-0.02632 -0.01316,-0.04835 -0.02194,-0.07469 0.430792,-0.448371 0.989067,-0.663775 1.591303,-0.786853 0.615427,-0.123087 1.222059,-0.03958 1.828683,0.149459 0.351674,-0.606632 0.703339,-1.204471 1.033036,-1.771541 -0.298918,0.09672 -0.615426,0.202215 -0.931924,0.303316 -0.03958,0.01316 -0.08355,0.01755 -0.127485,0.02194 -0.325291,0.03081 -0.329689,0.02642 -0.329689,-0.303308 0,-0.492339 0.0045,-0.980282 -0.0045,-1.472621 -0.0045,-0.162651 0.04835,-0.237381 0.210999,-0.206603 0.285738,0.05274 0.571466,0.105499 0.892361,0.167039 0.01755,-0.02642 0.06153,-0.08793 0.101107,-0.158254 0.44838,-0.756083 0.896759,-1.512176 1.349525,-2.263872 0.03519,-0.05713 0.06153,-0.131871 0.114293,-0.158254 0.06153,-0.03081 0.158254,-0.04835 0.215406,-0.02194 0.04397,0.02194 0.0703,0.123086 0.06591,0.184626 -0.0045,0.0659 -0.05274,0.131872 -0.08795,0.197817 -0.41761,0.804441 -0.835211,1.613279 -1.261615,2.413331 -0.06153,0.114294 -0.0703,0.197818 -0.0045,0.320896 0.06153,0.114293 0.07469,0.259355 0.105499,0.382443 0.360468,-0.509918 0.931925,-0.817632 1.384701,-1.257217 0.07916,-0.07916 0.149461,-0.197817 0.167048,-0.307713 0.03519,-0.26815 0.02642,-0.5363 0.05274,-0.804442 0.0091,-0.09231 0.06153,-0.184625 0.105498,-0.26815 0.03081,-0.05713 0.09231,-0.09231 0.140675,-0.140666 0.303316,-0.294531 0.29892,-0.294531 0.580251,0.03081 0.09231,0.109902 0.105499,0.193419 0.01316,0.307704 -0.08793,0.105511 -0.158254,0.228587 -0.250572,0.334086 -0.08355,0.08793 -0.184627,0.158253 -0.281332,0.23738 -0.01316,-0.01316 -0.03081,-0.02193 -0.04397,-0.03519 -0.01316,0.07916 -0.02632,0.153857 -0.03519,0.206611 0.553878,0.210998 1.098973,0.417601 1.635263,0.633005 0.04835,0.02194 0.0703,0.118684 0.101107,0.18023 -0.0703,0.01316 -0.14946,0.05713 -0.20661,0.03519 -0.40442,-0.145062 -0.808839,-0.298919 -1.208861,-0.46157 -0.145071,-0.06153 -0.250571,-0.05713 -0.369262,0.05713 -0.184625,0.175833 -0.38683,0.329689 -0.571456,0.53629 0.325292,0 0.650583,-0.0091 0.975885,0.0045 0.127475,0.0045 0.259356,0.03519 0.373649,0.09231 0.351665,0.18023 0.694545,0.378047 1.046219,0.558276 0.105499,0.05274 0.145062,0.118684 0.140665,0.237371 -0.0045,0.0703 0.03081,0.18023 0.08355,0.215405 0.470363,0.294523 0.953909,0.571458 1.437455,0.861584 0.07469,-0.0703 0.14946,-0.145064 0.219793,-0.211 0.28134,0.206612 0.5363,0.426404 0.817632,0.606633 0.883567,0.553878 1.613287,0.426395 2.290253,-0.364855 0.05714,-0.07039 0.167039,-0.123088 0.254959,-0.136278 0.672569,-0.101108 1.345138,-0.105499 2.01331,0.0045 0.272546,0.04397 0.531903,0.16265 0.791259,0.250562 0.03519,0.01316 0.08793,0.05274 0.08793,0.08355 0.0091,0.228586 0.0045,0.457173 0.0045,0.707735 0.241777,0 0.514316,0 0.791259,0 0.276944,0 0.553878,0 0.839607,0 0.01755,0.07469 0.03081,0.136278 0.04835,0.215395 0.153856,0 0.307713,0 0.483545,0 0,0.23738 -0.01316,0.452776 0.0045,0.668172 0.0091,0.09231 0.06591,0.206611 0.136269,0.263754 0.465967,0.400031 0.712132,0.92314 0.852808,1.498994 0.0659,0.272547 -0.05714,0.413213 -0.479158,0.624211 0.180238,0 0.312109,-0.0045 0.435197,0 0.281332,0.01316 0.474752,0.202214 0.474752,0.44838 0,0.25057 -0.197817,0.439593 -0.474752,0.443991 -0.474761,0.0091 -0.953909,0.0045 -1.428662,0 -0.118696,0 -0.197817,0.02642 -0.272547,0.131872 -1.14732,1.688017 -3.499113,1.586906 -4.510164,-0.189024 -0.03958,-0.0703 -0.149461,-0.136269 -0.228587,-0.140665 -0.329689,-0.01755 -0.659378,-0.01316 -0.989067,0 -0.07469,0.0045 -0.171436,0.06151 -0.219793,0.123087 -0.250562,0.316498 -0.527506,0.536291 -0.971488,0.527497 -1.107758,-0.02195 -2.211126,-0.0091 -3.318884,-0.0045 -0.136269,0 -0.228586,-0.03519 -0.316507,-0.145072 -0.05274,-0.06591 -0.162641,-0.114293 -0.254959,-0.118684 -0.246166,-0.01755 -0.496728,-0.01755 -0.7473,0 -0.16264,0.0091 -0.26815,-0.03958 -0.320894,-0.193421 -0.05274,-0.149459 -0.153857,-0.19342 -0.312111,-0.211008 -0.364855,-0.03958 -0.72971,-0.118684 -1.112153,-0.189013 z m -1.731968,-1.846271 c 0.07469,0.07916 0.127474,0.136269 0.184626,0.19342 0.417601,0.443982 0.483546,1.10336 0.167039,1.62647 -0.316499,0.518712 -0.940719,0.764886 -1.520971,0.593441 -0.698942,-0.202205 -1.107756,-0.896757 -0.945116,-1.608891 0.158254,-0.69894 0.844015,-1.134129 1.569328,-1.011042 0.06153,0.0091 0.162651,0.0045 0.19342,-0.03081 0.105499,-0.14946 0.19342,-0.316497 0.29892,-0.501124 -0.189024,-0.06151 -0.338484,-0.127484 -0.496738,-0.14946 -1.353922,-0.19342 -2.523227,1.063797 -2.246284,2.404538 0.184627,0.883577 0.905544,1.542955 1.784724,1.630875 0.879171,0.08795 1.701199,-0.408816 2.074849,-1.213265 0.408816,-0.874774 -0.0703,-1.855056 -0.61103,-2.321024 -0.04835,-0.03958 -0.101107,-0.0703 -0.158244,-0.114293 -0.105511,0.175842 -0.197818,0.338484 -0.294523,0.501134 z m 11.174306,2.136396 c 0.391227,0.55388 0.958297,0.870377 1.679223,0.870377 0.61102,0 1.120949,-0.246165 1.560534,-0.747298 -0.114294,0 -0.171436,-0.0045 -0.228587,0 -0.400023,0.01755 -0.800044,0.05274 -1.204472,0.05274 -0.408816,0 -0.817632,-0.02194 -1.222051,-0.05713 -0.197816,-0.01755 -0.391228,-0.07916 -0.584647,-0.118696 z"
       id="path19"
       style="stroke-width:0.0439587" />
  </g>
</svg>
