<?xml version="1.0" encoding="UTF-8" standalone="no"?>
<svg
   xmlns:dc="http://purl.org/dc/elements/1.1/"
   xmlns:cc="http://creativecommons.org/ns#"
   xmlns:rdf="http://www.w3.org/1999/02/22-rdf-syntax-ns#"
   xmlns:svg="http://www.w3.org/2000/svg"
   xmlns="http://www.w3.org/2000/svg"
   xmlns:sodipodi="http://sodipodi.sourceforge.net/DTD/sodipodi-0.dtd"
   xmlns:inkscape="http://www.inkscape.org/namespaces/inkscape"
   id="svg4145"
   height="40"
   width="40"
   version="1.1"
   viewBox="0 0 40 40"
   sodipodi:docname="motorbike.svg"
   inkscape:version="1.0.1 (3bc2e813f5, 2020-09-07)">
  <metadata
     id="metadata87">
    <rdf:RDF>
      <cc:Work
         rdf:about="">
        <dc:format>image/svg+xml</dc:format>
        <dc:type
           rdf:resource="http://purl.org/dc/dcmitype/StillImage" />
        <dc:title></dc:title>
      </cc:Work>
    </rdf:RDF>
  </metadata>
  <defs
     id="defs85" />
  <sodipodi:namedview
     pagecolor="#ffffff"
     bordercolor="#666666"
     borderopacity="1"
     objecttolerance="10"
     gridtolerance="10"
     guidetolerance="10"
     inkscape:pageopacity="0"
     inkscape:pageshadow="2"
     inkscape:window-width="1920"
     inkscape:window-height="1017"
     id="namedview83"
     showgrid="false"
     inkscape:zoom="15.026019"
     inkscape:cx="23.930298"
     inkscape:cy="16.154755"
     inkscape:window-x="-8"
     inkscape:window-y="-8"
     inkscape:window-maximized="1"
     inkscape:current-layer="layer1" />
  <g
     id="layer1">
    <path
       id="background"
       d="m20.002 3.6816l-1.131 3.3907a12.374 12.374 0 0 1 1.131 -0.0625 12.374 12.374 0 0 1 1.129 0.0566l-1.129-3.3848zm-0.002 3.9434a12.374 12.374 0 0 0 -12.375 12.375 12.374 12.374 0 0 0 12.375 12.375 12.374 12.374 0 0 0 12.375 -12.375 12.374 12.374 0 0 0 -12.375 -12.375z"
       stroke="#333"
       stroke-width="1.9"
       fill="#008000" />
    <path
       d="m 10.847212,19.961619 c -0.118743,-0.08907 -0.222642,-0.163271 -0.356228,-0.252327 0.356228,-0.237485 0.712455,-0.430443 1.113211,-0.504656 0.341386,-0.05937 0.489813,-0.237485 0.549184,-0.564028 -0.341385,-0.192956 -0.653083,-0.504656 -1.157739,-0.385913 0.222642,-0.846041 0.653084,-1.499124 1.187426,-2.137366 -0.2078,-0.118743 -0.4156,-0.252328 -0.341386,-0.519499 0.103904,-0.341384 0.385915,-0.445284 0.727298,-0.519498 0.04453,0.178114 0.07421,0.341385 0.118744,0.549184 0.756982,-0.742142 1.706924,-1.068683 2.686549,-1.306168 0.118743,0.37107 0.08906,0.430442 -0.252328,0.549183 -0.400755,0.163272 -0.786669,0.341386 -1.172582,0.519499 -0.489814,0.222643 -0.697613,0.653084 -0.831199,1.172583 0.534342,0.07421 1.05384,0.14843 1.57334,0.222643 0,-0.01485 0.01485,-0.02968 0.01485,-0.02968 -0.148427,-0.07421 -0.296856,-0.148429 -0.445283,-0.222643 -0.2078,-0.103903 -0.222643,-0.237485 -0.02968,-0.385912 0.385914,-0.296858 0.78667,-0.57887 1.187426,-0.860884 0.07422,-0.04453 0.2078,-0.05937 0.296856,-0.01485 0.178114,0.07421 0.356228,0.178115 0.534342,0.267171 0.163271,0.07421 0.296856,0.163272 0.2078,0.400757 0.267169,-0.07421 0.489813,-0.163272 0.727297,-0.2078 0.534342,-0.118743 1.068683,-0.252328 1.603026,-0.341385 0.801511,-0.133585 1.528809,0.103904 2.16705,0.57887 0.103904,0.07421 0.2078,0.163271 0.3117,0.252327 0.237486,0.2078 0.5195,0.400757 0.445285,0.816355 0.460127,-0.07421 0.875726,-0.148427 1.306167,-0.222641 0.549186,-0.08906 1.098369,-0.192957 1.662396,-0.282015 0.133586,-0.01485 0.267172,0.01485 0.445285,0.02968 0.05937,-0.133585 0.163271,-0.296857 0.252328,-0.489813 -0.05937,-0.01485 -0.103904,-0.02968 -0.178113,-0.05937 0.08905,-0.252328 0.178113,-0.504657 0.282012,-0.756984 0.01485,-0.04453 0.103904,-0.07421 0.163272,-0.08907 0.831197,-0.07421 1.647553,-0.163272 2.47875,-0.222642 0.05937,0 0.133586,0.05937 0.192958,0.08906 0.05937,0.01485 0.118742,0.02968 0.178112,0.01485 0.400757,-0.08906 0.801513,-0.192958 1.202269,-0.296857 0.103904,0.252328 0.02968,0.430442 -0.222642,0.593713 0.489814,0.178114 0.237486,0.519498 0.222642,0.816354 0,0.385914 -0.237485,0.534342 -0.593712,0.578871 0.01485,0.02968 0.01485,0.04453 0.02968,0.07421 0.192958,0.01485 0.385914,0.04453 0.593714,0.05937 0,0.178114 0.01485,0.356227 0,0.534343 0,0.04453 -0.07422,0.08905 -0.118742,0.103902 -0.05937,0.01484 -0.118745,0.01484 -0.2078,0.01484 0.163272,0.237485 0.311699,0.47497 0.682769,0.371069 0,0.356228 0.01485,0.68277 0,0.994471 0,0.118742 -0.192956,0.118742 -0.296856,0 -0.192957,-0.222644 -0.385913,-0.445285 -0.57887,-0.682771 -0.252328,-0.3117 -0.593713,-0.578869 -0.653084,-1.009312 0,-0.02968 -0.05937,-0.07421 -0.08906,-0.08907 -0.237485,-0.04453 -0.47497,-0.103903 -0.697613,-0.08906 -0.994469,0.08906 -1.929567,0.445285 -2.864665,0.712455 -0.118743,0.02968 -0.252328,0.07422 -0.400756,0.118741 0.148428,0.296858 0.282013,0.578872 0.445285,0.905412 0.192957,-0.118742 0.385913,-0.222642 0.564027,-0.341383 0.163271,-0.118744 0.222642,-0.02968 0.296856,0.103904 0.07422,0.118741 0.148428,0.222641 -0.02968,0.32654 -0.712457,0.430442 -1.424912,0.860883 -2.137366,1.291326 -0.02968,0.01485 -0.04453,0.02968 -0.103904,0.07421 0.356227,0.133585 0.682769,0.267171 1.009311,0.385913 0.04453,0.01485 0.133586,-0.05937 0.178115,-0.118742 0.623397,-0.712455 1.410068,-1.05384 2.360007,-1.024154 1.424911,0.05937 2.62718,1.202267 2.745923,2.612336 0.118742,1.513968 -0.846041,2.834978 -2.285795,3.131835 -1.350697,0.282013 -2.656864,-0.385914 -3.250578,-1.63271 -0.02968,-0.05937 -0.04453,-0.103904 -0.08906,-0.178115 -0.237487,0.178115 -0.445285,0.356228 -0.682771,0.519499 -0.08906,0.05937 -0.222642,0.118743 -0.326542,0.118743 -2.256109,0 -4.512217,0 -6.768325,0.01485 -0.163272,0 -0.237486,-0.04453 -0.296858,-0.207799 -0.133584,-0.415598 -0.282013,-0.846041 -0.445284,-1.261639 -0.04453,-0.118742 -0.148427,-0.222643 -0.252328,-0.326542 -0.01484,0.860883 -0.296856,1.588181 -0.905412,2.196736 -0.445284,0.445285 -0.994469,0.712457 -1.617867,0.801513 -1.276478,0.178096 -2.49359,-0.489831 -3.0427745,-1.647571 -0.5343414,-1.038996 -0.415599,-2.597492 0.9796255,-3.636491 z m 14.753763,1.083526 c 0.282013,0.118743 0.519498,0.252328 0.875726,0.07421 0.47497,-0.222642 0.94994,-0.103902 1.335854,0.237484 0.385912,0.341386 0.534341,0.771828 0.430441,1.276485 -0.133585,0.638241 -0.682769,1.083525 -1.32101,1.083525 -0.638241,0 -1.187427,-0.460128 -1.321011,-1.098368 -0.01485,-0.07421 -0.04453,-0.178114 -0.103904,-0.192957 -0.148428,-0.05937 -0.296857,-0.07421 -0.460128,-0.118744 -0.08907,0.846042 0.564027,1.692082 1.439755,1.899882 0.905411,0.222642 1.855353,-0.267171 2.21158,-1.142897 0.356228,-0.875726 0,-1.885038 -0.831199,-2.360009 -0.74214,-0.400756 -1.810825,-0.252328 -2.256109,0.341385 z m -12.378913,0.2078 c 0.05937,0.04453 0.103904,0.07422 0.148429,0.118742 0.47497,0.430441 0.593712,1.09837 0.282013,1.647553 -0.296855,0.549185 -0.935098,0.816356 -1.543653,0.653084 -0.593713,-0.163271 -1.009312,-0.712455 -0.979626,-1.335854 0.01485,-0.519498 0.282013,-0.905411 0.727298,-1.157739 0.118743,-0.05937 0.192957,-0.356227 0.133587,-0.460128 -0.08906,-0.148427 -0.222644,-0.118743 -0.356229,-0.04453 -0.712456,0.356228 -1.142897,1.142898 -1.053839,1.899882 0.103902,0.860883 0.712455,1.513966 1.528809,1.677238 0.816355,0.148428 1.617867,-0.222642 2.018622,-0.935096 0.400757,-0.697613 0.311701,-1.588183 -0.237484,-2.196739 -0.282013,-0.326542 -0.504654,-0.282014 -0.667927,0.133587 z"
       id="path160"
       style="stroke-width:0.148428" />
  </g>
</svg>
