<?xml version="1.0" encoding="UTF-8" standalone="no"?>
<svg id="svg4145" xmlns:rdf="http://www.w3.org/1999/02/22-rdf-syntax-ns#" xmlns="http://www.w3.org/2000/svg" height="40" width="40" version="1.1" xmlns:cc="http://creativecommons.org/ns#" xmlns:dc="http://purl.org/dc/elements/1.1/" viewBox="0 0 40 40">
 <g id="layer1">
  <path id="background" d="m20.002 3.6816l-1.131 3.3907a12.374 12.374 0 0 1 1.131 -0.0625 12.374 12.374 0 0 1 1.129 0.0566l-1.129-3.3848zm-0.002 3.9434a12.374 12.374 0 0 0 -12.375 12.375 12.374 12.374 0 0 0 12.375 12.375 12.374 12.374 0 0 0 12.375 -12.375 12.374 12.374 0 0 0 -12.375 -12.375z" stroke="#333" stroke-width="1.9" fill="#008000"/>
  <path id="icon" d="m26.287 24.941q0 1.0708-0.6189 1.837-0.60907 0.76625-1.4736 0.76625h-8.3895q-0.86449 0-1.4834-0.76625-0.60907-0.76625-0.60907-1.837 0-0.83502 0.07859-1.5718 0.08841-0.7466 0.31436-1.4932 0.22595-0.75643 0.56978-1.2869 0.35366-0.54031 0.92343-0.87432 0.5796-0.34383 1.3262-0.34383 1.2869 1.2574 3.0748 1.2574t3.0748-1.2574q0.7466 0 1.3164 0.34383 0.5796 0.33401 0.92343 0.87432 0.35366 0.53048 0.5796 1.2869 0.22595 0.7466 0.30454 1.4932 0.08842 0.73678 0.08842 1.5718zm-3.625-11.376q1.1101 1.1003 1.1101 2.6622 0 1.562-1.1101 2.6721-1.1 1.101-2.662 1.101t-2.6721-1.1003q-1.1003-1.1101-1.1003-2.6721t1.1003-2.6622q1.11-1.11 2.672-1.11t2.6622 1.1101z"/>
 </g>
</svg>
