<?xml version="1.0" encoding="UTF-8" standalone="no"?>
<svg id="svg4145" xmlns:rdf="http://www.w3.org/1999/02/22-rdf-syntax-ns#" xmlns="http://www.w3.org/2000/svg" height="40" width="40" version="1.1" xmlns:cc="http://creativecommons.org/ns#" xmlns:dc="http://purl.org/dc/elements/1.1/" viewBox="0 0 40 40">
 <g id="layer1">
  <path id="background" d="m20.002 3.6816l-1.131 3.3907a12.374 12.374 0 0 1 1.131 -0.0625 12.374 12.374 0 0 1 1.129 0.0566l-1.129-3.3848zm-0.002 3.9434a12.374 12.374 0 0 0 -12.375 12.375 12.374 12.374 0 0 0 12.375 12.375 12.374 12.374 0 0 0 12.375 -12.375 12.374 12.374 0 0 0 -12.375 -12.375z" stroke="#333" stroke-width="1.9" fill="#008000"/>
  <path id="icon" d="m26.094 25.102q0.14711-0.14711 0.34842-0.14711t0.34842 0.14711l0.99107 0.99107-0.69685 0.69685-0.64265-0.64265-0.64265 0.64265q-0.13937 0.14711-0.34842 0.14711t-0.34842-0.14711l-0.64265-0.64265-0.64265 0.64265q-0.14711 0.14711-0.34842 0.14711t-0.34842-0.14711l-0.64265-0.64265-0.64265 0.64265q-0.14711 0.14711-0.34842 0.14711t-0.34842-0.14711l-0.64265-0.64265-0.64265 0.64265q-0.14711 0.14711-0.34842 0.14711t-0.34842-0.14711l-0.64265-0.64265-0.64265 0.64265q-0.14711 0.14711-0.34842 0.14711t-0.34842-0.14711l-0.64265-0.64265-0.64265 0.64265q-0.14711 0.14711-0.34842 0.14711t-0.34842-0.14711l-0.64265-0.64265-0.64265 0.64265q-0.14711 0.14711-0.34842 0.14711t-0.34842-0.14711l-0.99107-0.99107 0.69685-0.69685 0.64265 0.64265 0.64265-0.64265q0.14711-0.14711 0.34842-0.14711t0.34842 0.14711l0.64265 0.64265 0.64265-0.64265q0.14711-0.14711 0.34842-0.14711t0.34842 0.14711l0.64265 0.64265 0.64265-0.64265q0.14711-0.14711 0.34842-0.14711t0.34842 0.14711l0.64265 0.64265 0.64265-0.64265q0.14711-0.14711 0.34842-0.14711t0.34842 0.14711l0.64265 0.64265 0.64265-0.64265q0.14711-0.14711 0.34842-0.14711t0.34842 0.14711l0.64265 0.64265 0.64265-0.64265q0.14711-0.14711 0.34842-0.14711t0.34842 0.14711l0.64265 0.64265 0.64265-0.64265zm-12.188-0.294q-0.14711 0.14711-0.34842 0.14711t-0.34842-0.14711l-0.99107-0.99107 0.69685-0.69685 0.64265 0.6349 0.64265-0.6349q0.14711-0.14711 0.34842-0.14711t0.34842 0.14711l0.64265 0.6349 0.49554-0.49554v-2.2686l-1.626-2.4312q-0.13163-0.20131-0.0542-0.43359 0.07743-0.24003 0.30971-0.31745l1.3705-0.44908v-2.3151h0.99107v-0.99107h1.9821v-0.99107h1.9821v0.99107h1.9821v0.99107h0.99107v2.3151l1.3705 0.44908q0.23228 0.07742 0.30971 0.31745 0.07743 0.23228-0.0542 0.43359l-1.626 2.4312v2.2686l0.14711-0.13937q0.14711-0.14711 0.34842-0.14711t0.34842 0.14711l0.64265 0.6349 0.64265-0.6349q0.14711-0.14711 0.34842-0.14711t0.34842 0.14711l0.99107 0.99107-0.69685 0.69685-0.64265-0.64265-0.64265 0.64265q-0.13937 0.14711-0.34842 0.14711t-0.34842-0.14711l-0.64265-0.64265-0.64265 0.64265q-0.14711 0.14711-0.34842 0.14711t-0.34842-0.14711l-0.64265-0.64265-0.64265 0.64265q-0.14711 0.14711-0.34842 0.14711t-0.34842-0.14711l-0.64265-0.64265-0.64265 0.64265q-0.14711 0.14711-0.34842 0.14711t-0.34842-0.14711l-0.64265-0.64265-0.64265 0.64265q-0.14711 0.14711-0.34842 0.14711t-0.34842-0.14711l-0.64264-0.64265-0.64265 0.64265q-0.14711 0.14711-0.34842 0.14711t-0.34842-0.14711l-0.64265-0.64265-0.64265 0.64265zm3.1203-8.7725v0.99107l2.974-0.991 2.9732 0.99107v-0.99107h-0.99107v-0.99107h-3.9643v0.99107h-0.99107z"/>
 </g>
</svg>
