<?xml version="1.0" encoding="UTF-8" standalone="no"?>
<svg id="svg4145" xmlns:rdf="http://www.w3.org/1999/02/22-rdf-syntax-ns#" xmlns="http://www.w3.org/2000/svg" height="40" width="40" version="1.1" xmlns:cc="http://creativecommons.org/ns#" xmlns:dc="http://purl.org/dc/elements/1.1/" viewBox="0 0 40 40">
 <g id="layer1">
  <path id="background" d="m20.002 3.6816-1.1309 3.3906a12.374 12.374 0 0 1 1.1309 -0.0625 12.374 12.374 0 0 1 1.1289 0.056641l-1.129-3.3847zm-0.002 3.9434a12.374 12.374 0 0 0 -12.375 12.375 12.374 12.374 0 0 0 12.375 12.375 12.374 12.374 0 0 0 12.375 -12.375 12.374 12.374 0 0 0 -12.375 -12.375z" stroke="#333" stroke-width="1.9" fill="#008000"/>
  <path id="icon" stroke-width=".84153" d="m13.105 12.427a0.84162 0.84162 0 0 0 -0.68375 0.84153v5.0492a0.84162 0.84162 0 0 0 0 0.07889v1.8672c0.84153-0.67323 1.8514-1.1045 2.9454-1.1045 2.5246 0 4.6284 2.1038 4.6284 4.6284v0.42077h3.7869c-0.25895 0.34961-0.42077 0.78515-0.42077 1.2623 0 1.1781 0.92569 2.1038 2.1038 2.1038s2.1038-0.92569 2.1038-2.1038c0-0.55373-0.21318-1.0478-0.55226-1.4201 0.49718-0.2262 0.85521-0.67323 0.97302-1.2623l0.42077-2.7087c0.08415-0.42077-0.33661-0.92043-0.84153-0.92043l-7.1267-0.78894-1.3149-5.3122a0.84162 0.84162 0 0 0 -0.81524 -0.63115h-5.0492a0.84162 0.84162 0 0 0 -0.07889 0 0.84162 0.84162 0 0 0 -0.07889 0zm0.99932 1.6831h3.5502l1.0256 4.0499-4.5758-0.49966v-3.5502zm10.098 0v3.6291l1.6831 0.23668v-3.8658h-1.6831zm-8.8361 5.8907c-2.1038 0-3.7869 1.6831-3.7869 3.7869s1.6831 3.7869 3.7869 3.7869 3.7869-1.6831 3.7869-3.7869-1.6831-3.7869-3.7869-3.7869zm0 1.2623c1.4306 0 2.5246 1.094 2.5246 2.5246s-1.094 2.5246-2.5246 2.5246-2.5246-1.094-2.5246-2.5246 1.094-2.5246 2.5246-2.5246zm10.098 3.3661c0.50492 0 0.84154 0.33661 0.84154 0.84154 0 0.50492-0.33661 0.84153-0.84154 0.84153-0.50492 0-0.84153-0.33661-0.84153-0.84153s0.33661-0.84154 0.84153-0.84154z"/>
 </g>
</svg>
