<?xml version="1.0" encoding="UTF-8" standalone="no"?>
<svg id="svg4145" xmlns:rdf="http://www.w3.org/1999/02/22-rdf-syntax-ns#" xmlns="http://www.w3.org/2000/svg" height="40" width="40" version="1.1" xmlns:cc="http://creativecommons.org/ns#" xmlns:dc="http://purl.org/dc/elements/1.1/" viewBox="0 0 40 40">
 <g id="layer1">
  <path id="background" d="m20.002 3.6816l-1.131 3.3907a12.374 12.374 0 0 1 1.131 -0.0625 12.374 12.374 0 0 1 1.129 0.0566l-1.129-3.3848zm-0.002 3.9434a12.374 12.374 0 0 0 -12.375 12.375 12.374 12.374 0 0 0 12.375 12.375 12.374 12.374 0 0 0 12.375 -12.375 12.374 12.374 0 0 0 -12.375 -12.375z" stroke="#333" stroke-width="1.9" fill="#008000"/>
  <path id="icon" d="m18.127 11.484c-0.59864 0-1.0869 0.44565-1.1707 1.0217h-0.362c-1.3143 0-2.3839 1.027-2.3839 2.2881v9.7272c0 0.878 0.51749 1.6389 1.2771 2.0221l-1.6389 1.3622c-0.14633 0.12106-0.16895 0.3379-0.04789 0.48423s0.3379 0.16895 0.48423 0.04789l1.9688-1.6496c0.11175 0.01596 0.22482 0.02128 0.34056 0.02128h6.8111c0.11574 0 0.22881-0.0054 0.34056-0.02128l1.9688 1.6496c0.14633 0.12106 0.36317 0.09844 0.48423-0.04789s0.09844-0.36317-0.04789-0.48423l-1.6389-1.3622c0.7596-0.38313 1.2771-1.1441 1.2771-2.0221v-9.727c0-1.2611-1.0696-2.2881-2.3839-2.2881h-0.36183c-0.08381-0.57602-0.57203-1.0217-1.1707-1.0217-0.59864 0-1.0869 0.44565-1.1707 1.0217h-1.4048c-0.08381-0.57602-0.57203-1.0217-1.1707-1.0217zm0 0.68111c0.28202 0 0.51084 0.22881 0.51084 0.51084 0 0.28202-0.22881 0.51084-0.51084 0.51084-0.28202 0-0.51084-0.22881-0.51084-0.51084 0-0.28202 0.22881-0.51084 0.51084-0.51084zm3.7461 0c0.28202 0 0.51084 0.22881 0.51084 0.51084 0 0.28202-0.22881 0.51084-0.51084 0.51084-0.28202 0-0.51084-0.22881-0.51084-0.51084 0-0.28202 0.22881-0.51084 0.51084-0.51084zm-3.9164 2.7245h4.0867c0.1889 0 0.34056 0.15298 0.34056 0.34056v0.68111h-4.7678v-0.68111c0-0.18757 0.15298-0.34056 0.34056-0.34056zm-1.3622 1.7028h6.8111c0.37648 0 0.68111 0.28336 0.68111 0.6279v2.4903c0 0.34455-0.30464 0.6279-0.68111 0.6279h-6.8111c-0.37648 0-0.68111-0.28335-0.68111-0.6279v-2.4903c0-0.34455 0.30464-0.6279 0.68111-0.6279zm0.34056 6.13c0.56405 0 1.0217 0.45762 1.0217 1.0217 0 0.56405-0.45762 1.0217-1.0217 1.0217-0.56405 0-1.0217-0.45762-1.0217-1.0217 0-0.56405 0.45762-1.0217 1.0217-1.0217zm6.13 0c0.56405 0 1.0217 0.45762 1.0217 1.0217 0 0.56405-0.45762 1.0217-1.0217 1.0217-0.56405 0-1.0217-0.45762-1.0217-1.0217 0-0.56405 0.45762-1.0217 1.0217-1.0217z"/>
 </g>
</svg>
