<?xml version="1.0" encoding="UTF-8" standalone="no"?>
<svg id="svg4145" xmlns:rdf="http://www.w3.org/1999/02/22-rdf-syntax-ns#" xmlns="http://www.w3.org/2000/svg" height="40" width="40" version="1.1" xmlns:cc="http://creativecommons.org/ns#" xmlns:dc="http://purl.org/dc/elements/1.1/" viewBox="0 0 40 40">
 <g id="layer1">
  <path id="background" d="m20.002 3.6816l-1.131 3.3907a12.374 12.374 0 0 1 1.131 -0.0625 12.374 12.374 0 0 1 1.129 0.0566l-1.129-3.3848zm-0.002 3.9434a12.374 12.374 0 0 0 -12.375 12.375 12.374 12.374 0 0 0 12.375 12.375 12.374 12.374 0 0 0 12.375 -12.375 12.374 12.374 0 0 0 -12.375 -12.375z" stroke="#333" stroke-width="1.9" fill="#008000"/>
  <path id="icon" d="m16.909 11.561c-0.10947 0.01846-0.20311 0.091-0.24927 0.19256-0.04615 0.10024-0.03956 0.21894 0.01715 0.31389l0.70692 1.1817h-1.7726c-1.3031 0-2.3634 1.0604-2.3634 2.3634v10.467c0 0.29807 0.13189 0.56316 0.33763 0.74912v0.60141c0 0.55788 0.45501 1.0129 1.0129 1.0129h1.3505c0.55789 0 1.0129-0.45502 1.0129-1.0129v-0.33763h6.0774v0.33763c0 0.55788 0.45501 1.0129 1.0129 1.0129h1.3505c0.55789 0 1.0129-0.45502 1.0129-1.0129v-0.601c0.204-0.186 0.336-0.451 0.336-0.749v-10.467c0-1.3031-1.0604-2.3634-2.3634-2.3634h-1.7726l0.70692-1.1817c0.06594-0.1121 0.062-0.25191-0.0092-0.35874-0.07254-0.10815-0.20047-0.16618-0.3284-0.14771-0.09892 0.01846-0.18332 0.08045-0.23212 0.16882l-0.90739 1.5193h-3.693l-0.908-1.518c-0.06726-0.12002-0.20179-0.18596-0.33763-0.16882zm-0.96014 3.3763h8.1032c0.57371 0 1.0129 0.43919 1.0129 1.0129v4.7269c0 0.57371-0.43919 1.0129-1.0129 1.0129h-8.1032c-0.57371 0-1.0129-0.43919-1.0129-1.0129v-4.7269c0-0.57371 0.43919-1.0129 1.0129-1.0129zm-3.0387 2.0258c-0.39171 0-0.67527 0.28356-0.67527 0.67526v2.0258c0 0.39171 0.28356 0.67527 0.67527 0.67527zm14.181 0v3.3763c0.39171 0 0.67527-0.28356 0.67527-0.67527v-2.0258c0-0.39171-0.28356-0.67526-0.67527-0.67526zm-11.142 6.415c0.5592 0 1.0129 0.4537 1.0129 1.0129s-0.4537 1.0129-1.0129 1.0129c-0.55921 0-1.0129-0.45369-1.0129-1.0129 0-0.5592 0.45369-1.0129 1.0129-1.0129zm8.1032 0c0.5592 0 1.0129 0.4537 1.0129 1.0129s-0.4537 1.0129-1.0129 1.0129c-0.55921 0-1.0129-0.45369-1.0129-1.0129 0-0.5592 0.45369-1.0129 1.0129-1.0129z"/>
 </g>
</svg>
