<?xml version="1.0" encoding="utf-8"?>
<!-- Generator: Adobe Illustrator 27.5.0, SVG Export Plug-In . SVG Version: 6.00 Build 0)  -->
<svg version="1.1" id="Layer_1" xmlns="http://www.w3.org/2000/svg" xmlns:xlink="http://www.w3.org/1999/xlink" x="0px" y="0px"
	 viewBox="0 0 4000 4000" style="enable-background:new 0 0 4000 4000;" xml:space="preserve">
<g>
	<g>
		<rect style="fill:none;" width="4000" height="4000"/>
	</g>
	<g>
		<g>
			<g>
				<g>
					<circle style="fill:#FFFFFF;" cx="1969.627" cy="2123.176" r="1272.244"/>
				</g>
			</g>
			<g>
				<g>
					<polygon style="fill:#F5F5F5;" points="2393.265,1241.031 2582.132,1080.05 2622.749,1107.643 2538.783,1365.673 					"/>
					<path style="fill:#000072;" d="M2538.784,1382.793c-4.033,0-7.996-1.426-11.135-4.116l-145.52-124.644
						c-3.804-3.257-5.989-8.018-5.984-13.022c0.007-5.01,2.205-9.761,6.013-13.008l188.867-160.981
						c5.867-4.995,14.353-5.464,20.725-1.133l40.618,27.593c6.304,4.282,9.016,12.212,6.66,19.458l-83.965,258.032
						c-1.77,5.439-6.14,9.634-11.648,11.182C2541.89,1382.583,2540.332,1382.793,2538.784,1382.793z M2419.617,1241.064
						l110.825,94.922l72.048-221.411l-19.185-13.032L2419.617,1241.064z"/>
				</g>
				<g>
					
						<ellipse transform="matrix(0.7071 -0.7071 0.7071 0.7071 19.3165 2167.2849)" style="fill:#FFD527;" cx="2625.802" cy="1060.325" rx="75.586" ry="75.586"/>
					<path style="fill:#000072;" d="M2625.605,1153.057c-18.862,0-37.246-5.767-53.015-16.816
						c-41.858-29.341-52.041-87.266-22.703-129.126c29.341-41.86,87.263-52.041,129.126-22.705
						c41.855,29.346,52.041,87.271,22.703,129.126c-14.214,20.278-35.471,33.809-59.861,38.096
						C2636.433,1152.583,2630.999,1153.057,2625.605,1153.057z M2625.889,1001.875c-18.44,0-36.602,8.682-47.966,24.893
						c-18.503,26.396-12.08,62.93,14.321,81.436c12.788,8.965,28.306,12.407,43.684,9.707c15.381-2.705,28.789-11.235,37.751-24.023
						c18.503-26.401,12.08-62.935-14.319-81.44C2649.172,1005.303,2637.476,1001.875,2625.889,1001.875z"/>
				</g>
				<g style="opacity:0.2;">
					<path style="fill:#000072;" d="M2686.646,1015.553c0.165,15.253-4.198,30.694-13.62,44.137
						c-23.961,34.184-71.098,42.472-105.28,18.511c-6.917-4.848-12.715-10.678-17.46-17.124
						c0.256,23.532,11.392,46.605,32.134,61.144c34.183,23.96,81.319,15.673,105.281-18.511
						C2706.812,1076.442,2705.348,1040.967,2686.646,1015.553z"/>
				</g>
				<g style="opacity:0.4;">
					<path style="fill:#FFFFFF;" d="M2587.708,1051.224c8.961-12.786,22.368-21.322,37.753-24.026
						c3.42-0.602,6.845-0.898,10.25-0.898c11.893,0,23.486,3.635,33.43,10.604c5.713,4.003,10.52,8.932,14.394,14.489
						c-0.062-0.397-0.081-0.794-0.15-1.192c-2.703-15.385-11.239-28.793-24.026-37.753c-9.945-6.969-21.537-10.604-33.43-10.604
						c-3.406,0-6.83,0.296-10.25,0.898c-15.385,2.703-28.792,11.239-37.753,24.026c-14.449,20.612-13.639,47.366-0.052,66.928
						C2575.648,1079.3,2578.707,1064.066,2587.708,1051.224z"/>
				</g>
				<g>
					<path style="fill:#ED1B24;" d="M1536.879,2712.082l-78.159-54.784c-37.663-26.399-46.794-78.331-20.395-115.993l11.022-15.726
						l214.547,150.383l-11.022,15.726C1626.473,2729.35,1574.541,2738.481,1536.879,2712.082z"/>
					<path style="fill:#000072;" d="M1584.473,2741.865c-19.934,0-39.355-6.089-56.018-17.769l-78.159-54.78
						c-44.226-31.006-54.985-92.207-23.987-136.436l11.025-15.723c4.651-6.641,13.801-8.242,20.437-3.594l214.546,150.381
						c6.636,4.653,8.245,13.804,3.594,20.439l-11.023,15.728c-15.02,21.426-37.48,35.718-63.25,40.249
						C1595.911,2741.367,1590.168,2741.865,1584.473,2741.865z M1452.939,2546.016l-2.6,3.711
						c-21.711,30.977-14.175,73.843,16.802,95.557l78.159,54.78l0,0c15.005,10.522,33.206,14.575,51.257,11.392
						c18.047-3.169,33.779-13.184,44.297-28.188l2.603-3.711L1452.939,2546.016z"/>
				</g>
				<g style="opacity:0.2;">
					<path style="fill:#000072;" d="M1603.478,2633.614c-26.538,37.118-78.064,46.022-115.511,19.775l-62.027-43.479
						c4.776,18.536,15.877,35.539,32.781,47.387l78.157,54.784c37.665,26.399,89.597,17.268,115.994-20.395l11.024-15.725
						L1603.478,2633.614z"/>
				</g>
				<g style="opacity:0.5;">
					<path style="fill:#FFFFFF;" d="M1471.908,2565.857c-10.145,14.949-14.043,33.081-10.986,51.059
						c2.491,14.626,9.405,27.673,19.667,37.69l4.392,3.179l11.203,7.853c-2.756-5.757-4.807-11.906-5.916-18.408
						c-3.057-17.979,0.841-36.11,10.986-51.059l1.194-1.761l132.58,95.987c0.511-0.555,1.058-1.068,1.552-1.642
						c0.771-0.99,1.56-1.958,2.274-3.011l0.747-1.102l-166.5-120.544L1471.908,2565.857z"/>
				</g>
				<g>
					
						<rect x="2227.405" y="1465.075" transform="matrix(0.8189 0.574 -0.574 0.8189 1309.588 -1029.4862)" style="fill:#909090;" width="117.122" height="190.323"/>
					<path style="fill:#000072;" d="M2279.285,1688.892c-3.394,0-6.821-1.006-9.812-3.101l-95.908-67.222
						c-3.716-2.607-6.248-6.582-7.034-11.055s0.237-9.072,2.842-12.788l109.241-155.854c2.607-3.721,6.582-6.25,11.055-7.036
						c4.456-0.781,9.07,0.234,12.791,2.842l95.908,67.227c7.742,5.425,9.619,16.104,4.192,23.843l-109.241,155.85
						C2289.988,1686.348,2284.678,1688.892,2279.285,1688.892z M2207.236,1600.356l67.871,47.573l89.59-127.813l-67.874-47.578
						L2207.236,1600.356z"/>
				</g>
				<g style="opacity:0.4;">
					<polygon style="fill:#FFFFFF;" points="2321.282,1492.105 2363.559,1521.742 2364.695,1520.119 2296.827,1472.541 
						2207.235,1600.354 2232.827,1618.296 					"/>
				</g>
				<g>
					
						<rect x="1023.455" y="1604.55" transform="matrix(0.8189 0.574 -0.574 0.8189 1209.7827 -536.7472)" style="fill:#909090;" width="863.775" height="87.841"/>
					<path style="fill:#000072;" d="M1783.794,1949.448c-3.491,0-6.926-1.069-9.827-3.101l-707.322-495.786
						c-3.718-2.607-6.248-6.582-7.034-11.055s0.237-9.072,2.842-12.788l50.417-71.929c5.425-7.739,16.106-9.619,23.845-4.194
						l707.322,495.781c7.742,5.425,9.619,16.104,4.192,23.843l-50.417,71.934c-2.605,3.721-6.582,6.25-11.055,7.036
						C1785.774,1949.36,1784.78,1949.448,1783.794,1949.448z M1100.315,1432.349l679.287,476.138l30.767-43.896l-679.287-476.133
						L1100.315,1432.349z"/>
				</g>
				<g style="opacity:0.4;">
					<polygon style="fill:#FFFFFF;" points="1131.084,1388.456 1119.353,1405.192 1795.695,1879.266 1776.656,1906.422 
						1779.598,1908.484 1810.368,1864.593 					"/>
				</g>
				<g>
					
						<rect x="2054.466" y="2327.22" transform="matrix(0.8189 0.574 -0.574 0.8189 1811.3217 -997.6269)" style="fill:#909090;" width="863.775" height="87.842"/>
					<path style="fill:#000072;" d="M2814.805,2672.119c-3.491,0-6.926-1.069-9.827-3.101l-707.322-495.786
						c-7.742-5.425-9.619-16.104-4.192-23.843l50.42-71.934c2.607-3.721,6.582-6.25,11.055-7.036
						c4.46-0.786,9.067,0.234,12.791,2.842l707.322,495.786c7.742,5.425,9.619,16.104,4.192,23.843l-50.42,71.934
						c-2.607,3.721-6.582,6.25-11.055,7.036C2816.785,2672.031,2815.791,2672.119,2814.805,2672.119z M2131.326,2155.02
						l679.287,476.138l30.769-43.896l-679.287-476.138L2131.326,2155.02z"/>
				</g>
				<g style="opacity:0.4;">
					<polygon style="fill:#FFFFFF;" points="2162.097,2111.125 2150.366,2127.861 2826.708,2601.935 2807.669,2629.091 
						2810.611,2631.153 2841.381,2587.262 					"/>
				</g>
				<g>
					
						<rect x="1729.135" y="2062.95" transform="matrix(0.8189 0.574 -0.574 0.8189 1568.6846 -684.0692)" style="fill:#909090;" width="278.165" height="161.043"/>
					<path style="fill:#000072;" d="M1935.891,2306.357c-3.491,0-6.926-1.069-9.827-3.101l-227.781-159.658
						c-7.742-5.425-9.619-16.104-4.192-23.843l92.434-131.875c2.607-3.721,6.582-6.25,11.055-7.036
						c4.458-0.781,9.07,0.234,12.791,2.842l227.781,159.658c7.742,5.425,9.619,16.104,4.192,23.843l-92.434,131.875
						c-2.607,3.721-6.582,6.25-11.055,7.036C1937.871,2306.27,1936.877,2306.357,1935.891,2306.357z M1731.953,2125.386
						l199.746,140.01l72.783-103.838l-199.746-140.01L1731.953,2125.386z"/>
				</g>
				<g>
					
						<rect x="1804.816" y="2021.506" transform="matrix(0.574 -0.8189 0.8189 0.574 -959.3265 2442.9692)" style="fill:#909090;" width="126.804" height="243.931"/>
				</g>
				<g style="opacity:0.4;">
					<polygon style="fill:#FFFFFF;" points="1785.755,2169.403 1858.066,2066.242 1829.192,2046.003 1756.408,2149.838 
						1956.155,2289.851 1956.628,2289.176 					"/>
				</g>
				<g>
					<path style="fill:#29B6F6;" d="M1658.668,2686.5l-217.444-152.414c-26.848-18.819-33.357-55.839-14.538-82.687l41.554-59.284
						l314.67,220.562l-41.554,59.284C1722.537,2698.809,1685.516,2705.318,1658.668,2686.5z"/>
					<path style="fill:#000072;" d="M1692.634,2714.346c-15.161,0-30.461-4.487-43.792-13.828h-0.002l-217.441-152.412
						c-16.729-11.729-27.891-29.268-31.428-49.385c-3.538-20.122,0.972-40.42,12.698-57.148l41.553-59.282
						c5.427-7.739,16.106-9.614,23.845-4.194l314.67,220.562c7.742,5.425,9.619,16.104,4.192,23.843l-41.555,59.287
						C1740.51,2702.993,1716.753,2714.346,1692.634,2714.346z M1668.491,2672.48c19.077,13.369,45.471,8.726,58.845-10.342
						l31.731-45.269l-286.636-200.913l-31.726,45.264c-6.477,9.243-8.97,20.454-7.014,31.567c1.953,11.113,8.12,20.806,17.361,27.28
						l217.441,152.412H1668.491z"/>
				</g>
				<g>
					<path style="fill:#29B6F6;" d="M1451.049,2520.066l217.444,152.412c9.243,6.477,20.458,8.961,31.568,7.017
						c11.115-1.954,20.802-8.12,27.278-17.358l31.725-45.266l-286.631-200.912l-31.73,45.266c-6.477,9.243-8.97,20.448-7.017,31.563
						C1435.645,2503.903,1441.807,2513.59,1451.049,2520.066z"/>
				</g>
				<g style="opacity:0.5;">
					<path style="fill:#FFFFFF;" d="M1705.379,2674.603l44.82-63.946l-16.023-11.231l-47.232,67.382l-31.559-22.12
						c-6.191-4.34-7.692-12.876-3.353-19.067l39.373-56.175l-16.018-11.228l-47.229,67.384l-31.561-22.123
						c-6.191-4.34-7.692-12.876-3.352-19.067l39.373-56.174l-16.023-11.231l-47.232,67.383l-31.556-22.118
						c-6.191-4.34-7.692-12.876-3.353-19.068l39.374-56.174l-16.023-11.231l-47.232,67.384c0,0-22.18-13.188-35.57-21.722
						c-5.571-3.551-6.962-11.083-3.074-16.424l43.108-59.217l-16.023-11.231l-43.32,61.804c-3.768-9.39-4.477-20.266,0.249-32.012
						c1.28-3.182,3.016-6.183,4.984-8.992l22.324-31.85l-10.819-7.584l-31.125,44.403c-5.1,7.275-8.258,15.877-8.277,24.761
						c-0.023,10.852,3.896,20.735,10.684,28.362v0c0.002,0.002,0.005,0.005,0.007,0.007c1.032,1.158,2.121,2.268,3.286,3.314
						c0.076,0.071,0.151,0.146,0.229,0.217c1.208,1.073,2.467,2.101,3.812,3.043l54.977,38.534l11.826,8.291l0,0l48.254,33.822
						l10.534,7.385l0,0l42.773,29.981l0,0l16.018,11.228v-0.001l33.06,23.173c4.781,3.351,10.097,5.61,15.648,6.762
						c0.155,0.033,0.313,0.05,0.47,0.081c1.409,0.277,2.835,0.475,4.27,0.605c0.427,0.039,0.853,0.065,1.282,0.091
						c1.22,0.073,2.446,0.09,3.678,0.055c0.449-0.012,0.893-0.01,1.342-0.036c1.624-0.096,3.25-0.257,4.877-0.542
						c0.76-0.134,1.497-0.335,2.245-0.508l0.062-0.09c3.558-0.84,6.99-2.016,10.159-3.691
						C1710.117,2675.222,1707.734,2674.989,1705.379,2674.603z"/>
				</g>
				<g>
					<path style="fill:#ED1B24;" d="M1615.485,1895.192l-39.399-27.616c-20.675-14.492-25.687-43-11.196-63.674l73.928-105.471
						c14.492-20.675,43-25.687,63.674-11.196l39.399,27.616c20.675,14.492,25.687,43,11.196,63.674l-73.928,105.47
						C1664.668,1904.671,1636.16,1909.683,1615.485,1895.192z"/>
					<path style="fill:#000072;" d="M1641.599,1918.159c-12.29,0-24.263-3.755-34.536-10.952l-39.399-27.617
						c-13.206-9.258-22.019-23.105-24.814-38.989c-2.793-15.889,0.767-31.914,10.024-45.122l73.928-105.469
						c9.258-13.208,23.108-22.021,38.994-24.814c15.898-2.793,31.912,0.771,45.12,10.024l39.397,27.612
						c27.268,19.116,33.904,56.846,14.792,84.116l-73.928,105.469c-9.258,13.208-23.108,22.021-38.994,24.814
						C1648.65,1917.852,1645.11,1918.159,1641.599,1918.159z M1676.318,1693.618c-1.807,0-3.625,0.161-5.439,0.479
						c-8.167,1.436-15.286,5.967-20.044,12.759l-73.928,105.469c-4.758,6.787-6.589,15.024-5.154,23.193
						c1.436,8.164,5.967,15.283,12.754,20.039l39.402,27.617l0,0c6.792,4.761,15.034,6.582,23.191,5.156
						c8.167-1.436,15.286-5.967,20.044-12.759l73.928-105.469c9.824-14.014,6.414-33.413-7.603-43.237l-39.397-27.612
						C1688.792,1695.552,1682.634,1693.618,1676.318,1693.618z"/>
				</g>
				<g style="opacity:0.2;">
					<path style="fill:#000072;" d="M1679.07,1816.934l-39.399-27.616c-20.675-14.492-25.688-43-11.196-63.675l30.247-43.152
						c-7.755,3.214-14.731,8.558-19.904,15.94l-73.927,105.47c-14.492,20.675-9.479,49.183,11.196,63.675l39.399,27.616
						c20.675,14.492,49.181,9.479,63.673-11.195l43.681-62.318C1708.878,1827.465,1692.363,1826.251,1679.07,1816.934z"/>
				</g>
				<g style="opacity:0.4;">
					<path style="fill:#FFFFFF;" d="M1733.472,1726.864l-39.401-27.613c-6.792-4.762-15.008-6.596-23.194-5.154
						c-8.168,1.438-15.285,5.966-20.047,12.753l-10.093,14.401c4.299-3.91,9.603-6.558,15.466-7.59
						c8.187-1.443,16.402,0.392,23.195,5.154l39.401,27.613c14.014,9.825,17.425,29.222,7.599,43.241l-63.828,91.055
						c1.674-1.518,3.219-3.224,4.571-5.151l73.93-105.469C1750.896,1756.086,1747.486,1736.689,1733.472,1726.864z"/>
				</g>
				<g>
					<path style="fill:#ED1B24;" d="M2239.203,2332.375l-39.399-27.616c-20.675-14.491-25.687-43-11.196-63.674l73.928-105.47
						c14.492-20.675,43-25.687,63.675-11.196l39.399,27.616c20.675,14.492,25.687,43,11.195,63.674l-73.928,105.471
						C2288.385,2341.855,2259.877,2346.867,2239.203,2332.375z"/>
					<path style="fill:#000072;" d="M2265.356,2355.308c-11.97,0-24.05-3.54-34.575-10.913h-0.002l-39.397-27.617
						c-13.208-9.258-22.021-23.11-24.814-38.994c-2.793-15.889,0.767-31.914,10.027-45.122l73.926-105.469
						c19.114-27.266,56.846-33.896,84.114-14.79l39.399,27.617c27.266,19.116,33.899,56.846,14.785,84.111l-73.926,105.474
						C2303.157,2346.348,2284.399,2355.308,2265.356,2355.308z M2247.622,2320.361c14.019,9.819,33.42,6.416,43.237-7.603
						l73.928-105.474c4.761-6.787,6.592-15.024,5.156-23.188c-1.436-8.169-5.967-15.288-12.756-20.044l-39.399-27.617
						c-14.014-9.829-33.411-6.411-43.237,7.603l-73.926,105.469c-4.761,6.787-6.592,15.024-5.154,23.193
						c1.436,8.169,5.964,15.283,12.756,20.044L2247.622,2320.361z"/>
				</g>
				<g style="opacity:0.2;">
					<path style="fill:#000072;" d="M2293.005,2273.682l-39.399-27.616c-20.675-14.492-25.688-43-11.196-63.675l45.252-64.561
						c-9.832,2.743-18.812,8.773-25.126,17.784l-73.928,105.47c-14.492,20.675-9.479,49.183,11.196,63.675l39.399,27.616
						c20.675,14.492,49.183,9.479,63.675-11.196l28.673-40.91C2318.825,2283.82,2304.669,2281.858,2293.005,2273.682z"/>
				</g>
				<g style="opacity:0.4;">
					<path style="fill:#FFFFFF;" d="M2369.945,2184.095c-1.438-8.168-5.966-15.285-12.758-20.042l-39.396-27.622
						c-5.412-3.788-11.621-5.608-17.773-5.608c-9.792,0-19.431,4.604-25.468,13.212l-10.148,14.477
						c5.811-5.299,13.319-8.124,20.942-8.124c6.152,0,12.361,1.82,17.773,5.608l39.396,27.622
						c6.792,4.758,11.32,11.875,12.758,20.042c1.433,8.163-0.396,16.403-5.158,23.195l-63.837,91.075
						c1.691-1.539,3.241-3.253,4.585-5.17l73.925-105.469C2369.548,2200.497,2371.378,2192.258,2369.945,2184.095z"/>
				</g>
				<g>
					<path style="fill:#29B6F6;" d="M1432.725,2017.006l-349.259-244.807c-26.045-18.255-32.359-54.168-14.103-80.212
						l295.226-421.19c18.255-26.045,54.168-32.359,80.212-14.103L1794.06,1501.5c26.045,18.255,32.359,54.168,14.103,80.212
						l-295.226,421.19C1494.682,2028.947,1458.77,2035.262,1432.725,2017.006z"/>
					<path style="fill:#000072;" d="M1465.674,2044.531c-14.81,0-29.756-4.38-42.776-13.506l-349.258-244.81
						c-16.34-11.45-27.241-28.584-30.698-48.237c-3.455-19.653,0.95-39.478,12.402-55.815l295.227-421.191
						c11.453-16.343,28.584-27.246,48.24-30.698c19.646-3.467,39.475,0.952,55.818,12.402l349.258,244.805
						c33.73,23.647,41.938,70.327,18.296,104.058l-295.227,421.191C1512.437,2033.442,1489.231,2044.531,1465.674,2044.531z
						 M1411.831,1263.369c-2.354,0-4.724,0.205-7.092,0.625c-10.647,1.87-19.927,7.773-26.13,16.626l-295.227,421.191
						c-6.204,8.853-8.591,19.59-6.719,30.239c1.873,10.645,7.778,19.927,16.628,26.128l349.26,244.81l0,0
						c18.264,12.803,43.557,8.369,56.367-9.907l295.227-421.191c12.808-18.276,8.362-43.564-9.912-56.372l-349.258-244.805
						C1428.093,1265.889,1420.066,1263.369,1411.831,1263.369z"/>
				</g>
				<g>
					<defs>
						<path id="SVGID_1_" d="M1093.292,1758.178l349.26,244.808c8.846,6.205,19.574,8.579,30.235,6.721
							c10.647-1.872,19.927-7.776,26.132-16.627l295.228-421.193c6.205-8.851,8.593-19.588,6.72-30.235
							c-1.872-10.647-7.781-19.927-16.632-26.132l-349.26-244.808c-7.055-4.944-15.151-7.318-23.171-7.318
							c-12.763,0-25.334,6.009-33.196,17.229l-295.228,421.188C1070.571,1720.086,1075.017,1745.372,1093.292,1758.178z"/>
					</defs>
					<clipPath id="SVGID_00000088826867489707718530000011169179576105606788_">
						<use xlink:href="#SVGID_1_"  style="overflow:visible;"/>
					</clipPath>
					<g style="opacity:0.4;clip-path:url(#SVGID_00000088826867489707718530000011169179576105606788_);">
						<polygon style="fill:#FFFFFF;" points="1226.144,1482.647 1650.93,1374.838 1411.266,1198.759 						"/>
					</g>
					<g style="opacity:0.4;clip-path:url(#SVGID_00000088826867489707718530000011169179576105606788_);">
						<polygon style="fill:#FFFFFF;" points="1020.718,1751.657 1445.504,1643.849 1205.84,1467.769 						"/>
					</g>
					<g style="opacity:0.4;clip-path:url(#SVGID_00000088826867489707718530000011169179576105606788_);">
						<polygon style="fill:#FFFFFF;" points="1441.353,1639.162 1866.138,1531.353 1626.474,1355.274 						"/>
					</g>
					<g style="opacity:0.4;clip-path:url(#SVGID_00000088826867489707718530000011169179576105606788_);">
						<polygon style="fill:#FFFFFF;" points="1437.451,1644.222 1649.833,1788.04 1240.078,1898.186 						"/>
					</g>
				</g>
				<g>
					<path style="fill:#29B6F6;" d="M933.798,1667.292l-349.259-244.807c-26.044-18.255-32.359-54.168-14.103-80.212l295.226-421.19
						c18.255-26.045,54.168-32.359,80.212-14.103l349.259,244.807c26.045,18.255,32.359,54.168,14.103,80.212l-295.226,421.19
						C995.755,1679.233,959.843,1685.547,933.798,1667.292z"/>
					<path style="fill:#000072;" d="M966.748,1694.814c-14.81,0-29.756-4.38-42.776-13.506l-349.26-244.805
						c-33.733-23.647-41.939-70.327-18.293-104.058L851.643,911.26c23.647-33.731,70.33-41.948,104.055-18.301l349.263,244.81
						c16.338,11.45,27.241,28.584,30.696,48.237c3.457,19.653-0.95,39.478-12.402,55.815l-295.225,421.191
						C1013.511,1683.726,990.305,1694.814,966.748,1694.814z M912.881,913.682c-12.764,0-25.334,6.006-33.201,17.227
						l-295.225,421.187c-6.206,8.853-8.591,19.595-6.721,30.239c1.872,10.649,7.778,19.927,16.631,26.133l349.26,244.805l0,0
						c18.274,12.817,43.562,8.364,56.367-9.907l295.225-421.191c6.206-8.853,8.591-19.59,6.719-30.239
						c-1.87-10.645-7.776-19.927-16.626-26.128l-349.263-244.81C928.997,916.055,920.901,913.682,912.881,913.682z"/>
				</g>
				<g>
					<defs>
						<path id="SVGID_00000084519837834734136560000009438270580660202166_" d="M594.362,1408.465l349.26,244.808
							c18.275,12.806,43.561,8.364,56.372-9.911l295.223-421.188c6.205-8.851,8.593-19.593,6.721-30.235
							c-1.872-10.647-7.781-19.927-16.632-26.132L936.051,920.998c-18.275-12.81-43.561-8.364-56.372,9.911l-295.223,421.188
							C571.65,1370.372,576.092,1395.659,594.362,1408.465z"/>
					</defs>
					<clipPath id="SVGID_00000058591761115068056180000009474828397516616842_">
						<use xlink:href="#SVGID_00000084519837834734136560000009438270580660202166_"  style="overflow:visible;"/>
					</clipPath>
					<g style="opacity:0.4;clip-path:url(#SVGID_00000058591761115068056180000009474828397516616842_);">
						<polyline style="fill:#FFFFFF;" points="1111.59,1036.822 890.316,890.62 719.502,1133.09 1117.8,1036.812 						"/>
					</g>
					<g style="opacity:0.4;clip-path:url(#SVGID_00000058591761115068056180000009474828397516616842_);">
						<polyline style="fill:#FFFFFF;" points="1341.472,1193.337 1120.197,1047.135 949.383,1289.605 1347.682,1193.327 						"/>
					</g>
					<g style="opacity:0.4;clip-path:url(#SVGID_00000058591761115068056180000009474828397516616842_);">
						<polyline style="fill:#FFFFFF;" points="945.293,1291.159 724.018,1144.957 553.205,1387.427 951.503,1291.149 						"/>
					</g>
					<g style="opacity:0.4;clip-path:url(#SVGID_00000058591761115068056180000009474828397516616842_);">
						<polyline style="fill:#FFFFFF;" points="1160.501,1437.892 939.227,1291.69 768.413,1534.16 1166.711,1437.882 						"/>
					</g>
				</g>
				<g>
					<g>
						<line style="fill:#F5F5F5;" x1="1117.971" y1="1032.996" x2="760.881" y2="1542.445"/>
						<path style="fill:#000072;" d="M760.872,1554.673c-2.424,0-4.873-0.718-7.009-2.212c-5.53-3.877-6.87-11.504-2.993-17.031
							l357.09-509.448c3.872-5.532,11.499-6.87,17.031-2.998c5.53,3.877,6.87,11.504,2.993,17.031l-357.09,509.448
							C768.516,1552.856,764.724,1554.673,760.872,1554.673z"/>
					</g>
					<g>
						<line style="fill:#F5F5F5;" x1="1158.851" y1="1440.65" x2="720.821" y2="1133.62"/>
						<path style="fill:#000072;" d="M1158.843,1452.876c-2.424,0-4.873-0.718-7.009-2.212l-438.032-307.031
							c-5.53-3.877-6.87-11.504-2.993-17.031c3.874-5.537,11.494-6.87,17.031-2.998l438.032,307.031
							c5.53,3.877,6.87,11.504,2.993,17.031C1166.487,1451.064,1162.695,1452.876,1158.843,1452.876z"/>
					</g>
				</g>
				<g>
					<g>
						<line style="fill:#F5F5F5;" x1="1616.898" y1="1382.711" x2="1259.808" y2="1892.159"/>
						<path style="fill:#000072;" d="M1259.8,1904.385c-2.424,0-4.873-0.718-7.009-2.212c-5.53-3.877-6.87-11.504-2.993-17.031
							l357.087-509.448c3.872-5.532,11.497-6.87,17.031-2.998c5.53,3.877,6.87,11.504,2.993,17.031l-357.087,509.448
							C1267.444,1902.568,1263.652,1904.385,1259.8,1904.385z"/>
					</g>
					<g>
						<line style="fill:#F5F5F5;" x1="1657.779" y1="1790.365" x2="1219.748" y2="1483.335"/>
						<path style="fill:#000072;" d="M1657.769,1802.593c-2.424,0-4.873-0.718-7.009-2.212l-438.03-307.031
							c-5.53-3.877-6.87-11.504-2.993-17.031c3.872-5.537,11.497-6.865,17.031-2.998l438.03,307.031
							c5.53,3.877,6.87,11.504,2.993,17.031C1665.413,1800.781,1661.621,1802.593,1657.769,1802.593z"/>
					</g>
				</g>
				<g>
					<path style="fill:#29B6F6;" d="M2496.894,2762.917l-349.259-244.807c-26.044-18.255-32.359-54.168-14.103-80.212
						l295.226-421.19c18.255-26.045,54.168-32.359,80.212-14.103l349.259,244.807c26.044,18.256,32.359,54.168,14.103,80.212
						l-295.226,421.19C2558.851,2774.859,2522.939,2781.173,2496.894,2762.917z"/>
					<path style="fill:#000072;" d="M2529.841,2790.439c-14.807,0-29.753-4.375-42.771-13.501c0,0,0,0-0.002,0l-349.26-244.81
						c-33.73-23.647-41.938-70.327-18.293-104.058l295.225-421.187c23.647-33.73,70.33-41.943,104.055-18.301l349.263,244.81
						c33.73,23.643,41.938,70.322,18.296,104.053l-295.227,421.191C2576.606,2779.351,2553.401,2790.439,2529.841,2790.439z
						 M2506.719,2748.901c18.271,12.808,43.56,8.359,56.37-9.912l295.227-421.191c12.808-18.271,8.359-43.56-9.912-56.367
						l-349.26-244.81c-18.269-12.803-43.562-8.359-56.367,9.912l-295.225,421.187c-12.81,18.276-8.364,43.564,9.91,56.372
						l349.26,244.81H2506.719z"/>
				</g>
				<g>
					<defs>
						<path id="SVGID_00000068678941436937064390000004410673923294781083_" d="M2848.403,2261.431l-349.26-244.808
							c-8.855-6.205-19.583-8.602-30.235-6.72c-10.647,1.872-19.927,7.781-26.132,16.632l-295.224,421.188
							c-12.806,18.275-8.364,43.561,9.906,56.367l349.26,244.808c18.275,12.815,43.566,8.364,56.367-9.906l295.228-421.193
							c6.205-8.851,8.593-19.588,6.72-30.235S2857.253,2267.635,2848.403,2261.431z"/>
					</defs>
					<clipPath id="SVGID_00000152243580593261451530000001473066830908314044_">
						<use xlink:href="#SVGID_00000068678941436937064390000004410673923294781083_"  style="overflow:visible;"/>
					</clipPath>
					<g style="opacity:0.4;clip-path:url(#SVGID_00000152243580593261451530000001473066830908314044_);">
						<path style="fill:#FFFFFF;" d="M2281.881,2230.78l420.634-107.604l-107.604-166.297l-156.515-34.238
							c0,0-107.604,48.911-107.604,58.693S2281.881,2230.78,2281.881,2230.78z"/>
					</g>
					<g style="opacity:0.4;clip-path:url(#SVGID_00000152243580593261451530000001473066830908314044_);">
						<polygon style="fill:#FFFFFF;" points="2500.834,2386.279 2917.723,2269.909 2687.842,2137.849 						"/>
					</g>
					<g style="opacity:0.4;clip-path:url(#SVGID_00000152243580593261451530000001473066830908314044_);">
						<polygon style="fill:#FFFFFF;" points="2330.792,2636.741 2722.08,2534.028 2506.871,2387.295 						"/>
					</g>
					<g style="opacity:0.4;clip-path:url(#SVGID_00000152243580593261451530000001473066830908314044_);">
						<polygon style="fill:#FFFFFF;" points="2122.633,2475.728 2492.198,2382.404 2281.881,2240.562 						"/>
					</g>
				</g>
				<g>
					<path style="fill:#29B6F6;" d="M2995.822,3112.632l-349.259-244.807c-26.045-18.255-32.359-54.168-14.104-80.212
						l295.226-421.19c18.256-26.045,54.168-32.359,80.212-14.104l349.259,244.807c26.045,18.255,32.359,54.168,14.104,80.212
						l-295.226,421.19C3057.778,3124.573,3021.866,3130.887,2995.822,3112.632z"/>
					<path style="fill:#000072;" d="M3028.718,3140.2c-15.203,0.005-30.015-4.644-42.725-13.55l-349.258-244.805
						c-33.73-23.647-41.938-70.327-18.296-104.058l295.227-421.191c11.453-16.343,28.584-27.246,48.24-30.698
						c19.648-3.472,39.478,0.947,55.818,12.402l349.258,244.805c33.733,23.647,41.941,70.327,18.296,104.058l-295.227,421.191
						c-11.453,16.343-28.584,27.246-48.24,30.698C3037.444,3139.824,3033.064,3140.2,3028.718,3140.2z M2974.927,2358.994
						c-2.354,0-4.724,0.205-7.092,0.625c-10.647,1.87-19.927,7.773-26.13,16.626l-295.227,421.191
						c-12.808,18.276-8.362,43.564,9.912,56.372l349.258,244.805l0,0c8.85,6.206,19.58,8.608,30.237,6.719
						c10.647-1.87,19.927-7.773,26.13-16.626l295.227-421.191c12.81-18.276,8.362-43.564-9.912-56.372l-349.258-244.805
						C2991.189,2361.514,2983.162,2358.994,2974.927,2358.994z"/>
				</g>
				<g>
					<defs>
						<path id="SVGID_00000067934612249539098430000005141784501459954835_" d="M2656.389,2853.807l349.26,244.808
							c8.846,6.205,19.579,8.579,30.235,6.72c10.647-1.872,19.927-7.781,26.132-16.632l295.223-421.193
							c6.205-8.851,8.593-19.588,6.721-30.235c-1.873-10.646-7.776-19.927-16.627-26.132l-349.26-244.808
							c-7.055-4.944-15.151-7.317-23.17-7.317c-12.763,0-25.334,6.009-33.197,17.229l-295.228,421.188
							C2633.667,2815.71,2638.114,2841.002,2656.389,2853.807z"/>
					</defs>
					<clipPath id="SVGID_00000069372455370076893770000005806117769740230304_">
						<use xlink:href="#SVGID_00000067934612249539098430000005141784501459954835_"  style="overflow:visible;"/>
					</clipPath>
					<g style="opacity:0.4;clip-path:url(#SVGID_00000069372455370076893770000005806117769740230304_);">
						<polygon style="fill:#FFFFFF;" points="2789.721,2577.461 3182.94,2476.816 2965.265,2342.622 						"/>
					</g>
					<g style="opacity:0.4;clip-path:url(#SVGID_00000069372455370076893770000005806117769740230304_);">
						<path style="fill:#FFFFFF;" d="M2629.149,2827.494c4.891,0,372.711-95.018,372.711-95.018l-222.781-150.525L2629.149,2827.494
							z"/>
					</g>
					<g style="opacity:0.4;clip-path:url(#SVGID_00000069372455370076893770000005806117769740230304_);">
						<polygon style="fill:#FFFFFF;" points="2818.352,2986.635 3211.189,2886.187 3000.872,2744.345 						"/>
					</g>
					<g style="opacity:0.4;clip-path:url(#SVGID_00000069372455370076893770000005806117769740230304_);">
						<polygon style="fill:#FFFFFF;" points="3010.654,2729.672 3387.269,2626.959 3181.843,2485.117 						"/>
					</g>
				</g>
				<g>
					<g>
						<line style="fill:#F5F5F5;" x1="2681.067" y1="2128.622" x2="2323.978" y2="2638.07"/>
						<path style="fill:#000072;" d="M2323.967,2650.298c-2.424,0-4.873-0.718-7.009-2.212c-5.53-3.877-6.87-11.504-2.993-17.031
							l357.09-509.448c3.872-5.532,11.499-6.87,17.031-2.998c5.53,3.877,6.87,11.504,2.993,17.031l-357.09,509.448
							C2331.611,2648.481,2327.82,2650.298,2323.967,2650.298z"/>
					</g>
					<g>
						<line style="fill:#F5F5F5;" x1="2283.917" y1="2229.246" x2="2721.948" y2="2536.276"/>
						<path style="fill:#000072;" d="M2721.938,2548.501c-2.424,0-4.873-0.718-7.009-2.212l-438.032-307.026
							c-5.53-3.877-6.87-11.504-2.993-17.031c3.875-5.532,11.499-6.87,17.031-2.998l438.032,307.026
							c5.53,3.877,6.87,11.504,2.993,17.031C2729.583,2546.685,2725.791,2548.501,2721.938,2548.501z"/>
					</g>
				</g>
				<g>
					<g>
						<line style="fill:#F5F5F5;" x1="3179.994" y1="2478.336" x2="2822.905" y2="2987.785"/>
						<path style="fill:#000072;" d="M2822.896,3000.01c-2.424,0-4.873-0.718-7.009-2.212c-5.53-3.877-6.87-11.504-2.993-17.031
							l357.09-509.448c3.875-5.532,11.494-6.87,17.031-2.998c5.53,3.877,6.87,11.504,2.993,17.031l-357.09,509.448
							C2830.54,2998.193,2826.748,3000.01,2822.896,3000.01z"/>
					</g>
					<g>
						<line style="fill:#F5F5F5;" x1="3220.875" y1="2885.99" x2="2782.844" y2="2578.96"/>
						<path style="fill:#000072;" d="M3220.864,2898.218c-2.424,0-4.873-0.718-7.009-2.212l-438.03-307.031
							c-5.53-3.877-6.87-11.504-2.993-17.031c3.875-5.537,11.497-6.87,17.031-2.998l438.03,307.031
							c5.53,3.877,6.87,11.504,2.993,17.031C3228.508,2896.406,3224.717,2898.218,3220.864,2898.218z"/>
					</g>
				</g>
				<g>
					<path style="fill:#ED1B24;" d="M2096.834,1046.201c-41.133,167.415,37.861,364.452,209.602,484.831
						s383.906,127.424,527.25,31.652L2096.834,1046.201z"/>
					<path style="fill:#000072;" d="M2605.918,1645.864c-104.619,0-213.933-33.965-309.309-100.815
						c-173.469-121.587-260.435-323.701-216.399-502.93c1.348-5.488,5.315-9.956,10.605-11.943
						c5.293-1.982,11.218-1.235,15.845,2.007l736.851,516.484c4.626,3.242,7.354,8.56,7.29,14.209
						c-0.061,5.649-2.908,10.903-7.607,14.043C2774.109,1623.076,2691.582,1645.864,2605.918,1645.864z M2108.291,1075.137
						c-27.229,159.238,54.023,333.975,207.971,441.875c153.933,107.896,345.913,124.668,486.313,44.775L2108.291,1075.137z"/>
				</g>
				<g>
					<g>
						<path style="fill:#ED1B24;" d="M2316.262,1517.014c153.931,107.896,345.916,124.666,486.315,44.775l-694.287-486.65
							C2081.079,1234.367,2162.326,1409.114,2316.262,1517.014z"/>
					</g>
				</g>
				<g style="opacity:0.4;">
					<path style="fill:#FFFFFF;" d="M2350.5,1531.688c-69.003-48.368-123.323-110.186-159.878-177.996
						c3.561-15.803,1.98-37.045-5.519-58.842c-8.574-24.926-22.801-44.514-37.275-53.721c-10.926-47.441-13.46-95.766-6.561-142.874
						l-32.977-23.115c-9.29,54.356-5.918,110.518,8.648,165.214c12.474,46.843,33.206,92.59,61.241,135.222
						c35.121,53.409,81.701,101.919,138.083,141.439c36.282,25.432,74.692,45.734,114.028,60.968
						C2402.919,1565.082,2376.173,1549.682,2350.5,1531.688z"/>
				</g>
				<g style="opacity:0.2;">
					<path style="fill:#000072;" d="M2742.155,1498.527c-142.389,80.56-341.426,68.337-504.194-45.753
						c-22.354-15.667-43.093-32.658-62.244-50.687c34.393,48.118,78.193,92.128,130.72,128.945
						c171.74,120.379,383.903,127.424,527.25,31.652L2742.155,1498.527z"/>
				</g>
				<g>
					<path style="fill:#F5F5F5;" d="M2823.554,1596.542l-755.091-529.268c-26.545-18.606-32.981-55.209-14.374-81.754v0
						c18.606-26.545,55.209-32.981,81.754-14.374l755.091,529.268c26.545,18.606,32.981,55.209,14.375,81.754v0
						C2886.702,1608.713,2850.099,1615.149,2823.554,1596.542z"/>
					<path style="fill:#000072;" d="M2857.136,1624.268c-15.029,0-30.193-4.443-43.406-13.706c0,0,0,0-0.002,0l-755.093-529.268
						c-34.231-23.999-42.559-71.367-18.564-105.601c11.624-16.582,29.009-27.647,48.953-31.152
						c19.939-3.511,40.061,0.967,56.646,12.588l755.09,529.268c16.582,11.621,27.646,29.009,31.152,48.955
						c3.508,19.946-0.962,40.059-12.585,56.641C2904.592,1613.013,2881.042,1624.268,2857.136,1624.268z M2833.379,1582.524
						c18.77,13.154,44.751,8.589,57.91-10.181c6.375-9.097,8.826-20.127,6.902-31.064c-1.921-10.938-7.991-20.474-17.083-26.846
						l-755.093-529.268c-9.097-6.372-20.127-8.828-31.062-6.904c-10.938,1.924-20.471,7.988-26.846,17.08
						c-13.159,18.774-8.594,44.756,10.181,57.915l755.093,529.268H2833.379z"/>
				</g>
				<g style="opacity:0.2;">
					<path style="fill:#000072;" d="M2890.935,1500.414l-46.124-32.33c-1.76,5.659-4.394,11.148-7.979,16.261l0,0
						c-18.607,26.545-55.209,32.981-81.754,14.375l-708.968-496.939c-7.382,23.72,0.919,50.471,22.354,65.492l755.089,529.269
						c26.545,18.607,63.147,12.17,81.754-14.375l0,0C2923.914,1555.623,2917.48,1519.02,2890.935,1500.414z"/>
				</g>
				<g>
					<path style="fill:#FFD527;" d="M2086.461,2207.053l-340.467-238.644c-19.932-13.971-24.764-41.454-10.793-61.385
						l288.956-412.245c13.971-19.931,41.454-24.764,61.385-10.793l340.467,238.644c19.931,13.971,24.764,41.454,10.793,61.385
						l-288.956,412.245C2133.875,2216.191,2106.392,2221.023,2086.461,2207.053z"/>
					<path style="fill:#000072;" d="M2111.628,2232.173c-12.454,0-24.587-3.809-34.995-11.104l-340.466-238.643
						c-13.384-9.38-22.312-23.413-25.144-39.512c-2.83-16.099,0.779-32.334,10.159-45.718l288.958-412.241
						c9.38-13.384,23.413-22.314,39.509-25.146c16.106-2.832,32.336,0.776,45.718,10.156l340.469,238.647
						c13.384,9.38,22.312,23.413,25.144,39.507c2.83,16.099-0.779,32.334-10.159,45.718l-288.955,412.246
						c-9.382,13.389-23.416,22.314-39.512,25.146C2118.774,2231.86,2115.188,2232.173,2111.628,2232.173z M2060.305,1493.115
						c-1.567,0-3.149,0.137-4.727,0.415c-7.09,1.245-13.271,5.181-17.402,11.074l-288.958,412.241
						c-4.133,5.898-5.72,13.047-4.475,20.142c1.248,7.09,5.181,13.271,11.074,17.402l340.469,238.643l0,0
						c5.894,4.136,13.032,5.723,20.137,4.478c7.092-1.245,13.271-5.181,17.405-11.074l288.955-412.246
						c4.133-5.898,5.72-13.047,4.475-20.137c-1.248-7.09-5.181-13.271-11.074-17.402l-340.469-238.647
						C2071.133,1494.79,2065.789,1493.115,2060.305,1493.115z"/>
				</g>
				<g>
					<path style="fill:#FFD527;" d="M1755.821,1954.39l340.466,238.641c5.894,4.132,13.049,5.727,20.137,4.476
						c7.093-1.247,13.269-5.178,17.401-11.072l288.957-412.247c8.531-12.17,5.57-29.007-6.596-37.538l-340.471-238.646
						c-4.585-3.215-9.925-4.891-15.409-4.891c-1.572,0-3.148,0.139-4.724,0.416c-7.093,1.247-13.274,5.182-17.405,11.077
						l-288.957,412.242c-4.132,5.894-5.722,13.049-4.476,20.138C1745.991,1944.078,1749.927,1950.259,1755.821,1954.39z"/>
				</g>
				<g style="opacity:0.5;">
					<path style="fill:#FFFFFF;" d="M1755.448,1954.07l287.619-410.336c4.132-5.894,10.312-9.83,17.405-11.077
						c1.576-0.277,3.153-0.416,4.724-0.416c5.483,0,10.823,1.677,15.409,4.891l340.471,238.646c0.136,0.095,0.234,0.221,0.368,0.318
						l1.337-1.908c8.531-12.17,5.57-29.007-6.596-37.538l-340.471-238.646c-4.585-3.215-9.925-4.891-15.409-4.891
						c-1.572,0-3.148,0.139-4.724,0.416c-7.093,1.247-13.274,5.182-17.405,11.077l-288.957,412.242
						c-4.132,5.894-5.722,13.049-4.476,20.138C1745.962,1943.914,1749.778,1949.942,1755.448,1954.07z"/>
				</g>
				<g>
					<path style="fill:#F5F5F5;" d="M1952.862,2314.039l-261.866-183.551c-13.148-9.216-16.335-27.345-7.12-40.492h0
						c9.216-13.148,27.345-16.335,40.492-7.119l261.866,183.551c13.148,9.216,16.335,27.345,7.12,40.492l0,0
						C1984.138,2320.067,1966.009,2323.255,1952.862,2314.039z"/>
					<path style="fill:#000072;" d="M1969.456,2333.989c-8.904,0-17.578-2.72-25.02-7.939l-261.863-183.545
						c-9.568-6.704-15.952-16.738-17.976-28.247c-2.021-11.509,0.557-23.115,7.263-32.686
						c13.843-19.746,41.179-24.551,60.928-10.713l261.87,183.55c19.749,13.848,24.553,41.182,10.713,60.933
						c-6.709,9.57-16.741,15.952-28.247,17.979C1974.565,2333.77,1972,2333.989,1969.456,2333.989z M1707.703,2092.29
						c-4.541,0-9.011,2.134-11.809,6.128c-2.209,3.149-3.059,6.973-2.393,10.757c0.667,3.789,2.766,7.09,5.916,9.297l261.868,183.55
						c0,0,0,0,0.002,0.005c3.149,2.207,6.973,3.066,10.754,2.388c3.787-0.664,7.09-2.769,9.297-5.918
						c4.558-6.499,2.974-15.498-3.528-20.059l-261.865-183.545C1713.438,2093.135,1710.557,2092.29,1707.703,2092.29z"/>
				</g>
				<g style="opacity:0.2;">
					<path style="fill:#000072;" d="M1986.235,2266.427l-106.489-74.64c-0.869,2.616-2.114,5.156-3.778,7.529
						c-9.216,13.148-27.345,16.335-40.492,7.12l-155.378-108.91c-3.948,11.877,0.124,25.411,10.898,32.964l261.867,183.551
						c13.147,9.216,31.276,6.028,40.492-7.12C2002.57,2293.772,1999.382,2275.643,1986.235,2266.427z"/>
				</g>
				<g>
					<path style="fill:#FFD527;" d="M1797.667,2639.061l-359.262-251.819c-15.334-10.748-19.052-31.892-8.303-47.226
						l161.633-230.597c10.748-15.334,31.892-19.052,47.226-8.303l359.262,251.819c15.334,10.748,19.052,31.892,8.303,47.226
						l-161.633,230.597C1834.145,2646.092,1813.001,2649.809,1797.667,2639.061z"/>
					<path style="fill:#000072;" d="M1817.019,2662.334c-10.381,0-20.498-3.169-29.177-9.253h-0.002l-359.26-251.821
						c-23.037-16.147-28.645-48.027-12.498-71.069l161.633-230.596c7.825-11.162,19.526-18.608,32.947-20.967
						c13.428-2.378,26.965,0.649,38.127,8.472l359.26,251.816c23.035,16.147,28.643,48.027,12.495,71.069l-161.633,230.596
						c-7.822,11.162-19.521,18.608-32.947,20.972C1822.979,2662.075,1819.988,2662.334,1817.019,2662.334z M1807.493,2625.044
						c3.667,2.573,8.12,3.55,12.542,2.788c4.417-0.776,8.267-3.228,10.84-6.899l161.633-230.596
						c5.313-7.583,3.469-18.071-4.109-23.384l-359.265-251.816c-3.674-2.573-8.135-3.579-12.542-2.788
						c-4.417,0.776-8.267,3.228-10.842,6.899l-161.631,230.591c-5.313,7.583-3.467,18.071,4.111,23.384L1807.493,2625.044z"/>
				</g>
				<g style="opacity:0.5;">
					<path style="fill:#FFFFFF;" d="M1995.298,2377.79c-0.779-4.414-3.229-8.263-6.902-10.838l-359.262-251.82
						c-7.571-5.302-18.065-3.472-23.381,4.113l-161.635,230.598c-2.575,3.673-3.563,8.125-2.79,12.543
						c0.779,4.413,3.229,8.263,6.902,10.838l3.327,2.332l159.087-226.964c5.316-7.585,15.81-9.415,23.381-4.113l49.682,34.824
						l-76.502,114.535c-14.497,21.699-8.655,51.04,13.045,65.534v0c21.699,14.494,51.041,8.653,65.535-13.046l75.322-112.77
						l228.852,160.411l2.548-3.634C1995.083,2386.66,1996.072,2382.208,1995.298,2377.79z"/>
				</g>
				<g>
					<g>
						
							<ellipse transform="matrix(0.6396 -0.7687 0.7687 0.6396 -465.6167 2154.3433)" style="fill:#000072;" cx="2064.86" cy="1573.765" rx="23.257" ry="23.257"/>
					</g>
					<g>
						
							<ellipse transform="matrix(0.8149 -0.5796 0.5796 0.8149 -593.9776 1689.1176)" style="fill:#000072;" cx="2347.427" cy="1774.467" rx="23.257" ry="23.257"/>
					</g>
				</g>
				<g>
					
						<ellipse transform="matrix(0.9133 -0.4072 0.4072 0.9133 -623.1729 908.7938)" style="fill:#000072;" cx="1823.334" cy="1918.342" rx="23.257" ry="23.257"/>
				</g>
				<g>
					
						<ellipse transform="matrix(0.8796 -0.4756 0.4756 0.8796 -753.4341 1257.0427)" style="fill:#000072;" cx="2107.143" cy="2117.273" rx="23.257" ry="23.257"/>
				</g>
				<g>
					<path style="fill:#000072;" d="M1750.839,2342.844l-138.075-96.781c-9.203-6.451-11.435-19.141-4.984-28.345l0,0
						c6.451-9.203,19.141-11.435,28.345-4.984l138.075,96.781c9.203,6.451,11.435,19.141,4.984,28.345l0,0
						C1772.732,2347.064,1760.042,2349.295,1750.839,2342.844z"/>
				</g>
				<g>
					<path style="fill:#000072;" d="M1694.105,2423.785l-138.075-96.781c-9.203-6.451-11.435-19.141-4.984-28.345l0,0
						c6.451-9.203,19.141-11.435,28.345-4.984l138.075,96.781c9.203,6.451,11.435,19.141,4.984,28.345h0
						C1715.999,2428.005,1703.308,2430.236,1694.105,2423.785z"/>
				</g>
				<g>
					<path style="fill:#000072;" d="M2232.208,1899.207l-66.657-46.722c-11.833-8.294-14.702-24.61-6.408-36.443v0
						c8.294-11.833,24.61-14.702,36.443-6.408l66.657,46.722c11.833,8.294,14.702,24.61,6.408,36.443h0
						C2260.358,1904.632,2244.042,1907.501,2232.208,1899.207z"/>
				</g>
				<g>
					<circle style="fill:#000072;" cx="1866.553" cy="2395.551" r="29.072"/>
				</g>
				<g>
					<circle style="fill:#000072;" cx="1806.482" cy="2481.253" r="29.072"/>
				</g>
				<g>
					<g>
						<line style="fill:#F5F5F5;" x1="1500.043" y1="2431.323" x2="1434.028" y2="2525.505"/>
						<path style="fill:#000072;" d="M1434.021,2535.288c-1.941,0-3.899-0.576-5.608-1.772c-4.424-3.105-5.496-9.204-2.395-13.628
							l66.016-94.18c3.101-4.429,9.199-5.498,13.625-2.397c4.424,3.105,5.496,9.204,2.395,13.628l-66.016,94.18
							C1440.134,2533.833,1437.102,2535.288,1434.021,2535.288z"/>
					</g>
					<g>
						<line style="fill:#F5F5F5;" x1="1558.833" y1="2472.531" x2="1492.818" y2="2566.713"/>
						<path style="fill:#000072;" d="M1492.81,2576.499c-1.941,0-3.899-0.576-5.608-1.772c-4.424-3.105-5.496-9.204-2.395-13.628
							l66.016-94.185c3.096-4.424,9.202-5.498,13.625-2.397c4.424,3.105,5.496,9.204,2.395,13.628l-66.016,94.185
							C1498.926,2575.044,1495.891,2576.499,1492.81,2576.499z"/>
					</g>
					<g>
						<line style="fill:#F5F5F5;" x1="1617.624" y1="2513.739" x2="1551.609" y2="2607.921"/>
						<path style="fill:#000072;" d="M1551.602,2617.705c-1.941,0-3.899-0.576-5.608-1.772c-4.424-3.105-5.496-9.204-2.395-13.628
							l66.016-94.18c3.103-4.424,9.202-5.498,13.625-2.397c4.424,3.105,5.496,9.204,2.395,13.628l-66.016,94.18
							C1557.715,2616.25,1554.683,2617.705,1551.602,2617.705z"/>
					</g>
					<g>
						<line style="fill:#F5F5F5;" x1="1676.414" y1="2554.947" x2="1610.399" y2="2649.129"/>
						<path style="fill:#000072;" d="M1610.391,2658.916c-1.941,0-3.899-0.576-5.608-1.772c-4.424-3.105-5.496-9.204-2.395-13.628
							l66.016-94.185c3.098-4.429,9.199-5.498,13.625-2.397c4.424,3.105,5.496,9.204,2.395,13.628l-66.016,94.185
							C1616.506,2657.461,1613.472,2658.916,1610.391,2658.916z"/>
					</g>
					<g>
						<line style="fill:#F5F5F5;" x1="1735.205" y1="2596.156" x2="1669.189" y2="2690.338"/>
						<path style="fill:#000072;" d="M1669.182,2700.122c-1.941,0-3.899-0.576-5.608-1.772c-4.424-3.105-5.496-9.204-2.395-13.628
							l66.016-94.18c3.101-4.429,9.199-5.498,13.625-2.397c4.424,3.105,5.496,9.204,2.395,13.628l-66.016,94.18
							C1675.295,2698.667,1672.263,2700.122,1669.182,2700.122z"/>
					</g>
				</g>
				<g>
					<g>
						<path style="fill:#000072;" d="M2805.098,948.169c-7.854,0-14.932-5.439-16.697-13.428
							c-13.989-63.232-74.675-57.466-81.531-56.597c-9.387,1.187-17.937-5.415-19.158-14.761c-1.221-9.341,5.3-17.91,14.641-19.175
							c33.955-4.6,102.607,6.87,119.475,83.14c2.043,9.229-3.787,18.369-13.018,20.41
							C2807.566,948.037,2806.323,948.169,2805.098,948.169z"/>
					</g>
					<g>
						<path style="fill:#000072;" d="M2901.875,910.122c-7.854,0-14.932-5.439-16.697-13.428
							c-32.08-145.039-175.806-127.285-181.924-126.479c-9.38,1.289-17.991-5.293-19.26-14.668c-1.267-9.37,5.3-17.993,14.67-19.258
							c1.799-0.269,181.138-22.417,219.941,153.013c2.043,9.228-3.787,18.369-13.018,20.41
							C2904.346,909.99,2903.101,910.122,2901.875,910.122z"/>
					</g>
					<g>
						<g>
							<path style="fill:#000072;" d="M2667.246,659.507c-8.447,0-15.806-6.25-16.956-14.849c-1.255-9.36,5.3-17.969,14.663-19.233
								c0.754-0.102,18.821-2.485,46.65-1.836c9.453,0.225,16.934,8.066,16.709,17.519c-0.22,9.312-7.842,16.714-17.107,16.714
								c-0.137,0-0.273,0-0.413-0.005c-24.912-0.601-41.113,1.514-41.274,1.538C2668.755,659.458,2667.996,659.507,2667.246,659.507
								z"/>
						</g>
						<g>
							<path style="fill:#000072;" d="M2968.625,789.526c-5.647,0-11.172-2.788-14.438-7.896
								c-12.859-20.108-28.228-38.096-45.684-53.467c-7.095-6.245-7.783-17.066-1.533-24.16c6.24-7.1,17.058-7.788,24.16-1.533
								c19.856,17.485,37.317,37.91,51.899,60.713c5.095,7.964,2.766,18.55-5.198,23.648
								C2974.976,788.657,2971.78,789.526,2968.625,789.526z M2857.073,691.104c-2.49,0-5.02-0.547-7.415-1.699
								c-20.667-9.951-43.359-17.7-67.446-23.032c-9.231-2.041-15.056-11.182-13.013-20.415
								c2.046-9.228,11.167-15.073,20.415-13.013c26.658,5.898,51.855,14.517,74.897,25.61c8.518,4.102,12.1,14.331,7.998,22.852
								C2869.561,687.529,2863.442,691.104,2857.073,691.104z"/>
						</g>
						<g>
							<path style="fill:#000072;" d="M3012.83,899.878c-7.854,0-14.932-5.439-16.697-13.428
								c-3.118-14.087-6.924-27.725-11.316-40.527c-3.066-8.94,1.697-18.677,10.64-21.743c8.967-3.086,18.684,1.699,21.748,10.64
								c4.805,14.014,8.962,28.897,12.356,44.238c2.043,9.228-3.784,18.369-13.015,20.41
								C3015.3,899.746,3014.055,899.878,3012.83,899.878z"/>
						</g>
					</g>
				</g>
				<g style="opacity:0.2;">
					<path style="fill:#000072;" d="M1063.998,1100.937c0,0-136.951,127.168-278.792,73.366l150.781,111.263L1063.998,1100.937z"/>
				</g>
				<g style="opacity:0.2;">
					<path style="fill:#000072;" d="M1562.89,1453.096c0,0-136.951,127.168-278.792,73.366l150.781,111.263L1562.89,1453.096z"/>
				</g>
				<g style="opacity:0.2;">
					<path style="fill:#000072;" d="M2629.149,2191.651c0,0-136.95,127.168-278.792,73.366l150.781,111.263L2629.149,2191.651z"/>
				</g>
				<g style="opacity:0.2;">
					<path style="fill:#000072;" d="M2844.357,2348.167c0,0-136.951,127.168-278.792,73.366l150.781,111.263L2844.357,2348.167z"/>
				</g>
				<g style="opacity:0.2;">
					<path style="fill:#000072;" d="M2663.386,2597.612c0,0-136.951,127.168-278.792,73.366l150.781,111.263L2663.386,2597.612z"/>
				</g>
				<g style="opacity:0.2;">
					<path style="fill:#000072;" d="M2448.178,2445.988c0,0-136.951,127.168-278.792,73.366l150.781,111.263L2448.178,2445.988z"/>
				</g>
				<g style="opacity:0.2;">
					<path style="fill:#000072;" d="M3123.149,2543.81c0,0-136.951,127.168-278.792,73.366l150.781,111.263L3123.149,2543.81z"/>
				</g>
				<g style="opacity:0.2;">
					<path style="fill:#000072;" d="M3348.14,2695.434c0,0-136.951,127.169-278.792,73.366l150.781,111.263L3348.14,2695.434z"/>
				</g>
				<g style="opacity:0.2;">
					<path style="fill:#000072;" d="M3162.278,2944.88c0,0-136.951,127.168-278.792,73.366l150.781,111.263L3162.278,2944.88z"/>
				</g>
				<g style="opacity:0.2;">
					<path style="fill:#000072;" d="M2951.961,2793.256c0,0-136.951,127.168-278.792,73.366l150.781,111.263L2951.961,2793.256z"/>
				</g>
				<g style="opacity:0.2;">
					<path style="fill:#000072;" d="M1782.989,1604.72c0,0-136.951,127.168-278.792,73.366l150.781,111.263L1782.989,1604.72z"/>
				</g>
				<g style="opacity:0.2;">
					<path style="fill:#000072;" d="M1602.019,1859.057c0,0-136.951,127.169-278.792,73.366l150.781,111.263L1602.019,1859.057z"/>
				</g>
				<g style="opacity:0.2;">
					<path style="fill:#000072;" d="M1391.702,1717.215c0,0-136.951,127.169-278.793,73.367l150.781,111.263L1391.702,1717.215z"/>
				</g>
				<g style="opacity:0.2;">
					<path style="fill:#000072;" d="M1284.098,1257.452c0,0-136.951,127.168-278.793,73.366l150.781,111.263L1284.098,1257.452z"/>
				</g>
				<g style="opacity:0.2;">
					<path style="fill:#000072;" d="M1108.018,1506.898c0,0-136.951,127.168-278.792,73.366l150.781,111.263L1108.018,1506.898z"/>
				</g>
				<g style="opacity:0.2;">
					<path style="fill:#000072;" d="M887.919,1350.383c0,0-136.951,127.168-278.793,73.366l150.781,111.263L887.919,1350.383z"/>
				</g>
				<g style="opacity:0.3;">
					<path style="fill:#000072;" d="M2531.327,1125.392c0,0,4.891,53.802,68.475,53.802l19.564-48.911l-68.475-29.347
						L2531.327,1125.392z"/>
				</g>
				<g style="opacity:0.3;">
					<polygon style="fill:#000072;" points="2076.455,1159.63 2726.971,1604.72 2805.695,1584.625 2091.212,1089.578 					"/>
				</g>
				<g style="opacity:0.2;">
					<path style="fill:#000072;" d="M2106.642,2192.616c7.093-1.247,13.269-5.178,17.401-11.072L2413,1769.298
						c5.089-7.259,5.98-16.139,3.363-23.956c0.045-0.048,0.079-0.085,0.127-0.134c-57.053,60.046-311.939,299.325-668.37,200.76
						c1.932,3.28,4.495,6.174,7.702,8.423l340.466,238.641l-1.562-1.095C2098.563,2193.017,2102.599,2193.33,2106.642,2192.616z"/>
				</g>
				<g style="opacity:0.3;">
					<path style="fill:#FFFFFF;" d="M1952.205,1841.469L1952.205,1841.469c-21.37-14.208-27.177-43.049-12.969-64.42l64.99-97.754
						c14.208-21.37,43.049-27.177,64.42-12.969l0,0c21.37,14.208,27.177,43.049,12.969,64.42l-64.99,97.754
						C2002.417,1849.871,1973.575,1855.677,1952.205,1841.469z"/>
				</g>
				<g style="opacity:0.3;">
					<polygon style="fill:#000072;" points="1773.207,2040.027 2003.089,2201.434 2019.267,2171.291 1790.817,2015.53 					"/>
				</g>
				<g style="opacity:0.3;">
					<polygon style="fill:#000072;" points="1430.83,2441.097 1753.643,2661.197 1769.821,2631.054 1453.332,2406.817 					"/>
				</g>
				<g>
					<g style="opacity:0.2;">
						<path style="fill:#000072;" d="M1465.29,2373.937l337.311,236.434c3.673,2.57,8.11,3.559,12.543,2.79
							c4.413-0.779,8.263-3.229,10.838-6.902l148.333-211.62c-68.074,31.643-273.526,105.266-509.152-20.771
							C1465.207,2373.89,1465.247,2373.914,1465.29,2373.937z"/>
					</g>
					<g style="opacity:0.2;">
						<path style="fill:#000072;" d="M1989.39,2387.233c0.074-0.038,0.158-0.083,0.232-0.12
							C1989.547,2387.151,1989.464,2387.195,1989.39,2387.233z"/>
					</g>
					<g style="opacity:0.2;">
						<path style="fill:#000072;" d="M1441.179,2360.424c4.062,2.391,8.115,4.713,12.161,6.977
							C1449.294,2365.13,1445.241,2362.815,1441.179,2360.424z"/>
					</g>
				</g>
			</g>
			<g>
				<g>
					<circle style="fill:#000072;" cx="1087.663" cy="2560.795" r="27.084"/>
				</g>
				<g>
					
						<ellipse transform="matrix(0.1602 -0.9871 0.9871 0.1602 -1375.2051 4601.8853)" style="fill:#000072;" cx="2016.831" cy="3109.123" rx="31.233" ry="31.232"/>
				</g>
				<g>
					
						<ellipse transform="matrix(0.9414 -0.3374 0.3374 0.9414 -371.8232 1254.593)" style="fill:#000072;" cx="3423.929" cy="1697.144" rx="26.064" ry="26.064"/>
				</g>
				<g>
					<path style="fill:#000072;" d="M3376.292,1413.787c6.021-6.021,2.22-20.324-8.423-36.53c-3.165-4.819-3.165-11.028,0-15.846
						c10.643-16.206,14.443-30.509,8.423-36.53c-6.021-6.021-20.324-2.22-36.53,8.423c-4.818,3.164-11.028,3.164-15.846,0
						c-16.206-10.643-30.509-14.443-36.53-8.423c-6.021,6.021-2.22,20.324,8.423,36.53c3.164,4.818,3.164,11.028,0,15.846
						c-10.643,16.206-14.443,30.509-8.423,36.53s20.324,2.22,36.53-8.423c4.819-3.164,11.028-3.164,15.846,0
						C3355.969,1416.007,3370.271,1419.808,3376.292,1413.787z"/>
				</g>
				<g>
					<path style="fill:#000072;" d="M1000.949,2324.725c6.926,0,12.967-10.413,16.167-25.856c0.951-4.592,4.523-8.163,9.115-9.115
						c15.443-3.2,25.856-9.241,25.856-16.167c0-6.926-10.413-12.967-25.856-16.167c-4.592-0.951-8.163-4.523-9.115-9.115
						c-3.2-15.443-9.241-25.856-16.167-25.856s-12.967,10.413-16.167,25.856c-0.951,4.592-4.523,8.163-9.115,9.115
						c-15.443,3.2-25.856,9.241-25.856,16.167c0,6.926,10.413,12.967,25.856,16.167c4.592,0.951,8.163,4.523,9.115,9.115
						C987.982,2314.312,994.023,2324.725,1000.949,2324.725z"/>
				</g>
				<g>
					
						<ellipse transform="matrix(0.4065 -0.9137 0.9137 0.4065 390.1015 1912.3223)" style="fill:#000072;" cx="1666.959" cy="655.901" rx="41.31" ry="41.31"/>
				</g>
				<g>
					
						<ellipse transform="matrix(0.1703 -0.9854 0.9854 0.1703 386.9128 2013.7156)" style="fill:#000072;" cx="1389.237" cy="777.102" rx="27.004" ry="27.004"/>
				</g>
			</g>
		</g>
	</g>
</g>
</svg>
