<?xml version="1.0" encoding="UTF-8"?>
<svg version="1.1" xmlns="http://www.w3.org/2000/svg" width="142" height="180">
<path d="M0 0 C46.86 0 93.72 0 142 0 C142 59.4 142 118.8 142 180 C95.14 180 48.28 180 0 180 C0 120.6 0 61.2 0 0 Z " fill="#071A2B" transform="translate(0,0)"/>
<path d="M0 0 C-0.85722656 0.43570312 -1.71445312 0.87140625 -2.59765625 1.3203125 C-14.1967607 7.36178517 -22.76407308 13.5478939 -27.875 26.0625 C-32.47677872 42.00239616 -26.92021414 57.48043017 -19.36303711 71.50268555 C-15.42068473 78.39342097 -10.38092568 84.20098801 -5 90 C-4.25878906 90.81082031 -3.51757812 91.62164062 -2.75390625 92.45703125 C3.22217983 98.71821501 9.98251469 103.96413619 17 109 C17.85078125 109.63164063 18.7015625 110.26328125 19.578125 110.9140625 C21.95846375 112.2764127 21.95846375 112.2764127 24.48828125 111.41015625 C33.22975554 106.5024234 40.73986664 99.84734986 48 93 C48.68835938 92.37609375 49.37671875 91.7521875 50.0859375 91.109375 C63.88155017 78.13168403 74.53734876 59.01067491 75.52392578 39.92700195 C75.73964305 28.45166238 72.21116786 19.28013168 64.24609375 10.96875 C60.50236933 7.68729416 56.40292894 5.28952305 52 3 C51.02546875 2.48953125 51.02546875 2.48953125 50.03125 1.96875 C48.69875767 1.28993315 47.35148189 0.64017563 46 0 C50.12182869 -1.3739429 51.51405331 -0.14143006 55.375 1.75 C70.2946448 9.31623788 81.41879315 20.58268617 87.125 36.5 C88.67499667 42.69998669 88.5040721 48.66715052 88 55 C87.93941406 55.86109375 87.87882813 56.7221875 87.81640625 57.609375 C86.66843381 66.05618454 82.03806764 73.62499135 78 81 C77.65549805 81.63631348 77.31099609 82.27262695 76.95605469 82.92822266 C68.96697677 97.50391905 58.18983948 109.79690734 47 122 C45.78705503 123.3709336 44.57850008 124.74576761 43.375 126.125 C42.818125 126.76308594 42.26125 127.40117187 41.6875 128.05859375 C40.51877849 129.40316457 39.35225759 130.74965016 38.1875 132.09765625 C34.91270012 135.87355697 31.58533171 139.51156915 28 143 C27.236875 143.763125 26.47375 144.52625 25.6875 145.3125 C25.130625 145.869375 24.57375 146.42625 24 147 C19.98423742 145.43675443 17.58346127 142.60011657 14.8125 139.4375 C13.83634829 138.3461218 12.85846232 137.25629244 11.87890625 136.16796875 C11.39437988 135.62962402 10.90985352 135.0912793 10.41064453 134.53662109 C8.42368428 132.37221683 6.34518528 130.30924729 4.25 128.25 C0.28660215 124.32149122 -3.41595023 120.27642302 -7 116 C-7.68835937 115.19030762 -7.68835937 115.19030762 -8.390625 114.36425781 C-19.29442993 101.49859404 -28.72788471 88.22755946 -36.0625 73 C-36.6179248 71.85277466 -36.6179248 71.85277466 -37.18457031 70.68237305 C-42.62578495 58.91568242 -44.06536231 46.366691 -40.0625 33.875 C-33.45423846 17.41877209 -20.89322528 7.53805171 -5.4609375 -0.13671875 C-3 -1 -3 -1 0 0 Z " fill="#4EAD3A" transform="translate(49,18)"/>
<path d="M0 0 C0 0.99 0 1.98 0 3 C6.02596573 4.0712828 11.88909517 4.09945415 18 4 C18.31453125 4.81984375 18.6290625 5.6396875 18.953125 6.484375 C19.38109375 7.56203125 19.8090625 8.6396875 20.25 9.75 C20.66765625 10.81734375 21.0853125 11.8846875 21.515625 12.984375 C23.00396687 16.00805902 24.58280683 17.70676546 27 20 C27 20.66 27 21.32 27 22 C28.98 21.67 30.96 21.34 33 21 C32.92278083 24.16598606 32.71171423 26.31223769 30.375 28.5703125 C29.4159375 29.37082031 29.4159375 29.37082031 28.4375 30.1875 C25.94022664 32.44717852 25.0699618 33.39167365 24.6796875 36.78515625 C24.77519562 39.72776177 24.77519562 39.72776177 25.14453125 42.546875 C25.09683594 43.35640625 25.04914063 44.1659375 25 45 C23.05859375 46.66015625 23.05859375 46.66015625 21 48 C20.1957792 50.59855733 20.1957792 50.59855733 20 53 C19.01 53 18.02 53 17 53 C16.896875 53.763125 16.79375 54.52625 16.6875 55.3125 C15.92391959 58.29740522 15.59461433 59.35674426 13 61 C10.66715768 61.0478661 8.33277195 61.05118091 6 61 C5.12569481 58.81877494 4.27591499 56.63250158 3.4375 54.4375 C2.96183594 53.21933594 2.48617187 52.00117187 1.99609375 50.74609375 C0.91489538 46.67993987 1.23608241 44.08920592 2 40 C1.18391223 37.37625345 1.18391223 37.37625345 0 35 C-1.18461538 30.36923077 -1.18461538 30.36923077 0 28 C-5.11647416 27.25578558 -9.85480402 26.94701476 -15.01953125 27.2578125 C-17.6288414 26.91813899 -18.36467115 26.01487509 -20 24 C-22.67953508 19.98069738 -22.69495566 16.72404381 -22 12 C-20.125 8.9375 -20.125 8.9375 -18 7 C-17.34 7 -16.68 7 -16 7 C-16 5.68 -16 4.36 -16 3 C-10.4477112 0.1647887 -6.19887485 -0.37952295 0 0 Z " fill="#F6F6F5" transform="translate(64,42)"/>
<path d="M0 0 C6.97417783 2.40154297 12.02286667 7.59650063 15.375 14.125 C15.95952557 15.3978454 16.49786423 16.69245833 17 18 C17.53560547 19.35158203 17.53560547 19.35158203 18.08203125 20.73046875 C22.28933933 35.7156469 17.56990896 49.9827724 10.26611328 62.99755859 C-1.99224548 83.99612274 -1.99224548 83.99612274 -8 87 C-6.54450273 83.7673486 -4.63526907 80.93724722 -2.62353516 78.02661133 C2.6880031 70.32240807 7.18958599 62.57090473 11 54 C11.43441406 53.05125 11.86882812 52.1025 12.31640625 51.125 C16.58611945 40.41352439 17.06906204 27.05412098 12.875 16.25 C10.55177274 11.53773168 7.7368958 7.67546737 4 4 C3.21625 3.195625 2.4325 2.39125 1.625 1.5625 C1.08875 1.046875 0.5525 0.53125 0 0 Z " fill="#489542" transform="translate(93,29)"/>
<path d="M0 0 C0.66 0.33 1.32 0.66 2 1 C1.49210937 1.32871094 0.98421875 1.65742188 0.4609375 1.99609375 C-6.82594688 7.03141273 -11.99427919 13.64137251 -14.53125 22.21875 C-16.15964038 31.88053291 -16.04958884 41.99909201 -12 51 C-11.67128906 51.88300781 -11.34257813 52.76601562 -11.00390625 53.67578125 C-7.15699929 63.7256593 -1.6553781 73.52181133 5 82 C4.67 82.66 4.34 83.32 4 84 C-4.30668723 73.95410013 -11.07179334 63.07783981 -16 51 C-16.3196875 50.30003906 -16.639375 49.60007813 -16.96875 48.87890625 C-20.55348381 40.09962762 -20.34267922 28.91545472 -17.375 20 C-13.91306763 11.89786355 -8.04695864 4.02347932 0 0 Z " fill="#499941" transform="translate(51,28)"/>
<path d="M0 0 C1.33333333 1.33333333 2.66666667 2.66666667 4 4 C4.763125 4.7425 5.52625 5.485 6.3125 6.25 C16 16.1627907 16 16.1627907 16 19 C16.66 19 17.32 19 18 19 C20 22 20 22 20 25 C15.10045765 23.47178736 11.8517409 20.62859565 8.0625 17.3125 C7.46759766 16.80783203 6.87269531 16.30316406 6.25976562 15.78320312 C2.08591531 12.17498935 -1.52196835 8.27911992 -5 4 C-3.35 3.34 -1.7 2.68 0 2 C0 1.34 0 0.68 0 0 Z " fill="#062026" transform="translate(48,103)"/>
<path d="M0 0 C9.34441698 1.52354625 17.04831669 6.65646785 24.1875 12.625 C24.75210938 13.09212402 25.31671875 13.55924805 25.8984375 14.04052734 C28.68257578 16.4577437 30.68794479 18.20184231 31 22 C30.34 22 29.68 22 29 22 C28.67 22.99 28.34 23.98 28 25 C26.5287983 23.05990653 25.08081656 21.11877586 23.7109375 19.10546875 C17.60845796 10.3443066 9.60938321 5.35331139 0 1 C0 0.67 0 0.34 0 0 Z " fill="#4DA33C" transform="translate(95,17)"/>
<path d="M0 0 C0.66 0.33 1.32 0.66 2 1 C1.49210937 1.32871094 0.98421875 1.65742188 0.4609375 1.99609375 C-8.41470014 8.12925909 -12.18317576 15.38428354 -15.23828125 25.59375 C-16 28 -16 28 -17 29 C-17.23481693 31.18292774 -17.41363323 33.37203174 -17.5625 35.5625 C-17.64628906 36.76003906 -17.73007812 37.95757812 -17.81640625 39.19140625 C-17.87699219 40.11824219 -17.93757813 41.04507813 -18 42 C-18.33 42 -18.66 42 -19 42 C-19.56963548 29.38890345 -18.93914891 19.03686735 -10.65234375 8.7890625 C-7.52321897 5.40102669 -4.15219588 2.07609794 0 0 Z " fill="#448A41" transform="translate(51,28)"/>
<path d="M0 0 C-0.85722656 0.43570312 -1.71445312 0.87140625 -2.59765625 1.3203125 C-14.12139022 7.32252794 -20.36104087 12.65928562 -27 24 C-27.625 22.1875 -27.625 22.1875 -28 20 C-27.01 18.515 -27.01 18.515 -26 17 C-26.66 17 -27.32 17 -28 17 C-24.61820137 8.45050909 -13.25107538 3.84429477 -5.53125 -0.06640625 C-3 -1 -3 -1 0 0 Z " fill="#4CA142" transform="translate(49,18)"/>
<path d="M0 0 C1.66666667 1.66666667 3.33333333 3.33333333 5 5 C5.8971875 5.8353125 5.8971875 5.8353125 6.8125 6.6875 C8 8 8 8 8 10 C8.66 10 9.32 10 10 10 C12 13 12 13 12 16 C6.59510481 14.47987323 3.01507372 10.72614782 -1 7 C-0.34 6.67 0.32 6.34 1 6 C0.67 4.02 0.34 2.04 0 0 Z " fill="#0A2B20" transform="translate(56,112)"/>
<path d="M0 0 C4.09497916 0.62593604 7.36338656 1.96528153 11.0625 3.8125 C12.08472656 4.31394531 13.10695313 4.81539062 14.16015625 5.33203125 C16.9252695 6.9561074 18.85850193 8.63254051 21 11 C20.34 11.66 19.68 12.32 19 13 C18.46632813 12.55269531 17.93265625 12.10539062 17.3828125 11.64453125 C11.91350211 7.2066306 6.41030876 3.90404384 0 1 C0 0.67 0 0.34 0 0 Z " fill="#458F47" transform="translate(95,17)"/>
<path d="M0 0 C0.66 0.66 1.32 1.32 2 2 C-0.0957742 4.96436163 -2.20301845 7.92038078 -4.3125 10.875 C-4.90740234 11.71675781 -5.50230469 12.55851562 -6.11523438 13.42578125 C-6.69208984 14.23144531 -7.26894531 15.03710938 -7.86328125 15.8671875 C-8.39219971 16.61081543 -8.92111816 17.35444336 -9.46606445 18.12060547 C-11 20 -11 20 -14 22 C-12.72100318 19.34308851 -11.33270507 16.87963053 -9.6875 14.43359375 C-9.25179687 13.78326172 -8.81609375 13.13292969 -8.3671875 12.46289062 C-7.91601562 11.79451172 -7.46484375 11.12613281 -7 10.4375 C-6.54882812 9.76525391 -6.09765625 9.09300781 -5.6328125 8.40039062 C-4.79402804 7.15089957 -3.95429365 5.90204528 -3.11328125 4.65405273 C-2.07111469 3.10565834 -1.03532029 1.55298043 0 0 Z " fill="#438B41" transform="translate(99,94)"/>
<path d="M0 0 C0.66 0.33 1.32 0.66 2 1 C1.57742724 2.4835001 1.13643678 3.96176424 0.6875 5.4375 C0.44386719 6.26121094 0.20023437 7.08492188 -0.05078125 7.93359375 C-0.36402344 8.61550781 -0.67726563 9.29742187 -1 10 C-1.99 10.33 -2.98 10.66 -4 11 C-4.35233161 5.62694301 -4.35233161 5.62694301 -4 3 C-2 1 -2 1 0 0 Z " fill="#D4D7D9" transform="translate(95,84)"/>
<path d="M0 0 C-1.37285156 0.72316406 -1.37285156 0.72316406 -2.7734375 1.4609375 C-3.9740595 2.09876794 -5.1745748 2.73679926 -6.375 3.375 C-6.97828125 3.69210938 -7.5815625 4.00921875 -8.203125 4.3359375 C-10.78550382 5.7132062 -12.91830581 6.91830581 -15 9 C-17.125 8.625 -17.125 8.625 -19 8 C-5.13815789 -1.7127193 -5.13815789 -1.7127193 0 0 Z M-21 9 C-19 10 -19 10 -19 10 Z " fill="#478D44" transform="translate(49,18)"/>
<path d="M0 0 C2.66666667 2.66666667 5.33333333 5.33333333 8 8 C7.67 8.66 7.34 9.32 7 10 C6.01 9.34 5.02 8.68 4 8 C3.01 8.33 2.02 8.66 1 9 C0.34 8.01 -0.32 7.02 -1 6 C-0.34 6 0.32 6 1 6 C0.67 4.02 0.34 2.04 0 0 Z " fill="#204B31" transform="translate(56,112)"/>
<path d="M0 0 C2.24606427 1.77444972 2.95081002 2.58352485 3.29296875 5.48046875 C3.25816406 6.37378906 3.22335938 7.26710938 3.1875 8.1875 C3.16042969 9.08855469 3.13335937 9.98960938 3.10546875 10.91796875 C3.07066406 11.60503906 3.03585938 12.29210938 3 13 C1.32889958 10.03821227 0.67317248 7.62928808 0.375 4.25 C0.30023438 3.45078125 0.22546875 2.6515625 0.1484375 1.828125 C0.09945312 1.22484375 0.05046875 0.6215625 0 0 Z " fill="#51A744" transform="translate(108,48)"/>
<path d="M0 0 C0.33 0.66 0.66 1.32 1 2 C1.66 2 2.32 2 3 2 C2.34 3.98 1.68 5.96 1 8 C0.01 8 -0.98 8 -2 8 C-1.34 5.36 -0.68 2.72 0 0 Z " fill="#428A3B" transform="translate(107,74)"/>
<path d="M0 0 C0.86325845 2.41712366 1.1132654 3.64990694 0.3125 6.125 C-1.2190732 8.31296172 -2.54765115 9.01906046 -5 10 C-3.66511872 6.40608886 -2.03977277 3.24509304 0 0 Z " fill="#0A251D" transform="translate(104,89)"/>
<path d="M0 0 C3.12270126 2.51830747 3.94523098 3.7261549 4.75 7.75 C4.8325 8.8225 4.915 9.895 5 11 C0 4.63636364 0 4.63636364 0 0 Z " fill="#4E9D43" transform="translate(37,81)"/>
<path d="M0 0 C0.66 0.99 1.32 1.98 2 3 C0.35 4.65 -1.3 6.3 -3 8 C-3.33 7.01 -3.66 6.02 -4 5 C-3.67 4.34 -3.34 3.68 -3 3 C-2.01 3 -1.02 3 0 3 C0 2.01 0 1.02 0 0 Z " fill="#07251E" transform="translate(112,89)"/>
</svg>
