<?xml version="1.0" encoding="UTF-8"?>
<svg version="1.1" viewBox="0 0 2000 2000" width="500" height="500" xmlns="http://www.w3.org/2000/svg">
<!--path transform="translate(0)" d="m0 0h2e3v2e3h-2e3z" fill="#FEFEFD"/-->
<path transform="translate(998,5)" d="m0 0h1v217l-9 6-27 15-17 10-49 28-26 15-5 3h-3v-55l1-3-7 3-17 10-23 13-1 1-1 111 26-15 24-14 25-14 24-14 25-14 17-10 42-24 6 2 24 14 390 225 28 16 24 14 52 30 28 16 24 14 130 75 24 14 15 9 1 1 1 343v84l-5-2-53-31-89-52-26-15-24-14-26-15-21-12-26-15-21-12-26-15-21-12-26-15-21-12-52-30-24-14-28-16-52-30-19-11-24-14-21-12-24-14-26-15-15-9-14-8-24-14-28-16-9-5-5 2-15 9-29 17-24 14-25 14-24 14-25 14-35 21h-2v111l10-5 17-10 18-10h2l1-42 23-13 17-10 29-17 26-15 24-14 15-9h2v197l-3 3-78 45-24 14-52 30-22 13-25 15-26 15-17 10-26 15-48 28-4 1v-421l23-13 22-13 72-42 52-30 23-13 24-14 49-28 26-15 23-13 5-3 4 1 28 16 26 15 24 14 234 135 21 12 26 15 56 32 29 17 26 15 22 13 26 15 24 14 26 15 21 12 14 9 3 1-1-113-20-12-21-12-71-41-24-14-26-15-28-16-26-15-24-14-52-30-24-14-14-8-24-14-23-13-24-14-52-30-24-14-26-15-21-12-52-30-24-14-8-4-10 5-24 14-52 30-28 16-24 14-52 30-21 12-26 15-24 14-52 30-5 3h-3v-410l1-18 4-5 28-17 25-14 24-14 23-13 24-14 26-15 22-13 24-14 26-15 22-13 29-17 26-15z" fill="#555"/>
<path transform="translate(1143,847)" d="m0 0 5 2 22 12 24 14 21 12 26 15 21 12 130 75 101 59 17 10 2 2v368l-3 3-25 14-48 28-26 15-28 16-24 14-14 8-24 14-56 32-17 10-52 30-28 16-15 9-16 9-24 14-28 16-26 15-17 10-28 16-52 30-17 10-24 14-15 9-1 3 5 2 25 14 17 10 26 15 21 12 6-1 24-14 25-14 20-12 28-16 52-30 24-14 26-15 28-16 17-10 24-14 23-13 24-14 23-13 15-9 26-15 28-16 19-11 17-10 28-16 24-14 25-14 13-8 28-16 24-14 19-11 1-60v-309l6 2 25 14 17 10 26 15 49 28 78 45 21 12 26 15 24 14 28 16 24 14 28 16 15 9 1 1v370l-6-2-13-8-26-15-14-8-19-11-21-12-24-14-28-16-34-20-3-3v-154l5 1 24 14 21 12 3 1-1-55-5-4-41-24-28-16-18-10-4-1v213l-21 12-24 14-28 16-26 15-24 14-28 16-24 14-23 13-24 14-52 30-28 16-26 15-17 10-21 12-26 15-28 16-17 10-24 14-23 13-24 14-25 14-13 8-26 15-56 32-17 10-24 14-25 14-17 10-26 15-5 4-5-1-14-8-27-16-18-10-24-14-21-12-24-14-56-32-26-15-13-8-11-6-28-16-24-14-25-14-24-14-20-12-11-6v-3l25-14 34-20 72-42 28-16 22-13 26-15 48-28 25-14 24-14 56-32 29-17 28-16 26-15 48-28 56-32 22-13 28-16 26-15 28-16 22-13 26-15 28-16 15-9 1-2v-210l-9-6-15-9-21-12-26-15-22-12-3-1 1 54 9 6 24 13 1 2v155l-4-1-11-6-16-10-11-6-52-30-17-10-52-30-7-4-1-2z" fill="#28B3EA"/>
<path transform="translate(621,492)" d="m0 0h3v760l1 100 13 8 28 16 26 15 24 14 49 28 24 14 16 9 1 1h5l15-9 28-16 29-17 19-11v-3l-18-10-19-11-8-4-5 1-23 13-6 4-4-1-26-15-24-14-23-13-21-12-26-15-12-7v-3l22-12 39-23 26-15 28-16 17-10 36-21 4 1 13 8 25 14 65 38 52 30 24 14 26 15 17 10 26 15 24 14 26 15 20 11-3 3-23 13-17 10-28 16-17 10-21 12-24 14-28 16-26 15-14 8-24 14-26 15-105 60-12 7-10-5-24-14-52-30-24-14-28-16-24-14-14-8-24-14-28-16-26-15-13-8-11-6-16-9-21-12-5-3-1-2v-654l-1-47-6 2-15 9-26 15-24 14-22 13-3 3-1 57v532l1 112 1 3 26 15 23 13 24 14 49 28 116 67 24 14 14 8 24 14 17 9v3l-26 15-28 16-15 9-16 9-24 14-25 14-17 10-24 14-52 30-15 9-26 15-28 16-17 10-24 14-23 13-5 3h-5l-13-8-48-28-28-16-10-6-14-8-24-14-26-15-17-10-26-15-11-7-11-6-16-9-17-10-28-16-13-8-15-9 3-3 17-9 20-12 49-28 24-14 25-14 24-14 21-12 8-1 13 8 25 14 24 14 23 13 24 14 23 13v2l-21 11-18 11-10 6 1 3 26 15 15 9 5 2 20-12 26-15 28-16 10-6 8-5v-3l-21-12-24-14-26-15-17-10-52-30-28-16-12-7-2-5 1-140v-717l13-8 20-12 56-32 52-30 24-14 23-13 24-14 25-14 17-10 28-16 24-14 49-28z" fill="#28B3EA"/>
<path transform="translate(678,743)" d="m0 0h2v29l1 10 1 20 1 5 1 302-2 19-2 7v9l2 4h2l2 5-7 4h-3v-406h2z" fill="#49484B"/>
<path transform="translate(1742,716)" d="m0 0h1v371l-2-1-1-41-1-35-2-47v-14l-1-45v-82l1-23v-17l1-13 1-3v-9l1-9 1-18z" fill="#49484B"/>
<path transform="translate(676,214)" d="m0 0h1v27h2l2 11v7l1 5-1 4 1 4-1 5v84l1 25v25l-2 24-1 19h-1l-1 11h-1z" fill="#49484B"/>
<path transform="translate(812,1074)" d="m0 0h6v2l-22 13-26 15-17 10-26 15-24 14-15 9h-2l1-3 18-11h2v-2h2l2-4 13-6h2v-2l6-5 7-3 8-4 5-4 7-4 8-4 13-6h3v-2l5-5 4-1 7-3 5-3 6-5z" fill="#485056"/>
<path transform="translate(812,541)" d="m0 0m-2 1 4 2-23 13-24 14-28 16-24 14-5 2 2-4 7-5h3l1-3 11-6 5-3h3v-2l7-5 11-5h2v-2l4-2h4v-2h3v-2h2v-2l2 1 1-1h3v-2h2v-2l5-1 5-4 6-1v-2h3v-2l7-3z" fill="#485158"/>
<path transform="translate(1507,733)" d="m0 0 5 1 17 10 13 8 11 6 16 9 20 12 6 4v2l-5-2-26-15-14-8-43-25z" fill="#48535A"/>
<path transform="translate(1432,689)" d="m0 0 5 2 15 9 11 6 14 8 12 7 15 9v3l-14-8-18-10-24-14-16-9z" fill="#495258"/>
<path transform="translate(1328,629)" d="m0 0 5 2 21 12 19 11 8 5v3l-14-8-18-10-20-12z" fill="#465861"/>
<path transform="translate(938 1e3)" d="m0 0m-1 1 3 2-21 12-24 14h-2l1-3 5-2v-2h3l2-5 2 1h3v-2l7-3 9-5h2v-2h3l1-4 3 1z" fill="#47565E"/>
<path transform="translate(1062,477)" d="m0 0h5l11 7 11 6 16 9 2 4-5-2-23-13-17-10z" fill="#48535A"/>
<path transform="translate(677,1139)" d="m0 0 2 1 2 5 1 3h2l2 5-7 4h-3v-16z" fill="#494C50"/>
<path transform="translate(1507,733)" d="m0 0 5 1 17 10 13 8 1 3-5-2-28-16-3-2z" fill="#475861"/>
<path transform="translate(866,1044)" d="m0 0 3 2-26 15-5 2 2-4 5-4 6-1v-2h3l2-5 2 2z" fill="#48555C"/>
<path transform="translate(1112,504)" d="m0 0 5 2 12 7 15 9v3l-14-8-18-10z" fill="#465862"/>
<path transform="translate(1292,608)" d="m0 0 5 2 12 7 15 9v3l-14-8-18-10z" fill="#465963"/>
<path transform="translate(1560,1021)" d="m0 0 5 2 15 9 7 4 1 3-5-2-25-14z" fill="#465963"/>
<path transform="translate(1608,1049)" d="m0 0 5 2 15 9 7 4 1 3-5-2-23-13z" fill="#465861"/>
<path transform="translate(1176,541)" d="m0 0 5 2 20 12v3l-14-8-13-7z" fill="#465962"/>
<path transform="translate(1655,1077)" d="m0 0 4 1 14 8 2 2 5 2 2 3h-3l-23-13z" fill="#465861"/>
<path transform="translate(911,1017)" d="m0 0h3v3l-19 11h-2l1-3 5-2v-2h3l2-5 2 1h3v-2z" fill="#48555D"/>
<path transform="translate(682,733)" d="m0 0 4 1-3 3-2 5-2 1-1 8h-2l-1-14z" fill="#495258"/>
<path transform="translate(883,1034)" d="m0 0h5l-3 3-14 8h-2l2-5 5-5h6z" fill="#475760"/>
<path transform="translate(812,1074)" d="m0 0h6v2l-15 9h-2l2-4 7-6z" fill="#47565E"/>
<path transform="translate(944,465)" d="m0 0m-2 1h2v3l-21 12h-2l1-3 10-6h2v-2l7-3z" fill="#465B66"/>
<path transform="translate(1130,773)" d="m0 0 15 8 9 6v2l-5-2-21-12z" fill="#475861"/>
<path transform="translate(1496,985)" d="m0 0 4 1 10 6 11 6 1 3-5-2-21-12z" fill="#475962"/>
<path transform="translate(948,248)" d="m0 0m-1 1 1 3-21 12h-2l1-3 17-10z" fill="#465D68"/>
<path transform="translate(1403,672)" d="m0 0 10 5 9 6v2l-5-2-16-9z" fill="#455C67"/>
<path transform="translate(1223,568)" d="m0 0 10 5 9 6v2l-5-2-16-9z" fill="#455C67"/>
<path transform="translate(1244,580)" d="m0 0 11 6 8 5v2l-6-2-15-9z" fill="#465A65"/>
<path transform="translate(958,990)" d="m0 0h3v3l-19 11h-2l1-3 12-7h2v-2h3z" fill="#465B65"/>
<path transform="translate(1062,477)" d="m0 0h5l11 7 5 3v2l-6-2-15-9z" fill="#465B65"/>
<path transform="translate(1531 1e3)" d="m0 0 5 1 14 9 1 2-5-1-15-9z" fill="#47575F"/>
<path transform="translate(1486,720)" d="m0 0 12 6 7 5-2 2-19-11z" fill="#465862"/>
<path transform="translate(866,510)" d="m0 0 3 2-17 10h-2l2-4 3-2h3l1-3 4-1z" fill="#49535A"/>
<path transform="translate(1576,772)" d="m0 0 5 2 9 6 5 3v2l-5-2-14-8z" fill="#475760"/>
<path transform="translate(1384,661)" d="m0 0 10 5 6 4v3l-14-8-4-3z" fill="#465963"/>
<path transform="translate(1204,557)" d="m0 0 10 5 6 4v3l-14-8-4-3z" fill="#465963"/>
<path transform="translate(812,541)" d="m0 0m-2 1 4 2-14 8h-2l1-4h3v-2l7-3z" fill="#465B65"/>
<path transform="translate(1159,531)" d="m0 0 12 6 3 3-1 2-16-9z" fill="#47575F"/>
<path transform="translate(840,525)" d="m0 0m-3 1h3v3l-12 7h-2l2-4h2v-2l5-2z" fill="#465963"/>
<path transform="translate(968,237)" d="m0 0h2l-1 3-14 8h-2l2-4 8-4z" fill="#475B65"/>
<path transform="translate(1263,591)" d="m0 0 12 6 3 4h-3l-12-7z" fill="#485259"/>
<path transform="translate(797,550)" d="m0 0 1 3-10 6h-2l2-4 5-4z" fill="#48565E"/>
<path transform="translate(1145,523)" d="m0 0 12 6 2 3-5-1-10-6z" fill="#4A5055"/>
<path transform="translate(828,1063)" d="m0 0 2 1h1 5l-3 3-5 3-4-1z" fill="#47565E"/>
<path transform="translate(1735,700)" d="m0 0 5 1 4 3v5l-1-2-4 1-2-5z" fill="#494C50"/>
<path transform="translate(1292,608)" d="m0 0 5 2 8 5 1 2-5-1-9-5z" fill="#48535A"/>
<path transform="translate(1112,504)" d="m0 0 5 2 8 5 1 2-5-1-9-5z" fill="#485359"/>
<path transform="translate(998,5)" d="m0 0h1v7h-6l-2-1 1-3z" fill="#49535A"/>
<path transform="translate(1507,733)" d="m0 0 5 1 9 6-4 1-10-6z" fill="#48535A"/>
<path transform="translate(864,291)" d="m0 0 4 2v2l4-1-4 4-5 1z" fill="#455862"/>
<path transform="translate(1232,833)" d="m0 0 4 1 10 6v2l-5-2-9-5z" fill="#465D69"/>
<path transform="translate(1328,629)" d="m0 0 5 2 8 5-4 1-9-6z" fill="#48545B"/>
<path transform="translate(1655,1077)" d="m0 0 4 1 8 5v2l-6-2-6-4z" fill="#465B66"/>
<path transform="translate(1543,753)" d="m0 0 5 2 7 5v2l-5-2-7-4z" fill="#47545B"/>
<path transform="translate(1020,451)" d="m0 0 8 4 6 4v2l-5-2-9-5z" fill="#465B66"/>
<path transform="translate(698,1142)" d="m0 0m-1 1 1 3-10 6h-2l1-3z" fill="#465C66"/>
<path transform="translate(866,1044)" d="m0 0 3 2-10 6h-2l2-4z" fill="#485962"/>
<path transform="translate(1130,773)" d="m0 0 11 6 1 3-5-2-9-5z" fill="#485962"/>
<path transform="translate(1608,1049)" d="m0 0 5 2 6 4v2l-6-2-5-3z" fill="#465C67"/>
<path transform="translate(1476,973)" d="m0 0 5 2 8 5v2l-5-2-7-4z" fill="#475862"/>
<path transform="translate(1080,744)" d="m0 0 11 6 1 3-5-2-7-4z" fill="#465C67"/>
<path transform="translate(1432,689)" d="m0 0 5 2 6 4v2l-6-2-5-3z" fill="#465C67"/>
<path transform="translate(901,754)" d="m0 0m-1 1 1 3-9 5h-2l2-4z" fill="#465D68"/>
<path transform="translate(969,715)" d="m0 0 1 3-10 6h-2l1-3z" fill="#465D68"/>
<path transform="translate(922,1012)" d="m0 0 4 1-10 6h-2l2-4z" fill="#485B64"/>
<path transform="translate(880,766)" d="m0 0m-1 1 1 3-9 5-3-1 7-5z" fill="#465963"/>
<path transform="translate(928,739)" d="m0 0 1 3-9 5h-2l2-4z" fill="#455D69"/>
<path transform="translate(892,495)" d="m0 0 3 2-10 6h-2l1-3h2v-2z" fill="#485B64"/>
</svg>
