<?xml version="1.0" encoding="UTF-8"?>
<svg xmlns="http://www.w3.org/2000/svg" xmlns:xlink="http://www.w3.org/1999/xlink" width="240px" height="240px" viewBox="0 0 240 240" version="1.1">
<g id="surface1">
<path style=" stroke:none;fill-rule:evenodd;fill:rgb(98.431373%,98.039216%,95.686275%);fill-opacity:1;" d="M -0.117188 -0.117188 C 79.882812 -0.117188 159.882812 -0.117188 239.882812 -0.117188 C 239.882812 79.882812 239.882812 159.882812 239.882812 239.882812 C 159.882812 239.882812 79.882812 239.882812 -0.117188 239.882812 C -0.117188 159.882812 -0.117188 79.882812 -0.117188 -0.117188 Z M -0.117188 -0.117188 "/>
<path style=" stroke:none;fill-rule:evenodd;fill:rgb(4.705882%,16.078432%,14.901961%);fill-opacity:1;" d="M 69.726562 66.210938 C 71.578125 66.960938 73.53125 67.863281 75.585938 68.90625 C 77.113281 69.925781 78.597656 70.980469 80.039062 72.070312 C 80.804688 72.445312 81.429688 72.992188 81.914062 73.710938 C 81.671875 73.804688 81.632812 73.960938 81.796875 74.179688 C 85.082031 77.625 87.113281 81.6875 87.890625 86.367188 C 87.8125 86.132812 87.734375 85.898438 87.65625 85.664062 C 87.320312 85.832031 86.96875 85.871094 86.601562 85.78125 C 86.878906 86.019531 87.113281 86.292969 87.304688 86.601562 C 87.222656 86.882812 87.105469 86.882812 86.953125 86.601562 C 86.867188 87.050781 86.671875 87.441406 86.367188 87.773438 C 85.847656 87.636719 85.652344 87.324219 85.78125 86.835938 C 85.910156 87.328125 86.027344 87.367188 86.132812 86.953125 C 86.039062 86.730469 85.882812 86.574219 85.664062 86.484375 C 85.945312 86.332031 85.945312 86.214844 85.664062 86.132812 C 85.488281 86.339844 85.371094 86.574219 85.3125 86.835938 C 85.003906 86.371094 84.574219 86.097656 84.023438 86.015625 C 84.4375 85.519531 84.789062 85.558594 85.078125 86.132812 C 85.148438 85.679688 85.34375 85.289062 85.664062 84.960938 C 85.347656 84.457031 84.878906 84.144531 84.257812 84.023438 C 84.4375 83.925781 84.671875 83.886719 84.960938 83.90625 C 84.84375 83.636719 84.648438 83.441406 84.375 83.320312 C 84.09375 83.675781 83.742188 83.949219 83.320312 84.140625 C 83.476562 84.21875 83.632812 84.296875 83.789062 84.375 C 82.917969 84.429688 82.761719 84.703125 83.320312 85.195312 C 83.109375 85.234375 82.875 85.3125 82.617188 85.429688 C 82.503906 85.660156 82.347656 85.855469 82.148438 86.015625 C 82.34375 86.40625 82.226562 86.445312 81.796875 86.132812 C 81.726562 86.320312 81.609375 86.476562 81.445312 86.601562 C 81.226562 86.335938 81.03125 86.335938 80.859375 86.601562 C 80.160156 83.878906 78.910156 81.457031 77.109375 79.335938 C 77.015625 79.390625 76.976562 79.46875 76.992188 79.570312 C 71.023438 73.039062 63.835938 71.28125 55.429688 74.296875 C 50.410156 76.621094 46.894531 80.332031 44.882812 85.429688 C 44.558594 85.488281 44.363281 85.800781 44.296875 86.367188 C 43.066406 91.640625 43.769531 96.640625 46.40625 101.367188 C 46.566406 101.65625 46.683594 101.65625 46.757812 101.367188 C 52.027344 108.929688 57.300781 116.507812 62.578125 124.101562 C 67.792969 116.71875 72.949219 109.296875 78.046875 101.835938 C 79.472656 99.394531 80.449219 96.816406 80.976562 94.101562 C 80.941406 94.347656 80.980469 94.582031 81.09375 94.804688 C 81.484375 92.464844 81.5625 90.121094 81.328125 87.773438 C 81.40625 87.851562 81.484375 87.929688 81.5625 88.007812 C 81.753906 87.28125 82.222656 86.8125 82.96875 86.601562 C 83.34375 87.203125 83.695312 87.789062 84.023438 88.359375 C 83.816406 88.78125 83.660156 89.210938 83.554688 89.648438 C 83.789062 89.648438 84.023438 89.648438 84.257812 89.648438 C 84.304688 90.089844 84.148438 90.441406 83.789062 90.703125 C 84.253906 90.84375 84.332031 91.078125 84.023438 91.40625 C 84.429688 91.839844 84.703125 91.800781 84.84375 91.289062 C 85.253906 91.515625 85.371094 91.789062 85.195312 92.109375 C 85.683594 92.292969 86.113281 92.566406 86.484375 92.929688 C 86.917969 92.40625 86.800781 91.976562 86.132812 91.640625 C 86.347656 91.03125 86.738281 90.953125 87.304688 91.40625 C 86.71875 91.699219 86.757812 91.972656 87.421875 92.226562 C 87.589844 91.882812 87.863281 91.726562 88.242188 91.757812 C 88.558594 88.957031 88.519531 90.363281 88.125 95.976562 C 87.75 98.105469 87.085938 100.136719 86.132812 102.070312 C 86.160156 102.210938 86.238281 102.289062 86.367188 102.304688 C 84.527344 105.59375 82.535156 108.796875 80.390625 111.914062 C 75.226562 119.144531 70.03125 126.332031 64.804688 133.476562 C 64.402344 133.132812 63.894531 132.742188 63.28125 132.304688 C 63.226562 133.300781 62.875 133.457031 62.226562 132.773438 C 62.621094 132.457031 62.738281 132.066406 62.578125 131.601562 C 62.214844 132.492188 61.902344 132.492188 61.640625 131.601562 C 61.425781 131.871094 61.230469 131.832031 61.054688 131.484375 C 61.238281 131.234375 61.199219 130.960938 60.9375 130.664062 C 60.742188 131.015625 60.46875 131.132812 60.117188 131.015625 C 60.273438 130.703125 60.507812 130.46875 60.820312 130.3125 C 60.417969 130.066406 59.988281 129.871094 59.53125 129.726562 C 59.414062 129.84375 59.296875 129.960938 59.179688 130.078125 C 59.777344 130.386719 59.933594 130.816406 59.648438 131.367188 C 59.855469 131.542969 60.089844 131.660156 60.351562 131.71875 C 60.035156 131.898438 59.839844 132.171875 59.765625 132.539062 C 58.671875 130.976562 57.578125 129.414062 56.484375 127.851562 C 56.324219 127.5625 56.207031 127.5625 56.132812 127.851562 C 50.734375 120.457031 45.460938 112.957031 40.3125 105.351562 C 38.363281 102.078125 37.074219 98.5625 36.445312 94.804688 C 35.902344 84.554688 39.652344 76.273438 47.695312 69.960938 C 52.835938 66.175781 58.617188 64.574219 65.039062 65.15625 C 66.660156 65.378906 68.222656 65.730469 69.726562 66.210938 Z M 69.726562 66.210938 "/>
<path style=" stroke:none;fill-rule:evenodd;fill:rgb(3.921569%,7.450981%,4.705882%);fill-opacity:1;" d="M 69.726562 66.210938 C 73.742188 67.203125 77.179688 69.15625 80.039062 72.070312 C 78.597656 70.980469 77.113281 69.925781 75.585938 68.90625 C 73.53125 67.863281 71.578125 66.960938 69.726562 66.210938 Z M 69.726562 66.210938 "/>
<path style=" stroke:none;fill-rule:evenodd;fill:rgb(98.039216%,98.039216%,95.686275%);fill-opacity:1;" d="M 76.992188 79.570312 C 80.289062 83.84375 81.617188 88.6875 80.976562 94.101562 C 80.449219 96.816406 79.472656 99.394531 78.046875 101.835938 C 72.949219 109.296875 67.792969 116.71875 62.578125 124.101562 C 57.300781 116.507812 52.027344 108.929688 46.757812 101.367188 C 43.871094 96.320312 43.246094 91.007812 44.882812 85.429688 C 46.894531 80.332031 50.410156 76.621094 55.429688 74.296875 C 63.835938 71.28125 71.023438 73.039062 76.992188 79.570312 Z M 76.992188 79.570312 "/>
<path style=" stroke:none;fill-rule:evenodd;fill:rgb(5.098039%,9.019608%,5.882353%);fill-opacity:1;" d="M 47.695312 69.960938 C 39.652344 76.273438 35.902344 84.554688 36.445312 94.804688 C 35.511719 84.917969 38.871094 76.832031 46.523438 70.546875 C 46.894531 70.289062 47.285156 70.09375 47.695312 69.960938 Z M 47.695312 69.960938 "/>
<path style=" stroke:none;fill-rule:evenodd;fill:rgb(4.705882%,15.686275%,14.901961%);fill-opacity:1;" d="M 67.617188 98.789062 C 67.601562 98.660156 67.523438 98.582031 67.382812 98.554688 C 62.34375 101.261719 58.242188 100.246094 55.078125 95.507812 C 54.453125 93.65625 54.101562 91.78125 54.023438 89.882812 C 55.03125 85.515625 57.765625 83.171875 62.226562 82.851562 C 67.664062 83.210938 70.632812 86.101562 71.132812 91.523438 C 71.148438 94.539062 69.976562 96.960938 67.617188 98.789062 Z M 67.617188 98.789062 "/>
<path style=" stroke:none;fill-rule:evenodd;fill:rgb(5.490196%,14.117648%,12.941177%);fill-opacity:1;" d="M 81.914062 73.710938 C 89.488281 82.277344 90.972656 91.808594 86.367188 102.304688 C 86.238281 102.289062 86.160156 102.210938 86.132812 102.070312 C 87.085938 100.136719 87.75 98.105469 88.125 95.976562 C 88.519531 90.363281 88.558594 88.957031 88.242188 91.757812 C 87.863281 91.726562 87.589844 91.882812 87.421875 92.226562 C 86.757812 91.972656 86.71875 91.699219 87.304688 91.40625 C 86.738281 90.953125 86.347656 91.03125 86.132812 91.640625 C 86.800781 91.976562 86.917969 92.40625 86.484375 92.929688 C 86.113281 92.566406 85.683594 92.292969 85.195312 92.109375 C 85.371094 91.789062 85.253906 91.515625 84.84375 91.289062 C 84.703125 91.800781 84.429688 91.839844 84.023438 91.40625 C 84.332031 91.078125 84.253906 90.84375 83.789062 90.703125 C 84.148438 90.441406 84.304688 90.089844 84.257812 89.648438 C 84.023438 89.648438 83.789062 89.648438 83.554688 89.648438 C 83.660156 89.210938 83.816406 88.78125 84.023438 88.359375 C 83.695312 87.789062 83.34375 87.203125 82.96875 86.601562 C 82.222656 86.8125 81.753906 87.28125 81.5625 88.007812 C 81.484375 87.929688 81.40625 87.851562 81.328125 87.773438 C 81.5625 90.121094 81.484375 92.464844 81.09375 94.804688 C 80.980469 94.582031 80.941406 94.347656 80.976562 94.101562 C 81.617188 88.6875 80.289062 83.84375 76.992188 79.570312 C 76.976562 79.46875 77.015625 79.390625 77.109375 79.335938 C 78.910156 81.457031 80.160156 83.878906 80.859375 86.601562 C 81.03125 86.335938 81.226562 86.335938 81.445312 86.601562 C 81.609375 86.476562 81.726562 86.320312 81.796875 86.132812 C 82.226562 86.445312 82.34375 86.40625 82.148438 86.015625 C 82.347656 85.855469 82.503906 85.660156 82.617188 85.429688 C 82.875 85.3125 83.109375 85.234375 83.320312 85.195312 C 82.761719 84.703125 82.917969 84.429688 83.789062 84.375 C 83.632812 84.296875 83.476562 84.21875 83.320312 84.140625 C 83.742188 83.949219 84.09375 83.675781 84.375 83.320312 C 84.648438 83.441406 84.84375 83.636719 84.960938 83.90625 C 84.671875 83.886719 84.4375 83.925781 84.257812 84.023438 C 84.878906 84.144531 85.347656 84.457031 85.664062 84.960938 C 85.34375 85.289062 85.148438 85.679688 85.078125 86.132812 C 84.789062 85.558594 84.4375 85.519531 84.023438 86.015625 C 84.574219 86.097656 85.003906 86.371094 85.3125 86.835938 C 85.371094 86.574219 85.488281 86.339844 85.664062 86.132812 C 85.945312 86.214844 85.945312 86.332031 85.664062 86.484375 C 85.882812 86.574219 86.039062 86.730469 86.132812 86.953125 C 86.027344 87.367188 85.910156 87.328125 85.78125 86.835938 C 85.652344 87.324219 85.847656 87.636719 86.367188 87.773438 C 86.671875 87.441406 86.867188 87.050781 86.953125 86.601562 C 87.105469 86.882812 87.222656 86.882812 87.304688 86.601562 C 87.113281 86.292969 86.878906 86.019531 86.601562 85.78125 C 86.96875 85.871094 87.320312 85.832031 87.65625 85.664062 C 87.734375 85.898438 87.8125 86.132812 87.890625 86.367188 C 87.113281 81.6875 85.082031 77.625 81.796875 74.179688 C 81.632812 73.960938 81.671875 73.804688 81.914062 73.710938 Z M 81.914062 73.710938 "/>
<path style=" stroke:none;fill-rule:evenodd;fill:rgb(1.960784%,5.098039%,2.745098%);fill-opacity:1;" d="M 44.882812 85.429688 C 43.246094 91.007812 43.871094 96.320312 46.757812 101.367188 C 46.683594 101.65625 46.566406 101.65625 46.40625 101.367188 C 43.769531 96.640625 43.066406 91.640625 44.296875 86.367188 C 44.363281 85.800781 44.558594 85.488281 44.882812 85.429688 Z M 44.882812 85.429688 "/>
<path style=" stroke:none;fill-rule:evenodd;fill:rgb(5.882353%,14.509805%,12.156863%);fill-opacity:1;" d="M 156.445312 89.648438 C 158.414062 89.570312 160.367188 89.6875 162.304688 90 C 164.691406 90.589844 166.097656 92.074219 166.523438 94.453125 C 166.492188 94.917969 166.335938 95.308594 166.054688 95.625 C 165.351562 95.78125 164.648438 95.78125 163.945312 95.625 C 163.105469 95.175781 162.324219 94.628906 161.601562 93.984375 C 159.953125 93.523438 158.3125 93.523438 156.679688 93.984375 C 155.117188 95.3125 155.117188 96.640625 156.679688 97.96875 C 158.910156 98.78125 161.175781 99.484375 163.476562 100.078125 C 167.679688 102.082031 168.65625 105.167969 166.40625 109.335938 C 163.777344 111.957031 160.613281 112.933594 156.914062 112.265625 C 152.734375 111.449219 150.78125 108.949219 151.054688 104.765625 C 151.914062 104.609375 152.773438 104.609375 153.632812 104.765625 C 154.085938 105.210938 154.632812 105.40625 155.273438 105.351562 C 155.292969 107.789062 156.542969 108.960938 159.023438 108.867188 C 161.257812 108.886719 162.664062 107.832031 163.242188 105.703125 C 163.117188 104.71875 162.570312 104.09375 161.601562 103.828125 C 159.050781 103.113281 156.550781 102.253906 154.101562 101.25 C 151.308594 99.273438 150.488281 96.65625 151.640625 93.398438 C 152.816406 91.554688 154.417969 90.304688 156.445312 89.648438 Z M 156.445312 89.648438 "/>
<path style=" stroke:none;fill-rule:evenodd;fill:rgb(5.490196%,14.509805%,12.156863%);fill-opacity:1;" d="M 179.179688 89.648438 C 185.703125 89.261719 189.960938 92.152344 191.953125 98.320312 C 192.582031 107.765625 188.167969 112.417969 178.710938 112.265625 C 174.035156 111.105469 171.183594 108.175781 170.15625 103.476562 C 169.179688 96.199219 172.1875 91.589844 179.179688 89.648438 Z M 179.179688 89.648438 "/>
<path style=" stroke:none;fill-rule:evenodd;fill:rgb(5.098039%,14.901961%,12.54902%);fill-opacity:1;" d="M 199.570312 90.351562 C 202.707031 95.175781 205.832031 99.863281 208.945312 104.414062 C 209.179688 99.84375 209.257812 95.234375 209.179688 90.585938 C 210.429688 90.585938 211.679688 90.585938 212.929688 90.585938 C 212.929688 97.539062 212.929688 104.492188 212.929688 111.445312 C 211.480469 111.371094 210.074219 111.449219 208.710938 111.679688 C 205.707031 107.394531 202.816406 103.019531 200.039062 98.554688 C 199.792969 97.984375 199.636719 97.984375 199.570312 98.554688 C 199.335938 102.8125 199.257812 107.109375 199.335938 111.445312 C 198.164062 111.445312 196.992188 111.445312 195.820312 111.445312 C 195.820312 104.492188 195.820312 97.539062 195.820312 90.585938 C 197.054688 90.515625 198.265625 90.59375 199.453125 90.820312 C 199.5625 90.679688 199.601562 90.523438 199.570312 90.351562 Z M 199.570312 90.351562 "/>
<path style=" stroke:none;fill-rule:evenodd;fill:rgb(5.882353%,14.901961%,12.54902%);fill-opacity:1;" d="M 122.226562 111.210938 C 120.921875 111.667969 119.515625 111.824219 118.007812 111.679688 C 117.410156 110.246094 116.785156 108.800781 116.132812 107.34375 C 113.320312 107.226562 110.507812 107.1875 107.695312 107.226562 C 107.265625 108.789062 106.71875 110.3125 106.054688 111.796875 C 104.652344 111.914062 103.246094 111.953125 101.835938 111.914062 C 104.214844 104.734375 106.792969 97.625 109.570312 90.585938 C 111.28125 90.351562 113 90.273438 114.726562 90.351562 C 117.296875 97.289062 119.796875 104.242188 122.226562 111.210938 Z M 122.226562 111.210938 "/>
<path style=" stroke:none;fill-rule:evenodd;fill:rgb(5.098039%,14.901961%,12.941177%);fill-opacity:1;" d="M 130.195312 90.351562 C 132.359375 93.660156 134.351562 97.097656 136.171875 100.664062 C 137.96875 97.460938 139.765625 94.257812 141.5625 91.054688 C 141.742188 90.6875 142.015625 90.453125 142.382812 90.351562 C 143.824219 90.582031 145.308594 90.660156 146.835938 90.585938 C 146.835938 97.539062 146.835938 104.492188 146.835938 111.445312 C 145.585938 111.445312 144.335938 111.445312 143.085938 111.445312 C 143.164062 106.71875 143.085938 102.03125 142.851562 97.382812 C 142.71875 96.875 142.5625 96.953125 142.382812 97.617188 C 140.703125 100.347656 139.140625 103.160156 137.695312 106.054688 C 136.757812 106.367188 135.820312 106.367188 134.882812 106.054688 C 133.160156 103.078125 131.441406 100.109375 129.726562 97.148438 C 129.648438 96.914062 129.492188 96.757812 129.257812 96.679688 C 129.023438 101.5625 128.945312 106.484375 129.023438 111.445312 C 127.851562 111.445312 126.679688 111.445312 125.507812 111.445312 C 125.507812 104.492188 125.507812 97.539062 125.507812 90.585938 C 127.113281 90.660156 128.675781 90.582031 130.195312 90.351562 Z M 130.195312 90.351562 "/>
<path style=" stroke:none;fill-rule:evenodd;fill:rgb(97.254902%,97.647059%,94.901961%);fill-opacity:1;" d="M 179.648438 93.867188 C 185.316406 93.871094 187.933594 96.683594 187.5 102.304688 C 186.46875 106.671875 183.695312 108.507812 179.179688 107.8125 C 175.820312 106.753906 174.257812 104.449219 174.492188 100.898438 C 174.339844 98.664062 175.121094 96.828125 176.835938 95.390625 C 177.757812 94.8125 178.695312 94.304688 179.648438 93.867188 Z M 179.648438 93.867188 "/>
<path style=" stroke:none;fill-rule:evenodd;fill:rgb(7.058824%,25.098041%,8.627451%);fill-opacity:1;" d="M 195.585938 90.351562 C 195.585938 97.460938 195.585938 104.570312 195.585938 111.679688 C 196.914062 111.679688 198.242188 111.679688 199.570312 111.679688 C 199.570312 111.757812 199.570312 111.835938 199.570312 111.914062 C 198.164062 111.914062 196.757812 111.914062 195.351562 111.914062 C 195.273438 104.6875 195.351562 97.5 195.585938 90.351562 Z M 195.585938 90.351562 "/>
<path style=" stroke:none;fill-rule:evenodd;fill:rgb(0.784314%,5.098039%,0.784314%);fill-opacity:1;" d="M 208.710938 111.679688 C 210.074219 111.449219 211.480469 111.371094 212.929688 111.445312 C 212.929688 104.492188 212.929688 97.539062 212.929688 90.585938 C 211.679688 90.585938 210.429688 90.585938 209.179688 90.585938 C 209.257812 95.234375 209.179688 99.84375 208.945312 104.414062 C 208.945312 99.726562 208.945312 95.039062 208.945312 90.351562 C 210.351562 90.351562 211.757812 90.351562 213.164062 90.351562 C 213.164062 97.539062 213.164062 104.726562 213.164062 111.914062 C 211.636719 111.988281 210.152344 111.910156 208.710938 111.679688 Z M 208.710938 111.679688 "/>
<path style=" stroke:none;fill-rule:evenodd;fill:rgb(92.941177%,94.117647%,90.980393%);fill-opacity:1;" d="M 111.914062 95.976562 C 113.167969 98.332031 114.105469 100.832031 114.726562 103.476562 C 112.921875 103.554688 111.125 103.476562 109.335938 103.242188 C 110.242188 100.835938 111.101562 98.414062 111.914062 95.976562 Z M 111.914062 95.976562 "/>
<path style=" stroke:none;fill-rule:evenodd;fill:rgb(7.450981%,10.588235%,7.450981%);fill-opacity:1;" d="M 54.023438 89.882812 C 54.101562 91.78125 54.453125 93.65625 55.078125 95.507812 C 58.242188 100.246094 62.34375 101.261719 67.382812 98.554688 C 67.523438 98.582031 67.601562 98.660156 67.617188 98.789062 C 63.09375 101.460938 59.070312 100.835938 55.546875 96.914062 C 54.140625 94.726562 53.632812 92.382812 54.023438 89.882812 Z M 54.023438 89.882812 "/>
<path style=" stroke:none;fill-rule:evenodd;fill:rgb(0%,2.745098%,1.176471%);fill-opacity:1;" d="M 125.273438 90.351562 C 126.914062 90.351562 128.554688 90.351562 130.195312 90.351562 C 128.675781 90.582031 127.113281 90.660156 125.507812 90.585938 C 125.507812 97.539062 125.507812 104.492188 125.507812 111.445312 C 126.679688 111.445312 127.851562 111.445312 129.023438 111.445312 C 128.945312 106.484375 129.023438 101.5625 129.257812 96.679688 C 129.257812 101.679688 129.257812 106.679688 129.257812 111.679688 C 127.929688 111.679688 126.601562 111.679688 125.273438 111.679688 C 125.273438 104.570312 125.273438 97.460938 125.273438 90.351562 Z M 125.273438 90.351562 "/>
<path style=" stroke:none;fill-rule:evenodd;fill:rgb(2.352941%,5.490196%,2.352941%);fill-opacity:1;" d="M 142.382812 90.351562 C 143.945312 90.351562 145.507812 90.351562 147.070312 90.351562 C 147.070312 97.539062 147.070312 104.726562 147.070312 111.914062 C 145.621094 111.988281 144.214844 111.910156 142.851562 111.679688 C 142.851562 106.914062 142.851562 102.148438 142.851562 97.382812 C 143.085938 102.03125 143.164062 106.71875 143.085938 111.445312 C 144.335938 111.445312 145.585938 111.445312 146.835938 111.445312 C 146.835938 104.492188 146.835938 97.539062 146.835938 90.585938 C 145.308594 90.660156 143.824219 90.582031 142.382812 90.351562 Z M 142.382812 90.351562 "/>
<path style=" stroke:none;fill-rule:evenodd;fill:rgb(29.803923%,47.450981%,30.19608%);fill-opacity:1;" d="M 125.273438 90.351562 C 125.273438 97.460938 125.273438 104.570312 125.273438 111.679688 C 126.601562 111.679688 127.929688 111.679688 129.257812 111.679688 C 129.335938 111.679688 129.414062 111.679688 129.492188 111.679688 C 128.050781 111.910156 126.566406 111.988281 125.039062 111.914062 C 124.960938 104.6875 125.039062 97.5 125.273438 90.351562 Z M 125.273438 90.351562 "/>
<path style=" stroke:none;fill-rule:evenodd;fill:rgb(41.568628%,54.11765%,40.000001%);fill-opacity:1;" d="M 200.039062 98.554688 C 199.882812 103.007812 199.726562 107.460938 199.570312 111.914062 C 199.570312 111.835938 199.570312 111.757812 199.570312 111.679688 C 199.570312 107.304688 199.570312 102.929688 199.570312 98.554688 C 199.636719 97.984375 199.792969 97.984375 200.039062 98.554688 Z M 200.039062 98.554688 "/>
<path style=" stroke:none;fill-rule:evenodd;fill:rgb(58.823532%,72.549021%,58.431375%);fill-opacity:1;" d="M 142.851562 97.382812 C 142.851562 102.148438 142.851562 106.914062 142.851562 111.679688 C 142.695312 106.992188 142.539062 102.304688 142.382812 97.617188 C 142.5625 96.953125 142.71875 96.875 142.851562 97.382812 Z M 142.851562 97.382812 "/>
<path style=" stroke:none;fill-rule:evenodd;fill:rgb(6.666667%,23.529412%,7.843138%);fill-opacity:1;" d="M 129.257812 96.679688 C 129.492188 96.757812 129.648438 96.914062 129.726562 97.148438 C 129.492188 101.953125 129.414062 106.796875 129.492188 111.679688 C 129.414062 111.679688 129.335938 111.679688 129.257812 111.679688 C 129.257812 106.679688 129.257812 101.679688 129.257812 96.679688 Z M 129.257812 96.679688 "/>
<path style=" stroke:none;fill-rule:evenodd;fill:rgb(0%,4.313726%,2.745098%);fill-opacity:1;" d="M 195.585938 90.351562 C 196.914062 90.351562 198.242188 90.351562 199.570312 90.351562 C 199.601562 90.523438 199.5625 90.679688 199.453125 90.820312 C 198.265625 90.59375 197.054688 90.515625 195.820312 90.585938 C 195.820312 97.539062 195.820312 104.492188 195.820312 111.445312 C 196.992188 111.445312 198.164062 111.445312 199.335938 111.445312 C 199.257812 107.109375 199.335938 102.8125 199.570312 98.554688 C 199.570312 102.929688 199.570312 107.304688 199.570312 111.679688 C 198.242188 111.679688 196.914062 111.679688 195.585938 111.679688 C 195.585938 104.570312 195.585938 97.460938 195.585938 90.351562 Z M 195.585938 90.351562 "/>
<path style=" stroke:none;fill-rule:evenodd;fill:rgb(33.725491%,50.588238%,32.549021%);fill-opacity:1;" d="M 122.226562 111.210938 C 122.4375 111.378906 122.515625 111.613281 122.460938 111.914062 C 120.933594 111.988281 119.449219 111.910156 118.007812 111.679688 C 119.515625 111.824219 120.921875 111.667969 122.226562 111.210938 Z M 122.226562 111.210938 "/>
<path style=" stroke:none;fill-rule:evenodd;fill:rgb(72.549021%,80.784315%,67.058825%);fill-opacity:1;" d="M 172.851562 121.757812 C 172.851562 121.289062 172.851562 120.820312 172.851562 120.351562 C 171.992188 120.351562 171.132812 120.351562 170.273438 120.351562 C 170.832031 119.941406 171.222656 119.394531 171.445312 118.710938 C 171.898438 119.53125 172.601562 119.84375 173.554688 119.648438 C 173.59375 120.464844 173.359375 121.167969 172.851562 121.757812 Z M 172.851562 121.757812 "/>
<path style=" stroke:none;fill-rule:evenodd;fill:rgb(6.27451%,15.686275%,12.54902%);fill-opacity:1;" d="M 109.570312 130.664062 C 109.375 128.125 109.257812 125.546875 109.21875 122.929688 C 109.0625 126.679688 109.0625 130.429688 109.21875 134.179688 C 109.261719 133.664062 109.378906 133.195312 109.570312 132.773438 C 109.621094 134.675781 108.761719 135.300781 106.992188 134.648438 C 106.953125 131.914062 106.992188 129.179688 107.109375 126.445312 C 107.1875 126.523438 107.265625 126.601562 107.34375 126.679688 C 107.382812 126.25 107.421875 125.820312 107.460938 125.390625 C 107.449219 124.851562 107.292969 124.421875 106.992188 124.101562 C 107.042969 123.714844 106.964844 123.363281 106.757812 123.046875 C 105.199219 122.929688 103.632812 122.890625 102.070312 122.929688 C 102.070312 122.070312 102.070312 121.210938 102.070312 120.351562 C 105.820312 120.351562 109.570312 120.351562 113.320312 120.351562 C 113.386719 121.195312 113.308594 122.015625 113.085938 122.8125 C 111.917969 122.929688 110.746094 122.96875 109.570312 122.929688 C 109.570312 125.507812 109.570312 128.085938 109.570312 130.664062 Z M 109.570312 130.664062 "/>
<path style=" stroke:none;fill-rule:evenodd;fill:rgb(0.392157%,6.27451%,0.784314%);fill-opacity:1;" d="M 189.023438 122.695312 C 189.039062 122.796875 189 122.875 188.90625 122.929688 C 188.484375 122.125 187.976562 121.382812 187.382812 120.703125 C 186.617188 120.519531 185.875 120.558594 185.15625 120.820312 C 185.039062 125.429688 185 130.039062 185.039062 134.648438 C 185.808594 134.714844 186.550781 134.636719 187.265625 134.414062 C 187.304688 131.953125 187.421875 129.53125 187.617188 127.148438 C 187.617188 129.726562 187.617188 132.304688 187.617188 134.882812 C 186.679688 134.882812 185.742188 134.882812 184.804688 134.882812 C 184.804688 130.039062 184.804688 125.195312 184.804688 120.351562 C 185.746094 120.3125 186.683594 120.351562 187.617188 120.46875 C 188.238281 121.125 188.707031 121.867188 189.023438 122.695312 Z M 189.023438 122.695312 "/>
<path style=" stroke:none;fill-rule:evenodd;fill:rgb(5.098039%,14.509805%,12.54902%);fill-opacity:1;" d="M 189.023438 122.695312 C 190.671875 124.96875 192.234375 127.3125 193.710938 129.726562 C 193.761719 130.175781 193.917969 130.253906 194.179688 129.960938 C 194.414062 126.957031 194.492188 123.910156 194.414062 120.820312 C 195.117188 120.820312 195.820312 120.820312 196.523438 120.820312 C 196.523438 125.429688 196.523438 130.039062 196.523438 134.648438 C 195.679688 134.714844 194.859375 134.636719 194.0625 134.414062 C 193.953125 134.554688 193.914062 134.710938 193.945312 134.882812 C 191.9375 132.042969 189.984375 129.152344 188.085938 126.210938 C 188.019531 126.027344 187.902344 125.871094 187.734375 125.742188 C 187.617188 126.203125 187.578125 126.671875 187.617188 127.148438 C 187.421875 129.53125 187.304688 131.953125 187.265625 134.414062 C 186.550781 134.636719 185.808594 134.714844 185.039062 134.648438 C 185 130.039062 185.039062 125.429688 185.15625 120.820312 C 185.875 120.558594 186.617188 120.519531 187.382812 120.703125 C 187.976562 121.382812 188.484375 122.125 188.90625 122.929688 C 189 122.875 189.039062 122.796875 189.023438 122.695312 Z M 189.023438 122.695312 "/>
<path style=" stroke:none;fill-rule:evenodd;fill:rgb(5.882353%,14.901961%,11.764706%);fill-opacity:1;" d="M 210.820312 129.960938 C 211.132812 129.726562 211.132812 129.492188 210.820312 129.257812 C 209.476562 129.097656 208.109375 128.941406 206.71875 128.789062 C 206.640625 128.867188 206.5625 128.945312 206.484375 129.023438 C 206.367188 128.402344 206.328125 127.777344 206.367188 127.148438 C 208.632812 127.148438 210.898438 127.148438 213.164062 127.148438 C 213.105469 128.449219 213.105469 129.699219 213.164062 130.898438 C 212.164062 133.84375 210.09375 135.25 206.953125 135.117188 C 202.800781 135.027344 200.378906 132.917969 199.6875 128.789062 C 199.265625 124.210938 201.257812 121.28125 205.664062 120 C 209.125 119.523438 211.664062 120.8125 213.28125 123.867188 C 213.4375 124.101562 213.4375 124.335938 213.28125 124.570312 C 212.394531 124.875 211.496094 124.875 210.585938 124.570312 C 210.132812 123.839844 209.507812 123.332031 208.710938 123.046875 C 204.480469 122.640625 202.566406 124.554688 202.96875 128.789062 C 203.773438 131.75 205.6875 132.882812 208.710938 132.1875 C 209.785156 131.777344 210.488281 131.035156 210.820312 129.960938 Z M 210.820312 129.960938 "/>
<path style=" stroke:none;fill-rule:evenodd;fill:rgb(0%,3.921569%,1.176471%);fill-opacity:1;" d="M 109.570312 130.664062 C 109.570312 131.367188 109.570312 132.070312 109.570312 132.773438 C 109.378906 133.195312 109.261719 133.664062 109.21875 134.179688 C 109.0625 130.429688 109.0625 126.679688 109.21875 122.929688 C 109.257812 125.546875 109.375 128.125 109.570312 130.664062 Z M 109.570312 130.664062 "/>
<path style=" stroke:none;fill-rule:evenodd;fill:rgb(0%,5.490196%,0%);fill-opacity:1;" d="M 165.351562 120.351562 C 165.351562 122.070312 165.351562 123.789062 165.351562 125.507812 C 165.121094 123.910156 165.042969 122.269531 165.117188 120.585938 C 164.335938 120.585938 163.554688 120.585938 162.773438 120.585938 C 162.734375 125.195312 162.773438 129.804688 162.890625 134.414062 C 163.605469 134.636719 164.347656 134.714844 165.117188 134.648438 C 165.039062 132.574219 165.117188 130.542969 165.351562 128.554688 C 165.351562 130.664062 165.351562 132.773438 165.351562 134.882812 C 164.414062 134.882812 163.476562 134.882812 162.539062 134.882812 C 162.539062 130.039062 162.539062 125.195312 162.539062 120.351562 C 163.476562 120.351562 164.414062 120.351562 165.351562 120.351562 Z M 165.351562 120.351562 "/>
<path style=" stroke:none;fill-rule:evenodd;fill:rgb(5.098039%,14.509805%,12.156863%);fill-opacity:1;" d="M 170.273438 120.351562 C 171.132812 120.351562 171.992188 120.351562 172.851562 120.351562 C 172.851562 120.820312 172.851562 121.289062 172.851562 121.757812 C 171.660156 123.589844 170.410156 125.386719 169.101562 127.148438 C 170.515625 129.070312 171.882812 131.023438 173.203125 133.007812 C 173.574219 133.511719 173.730469 134.058594 173.671875 134.648438 C 172.792969 134.914062 171.894531 134.953125 170.976562 134.765625 C 169.457031 132.777344 167.972656 130.785156 166.523438 128.789062 C 166.191406 128.566406 165.800781 128.488281 165.351562 128.554688 C 165.117188 130.542969 165.039062 132.574219 165.117188 134.648438 C 164.347656 134.714844 163.605469 134.636719 162.890625 134.414062 C 162.773438 129.804688 162.734375 125.195312 162.773438 120.585938 C 163.554688 120.585938 164.335938 120.585938 165.117188 120.585938 C 165.042969 122.269531 165.121094 123.910156 165.351562 125.507812 C 165.351562 125.742188 165.351562 125.976562 165.351562 126.210938 C 165.738281 126.261719 166.089844 126.183594 166.40625 125.976562 C 167.65625 124.066406 168.945312 122.191406 170.273438 120.351562 Z M 170.273438 120.351562 "/>
<path style=" stroke:none;fill-rule:evenodd;fill:rgb(17.254902%,34.901962%,16.078432%);fill-opacity:1;" d="M 194.179688 120.351562 C 194.179688 123.554688 194.179688 126.757812 194.179688 129.960938 C 193.917969 130.253906 193.761719 130.175781 193.710938 129.726562 C 193.867188 126.601562 194.023438 123.476562 194.179688 120.351562 Z M 194.179688 120.351562 "/>
<path style=" stroke:none;fill-rule:evenodd;fill:rgb(5.490196%,14.509805%,11.764706%);fill-opacity:1;" d="M 135.351562 120.351562 C 136.535156 120.273438 137.707031 120.351562 138.867188 120.585938 C 140.773438 125.292969 142.492188 130.054688 144.023438 134.882812 C 143.007812 134.882812 141.992188 134.882812 140.976562 134.882812 C 140.800781 133.902344 140.488281 132.964844 140.039062 132.070312 C 138.085938 131.757812 136.132812 131.757812 134.179688 132.070312 C 133.863281 133.011719 133.550781 133.949219 133.242188 134.882812 C 132.226562 134.882812 131.210938 134.882812 130.195312 134.882812 C 131.914062 130.039062 133.632812 125.195312 135.351562 120.351562 Z M 135.351562 120.351562 "/>
<path style=" stroke:none;fill-rule:evenodd;fill:rgb(63.137257%,74.901962%,62.352943%);fill-opacity:1;" d="M 165.351562 120.351562 C 164.414062 120.351562 163.476562 120.351562 162.539062 120.351562 C 162.539062 125.195312 162.539062 130.039062 162.539062 134.882812 C 162.304688 130 162.226562 125.078125 162.304688 120.117188 C 163.367188 120.042969 164.382812 120.121094 165.351562 120.351562 Z M 165.351562 120.351562 "/>
<path style=" stroke:none;fill-rule:evenodd;fill:rgb(43.137255%,56.470591%,40.000001%);fill-opacity:1;" d="M 206.132812 126.914062 C 208.589844 126.679688 211.089844 126.601562 213.632812 126.679688 C 213.707031 127.820312 213.628906 128.914062 213.398438 129.960938 C 213.398438 128.945312 213.398438 127.929688 213.398438 126.914062 C 210.976562 126.914062 208.554688 126.914062 206.132812 126.914062 Z M 206.132812 126.914062 "/>
<path style=" stroke:none;fill-rule:evenodd;fill:rgb(3.529412%,7.450981%,4.705882%);fill-opacity:1;" d="M 206.132812 126.914062 C 208.554688 126.914062 210.976562 126.914062 213.398438 126.914062 C 213.398438 127.929688 213.398438 128.945312 213.398438 129.960938 C 213.320312 130.273438 213.242188 130.585938 213.164062 130.898438 C 213.105469 129.699219 213.105469 128.449219 213.164062 127.148438 C 210.898438 127.148438 208.632812 127.148438 206.367188 127.148438 C 206.328125 127.777344 206.367188 128.402344 206.484375 129.023438 C 206.5625 128.945312 206.640625 128.867188 206.71875 128.789062 C 208.109375 128.941406 209.476562 129.097656 210.820312 129.257812 C 209.257812 129.257812 207.695312 129.257812 206.132812 129.257812 C 205.820312 128.476562 205.820312 127.695312 206.132812 126.914062 Z M 206.132812 126.914062 "/>
<path style=" stroke:none;fill-rule:evenodd;fill:rgb(94.509804%,95.686275%,92.54902%);fill-opacity:1;" d="M 138.867188 129.023438 C 137.695312 129.335938 136.523438 129.335938 135.351562 129.023438 C 135.824219 127.332031 136.410156 125.691406 137.109375 124.101562 C 137.875 125.675781 138.460938 127.316406 138.867188 129.023438 Z M 138.867188 129.023438 "/>
<path style=" stroke:none;fill-rule:evenodd;fill:rgb(5.098039%,13.725491%,11.372549%);fill-opacity:1;" d="M 122.929688 120.351562 C 126.832031 120.703125 128.355469 122.8125 127.5 126.679688 C 126.921875 127.804688 126.101562 128.703125 125.039062 129.375 C 126.0625 131.148438 126.921875 132.984375 127.617188 134.882812 C 126.675781 134.921875 125.738281 134.882812 124.804688 134.765625 C 123.902344 133.222656 123.042969 131.660156 122.226562 130.078125 C 121.292969 129.960938 120.355469 129.921875 119.414062 129.960938 C 119.414062 131.601562 119.414062 133.242188 119.414062 134.882812 C 118.554688 134.882812 117.695312 134.882812 116.835938 134.882812 C 116.835938 130.039062 116.835938 125.195312 116.835938 120.351562 C 118.867188 120.351562 120.898438 120.351562 122.929688 120.351562 Z M 122.929688 120.351562 "/>
<path style=" stroke:none;fill-rule:evenodd;fill:rgb(96.078432%,96.862745%,94.117647%);fill-opacity:1;" d="M 119.414062 122.929688 C 120.996094 122.839844 122.558594 122.957031 124.101562 123.28125 C 125.414062 124.699219 125.257812 125.945312 123.632812 127.03125 C 122.230469 127.148438 120.824219 127.1875 119.414062 127.148438 C 119.414062 125.742188 119.414062 124.335938 119.414062 122.929688 Z M 119.414062 122.929688 "/>
<path style=" stroke:none;fill-rule:evenodd;fill:rgb(31.37255%,49.411765%,29.411766%);fill-opacity:1;" d="M 106.992188 124.101562 C 107.292969 124.421875 107.449219 124.851562 107.460938 125.390625 C 107.421875 125.820312 107.382812 126.25 107.34375 126.679688 C 107.265625 126.601562 107.1875 126.523438 107.109375 126.445312 C 106.992188 129.179688 106.953125 131.914062 106.992188 134.648438 C 106.710938 131.167969 106.710938 127.652344 106.992188 124.101562 Z M 106.992188 124.101562 "/>
<path style=" stroke:none;fill-rule:evenodd;fill:rgb(10.980392%,24.705882%,11.372549%);fill-opacity:1;" d="M 122.929688 120.351562 C 120.898438 120.351562 118.867188 120.351562 116.835938 120.351562 C 116.835938 125.195312 116.835938 130.039062 116.835938 134.882812 C 116.601562 130 116.523438 125.078125 116.601562 120.117188 C 118.753906 120.039062 120.863281 120.117188 122.929688 120.351562 Z M 122.929688 120.351562 "/>
<path style=" stroke:none;fill-rule:evenodd;fill:rgb(34.509805%,48.627451%,32.549021%);fill-opacity:1;" d="M 135.351562 129.023438 C 136.523438 129.335938 137.695312 129.335938 138.867188 129.023438 C 138.996094 129.039062 139.074219 129.117188 139.101562 129.257812 C 137.773438 129.570312 136.445312 129.570312 135.117188 129.257812 C 135.144531 129.117188 135.222656 129.039062 135.351562 129.023438 Z M 135.351562 129.023438 "/>
<path style=" stroke:none;fill-rule:evenodd;fill:rgb(11.372549%,25.490198%,10.196079%);fill-opacity:1;" d="M 206.132812 129.257812 C 207.695312 129.257812 209.257812 129.257812 210.820312 129.257812 C 211.132812 129.492188 211.132812 129.726562 210.820312 129.960938 C 209.3125 129.574219 207.75 129.339844 206.132812 129.257812 Z M 206.132812 129.257812 "/>
<path style=" stroke:none;fill-rule:evenodd;fill:rgb(74.117649%,83.137256%,70.588237%);fill-opacity:1;" d="M 188.085938 126.210938 C 187.929688 129.101562 187.773438 131.992188 187.617188 134.882812 C 187.617188 132.304688 187.617188 129.726562 187.617188 127.148438 C 187.578125 126.671875 187.617188 126.203125 187.734375 125.742188 C 187.902344 125.871094 188.019531 126.027344 188.085938 126.210938 Z M 188.085938 126.210938 "/>
<path style=" stroke:none;fill-rule:evenodd;fill:rgb(1.176471%,8.627451%,5.882353%);fill-opacity:1;" d="M 194.179688 120.351562 C 195.117188 120.351562 196.054688 120.351562 196.992188 120.351562 C 196.992188 125.195312 196.992188 130.039062 196.992188 134.882812 C 195.976562 134.882812 194.960938 134.882812 193.945312 134.882812 C 193.914062 134.710938 193.953125 134.554688 194.0625 134.414062 C 194.859375 134.636719 195.679688 134.714844 196.523438 134.648438 C 196.523438 130.039062 196.523438 125.429688 196.523438 120.820312 C 195.820312 120.820312 195.117188 120.820312 194.414062 120.820312 C 194.492188 123.910156 194.414062 126.957031 194.179688 129.960938 C 194.179688 126.757812 194.179688 123.554688 194.179688 120.351562 Z M 194.179688 120.351562 "/>
<path style=" stroke:none;fill-rule:evenodd;fill:rgb(42.745098%,52.156866%,38.431373%);fill-opacity:1;" d="M 28.242188 129.726562 C 28.242188 130.585938 28.242188 131.445312 28.242188 132.304688 C 28.542969 132.25 28.777344 132.328125 28.945312 132.539062 C 28.632812 132.539062 28.320312 132.539062 28.007812 132.539062 C 27.933594 131.554688 28.011719 130.617188 28.242188 129.726562 Z M 28.242188 129.726562 "/>
<path style=" stroke:none;fill-rule:evenodd;fill:rgb(5.490196%,14.509805%,11.764706%);fill-opacity:1;" d="M 150.351562 120.117188 C 152.53125 119.925781 154.640625 120.199219 156.679688 120.9375 C 157.765625 121.660156 158.546875 122.636719 159.023438 123.867188 C 158.972656 124.003906 158.894531 124.121094 158.789062 124.21875 C 157.773438 124.375 156.757812 124.375 155.742188 124.21875 C 154.398438 123.035156 152.835938 122.644531 151.054688 123.046875 C 148.203125 124.886719 147.539062 127.347656 149.0625 130.429688 C 151.105469 132.695312 153.332031 132.890625 155.742188 131.015625 C 156.488281 130.921875 157.230469 130.804688 157.96875 130.664062 C 158.660156 130.648438 158.894531 130.960938 158.671875 131.601562 C 157.296875 134.144531 155.148438 135.316406 152.226562 135.117188 C 147.726562 134.679688 145.382812 132.179688 145.195312 127.617188 C 145.359375 124.019531 147.078125 121.519531 150.351562 120.117188 Z M 150.351562 120.117188 "/>
<path style=" stroke:none;fill-rule:evenodd;fill:rgb(61.960787%,75.686276%,58.823532%);fill-opacity:1;" d="M 165.351562 128.554688 C 165.800781 128.488281 166.191406 128.566406 166.523438 128.789062 C 166.210938 128.789062 165.898438 128.789062 165.585938 128.789062 C 165.664062 130.863281 165.585938 132.894531 165.351562 134.882812 C 165.351562 132.773438 165.351562 130.664062 165.351562 128.554688 Z M 165.351562 128.554688 "/>
<path style=" stroke:none;fill-rule:evenodd;fill:rgb(8.627451%,16.078432%,8.627451%);fill-opacity:1;" d="M 177.304688 120.351562 C 178.320312 120.351562 179.335938 120.351562 180.351562 120.351562 C 180.351562 125.195312 180.351562 130.039062 180.351562 134.882812 C 179.335938 134.882812 178.320312 134.882812 177.304688 134.882812 C 177.304688 130.039062 177.304688 125.195312 177.304688 120.351562 Z M 177.304688 120.351562 "/>
<path style=" stroke:none;fill-rule:evenodd;fill:rgb(5.490196%,15.294118%,13.333334%);fill-opacity:1;" d="M 177.773438 120.585938 C 178.476562 120.585938 179.179688 120.585938 179.882812 120.585938 C 179.882812 125.273438 179.882812 129.960938 179.882812 134.648438 C 179.179688 134.648438 178.476562 134.648438 177.773438 134.648438 C 177.773438 129.960938 177.773438 125.273438 177.773438 120.585938 Z M 177.773438 120.585938 "/>
<path style=" stroke:none;fill-rule:evenodd;fill:rgb(5.098039%,14.901961%,12.941177%);fill-opacity:1;" d="M 56.132812 127.851562 C 56.207031 127.5625 56.324219 127.5625 56.484375 127.851562 C 57.578125 129.414062 58.671875 130.976562 59.765625 132.539062 C 59.839844 132.171875 60.035156 131.898438 60.351562 131.71875 C 60.089844 131.660156 59.855469 131.542969 59.648438 131.367188 C 59.933594 130.816406 59.777344 130.386719 59.179688 130.078125 C 59.296875 129.960938 59.414062 129.84375 59.53125 129.726562 C 59.988281 129.871094 60.417969 130.066406 60.820312 130.3125 C 60.507812 130.46875 60.273438 130.703125 60.117188 131.015625 C 60.46875 131.132812 60.742188 131.015625 60.9375 130.664062 C 61.199219 130.960938 61.238281 131.234375 61.054688 131.484375 C 61.230469 131.832031 61.425781 131.871094 61.640625 131.601562 C 61.902344 132.492188 62.214844 132.492188 62.578125 131.601562 C 62.738281 132.066406 62.621094 132.457031 62.226562 132.773438 C 62.875 133.457031 63.226562 133.300781 63.28125 132.304688 C 63.894531 132.742188 64.402344 133.132812 64.804688 133.476562 C 64.320312 134.367188 63.773438 135.226562 63.164062 136.054688 C 63.253906 136.339844 63.449219 136.496094 63.75 136.523438 C 73.8125 130.503906 84.710938 127.339844 96.445312 127.03125 C 96.671875 127.90625 96.75 128.804688 96.679688 129.726562 C 89.5625 130.613281 82.84375 132.722656 76.523438 136.054688 C 75.5625 136.429688 74.625 136.859375 73.710938 137.34375 C 73.34375 137.523438 73.109375 137.796875 73.007812 138.164062 C 71.585938 138.566406 70.257812 139.191406 69.023438 140.039062 C 69.105469 140.277344 69.261719 140.433594 69.492188 140.507812 C 70.578125 141.285156 71.671875 142.066406 72.773438 142.851562 C 79.746094 136.957031 87.792969 133.519531 96.914062 132.539062 C 96.992188 133.875 96.914062 135.203125 96.679688 136.523438 C 89.46875 138.445312 83.21875 142 77.929688 147.1875 C 78.90625 148.203125 79.921875 149.179688 80.976562 150.117188 C 83.851562 146.617188 87.210938 143.726562 91.054688 141.445312 C 91.039062 141.546875 91.078125 141.625 91.171875 141.679688 C 92.800781 140.601562 94.558594 139.820312 96.445312 139.335938 C 95.8125 145.03125 93.820312 150.1875 90.46875 154.804688 C 90.304688 155.023438 90.34375 155.179688 90.585938 155.273438 C 88.238281 158.480469 85.425781 161.214844 82.148438 163.476562 C 76.066406 154.542969 68.488281 147.160156 59.414062 141.328125 C 49.972656 135.953125 39.816406 133.023438 28.945312 132.539062 C 28.777344 132.328125 28.542969 132.25 28.242188 132.304688 C 28.242188 131.445312 28.242188 130.585938 28.242188 129.726562 C 28.242188 128.710938 28.242188 127.695312 28.242188 126.679688 C 39.878906 126.886719 50.816406 129.660156 61.054688 135 C 59.324219 132.671875 57.683594 130.289062 56.132812 127.851562 Z M 56.132812 127.851562 "/>
<path style=" stroke:none;fill-rule:evenodd;fill:rgb(67.843139%,76.862746%,60.392159%);fill-opacity:1;" d="M 76.523438 136.054688 C 76.226562 136.46875 75.875 136.859375 75.46875 137.226562 C 74.628906 137.507812 73.808594 137.820312 73.007812 138.164062 C 73.109375 137.796875 73.34375 137.523438 73.710938 137.34375 C 74.625 136.859375 75.5625 136.429688 76.523438 136.054688 Z M 76.523438 136.054688 "/>
<path style=" stroke:none;fill-rule:evenodd;fill:rgb(46.666667%,60.392159%,40.000001%);fill-opacity:1;" d="M 73.007812 138.164062 C 73.039062 138.371094 72.960938 138.527344 72.773438 138.632812 C 71.582031 139.128906 70.488281 139.753906 69.492188 140.507812 C 69.261719 140.433594 69.105469 140.277344 69.023438 140.039062 C 70.257812 139.191406 71.585938 138.566406 73.007812 138.164062 Z M 73.007812 138.164062 "/>
<path style=" stroke:none;fill-rule:evenodd;fill:rgb(4.313726%,7.058824%,3.921569%);fill-opacity:1;" d="M 90.585938 155.273438 C 90.34375 155.179688 90.304688 155.023438 90.46875 154.804688 C 93.820312 150.1875 95.8125 145.03125 96.445312 139.335938 C 94.558594 139.820312 92.800781 140.601562 91.171875 141.679688 C 91.078125 141.625 91.039062 141.546875 91.054688 141.445312 C 92.8125 140.234375 94.726562 139.296875 96.796875 138.632812 C 96.230469 144.75 94.160156 150.296875 90.585938 155.273438 Z M 90.585938 155.273438 "/>
<path style=" stroke:none;fill-rule:evenodd;fill:rgb(5.490196%,8.235294%,5.882353%);fill-opacity:1;" d="M 40.898438 149.648438 C 37.460938 147.675781 33.828125 146.113281 30 144.960938 C 30.792969 148.03125 32.042969 150.921875 33.75 153.632812 C 34.847656 155.238281 35.980469 156.800781 37.148438 158.320312 C 34.140625 155.121094 31.835938 151.449219 30.234375 147.304688 C 29.847656 146.386719 29.613281 145.449219 29.53125 144.492188 C 33.648438 145.554688 37.4375 147.273438 40.898438 149.648438 Z M 40.898438 149.648438 "/>
<path style=" stroke:none;fill-rule:evenodd;fill:rgb(5.098039%,14.901961%,12.941177%);fill-opacity:1;" d="M 76.289062 165.820312 C 76.289062 166.054688 76.289062 166.289062 76.289062 166.523438 C 73.546875 167.539062 70.734375 168.320312 67.851562 168.867188 C 67.628906 168.84375 67.433594 168.765625 67.265625 168.632812 C 66.691406 167.5625 66.066406 166.546875 65.390625 165.585938 C 65.296875 165.640625 65.257812 165.71875 65.273438 165.820312 C 60.476562 158.953125 54.617188 153.132812 47.695312 148.359375 C 41.878906 144.699219 35.550781 142.4375 28.710938 141.5625 C 28.382812 139.675781 28.226562 137.761719 28.242188 135.820312 C 37.601562 136.148438 46.273438 138.765625 54.257812 143.671875 C 63.21875 149.46875 70.5625 156.851562 76.289062 165.820312 Z M 76.289062 165.820312 "/>
<path style=" stroke:none;fill-rule:evenodd;fill:rgb(4.705882%,15.686275%,14.117648%);fill-opacity:1;" d="M 40.898438 149.648438 C 43.21875 150.925781 45.328125 152.488281 47.226562 154.335938 C 47.125 154.320312 47.046875 154.359375 46.992188 154.453125 C 51.59375 158.621094 55.34375 163.425781 58.242188 168.867188 C 55.707031 168.792969 53.246094 168.246094 50.859375 167.226562 C 50.679688 167.242188 50.5625 167.320312 50.507812 167.460938 C 45.207031 165.589844 40.753906 162.542969 37.148438 158.320312 C 35.980469 156.800781 34.847656 155.238281 33.75 153.632812 C 32.042969 150.921875 30.792969 148.03125 30 144.960938 C 33.828125 146.113281 37.460938 147.675781 40.898438 149.648438 Z M 40.898438 149.648438 "/>
<path style=" stroke:none;fill-rule:evenodd;fill:rgb(3.529412%,7.058824%,4.313726%);fill-opacity:1;" d="M 76.289062 165.820312 C 76.660156 165.9375 76.777344 166.171875 76.640625 166.523438 C 73.585938 168.039062 70.382812 168.820312 67.03125 168.867188 C 66.441406 167.84375 65.855469 166.828125 65.273438 165.820312 C 65.257812 165.71875 65.296875 165.640625 65.390625 165.585938 C 66.066406 166.546875 66.691406 167.5625 67.265625 168.632812 C 67.433594 168.765625 67.628906 168.84375 67.851562 168.867188 C 70.734375 168.320312 73.546875 167.539062 76.289062 166.523438 C 76.289062 166.289062 76.289062 166.054688 76.289062 165.820312 Z M 76.289062 165.820312 "/>
<path style=" stroke:none;fill-rule:evenodd;fill:rgb(5.882353%,8.235294%,5.882353%);fill-opacity:1;" d="M 47.226562 154.335938 C 52.0625 158.660156 55.96875 163.699219 58.945312 169.453125 C 56.042969 169.234375 53.230469 168.570312 50.507812 167.460938 C 50.5625 167.320312 50.679688 167.242188 50.859375 167.226562 C 53.246094 168.246094 55.707031 168.792969 58.242188 168.867188 C 55.34375 163.425781 51.59375 158.621094 46.992188 154.453125 C 47.046875 154.359375 47.125 154.320312 47.226562 154.335938 Z M 47.226562 154.335938 "/>
</g>
</svg>
