<?xml version="1.0" encoding="utf-8"?>
<!-- Generator: Adobe Adobe Illustrator 24.2.0, SVG Export Plug-In . SVG Version: 6.00 Build 0)  -->
<svg version="1.1" id="Iot_Rides" xmlns="http://www.w3.org/2000/svg" xmlns:xlink="http://www.w3.org/1999/xlink" x="0px" y="0px"
	 width="1296px" height="1296px" viewBox="0 0 1296 1296" style="enable-background:new 0 0 1296 1296;" xml:space="preserve">
<style type="text/css">
	.st0{fill:none;stroke:#0A0506;stroke-width:65;stroke-miterlimit:10;}
	.st1{stroke:#0A0506;stroke-width:30;stroke-miterlimit:10;}
	.st2{fill:none;stroke:#0A0506;stroke-width:30;stroke-miterlimit:10;}
	.st3{fill:#0D0808;stroke:#0A0506;stroke-width:30;stroke-miterlimit:10;}
	.st4{fill:#171111;stroke:#0A0506;stroke-width:30;stroke-miterlimit:10;}
	.st5{fill:#0A0808;stroke:#0A0506;stroke-width:30;stroke-miterlimit:10;}
	.st6{fill:#121010;stroke:#0A0506;stroke-width:30;stroke-miterlimit:10;}
	.st7{fill:#080808;stroke:#0A0506;stroke-width:30;stroke-miterlimit:10;}
	.st8{fill:none;stroke:#0A0506;stroke-width:30;stroke-linecap:round;stroke-miterlimit:10;}
	.st9{fill:none;stroke:#0A0506;stroke-width:20;stroke-linecap:round;stroke-miterlimit:10;}
</style>
<g id="Layer_2">
	<ellipse class="st0" cx="645.94" cy="590.01" rx="348.69" ry="354.17"/>
	<ellipse class="st1" cx="151.93" cy="580.01" rx="9.89" ry="10"/>
	<ellipse class="st1" cx="166.29" cy="462.46" rx="4.76" ry="4.82"/>
	<ellipse class="st1" cx="253.85" cy="351.54" rx="2.52" ry="2.55"/>
	<ellipse class="st1" cx="424.03" cy="179.28" rx="0.45" ry="0.45"/>
	<ellipse class="st2" cx="640.52" cy="349" rx="7.73" ry="8.18"/>
	<ellipse class="st1" cx="981.38" cy="240.96" rx="1.44" ry="2"/>
	<ellipse class="st1" cx="1110.13" cy="282.5" rx="12.58" ry="11.64"/>
	<ellipse class="st1" cx="1169.29" cy="423.29" rx="12.58" ry="12.73"/>
	<ellipse class="st3" cx="1144.03" cy="559.44" rx="3.24" ry="4"/>
	<ellipse class="st4" cx="1140.61" cy="660.81" rx="3.41" ry="2.36"/>
	<ellipse class="st5" cx="1043.56" cy="797.44" rx="2.16" ry="2.18"/>
	<ellipse class="st6" cx="974.7" cy="948.45" rx="0.99" ry="1"/>
	<ellipse class="st1" cx="869.19" cy="1002.14" rx="0.18" ry="0.18"/>
	<ellipse class="st1" cx="315.93" cy="946.46" rx="1.26" ry="0.55"/>
	<ellipse class="st1" cx="156.77" cy="913.74" rx="13.66" ry="13.64"/>
	<ellipse class="st7" cx="128.46" cy="760.29" rx="15.64" ry="16"/>
	<ellipse class="st1" cx="657.99" cy="824.39" rx="12.04" ry="11.09"/>
	<ellipse class="st1" cx="640.52" cy="349" rx="7.73" ry="8.18"/>
</g>
<g>
	<line class="st8" x1="1075.93" y1="299.2" x2="158.19" y2="747.21"/>
	<line class="st8" x1="1101.48" y1="373.51" x2="165.67" y2="830.34"/>
	<line class="st8" x1="1139.73" y1="436.02" x2="176.81" y2="906.08"/>
	<line class="st8" x1="547.33" y1="795.26" x2="895.68" y2="625.2"/>
	<line class="st8" x1="714.34" y1="795.19" x2="862.61" y2="722.81"/>
	<line class="st8" x1="385.3" y1="556.56" x2="744.01" y2="381.45"/>
	<line class="st8" x1="419.83" y1="458.55" x2="594.01" y2="373.53"/>
	<line class="st8" x1="1101.49" y1="286.52" x2="158.18" y2="747.19"/>
	<line class="st8" x1="1101.48" y1="373.51" x2="165.67" y2="830.34"/>
	<line class="st8" x1="1157.51" y1="427.77" x2="176.82" y2="906.1"/>
	<line class="st8" x1="547.33" y1="795.26" x2="895.68" y2="625.2"/>
	<line class="st8" x1="714.34" y1="795.19" x2="862.61" y2="722.81"/>
	<line class="st8" x1="385.3" y1="556.56" x2="744.01" y2="381.45"/>
	<line class="st8" x1="419.83" y1="458.55" x2="594.01" y2="373.53"/>
</g>
<g id="Layer_4">
	<path class="st9" d="M88.41,380.33c-2.69-105.38,107.51-191.67,180.2-196.4"/>
	<path class="st9" d="M142.4,381.45c0.66-99.3,79.73-146.56,133.39-140.06"/>
	<path class="st9" d="M186.28,371.63c-2.57-29.54,33.02-81.91,83.88-82.87"/>
	<path class="st9" d="M1201.56,741.84c21.28,103.19-71.88,208.03-142.56,225.83"/>
	<path class="st9" d="M1148.24,750.51c16.92,97.82-52.53,158.62-106.47,161.94"/>
	<path class="st9" d="M1106.8,768.11c7.75,28.6-18,86.56-67.87,96.71"/>
</g>
</svg>
