<svg version="1.1" id="Layer_1" xmlns="http://www.w3.org/2000/svg" xmlns:xlink="http://www.w3.org/1999/xlink" x="0px" y="0px"
	 width="100%" viewBox="0 0 500 500" enable-background="new 0 0 500 500" xml:space="preserve">
	<g id = "img" fill = "currentColor">
		<path fill="none" opacity="1.000000" stroke="none" 
			d="
		M332.000000,501.000000 
			C221.333359,501.000000 111.166718,501.000000 1.000059,501.000000 
			C1.000039,334.333405 1.000039,167.666794 1.000020,1.000149 
			C167.666565,1.000099 334.333130,1.000099 500.999756,1.000050 
			C500.999847,167.666519 500.999847,334.333038 500.999939,500.999786 
			C444.833344,501.000000 388.666656,501.000000 332.000000,501.000000 
		M242.523178,260.045288 
			C238.785095,260.045288 235.047012,260.045288 231.539703,260.045288 
			C231.539703,253.492874 231.539703,247.758392 231.539703,241.755615 
			C247.872696,241.755615 263.830170,241.755615 279.977783,241.755615 
			C279.977783,235.394775 279.977783,229.328201 279.977783,223.282822 
			C255.750534,223.282822 231.828690,223.282822 207.736694,223.282822 
			C207.736694,254.271927 207.736694,285.009033 207.736694,315.631775 
			C232.576004,315.631775 257.127899,315.631775 281.474335,315.631775 
			C281.474335,309.350952 281.474335,303.455322 281.474335,297.040649 
			C264.536072,297.040649 247.984360,297.040649 231.434799,297.040649 
			C231.434799,290.743469 231.434799,284.989563 231.434799,278.848083 
			C246.132217,278.848083 260.563202,278.848083 275.296417,278.848083 
			C275.296417,272.403137 275.296417,266.352142 275.296417,260.045288 
			C264.483185,260.045288 253.999191,260.045288 242.523178,260.045288 
		M355.475220,278.839020 
			C359.240265,278.839020 363.005280,278.839020 366.746368,278.839020 
			C366.746368,272.254486 366.746368,266.328461 366.746368,260.007843 
			C352.074554,260.007843 337.657104,260.007843 323.169586,260.007843 
			C323.169586,253.735168 323.169586,247.868881 323.169586,241.503845 
			C339.585724,241.503845 355.649506,241.503845 371.541138,241.503845 
			C371.541138,235.072830 371.541138,229.156326 371.541138,223.279282 
			C347.258148,223.279282 323.331696,223.279282 299.277466,223.279282 
			C299.277466,254.244919 299.277466,284.966309 299.277466,315.788361 
			C323.961243,315.788361 348.378967,315.788361 372.997437,315.788361 
			C372.997437,309.655212 372.997437,303.741089 372.997437,297.252014 
			C356.237366,297.252014 339.688049,297.252014 323.172852,297.252014 
			C323.172852,290.786133 323.172852,284.902863 323.172852,278.839020 
			C333.849060,278.839020 344.166351,278.839020 355.475220,278.839020 
		M49.012287,310.389038 
			C49.012287,312.160828 49.012287,313.932617 49.012287,315.600037 
			C57.259544,315.600037 64.959946,315.600037 73.109711,315.600037 
			C73.109711,304.135468 73.109711,293.073975 73.109711,281.735565 
			C87.013840,281.735565 100.454697,281.735565 113.997360,281.735565 
			C113.997360,275.386078 113.997360,269.336426 113.997360,262.822479 
			C100.069107,262.822479 86.494629,262.822479 73.129578,262.822479 
			C73.129578,255.590912 73.129578,248.833755 73.129578,241.645233 
			C88.182343,241.645233 102.922035,241.645233 117.739517,241.645233 
			C117.739517,235.277985 117.739517,229.359558 117.739517,223.304535 
			C94.784180,223.304535 72.070045,223.304535 49.012287,223.304535 
			C49.012287,252.185959 49.012287,280.800201 49.012287,310.389038 
		M433.683960,300.494751 
			C433.683960,281.102631 433.683960,261.710541 433.683960,241.964813 
			C443.332733,241.964813 452.265625,241.964813 461.430298,241.964813 
			C461.430298,235.531540 461.430298,229.460526 461.430298,223.187714 
			C434.955566,223.187714 408.734711,223.187714 382.309998,223.187714 
			C382.309998,229.488739 382.309998,235.554794 382.309998,242.161636 
			C391.579437,242.161636 400.631531,242.161636 410.133362,242.161636 
			C410.133362,267.075043 410.133362,291.450439 410.133362,315.697357 
			C418.182800,315.697357 425.757263,315.697357 433.683960,315.697357 
			C433.683960,310.762573 433.683960,306.127258 433.683960,300.494751 
		M154.973129,282.492798 
			C154.973129,262.759827 154.973129,243.026871 154.973129,223.300934 
			C146.757462,223.300934 139.179642,223.300934 131.432861,223.300934 
			C131.432861,254.253021 131.432861,284.940308 131.432861,315.816467 
			C152.445694,315.816467 173.188278,315.816467 194.087860,315.816467 
			C194.087860,309.236359 194.087860,302.808350 194.087860,295.903442 
			C180.937531,295.903442 168.048004,295.903442 154.973129,295.903442 
			C154.973129,291.447754 154.973129,287.468933 154.973129,282.492798 
		M223.206039,146.293686 
			C225.706955,148.924805 228.207870,151.555923 231.249283,154.755676 
			C237.885025,147.694855 244.002731,141.185257 250.869614,133.878510 
			C257.458160,141.122314 263.489990,147.754074 269.114197,153.937637 
			C276.094086,146.915527 282.370544,140.601135 288.442017,134.492950 
			C276.018188,122.042366 263.234375,109.231041 251.157623,97.128273 
			C238.468216,109.778862 225.582642,122.625031 212.300201,135.866867 
			C215.493164,138.912842 219.099503,142.353165 223.206039,146.293686 
		M208.573990,151.908447 
			C206.604202,149.435150 204.634415,146.961838 202.991226,144.898605 
			C189.185364,158.725494 176.407944,171.522369 163.810562,184.138931 
			C169.861450,190.060394 176.234039,196.296677 183.472794,203.380600 
			C189.130737,197.171051 195.133804,190.582718 202.102844,182.934250 
			C208.801682,190.249969 214.838669,196.842896 220.034348,202.517044 
			C226.855927,195.760712 233.183975,189.493179 239.728760,183.011002 
			C229.804031,173.102554 219.440781,162.756317 208.573990,151.908447 
		M273.914124,171.414093 
			C269.640442,175.318069 265.366760,179.222046 261.532715,182.724411 
			C268.760529,189.933884 275.056946,196.214340 282.118042,203.257523 
			C287.882385,197.126526 294.001373,190.618332 301.084991,183.084152 
			C307.656952,190.084869 313.762512,196.588730 319.045868,202.216782 
			C325.671173,195.807327 332.069946,189.617035 338.392365,183.500610 
			C325.876587,170.981903 313.163361,158.265686 300.086578,145.185837 
			C291.559906,153.731049 282.987030,162.322571 273.914124,171.414093 
		z"/>

		<path fill="#FCDC59" opacity="1.000000" stroke="none" 
            d="
        M222.955933,146.043594 
            C219.099503,142.353165 215.493164,138.912842 212.300201,135.866867 
            C225.582642,122.625031 238.468216,109.778862 251.157623,97.128273 
            C263.234375,109.231041 276.018188,122.042366 288.442017,134.492950 
            C282.370544,140.601135 276.094086,146.915527 269.114197,153.937637 
            C263.489990,147.754074 257.458160,141.122314 250.869614,133.878510 
            C244.002731,141.185257 237.885025,147.694855 231.249283,154.755676 
            C228.207870,151.555923 225.706955,148.924805 222.955933,146.043594 
        z"/>
        <path fill="#38B5FD" opacity="1.000000" stroke="none" 
            d="
        M208.825760,152.159256 
            C219.440781,162.756317 229.804031,173.102554 239.728760,183.011002 
            C233.183975,189.493179 226.855927,195.760712 220.034348,202.517044 
            C214.838669,196.842896 208.801682,190.249969 202.102844,182.934250 
            C195.133804,190.582718 189.130737,197.171051 183.472794,203.380600 
            C176.234039,196.296677 169.861450,190.060394 163.810562,184.138931 
            C176.407944,171.522369 189.185364,158.725494 202.991226,144.898605 
            C204.634415,146.961838 206.604202,149.435150 208.825760,152.159256 
        z"/>
        <path fill="#FD5757" opacity="1.000000" stroke="none" 
            d="
        M274.164124,171.164093 
            C282.987030,162.322571 291.559906,153.731049 300.086578,145.185837 
            C313.163361,158.265686 325.876587,170.981903 338.392365,183.500610 
            C332.069946,189.617035 325.671173,195.807327 319.045868,202.216782 
            C313.762512,196.588730 307.656952,190.084869 301.084991,183.084152 
            C294.001373,190.618332 287.882385,197.126526 282.118042,203.257523 
            C275.056946,196.214340 268.760529,189.933884 261.532715,182.724411 
            C265.366760,179.222046 269.640442,175.318069 274.164124,171.164093 
        z"/>

		<g id = "logotext">
			<path id = "path4172" 
				d="
			M243.019180,260.045288 
				C253.999191,260.045288 264.483185,260.045288 275.296417,260.045288 
				C275.296417,266.352142 275.296417,272.403137 275.296417,278.848083 
				C260.563202,278.848083 246.132217,278.848083 231.434799,278.848083 
				C231.434799,284.989563 231.434799,290.743469 231.434799,297.040649 
				C247.984360,297.040649 264.536072,297.040649 281.474335,297.040649 
				C281.474335,303.455322 281.474335,309.350952 281.474335,315.631775 
				C257.127899,315.631775 232.576004,315.631775 207.736694,315.631775 
				C207.736694,285.009033 207.736694,254.271927 207.736694,223.282822 
				C231.828690,223.282822 255.750534,223.282822 279.977783,223.282822 
				C279.977783,229.328201 279.977783,235.394775 279.977783,241.755615 
				C263.830170,241.755615 247.872696,241.755615 231.539703,241.755615 
				C231.539703,247.758392 231.539703,253.492874 231.539703,260.045288 
				C235.047012,260.045288 238.785095,260.045288 243.019180,260.045288 
			z"/>
			<path
            d="
        M354.979431,278.839020 
            C344.166351,278.839020 333.849060,278.839020 323.172852,278.839020 
            C323.172852,284.902863 323.172852,290.786133 323.172852,297.252014 
            C339.688049,297.252014 356.237366,297.252014 372.997437,297.252014 
            C372.997437,303.741089 372.997437,309.655212 372.997437,315.788361 
            C348.378967,315.788361 323.961243,315.788361 299.277466,315.788361 
            C299.277466,284.966309 299.277466,254.244919 299.277466,223.279282 
            C323.331696,223.279282 347.258148,223.279282 371.541138,223.279282 
            C371.541138,229.156326 371.541138,235.072830 371.541138,241.503845 
            C355.649506,241.503845 339.585724,241.503845 323.169586,241.503845 
            C323.169586,247.868881 323.169586,253.735168 323.169586,260.007843 
            C337.657104,260.007843 352.074554,260.007843 366.746368,260.007843 
            C366.746368,266.328461 366.746368,272.254486 366.746368,278.839020 
            C363.005280,278.839020 359.240265,278.839020 354.979431,278.839020 
        z"/>
		 <path
            d="
        M49.012287,309.901733 
            C49.012287,280.800201 49.012287,252.185959 49.012287,223.304535 
            C72.070045,223.304535 94.784180,223.304535 117.739517,223.304535 
            C117.739517,229.359558 117.739517,235.277985 117.739517,241.645233 
            C102.922035,241.645233 88.182343,241.645233 73.129578,241.645233 
            C73.129578,248.833755 73.129578,255.590912 73.129578,262.822479 
            C86.494629,262.822479 100.069107,262.822479 113.997360,262.822479 
            C113.997360,269.336426 113.997360,275.386078 113.997360,281.735565 
            C100.454697,281.735565 87.013840,281.735565 73.109711,281.735565 
            C73.109711,293.073975 73.109711,304.135468 73.109711,315.600037 
            C64.959946,315.600037 57.259544,315.600037 49.012287,315.600037 
            C49.012287,313.932617 49.012287,312.160828 49.012287,309.901733 
        z"/>
		<path 
            d="
        M433.683960,300.993347 
            C433.683960,306.127258 433.683960,310.762573 433.683960,315.697357 
            C425.757263,315.697357 418.182800,315.697357 410.133362,315.697357 
            C410.133362,291.450439 410.133362,267.075043 410.133362,242.161636 
            C400.631531,242.161636 391.579437,242.161636 382.309998,242.161636 
            C382.309998,235.554794 382.309998,229.488739 382.309998,223.187714 
            C408.734711,223.187714 434.955566,223.187714 461.430298,223.187714 
            C461.430298,229.460526 461.430298,235.531540 461.430298,241.964813 
            C452.265625,241.964813 443.332733,241.964813 433.683960,241.964813 
            C433.683960,261.710541 433.683960,281.102631 433.683960,300.993347 
        z"/>
		<path
            d="
        M154.973129,282.991455 
            C154.973129,287.468933 154.973129,291.447754 154.973129,295.903442 
            C168.048004,295.903442 180.937531,295.903442 194.087860,295.903442 
            C194.087860,302.808350 194.087860,309.236359 194.087860,315.816467 
            C173.188278,315.816467 152.445694,315.816467 131.432861,315.816467 
            C131.432861,284.940308 131.432861,254.253021 131.432861,223.300934 
            C139.179642,223.300934 146.757462,223.300934 154.973129,223.300934 
            C154.973129,243.026871 154.973129,262.759827 154.973129,282.991455 
        z"/>
		</g>	
	</g>
</svg>
