<?xml version="1.0" encoding="UTF-8"?>
<svg version="1.1" xmlns="http://www.w3.org/2000/svg" width="156" height="232">
<path d="M0 0 C12.9542884 10.07754298 23.04321171 25.13658224 26.4296875 41.3828125 C29.67148471 69.14266819 19.95039788 91.99567376 4.83203125 114.828125 C4.24421875 115.74722656 3.65640625 116.66632813 3.05078125 117.61328125 C-5.23719599 130.37887332 -14.37013719 142.70909061 -24.12890625 154.38671875 C-27.02451306 157.85368093 -29.82592787 161.39389104 -32.63671875 164.9296875 C-34.16796875 166.828125 -34.16796875 166.828125 -35.16796875 167.828125 C-34.48919678 167.87300049 -33.8104248 167.91787598 -33.11108398 167.96411133 C-20.26989631 168.83685561 -7.69756593 169.77212569 4.83203125 172.828125 C5.16203125 174.148125 5.49203125 175.468125 5.83203125 176.828125 C1.85130048 179.48194551 -1.73453234 179.77262718 -6.4140625 180.4296875 C-7.80908241 180.62566025 -7.80908241 180.62566025 -9.23228455 180.82559204 C-18.92374749 182.08036873 -28.54559905 182.28293612 -38.30688477 182.21923828 C-41.23305692 182.20311074 -44.1578526 182.21922805 -47.08398438 182.23828125 C-78.99961016 182.27369739 -78.99961016 182.27369739 -87.16796875 176.828125 C-87.16796875 175.838125 -87.16796875 174.848125 -87.16796875 173.828125 C-74.07428542 169.10684495 -59.95124756 168.58066034 -46.16796875 167.828125 C-46.70164063 167.25707031 -47.2353125 166.68601563 -47.78515625 166.09765625 C-53.5070088 159.87093436 -58.73959046 153.37804474 -63.81591797 146.6171875 C-65.21198582 144.76988067 -66.62770062 142.93897593 -68.046875 141.109375 C-75.76759404 131.08611868 -82.58428033 120.62607681 -89.16796875 109.828125 C-89.83699219 108.74789062 -90.50601563 107.66765625 -91.1953125 106.5546875 C-103.9882084 85.37823851 -112.58649519 62.83823386 -106.54296875 37.953125 C-100.37446249 17.69445182 -87.91610189 3.48842474 -69.546875 -6.61328125 C-46.41828157 -18.12602835 -20.70461105 -14.19452989 0 0 Z M-80.5546875 18.5234375 C-85.80748994 25.17409315 -89.43668961 31.81790298 -92.16796875 39.828125 C-92.41289063 40.50101563 -92.6578125 41.17390625 -92.91015625 41.8671875 C-96.84248048 54.52603948 -93.92856695 68.36085715 -88.41796875 80.015625 C-80.93948622 94.09060686 -69.96469477 103.64265436 -54.671875 108.64453125 C-40.86727188 111.8860062 -27.10829642 109.99033391 -14.64453125 103.40234375 C-9.97345356 100.43318869 -6.07287081 96.72645315 -2.16796875 92.828125 C-1.50539063 92.17714844 -0.8428125 91.52617187 -0.16015625 90.85546875 C10.12711819 80.01152362 13.17097877 65.59653554 12.97265625 51.0859375 C12.37307076 37.19554041 5.77942597 23.56646764 -4.16796875 13.828125 C-27.48636784 -4.10113296 -60.22225055 -4.43790701 -80.5546875 18.5234375 Z " fill="#3DAC2B" transform="translate(110.16796875,49.171875)"/>
<path d="M0 0 C12.96703245 10.08745697 23.01094378 25.1246189 26.43359375 41.37109375 C27.78223046 53.07250047 28.5797263 66.76468882 23.83203125 77.828125 C22.84203125 78.323125 22.84203125 78.323125 21.83203125 78.828125 C21.50203125 77.838125 21.17203125 76.848125 20.83203125 75.828125 C19.84203125 76.818125 18.85203125 77.808125 17.83203125 78.828125 C13.64149671 73.9616978 12.69756626 70.95610343 12.734375 64.625 C12.73920898 63.15546875 12.73920898 63.15546875 12.74414062 61.65625 C12.75670898 60.13257812 12.75670898 60.13257812 12.76953125 58.578125 C12.77404297 57.546875 12.77855469 56.515625 12.78320312 55.453125 C12.79497037 52.91139927 12.81141114 50.36979181 12.83203125 47.828125 C12.50203125 47.828125 12.17203125 47.828125 11.83203125 47.828125 C11.76886719 47.26867187 11.70570312 46.70921875 11.640625 46.1328125 C9.78959334 34.01342628 3.15384357 20.41406692 -6.73828125 12.8671875 C-20.60972792 3.70971435 -34.4983754 -0.40649562 -51.2265625 2.328125 C-66.3398134 6.10107842 -78.12344102 14.47912703 -86.16796875 27.828125 C-88.11696724 31.74590876 -89.72539562 35.69897844 -91.16796875 39.828125 C-91.41417969 40.50230469 -91.66039063 41.17648438 -91.9140625 41.87109375 C-95.84098697 54.57266323 -92.92715839 68.40828686 -87.35546875 80.078125 C-80.82531149 92.35418043 -72.50298553 99.50023223 -60.16796875 105.828125 C-63.16796875 106.828125 -63.16796875 106.828125 -65.91015625 105.5703125 C-75.39316468 99.91834488 -75.39316468 99.91834488 -78.10546875 96.953125 C-80.45623653 94.53112183 -81.854592 94.11212872 -85.16796875 93.828125 C-84.67296875 92.343125 -84.67296875 92.343125 -84.16796875 90.828125 C-87.28994353 92.1370822 -87.28994353 92.1370822 -89.16796875 94.828125 C-90.66289652 99.95359164 -90.17854941 102.33437591 -87.66796875 107.078125 C-86.9409375 108.32335937 -86.9409375 108.32335937 -86.19921875 109.59375 C-85.16796875 111.828125 -85.16796875 111.828125 -86.16796875 114.828125 C-99.91253245 92.32421845 -112.70993854 69.07941193 -107.47265625 41.78125 C-103.15241193 23.9920087 -93.27288617 8.29462822 -77.85546875 -1.859375 C-52.40239937 -17.1870807 -24.40488489 -16.73133908 0 0 Z " fill="#3FAC2C" transform="translate(110.16796875,49.171875)"/>
<path d="M0 0 C4.34719787 4.04933431 8.47418756 8.45768462 9.37109375 14.5 C8.63070702 19.48786853 3.8253373 22.12809024 0 25 C-7.96426826 30.33632789 -15.86859342 32.38859474 -25.375 32.3125 C-26.11886963 32.30686035 -26.86273926 32.3012207 -27.62915039 32.29541016 C-39.22335617 32.04037046 -48.95176054 27.75705219 -57.625 20 C-60 17 -60 17 -60.75 14.1875 C-59.12963882 7.30096497 -55.23025252 2.41915712 -49.3125 -1.375 C-34.27868363 -9.46494603 -14.42171093 -9.78616099 0 0 Z " fill="#03182E" transform="translate(95,120)"/>
<path d="M0 0 C6.03380971 3.54131572 9.24795238 8.47872896 11.18359375 15.08203125 C12.32115377 20.99130321 10.80890786 26.24474711 8 31.48046875 C4.90893877 35.73945936 0.57984982 38.72338339 -4.375 40.375 C-11.42784068 41.1064057 -16.95979122 41.05127405 -22.76171875 36.71484375 C-23.29410156 36.27269531 -23.82648437 35.83054688 -24.375 35.375 C-25.138125 34.818125 -25.90125 34.26125 -26.6875 33.6875 C-30.26894369 28.77959569 -31.74157461 22.79324427 -31.375 16.75 C-30.38659933 10.67993067 -27.26976023 6.17502222 -22.875 2 C-15.94776859 -2.50270042 -7.6375396 -3.4781964 0 0 Z " fill="#03182E" transform="translate(79.375,68.625)"/>
<path d="M0 0 C2.78855122 -0.39571756 2.78855122 -0.39571756 5 -2 C14.68588392 -2.64655451 24.20829987 -1.9207353 33.8125 -0.625 C35.23502075 -0.43599121 35.23502075 -0.43599121 36.6862793 -0.24316406 C40.87539609 0.36256417 44.26110942 0.93249427 48 3 C47.67 4.32 47.34 5.64 47 7 C45.04373287 7.48753366 43.08483537 7.96451433 41.125 8.4375 C39.48917969 8.83775391 39.48917969 8.83775391 37.8203125 9.24609375 C29.81795825 10.82529045 21.80343336 11.16433852 13.6640625 11.203125 C12.70462738 11.20882507 11.74519226 11.21452515 10.75668335 11.22039795 C8.73477253 11.22978493 6.71284686 11.23635661 4.69091797 11.24023438 C1.66735519 11.24986509 -1.35550447 11.28091885 -4.37890625 11.3125 C-36.767156 11.48856267 -36.767156 11.48856267 -45 6 C-45 5.01 -45 4.02 -45 3 C-34.34443706 -0.8421501 -10.27805746 -6.85203831 0 0 Z " fill="#D3D7DA" transform="translate(68,220)"/>
<path d="M0 0 C13.47202605 0.22085289 25.56067378 6.74383901 35.0625 16.01171875 C42.57454349 24.25230094 49.01566227 34.65014861 49.375 46.125 C49 49 49 49 47 51 C43.875 50.625 43.875 50.625 41 50 C40.70867187 49.03320312 40.41734375 48.06640625 40.1171875 47.0703125 C35.9590717 33.67117254 31.13079978 23.98203471 19 16 C13.65756769 13.23783449 8.22153422 11.20805609 2.375 9.8125 C-1 9 -1 9 -3 7 C-2.67028521 3.70285207 -2.3773161 2.3773161 0 0 Z " fill="#46A733" transform="translate(107,9)"/>
<path d="M0 0 C8.00540757 0.28352485 15.45571129 5.47715848 21.0625 10.8125 C25.72463098 15.84760146 29.60315014 20.97751345 30.625 27.875 C30.125 30.5 30.125 30.5 28.9375 32.4375 C27.125 33.5 27.125 33.5 24.66796875 33.390625 C22.125 32.5 22.125 32.5 20.71875 30.20703125 C20.3578125 29.25183594 19.996875 28.29664062 19.625 27.3125 C16.57436709 20.021204 13.55613035 15.75487535 6.2578125 12.35546875 C4.12523458 11.46665122 4.12523458 11.46665122 1.8671875 10.80078125 C-0.3125 10.125 -0.3125 10.125 -3.875 8.5 C-5 5.4375 -5 5.4375 -4.875 2.5 C-2.875 0.5 -2.875 0.5 0 0 Z " fill="#40AA2A" transform="translate(108.875,27.5)"/>
<path d="M0 0 C0 0.66 0 1.32 0 2 C-0.66 2.66 -1.32 3.32 -2 4 C-1.690625 4.61875 -1.38125 5.2375 -1.0625 5.875 C-0.375 7.25 0.3125 8.625 1 10 C6.12175145 9.06877246 11.06435656 7.64521448 16 6 C18.4410776 5.9154613 20.85259213 5.88394214 23.29296875 5.90234375 C24.35201164 5.90446617 24.35201164 5.90446617 25.43244934 5.90663147 C27.68417626 5.91222236 29.93580321 5.92477312 32.1875 5.9375 C33.71549335 5.94251618 35.24348827 5.94707888 36.77148438 5.95117188 C40.51436135 5.9621888 44.25716373 5.97944713 48 6 C48 6.99 48 7.98 48 9 C48.495 9.99 48.495 9.99 49 11 C48.16339844 10.7834375 47.32679687 10.566875 46.46484375 10.34375 C29.42667405 6.26817452 14.31783245 7.04411935 -1 16 C-1.71285156 16.5465625 -2.42570312 17.093125 -3.16015625 17.65625 C-5 19 -5 19 -7 19 C-7.2165625 18.0409375 -7.2165625 18.0409375 -7.4375 17.0625 C-7.81007181 15.02454854 -7.81007181 15.02454854 -9 14 C-9.66 13.34 -10.32 12.68 -11 12 C-12.31747324 11.30251417 -13.64914193 10.63040043 -15 10 C-11.91546928 5.3061489 -5.97868281 0 0 0 Z " fill="#3FA52B" transform="translate(42,43)"/>
<path d="M0 0 C3.99900579 1.41525613 7.13669183 3.32057 10.5625 5.8125 C11.49191406 6.47894531 12.42132813 7.14539062 13.37890625 7.83203125 C16.01124144 10.00929806 17.97009115 12.26320525 20 15 C18.875 16.5625 18.875 16.5625 17 18 C14 17.625 14 17.625 11 17 C10.01 17.33 9.02 17.66 8 18 C8 18.66 8 19.32 8 20 C4.36592837 18.64293196 1.12987933 17.00749128 -2.1875 15 C-3.04730469 14.484375 -3.90710938 13.96875 -4.79296875 13.4375 C-7 12 -7 12 -9 10 C-2.81839396 10.53753096 2.326858 12.54582388 8 15 C8.33 14.01 8.66 13.02 9 12 C11.97 12.495 11.97 12.495 15 13 C14.34 12.67 13.68 12.34 13 12 C13 11.34 13 10.68 13 10 C9.86650268 8.95550089 9.01031744 9.06576355 6 10 C6 8.68 6 7.36 6 6 C4.09232751 4.28309476 2.28980473 3.14490236 0 2 C0 1.34 0 0.68 0 0 Z " fill="#48AA36" transform="translate(100,44)"/>
<path d="M0 0 C0.99 0.33 1.98 0.66 3 1 C2 3 2 3 -1.375 4.3125 C-5.30847492 6.14360039 -6.08361457 7.26809154 -8 11 C-8.66 11 -9.32 11 -10 11 C-8.56314642 5.97101246 -6.05763331 4.04322498 -2 1 C-1.34 0.67 -0.68 0.34 0 0 Z M-11 11 C-10.34 11.33 -9.68 11.66 -9 12 C-8.87227443 19.53580878 -8.87227443 19.53580878 -9.68359375 22.484375 C-10.10521973 25.83656181 -9.12939276 26.90691051 -7.125 29.5625 C-5.02091313 32.38589098 -3.61776329 34.50726141 -3 38 C-8.40739966 34.35556078 -11.06168986 30.96934757 -12.640625 24.60546875 C-13.27950773 19.97356895 -13.1156347 15.23126941 -11 11 Z " fill="#041021" transform="translate(61,68)"/>
<path d="M0 0 C7.30568748 -0.99623011 12.92614461 2.14483272 19 6 C23.96240642 10.0875313 27.89699401 13.83190511 30 20 C29.278125 19.2575 28.55625 18.515 27.8125 17.75 C25.31407427 15.30709485 22.76356798 13.1318953 20 11 C19.34 12.32 18.68 13.64 18 15 C15 15 15 15 13.3125 13.5 C12.879375 13.005 12.44625 12.51 12 12 C12.99 12 13.98 12 15 12 C14.34 11.34 13.68 10.68 13 10 C13 9.01 13 8.02 13 7 C13.66 7 14.32 7 15 7 C15 6.34 15 5.68 15 5 C14.25234375 4.80664062 13.5046875 4.61328125 12.734375 4.4140625 C11.25710937 4.02347656 11.25710937 4.02347656 9.75 3.625 C8.77546875 3.36976562 7.8009375 3.11453125 6.796875 2.8515625 C4.34162697 2.10401491 2.24382595 1.22876183 0 0 Z " fill="#4A9C38" transform="translate(106,28)"/>
<path d="M0 0 C9.0889875 -0.67325833 15.94572334 1.96710231 22.9375 7.8125 C26.6116498 11.27243258 28.50145107 14.20464343 30 19 C26.63983107 17.87994369 25.30935087 16.62788203 23 14 C23 13.34 23 12.68 23 12 C22.01 11.34 21.02 10.68 20 10 C20 9.34 20 8.68 20 8 C16.03302114 6.19682779 12.3177458 5.50797009 8 5 C8 4.34 8 3.68 8 3 C5.03 2.67 2.06 2.34 -1 2 C-0.67 1.34 -0.34 0.68 0 0 Z " fill="#051021" transform="translate(74,114)"/>
<path d="M0 0 C2.981078 4.47161699 3.28975819 7.68776652 3 13 C2.34 13.66 1.68 14.32 1 15 C-2.125 14.625 -2.125 14.625 -5 14 C-5.33 12.02 -5.66 10.04 -6 8 C-5.34 7.67 -4.68 7.34 -4 7 C-4 5.35 -4 3.7 -4 2 C-3.01 2.33 -2.02 2.66 -1 3 C-0.67 2.01 -0.34 1.02 0 0 Z " fill="#4CAB39" transform="translate(153,45)"/>
<path d="M0 0 C0.66 0.66 1.32 1.32 2 2 C0.9790625 3.5778125 0.9790625 3.5778125 -0.0625 5.1875 C-1.45854345 7.66049125 -1.99523722 8.79520054 -2.0625 11.6875 C-0.37938584 15.35074847 2.45750882 17.22875441 6 19 C8.05191893 20.26535001 10.08750103 21.55533153 12.125 22.84375 C13.98883147 24.03142388 13.98883147 24.03142388 16 25 C16 25.66 16 26.32 16 27 C7.74342069 25.74900313 0.1302317 20.48029267 -5 14 C-5.80675206 10.62630956 -5.47213212 8.89559083 -3.86328125 5.84375 C-2.63558151 3.84565987 -1.35821251 1.91119903 0 0 Z " fill="#05111D" transform="translate(40,123)"/>
<path d="M0 0 C2.46536502 2.46536502 2.99000042 4.50528648 4.0625 7.8125 C4.40410156 8.85019531 4.74570313 9.88789062 5.09765625 10.95703125 C8.92233759 23.8549826 8.41507532 39.30665846 4 52 C3.31501962 49.86894993 2.87746786 48.45785276 3.46435547 46.26489258 C4.16362319 43.30814389 4.12983133 40.54973987 4.1328125 37.51171875 C4.13410156 36.24779297 4.13539063 34.98386719 4.13671875 33.68164062 C4.13285156 32.36357422 4.12898437 31.04550781 4.125 29.6875 C4.12886719 28.38103516 4.13273438 27.07457031 4.13671875 25.72851562 C4.13478516 23.82682617 4.13478516 23.82682617 4.1328125 21.88671875 C4.13168457 20.73389404 4.13055664 19.58106934 4.12939453 18.39331055 C3.99503103 14.86969102 3.55739736 11.47972047 3 8 C2.34 8 1.68 8 1 8 C-0.35439668 5.29120665 -0.06501451 2.99066732 0 0 Z " fill="#48993C" transform="translate(130,75)"/>
<path d="M0 0 C1.50064506 0.01005077 3.00129665 0.01917291 4.50195312 0.02734375 C8.14727281 0.04918909 11.79234376 0.0836031 15.4375 0.125 C15.4375 1.115 15.4375 2.105 15.4375 3.125 C15.9325 4.115 15.9325 4.115 16.4375 5.125 C15.60089844 4.9084375 14.76429687 4.691875 13.90234375 4.46875 C-1.28906674 0.83492423 -15.51884861 0.56303387 -29.5625 8.125 C-30.2225 8.125 -30.8825 8.125 -31.5625 8.125 C-31.5625 7.465 -31.5625 6.805 -31.5625 6.125 C-22.52768301 -1.28818317 -11.02876237 -0.12904833 0 0 Z " fill="#4E9B42" transform="translate(74.5625,48.875)"/>
<path d="M0 0 C3.10598248 3.10598248 3.78233319 6.18808492 4.1328125 10.421875 C3.83353201 16.2314375 1.79775401 21.93101811 -2.01953125 26.32421875 C-4 28 -4 28 -6 28 C-4.94124926 24.59687262 -3.99097846 21.98646769 -2 19 C-1.34 19 -0.68 19 0 19 C1.55307448 13.65052125 0.84266041 8.10252241 -0.6015625 2.78515625 C-0.73304687 2.19605469 -0.86453125 1.60695313 -1 1 C-0.67 0.67 -0.34 0.34 0 0 Z " fill="#050E1D" transform="translate(87,77)"/>
<path d="M0 0 C-0.33 0.66 -0.66 1.32 -1 2 C-1.495 1.835 -1.99 1.67 -2.5 1.5 C-4.84652325 1.03069535 -6.80656875 0.9658035 -9.1875 1 C-10.445625 1 -11.70375 1 -13 1 C-13.33 0.67 -13.66 0.34 -14 0 C-16.01594582 -0.23427778 -18.038474 -0.41336124 -20.0625 -0.5625 C-21.16722656 -0.64628906 -22.27195312 -0.73007812 -23.41015625 -0.81640625 C-24.26480469 -0.87699219 -25.11945313 -0.93757813 -26 -1 C-26.33 -0.34 -26.66 0.32 -27 1 C-31.62 1 -36.24 1 -41 1 C-27.8713983 -5.56430085 -13.68798856 -3.10334963 0 0 Z " fill="#51A144" transform="translate(90,39)"/>
<path d="M0 0 C8.14880812 -0.70859201 15.27523059 2.51682039 22 7 C22.66 5.35 23.32 3.7 24 2 C28 2 28 2 30.75 4.5 C31.86375 5.7375 31.86375 5.7375 33 7 C31.02 6.34 29.04 5.68 27 5 C25.42726432 7.8424854 25.42726432 7.8424854 25 11 C22.74741115 9.88708199 20.51866718 8.74366067 18.30078125 7.5625 C12.19873647 4.37188835 6.79759601 2.13293267 0 1 C0 0.67 0 0.34 0 0 Z " fill="#489937" transform="translate(108,18)"/>
<path d="M0 0 C4.2742558 1.5830577 6.26531794 4.50568404 9 8 C7.71034824 9.37562854 6.37310707 10.70766393 5 12 C4.34 12 3.68 12 3 12 C2.7525 11.21625 2.505 10.4325 2.25 9.625 C0.84610901 6.67682892 -0.00675737 6.0975223 -3 5 C-2 3 -2 3 0 0 Z " fill="#44B62C" transform="translate(126,39)"/>
<path d="M0 0 C1.8125 1.5 1.8125 1.5 3 3 C1.02 5.97 1.02 5.97 -1 9 C-4.0831351 7.80100302 -7.06279492 6.52299523 -10 5 C-9 2 -9 2 -7.25 0.8125 C-4.60437267 -0.14286542 -2.7925139 -0.3580146 0 0 Z " fill="#3BA926" transform="translate(131,16)"/>
<path d="M0 0 C1.32 0.33 2.64 0.66 4 1 C3.05065487 2.67180274 2.09026687 4.33733936 1.125 6 C0.59132813 6.928125 0.05765625 7.85625 -0.4921875 8.8125 C-0.98976563 9.534375 -1.48734375 10.25625 -2 11 C-2.66 11 -3.32 11 -4 11 C-3.67 9.02 -3.34 7.04 -3 5 C-3.66 5 -4.32 5 -5 5 C-5 5.66 -5 6.32 -5 7 C-6.65 7 -8.3 7 -10 7 C-9.8125 5.125 -9.8125 5.125 -9 3 C-6.4375 1.75 -6.4375 1.75 -4 1 C-3.67 1.66 -3.34 2.32 -3 3 C-2.01 2.34 -1.02 1.68 0 1 C0 0.67 0 0.34 0 0 Z " fill="#3FB72A" transform="translate(117,59)"/>
<path d="M0 0 C0.66 0 1.32 0 2 0 C2.04898437 1.14339844 2.09796875 2.28679687 2.1484375 3.46484375 C2.22345189 4.95575473 2.29900028 6.44663892 2.375 7.9375 C2.42140625 9.06961914 2.42140625 9.06961914 2.46875 10.22460938 C2.5726315 12.15507395 2.77895614 14.07942081 3 16 C3.66 16.33 4.32 16.66 5 17 C5 18.32 5 19.64 5 21 C3.02 21.99 3.02 21.99 1 23 C-0.0176403 17.98391475 -0.11856434 13.21391694 -0.0625 8.125 C-0.05798828 7.34125 -0.05347656 6.5575 -0.04882812 5.75 C-0.03714093 3.83329986 -0.01920908 1.91663952 0 0 Z " fill="#48A335" transform="translate(2,96)"/>
<path d="M0 0 C0.66 0 1.32 0 2 0 C0.47933557 3.98950786 -1.9370849 5.70094726 -5.375 8.125 C-6.33148438 8.80820313 -7.28796875 9.49140625 -8.2734375 10.1953125 C-12.29518898 12.85727408 -14.0876992 14 -19 14 C-19 13.34 -19 12.68 -19 12 C-16.23524683 10.57687308 -13.44096165 9.35983707 -10.5625 8.1875 C-6.41891616 6.37169555 -3.94466052 4.40476373 -1 1 C-0.67 0.67 -0.34 0.34 0 0 Z " fill="#04121D" transform="translate(101,136)"/>
<path d="M0 0 C1.32 0.66 2.64 1.32 4 2 C2.16749123 5.1414436 0.36301977 8.22602027 -2 11 C-2.66 11 -3.32 11 -4 11 C-4.8125 7.75 -4.8125 7.75 -5 4 C-2.5625 1.5625 -2.5625 1.5625 0 0 Z " fill="#42B82F" transform="translate(123,69)"/>
<path d="M0 0 C0.33 0.66 0.66 1.32 1 2 C1.99 2.33 2.98 2.66 4 3 C2.6078125 3.433125 2.6078125 3.433125 1.1875 3.875 C-2.09791667 4.8875 -2.09791667 4.8875 -5 7 C-5.66 6.34 -6.32 5.68 -7 5 C-7.66 5.165 -8.32 5.33 -9 5.5 C-9.66 5.665 -10.32 5.83 -11 6 C-11.66 5.34 -12.32 4.68 -13 4 C-8.71 2.68 -4.42 1.36 0 0 Z " fill="#050F20" transform="translate(62,113)"/>
<path d="M0 0 C0 3.10551666 -0.5393715 4.35261084 -2 7 C-1.34 7 -0.68 7 0 7 C-0.33 7.66 -0.66 8.32 -1 9 C-2.32 9 -3.64 9 -5 9 C-5.33 9.99 -5.66 10.98 -6 12 C-7.65 12 -9.3 12 -11 12 C-7.49102731 7.81576108 -3.91939465 3.80411834 0 0 Z " fill="#409D34" transform="translate(112,137)"/>
<path d="M0 0 C0.99 0.33 1.98 0.66 3 1 C1.625 3 1.625 3 0 5 C-0.66 5 -1.32 5 -2 5 C-1.649375 6.0725 -1.29875 7.145 -0.9375 8.25 C0 12 0 12 -1 16 C-2.98 12.04 -4.96 8.08 -7 4 C-5.68 4.33 -4.36 4.66 -3 5 C-2.690625 4.360625 -2.38125 3.72125 -2.0625 3.0625 C-1 1 -1 1 0 0 Z " fill="#48A439" transform="translate(120,68)"/>
<path d="M0 0 C1.98 0.99 3.96 1.98 6 3 C5 6 5 6 3.1875 7.25 C0.66056586 8.11637742 -0.52221994 7.88492145 -3 7 C-2.25 2.25 -2.25 2.25 0 0 Z " fill="#41A427" transform="translate(135,22)"/>
<path d="M0 0 C0.33 0 0.66 0 1 0 C1 1.98 1 3.96 1 6 C1.763125 5.62875 2.52625 5.2575 3.3125 4.875 C4.199375 4.58625 5.08625 4.2975 6 4 C6.99 4.66 7.98 5.32 9 6 C8.67 6.66 8.34 7.32 8 8 C10.475 8.99 10.475 8.99 13 10 C11 11 11 11 8.3984375 10.22265625 C7.40070313 9.83980469 6.40296875 9.45695312 5.375 9.0625 C4.37210937 8.68222656 3.36921875 8.30195312 2.3359375 7.91015625 C1.56507812 7.60980469 0.79421875 7.30945312 0 7 C-0.38133299 5.0085944 -0.71325582 3.00720923 -1 1 C-0.67 0.67 -0.34 0.34 0 0 Z " fill="#4DA53C" transform="translate(105,29)"/>
<path d="M0 0 C2.29633824 3.44450737 2.54016485 5.93812283 3 10 C3.99 10 4.98 10 6 10 C6 10.99 6 11.98 6 13 C6.66 13.33 7.32 13.66 8 14 C8 15.65 8 17.3 8 19 C7.34 19 6.68 19 6 19 C2.69838189 12.82950014 0 7.14647064 0 0 Z " fill="#40A133" transform="translate(4,119)"/>
<path d="M0 0 C1.9375 1.0625 1.9375 1.0625 3.1875 4.125 C3.435 5.094375 3.6825 6.06375 3.9375 7.0625 C3.2775 7.7225 2.6175 8.3825 1.9375 9.0625 C1.504375 8.5675 1.07125 8.0725 0.625 7.5625 C-1.05990483 5.73031808 -1.05990483 5.73031808 -4.0625 6.0625 C-4.3925 5.0725 -4.7225 4.0825 -5.0625 3.0625 C-2.67740683 0.08113354 -2.67740683 0.08113354 0 0 Z " fill="#3DAD26" transform="translate(148.0625,36.9375)"/>
<path d="M0 0 C0.33 0 0.66 0 1 0 C1 7.92 1 15.84 1 24 C-0.98 24.99 -0.98 24.99 -3 26 C-2.86722656 25.29617187 -2.73445313 24.59234375 -2.59765625 23.8671875 C-1.17740373 15.92621355 -0.45256311 8.05085957 0 0 Z " fill="#509A45" transform="translate(123,96)"/>
<path d="M0 0 C8.58947368 1.01052632 8.58947368 1.01052632 12 3 C13.8125 6.125 13.8125 6.125 15 9 C11.69918209 7.38102741 8.47442567 5.64075691 5.25 3.875 C4.26515625 3.33617187 3.2803125 2.79734375 2.265625 2.2421875 C1.51796875 1.83226562 0.7703125 1.42234375 0 1 C0 0.67 0 0.34 0 0 Z " fill="#4B9E3C" transform="translate(91,54)"/>
<path d="M0 0 C0 3 0 3 -1.375 4.4375 C-1.91125 4.953125 -2.4475 5.46875 -3 6 C-3.350625 6.70125 -3.70125 7.4025 -4.0625 8.125 C-5 10 -5 10 -7 11 C-7.33 11.99 -7.66 12.98 -8 14 C-10.0625 14.6875 -10.0625 14.6875 -12 15 C-8.46355512 9.35673689 -4.88647215 4.53743843 0 0 Z " fill="#439A35" transform="translate(24,54)"/>
<path d="M0 0 C0.66 0 1.32 0 2 0 C0.35821735 4.77609498 -2.26546702 8.79382904 -5 13 C-6.5 11.6875 -6.5 11.6875 -8 10 C-8 9.01 -8 8.02 -8 7 C-7.236875 6.95875 -6.47375 6.9175 -5.6875 6.875 C-2.67594887 6.22176391 -2.67594887 6.22176391 -1.1875 2.9375 C-0.795625 1.968125 -0.40375 0.99875 0 0 Z " fill="#49A23E" transform="translate(122,147)"/>
<path d="M0 0 C0.33 0.66 0.66 1.32 1 2 C-0.07518118 4.44332726 -1.19808566 6.76754523 -2.4375 9.125 C-2.77587891 9.78371094 -3.11425781 10.44242188 -3.46289062 11.12109375 C-4.30149926 12.75106547 -5.14984811 14.37601909 -6 16 C-7 13 -7 13 -7 11 C-7.66 10.34 -8.32 9.68 -9 9 C-8.2575 9 -7.515 9 -6.75 9 C-3.43169286 7.79334286 -3.19940189 7.01007481 -1.6875 3.9375 C-1.10733879 2.63271056 -0.53914658 1.32226452 0 0 Z " fill="#4AA73B" transform="translate(131,130)"/>
<path d="M0 0 C0.66 0.33 1.32 0.66 2 1 C1.04532436 2.62715156 0.08613152 4.25165346 -0.875 5.875 C-1.40867187 6.77992187 -1.94234375 7.68484375 -2.4921875 8.6171875 C-4 11 -4 11 -6 13 C-6.7230444 5.89006342 -6.7230444 5.89006342 -4.6640625 3.35546875 C-3 2 -3 2 0 0 Z " fill="#429D34" transform="translate(26,70)"/>
<path d="M0 0 C-3.52679099 2.35119399 -5.02879485 2.21443452 -9.1875 2.125 C-10.27417969 2.10695313 -11.36085938 2.08890625 -12.48046875 2.0703125 C-13.72763672 2.03550781 -13.72763672 2.03550781 -15 2 C-14.67 1.34 -14.34 0.68 -14 0 C-8.98537403 -0.93493027 -5.02721527 -1.13112344 0 0 Z " fill="#060E1C" transform="translate(78,107)"/>
<path d="M0 0 C1.32 0.33 2.64 0.66 4 1 C3.01 1.99 2.02 2.98 1 4 C0.67 2.68 0.34 1.36 0 0 Z M0 4 C0.33 4.99 0.66 5.98 1 7 C-0.3125 9.1875 -0.3125 9.1875 -2 11 C-2.66 11 -3.32 11 -4 11 C-3.6875 8.625 -3.6875 8.625 -3 6 C-2.01 5.34 -1.02 4.68 0 4 Z " fill="#34AC22" transform="translate(117,59)"/>
<path d="M0 0 C0.99 0.33 1.98 0.66 3 1 C3.125 3.375 3.125 3.375 3 6 C2.34 6.66 1.68 7.32 1 8 C-1.625 7.625 -1.625 7.625 -4 7 C-3 5 -3 5 0 3 C0 2.01 0 1.02 0 0 Z " fill="#3FB12D" transform="translate(153,50)"/>
<path d="M0 0 C2.64 0 5.28 0 8 0 C7.67 0.99 7.34 1.98 7 3 C6.34 3 5.68 3 5 3 C2.80475826 3.48020913 1.0161858 3.9919071 -1 5 C-0.67 3.35 -0.34 1.7 0 0 Z " fill="#3DA62A" transform="translate(107,11)"/>
<path d="M0 0 C-1.98 0.99 -1.98 0.99 -4 2 C-4 2.66 -4 3.32 -4 4 C-2.68 4.66 -1.36 5.32 0 6 C-2.31 5.67 -4.62 5.34 -7 5 C-7.33 3.68 -7.66 2.36 -8 1 C-3.375 -1.125 -3.375 -1.125 0 0 Z " fill="#CBCCD0" transform="translate(31,222)"/>
<path d="M0 0 C0.66 0.33 1.32 0.66 2 1 C2 4 2 4 -0.5 6.6875 C-1.325 7.450625 -2.15 8.21375 -3 9 C-3.33 7.02 -3.66 5.04 -4 3 C-2.68 2.67 -1.36 2.34 0 2 C0 1.34 0 0.68 0 0 Z " fill="#3D9D31" transform="translate(94,187)"/>
<path d="M0 0 C0.66 0 1.32 0 2 0 C2 0.66 2 1.32 2 2 C2.99 2.33 3.98 2.66 5 3 C5 3.99 5 4.98 5 6 C5.99 6.33 6.98 6.66 8 7 C9.1875 9.0625 9.1875 9.0625 10 11 C9.01 11.495 9.01 11.495 8 12 C6.66382103 10.18959679 5.33112616 8.3766216 4 6.5625 C3.2575 5.55316406 2.515 4.54382813 1.75 3.50390625 C0 1 0 1 0 0 Z " fill="#419534" transform="translate(40,186)"/>
<path d="M0 0 C0.144375 0.598125 0.28875 1.19625 0.4375 1.8125 C0.8872439 3.56150404 1.42892341 5.28677023 2 7 C-0.475 8.485 -0.475 8.485 -3 10 C-3 5.66905042 -2.03435531 3.72965139 0 0 Z " fill="#45A536" transform="translate(117,128)"/>
<path d="M0 0 C1.32 0.33 2.64 0.66 4 1 C4 2.32 4 3.64 4 5 C4.99 5.33 5.98 5.66 7 6 C7 6.66 7 7.32 7 8 C4.625 7.75 4.625 7.75 2 7 C0.2058242 4.43689172 0 3.16880694 0 0 Z " fill="#4B9B3A" transform="translate(129,53)"/>
<path d="M0 0 C0.66 0 1.32 0 2 0 C2 2.31 2 4.62 2 7 C1.01 7.495 1.01 7.495 0 8 C-4 3.25 -4 3.25 -4 1 C-2.68 1.33 -1.36 1.66 0 2 C0 1.34 0 0.68 0 0 Z " fill="#469E35" transform="translate(112,64)"/>
<path d="M0 0 C2.0625 0.4375 2.0625 0.4375 4 1 C3.34 2.32 2.68 3.64 2 5 C-1 5 -1 5 -2.6875 3.5 C-3.120625 3.005 -3.55375 2.51 -4 2 C-3.01 1.67 -2.02 1.34 -1 1 C-0.67 0.67 -0.34 0.34 0 0 Z " fill="#4AA835" transform="translate(122,38)"/>
<path d="M0 0 C0.721875 0.144375 1.44375 0.28875 2.1875 0.4375 C3.5796875 0.7159375 3.5796875 0.7159375 5 1 C6.2684375 1.3403125 6.2684375 1.3403125 7.5625 1.6875 C10.41454069 2.05314624 11.60457263 1.50823205 14 0 C12.515 2.475 12.515 2.475 11 5 C6.69159287 3.92289822 3.36423277 2.96052484 0 0 Z " fill="#BAD3B6" transform="translate(61,218)"/>
<path d="M0 0 C0 0.66 0 1.32 0 2 C0.33 2.66 0.66 3.32 1 4 C-3.455 3.01 -3.455 3.01 -8 2 C-8 1.34 -8 0.68 -8 0 C-4.94736336 -0.98120464 -3.05263664 -0.98120464 0 0 Z " fill="#4FA63B" transform="translate(90,50)"/>
<path d="M0 0 C2.93200474 2.85276137 5.64315404 5.65079784 8 9 C7.67 9.66 7.34 10.32 7 11 C4.66666667 8.66666667 2.33333333 6.33333333 0 4 C0 2.68 0 1.36 0 0 Z " fill="#4D993C" transform="translate(141,25)"/>
<path d="M0 0 C4.875 4.5 4.875 4.5 6 9 C3.69 7.02 1.38 5.04 -1 3 C-0.67 2.01 -0.34 1.02 0 0 Z " fill="#040D1A" transform="translate(52,97)"/>
<path d="M0 0 C1.32 0.33 2.64 0.66 4 1 C3.67 2.32 3.34 3.64 3 5 C1.02 5.33 -0.96 5.66 -3 6 C-2.505 5.566875 -2.01 5.13375 -1.5 4.6875 C0.33218192 3.00259517 0.33218192 3.00259517 0 0 Z " fill="#CFD0D1" transform="translate(112,222)"/>
<path d="M0 0 C1.98 0.99 1.98 0.99 4 2 C3.34 4.31 2.68 6.62 2 9 C0 7 0 7 -0.125 3.375 C-0.08375 2.26125 -0.0425 1.1475 0 0 Z " fill="#38AA24" transform="translate(124,106)"/>
<path d="M0 0 C0.99 0.33 1.98 0.66 3 1 C1.6875 2.5 1.6875 2.5 0 4 C-0.99 4 -1.98 4 -3 4 C-3.33 4.66 -3.66 5.32 -4 6 C-4.66 5.34 -5.32 4.68 -6 4 C-3.1875 1.9375 -3.1875 1.9375 0 0 Z " fill="#020917" transform="translate(47,118)"/>
<path d="M0 0 C0.99 0.99 1.98 1.98 3 3 C2.01 4.32 1.02 5.64 0 7 C-0.66 6.67 -1.32 6.34 -2 6 C-1.125 1.125 -1.125 1.125 0 0 Z " fill="#0A1D33" transform="translate(52,87)"/>
<path d="M0 0 C-5.75 4 -5.75 4 -8 4 C-8.33 2.68 -8.66 1.36 -9 0 C-3.375 -1.125 -3.375 -1.125 0 0 Z " fill="#429D37" transform="translate(43,58)"/>
<path d="M0 0 C0.66 0.33 1.32 0.66 2 1 C1.690625 1.598125 1.38125 2.19625 1.0625 2.8125 C-0.10209704 5.08956772 -0.10209704 5.08956772 -1 8 C-1.66 7.67 -2.32 7.34 -3 7 C-2.25 2.25 -2.25 2.25 0 0 Z " fill="#36AA21" transform="translate(135,22)"/>
<path d="M0 0 C0.66 1.32 1.32 2.64 2 4 C1.01 4.99 0.02 5.98 -1 7 C-1.66 5.02 -2.32 3.04 -3 1 C-2.01 0.67 -1.02 0.34 0 0 Z " fill="#44A232" transform="translate(107,169)"/>
<path d="M0 0 C1.32 0.66 2.64 1.32 4 2 C3.67 3.32 3.34 4.64 3 6 C1.68 5.34 0.36 4.68 -1 4 C-0.67 2.68 -0.34 1.36 0 0 Z " fill="#081C26" transform="translate(100,131)"/>
<path d="M0 0 C2.97 0.495 2.97 0.495 6 1 C5.67 1.99 5.34 2.98 5 4 C1 4 1 4 -1 3 C-0.67 2.01 -0.34 1.02 0 0 Z " fill="#46B233" transform="translate(106,50)"/>
<path d="M0 0 C2.475 0.99 2.475 0.99 5 2 C5.33 4.31 5.66 6.62 6 9 C3.75972706 6.11964908 1.83827868 3.15133488 0 0 Z " fill="#4A9B3B" transform="translate(123,44)"/>
<path d="M0 0 C2.6855594 2.6855594 3.06049974 5.37621328 4 9 C3.34 9 2.68 9 2 9 C1.67 9.66 1.34 10.32 1 11 C0.67 7.37 0.34 3.74 0 0 Z " fill="#479F38" transform="translate(19,123)"/>
<path d="M0 0 C0.33 0 0.66 0 1 0 C1.33 2.64 1.66 5.28 2 8 C0.02 8.99 0.02 8.99 -2 10 C-1.34 6.7 -0.68 3.4 0 0 Z " fill="#47A13C" transform="translate(122,112)"/>
<path d="M0 0 C1.32 0 2.64 0 4 0 C3.67 2.97 3.34 5.94 3 9 C2.67 9 2.34 9 2 9 C1.34 6.03 0.68 3.06 0 0 Z " fill="#489E3A" transform="translate(120,86)"/>
<path d="M0 0 C1.32 0.66 2.64 1.32 4 2 C3.34 2 2.68 2 2 2 C2 2.66 2 3.32 2 4 C0.35 4.33 -1.3 4.66 -3 5 C-2.01 3.35 -1.02 1.7 0 0 Z " fill="#36A223" transform="translate(41,53)"/>
<path d="M0 0 C3.16130459 4.21507278 3.3367697 5.06071112 3 10 C2.34 10 1.68 10 1 10 C0.67 6.7 0.34 3.4 0 0 Z " fill="#4E9741" transform="translate(136,48)"/>
</svg>
