<?xml version="1.0" encoding="UTF-8"?>
<svg id="Layer_1" xmlns="http://www.w3.org/2000/svg" xmlns:xlink="http://www.w3.org/1999/xlink" version="1.1" viewBox="0 0 720 200">
  <!-- Generator: Adobe Illustrator 29.1.0, SVG Export Plug-In . SVG Version: 2.1.0 Build 142)  -->
  <defs>
    <style>
      .st0 {
        fill: url(#radial-gradient);
      }

      .st1 {
        fill: #fff;
      }

      .st2 {
        fill: url(#linear-gradient);
      }

      .st2, .st3 {
        fill-rule: evenodd;
      }

      .st3 {
        fill: url(#linear-gradient1);
      }

      .st4 {
        fill: #1670b9;
      }
    </style>
    <linearGradient id="linear-gradient" x1="61.2" y1="965.8" x2="-178.4" y2="792.9" gradientTransform="translate(204 938) scale(1 -1)" gradientUnits="userSpaceOnUse">
      <stop offset="0" stop-color="#afafae"/>
      <stop offset="0" stop-color="#a9a8a8"/>
      <stop offset=".1" stop-color="#777"/>
      <stop offset=".2" stop-color="#535353"/>
      <stop offset=".2" stop-color="#3d3d3d"/>
      <stop offset=".3" stop-color="#343434"/>
      <stop offset=".3" stop-color="#414141"/>
      <stop offset=".4" stop-color="#787878"/>
      <stop offset=".4" stop-color="#8c8c8c"/>
      <stop offset=".8" stop-color="#f3f3f3"/>
      <stop offset="1" stop-color="#9e9e9e"/>
    </linearGradient>
    <linearGradient id="linear-gradient1" x1="64" y1="967" x2="-182.1" y2="789.5" xlink:href="#linear-gradient"/>
    <radialGradient id="radial-gradient" cx="-219.6" cy="824.2" fx="-219.6" fy="824.2" r="3.4" gradientTransform="translate(1837 1884.9) rotate(-27.5) scale(2.9 -2.9)" gradientUnits="userSpaceOnUse">
      <stop offset="0" stop-color="#fff6e7"/>
      <stop offset="1" stop-color="#231f20"/>
    </radialGradient>
  </defs>
  <path class="st4" d="M210.9,131.3c0,1.2,0,2.3-.1,3.1,0,.8-.2,1.5-.3,2.1-.1.6-.3,1-.4,1.4-.2.4-.5.8-1.1,1.4-.6.5-1.5,1.2-2.9,2-1.4.8-2.9,1.5-4.7,2.1-1.8.6-3.7,1.1-5.7,1.5-2.1.4-4.2.6-6.4.6-4.9,0-9.2-.8-13-2.3-3.8-1.5-6.9-3.8-9.5-6.7-2.6-3-4.5-6.6-5.8-10.8s-2-9.2-2-14.7.8-11.8,2.4-16.5c1.6-4.6,3.8-8.5,6.7-11.5,2.8-3,6.2-5.3,10.1-6.8,3.9-1.5,8.2-2.2,12.8-2.2s3.8.2,5.6.5,3.5.8,5.1,1.4c1.6.6,3,1.2,4.3,1.9,1.3.7,2.1,1.3,2.7,1.9.5.5.9,1,1.1,1.3.2.4.4.8.5,1.4.1.6.2,1.3.3,2.1,0,.8.1,1.8.1,3,0,2.8-.2,4.7-.7,5.8-.5,1.1-1.1,1.7-1.9,1.7s-1.7-.3-2.6-1c-.9-.7-2-1.4-3.2-2.2-1.2-.8-2.7-1.5-4.4-2.2-1.7-.7-3.7-1-6.1-1-4.6,0-8.2,1.8-10.7,5.4-2.5,3.6-3.7,8.8-3.7,15.8s.3,6.4.9,9c.6,2.6,1.5,4.8,2.7,6.5,1.2,1.8,2.7,3.1,4.5,3.9,1.8.9,3.9,1.3,6.4,1.3s4.6-.4,6.4-1.1c1.8-.7,3.3-1.6,4.7-2.5,1.3-.9,2.4-1.7,3.3-2.5.9-.7,1.7-1.1,2.3-1.1s.8.1,1.1.4c.3.2.5.7.7,1.3.2.6.3,1.5.4,2.5,0,1,.1,2.3.1,3.9Z"/>
  <g>
    <path class="st1" d="M614.8,131.3c0,1.2,0,2.3-.1,3.1,0,.8-.2,1.5-.3,2.1-.1.6-.3,1-.4,1.4-.2.4-.5.8-1.1,1.4-.6.5-1.5,1.2-2.9,2-1.4.8-2.9,1.5-4.7,2.1-1.8.6-3.7,1.1-5.7,1.5-2.1.4-4.2.6-6.4.6-4.9,0-9.2-.8-13-2.3-3.8-1.5-6.9-3.8-9.5-6.7-2.6-3-4.5-6.6-5.8-10.8s-2-9.2-2-14.7.8-11.8,2.4-16.5c1.6-4.6,3.8-8.5,6.7-11.5,2.8-3,6.2-5.3,10.1-6.8,3.9-1.5,8.2-2.2,12.8-2.2s3.8.2,5.6.5,3.5.8,5.1,1.4c1.6.6,3,1.2,4.3,1.9,1.3.7,2.1,1.3,2.7,1.9.5.5.9,1,1.1,1.3.2.4.4.8.5,1.4.1.6.2,1.3.3,2.1,0,.8.1,1.8.1,3,0,2.8-.2,4.7-.7,5.8-.5,1.1-1.1,1.7-1.9,1.7s-1.7-.3-2.6-1c-.9-.7-2-1.4-3.2-2.2-1.2-.8-2.7-1.5-4.4-2.2-1.7-.7-3.7-1-6.1-1-4.6,0-8.2,1.8-10.7,5.4-2.5,3.6-3.7,8.8-3.7,15.8s.3,6.4.9,9c.6,2.6,1.5,4.8,2.7,6.5,1.2,1.8,2.7,3.1,4.5,3.9,1.8.9,3.9,1.3,6.4,1.3s4.6-.4,6.4-1.1c1.8-.7,3.3-1.6,4.7-2.5,1.3-.9,2.4-1.7,3.3-2.5.9-.7,1.7-1.1,2.3-1.1s.8.1,1.1.4c.3.2.5.7.7,1.3.2.6.3,1.5.4,2.5,0,1,.1,2.3.1,3.9Z"/>
    <path class="st1" d="M593.1,145.6c-4.9,0-9.3-.8-13.1-2.3-3.8-1.5-7-3.8-9.6-6.8-2.6-3-4.5-6.7-5.8-10.9-1.3-4.3-2-9.2-2-14.7s.8-11.9,2.4-16.5c1.6-4.6,3.8-8.5,6.7-11.6,2.9-3.1,6.3-5.3,10.2-6.8,3.9-1.5,8.2-2.2,12.9-2.2s3.8.2,5.6.5c1.8.3,3.6.8,5.2,1.4,1.6.6,3.1,1.2,4.3,1.9,1.3.7,2.2,1.4,2.7,1.9.5.5.9,1,1.1,1.4.2.4.4.8.5,1.5.1.6.2,1.2.3,2.1,0,.8.1,1.8.1,3,0,2.8-.2,4.7-.7,5.9-.5,1.2-1.2,1.8-2.1,1.8s-1.8-.4-2.7-1c-1-.7-2.1-1.5-3.2-2.2-1.2-.8-2.7-1.5-4.4-2.2-1.7-.7-3.7-1-6-1-4.5,0-8.1,1.8-10.5,5.3-2.4,3.5-3.7,8.8-3.7,15.6s.3,6.4.9,9c.6,2.6,1.5,4.7,2.7,6.5,1.2,1.7,2.7,3,4.5,3.9,1.8.9,3.9,1.3,6.3,1.3s4.5-.4,6.3-1.1c1.7-.7,3.3-1.5,4.6-2.4,1.4-.9,2.4-1.7,3.3-2.4,1-.8,1.8-1.2,2.4-1.2s.9.1,1.2.4c.3.3.6.8.8,1.4.2.6.3,1.5.4,2.5,0,1.1.1,2.4.1,3.9s0,2.3-.1,3.1c0,.8-.2,1.5-.3,2.1-.1.6-.3,1.1-.4,1.4-.2.4-.6.9-1.2,1.4-.6.6-1.6,1.2-3,2-1.4.8-3,1.5-4.7,2.1-1.8.6-3.7,1.1-5.8,1.5-2.1.4-4.2.6-6.4.6ZM594.9,74.2c-4.6,0-8.9.7-12.7,2.2-3.8,1.4-7.2,3.7-10,6.7-2.8,3-5,6.8-6.6,11.4-1.6,4.6-2.4,10.1-2.4,16.4s.7,10.4,1.9,14.6c1.3,4.2,3.2,7.8,5.7,10.8,2.5,2.9,5.7,5.2,9.4,6.7,3.7,1.5,8.1,2.3,12.9,2.3s4.3-.2,6.3-.6c2-.4,4-.9,5.7-1.5,1.7-.6,3.3-1.3,4.7-2.1,1.4-.8,2.3-1.4,2.9-2,.5-.5.9-.9,1.1-1.3.2-.3.3-.8.4-1.3.1-.6.2-1.3.3-2.1,0-.8.1-1.8.1-3.1s0-2.7-.1-3.8c0-1-.2-1.8-.4-2.4-.2-.6-.4-1-.6-1.2-.2-.2-.5-.3-.9-.3-.6,0-1.3.4-2.1,1-.9.7-2,1.5-3.4,2.5-1.3.9-2.9,1.7-4.7,2.5-1.8.7-4,1.1-6.5,1.1s-4.6-.4-6.5-1.3c-1.9-.9-3.4-2.3-4.6-4-1.2-1.8-2.2-4-2.8-6.6-.6-2.6-.9-5.7-.9-9.1,0-6.9,1.3-12.3,3.7-15.9,2.5-3.6,6.2-5.5,10.9-5.5s4.5.3,6.2,1c1.7.7,3.2,1.4,4.5,2.2,1.1.7,2.2,1.5,3.2,2.2.9.6,1.7,1,2.4,1s1.2-.5,1.6-1.5c.5-1.1.7-3,.7-5.7s0-2.2-.1-3c0-.9-.2-1.5-.3-2.1-.1-.6-.3-1-.5-1.3-.2-.3-.6-.8-1.1-1.3-.5-.5-1.4-1.1-2.6-1.8-1.2-.7-2.6-1.3-4.2-1.9-1.6-.6-3.3-1-5.1-1.3-1.8-.3-3.7-.5-5.5-.5Z"/>
  </g>
  <path class="st4" d="M273.2,107.8c0,2.2-.5,3.8-1.5,4.8-1,1-2.3,1.6-4,1.6h-38.6c0,2.7.3,5.2,1,7.4.6,2.2,1.7,4.1,3.1,5.6,1.4,1.5,3.2,2.7,5.4,3.5,2.2.8,4.8,1.2,7.9,1.2s5.9-.2,8.3-.7c2.4-.5,4.4-1,6.2-1.5,1.7-.5,3.2-1,4.3-1.5,1.1-.5,2.1-.7,2.8-.7s.8,0,1.1.2c.3.2.5.5.7.9.2.4.3,1,.4,1.8,0,.8.1,1.8.1,3s0,1.9,0,2.7c0,.7-.1,1.4-.2,1.9,0,.5-.2,1-.4,1.3s-.4.7-.7,1c-.3.3-1.2.8-2.5,1.4-1.4.6-3.1,1.1-5.3,1.7-2.1.5-4.6,1-7.3,1.4-2.8.4-5.7.6-8.8.6-5.6,0-10.6-.7-14.8-2.1-4.2-1.4-7.8-3.6-10.6-6.5-2.8-2.9-5-6.5-6.4-11-1.4-4.4-2.1-9.6-2.1-15.5s.7-10.7,2.2-15.3c1.5-4.5,3.6-8.4,6.4-11.5,2.8-3.2,6.2-5.6,10.2-7.2,4-1.7,8.5-2.5,13.6-2.5s9.9.8,13.6,2.3c3.8,1.6,6.9,3.7,9.3,6.5,2.4,2.8,4.2,6.1,5.3,9.9,1.1,3.8,1.7,7.9,1.7,12.4v2.9h0ZM255.8,102.7c.1-5-.9-9-3-11.8-2.2-2.9-5.5-4.3-10-4.3s-4.3.4-5.9,1.3c-1.7.9-3.1,2-4.2,3.4-1.1,1.4-2,3.2-2.6,5.1-.6,2-.9,4.1-1,6.3h26.7Z"/>
  <path class="st4" d="M332.6,141.6c0,.7-.2,1.2-.7,1.6-.5.4-1.2.7-2.2.8-1,.2-2.5.2-4.5.2s-3.7,0-4.7-.2c-1-.2-1.7-.4-2.1-.8-.4-.4-.6-.9-.6-1.6v-5c-2.6,2.8-5.6,5-8.9,6.5-3.3,1.6-7.1,2.4-11.1,2.4s-6.5-.4-9.3-1.3c-2.8-.9-5.3-2.2-7.3-3.9-2.1-1.7-3.7-3.9-4.8-6.4-1.1-2.6-1.7-5.5-1.7-9s.7-6.9,2.2-9.6c1.4-2.7,3.6-5,6.5-6.8,2.9-1.8,6.4-3.1,10.7-3.9,4.3-.9,9.2-1.3,14.9-1.3h6.2v-3.8c0-2-.2-3.7-.6-5.2-.4-1.5-1.1-2.7-2-3.7-.9-1-2.2-1.7-3.7-2.2-1.5-.5-3.4-.7-5.7-.7s-5.7.3-8,1c-2.4.7-4.4,1.4-6.2,2.2-1.8.8-3.3,1.5-4.5,2.2-1.2.7-2.2,1-3,1s-1-.2-1.4-.5c-.4-.3-.7-.8-1-1.4-.3-.6-.5-1.4-.6-2.3-.1-.9-.2-1.9-.2-3s.1-2.6.4-3.5.7-1.6,1.4-2.3c.7-.7,1.8-1.4,3.5-2.3,1.7-.8,3.6-1.6,5.8-2.3,2.2-.7,4.7-1.3,7.3-1.7,2.6-.5,5.3-.7,8.1-.7,5,0,9.2.5,12.8,1.5,3.5,1,6.4,2.5,8.7,4.5,2.3,2,3.9,4.6,5,7.8,1,3.2,1.6,6.9,1.6,11.3v42.7h0ZM315.1,114.4h-6.8c-2.9,0-5.4.2-7.4.6-2,.4-3.7,1.1-5,1.9-1.3.9-2.2,1.9-2.8,3.1-.6,1.2-.9,2.6-.9,4.2,0,2.7.8,4.7,2.5,6.3,1.7,1.5,4,2.3,7,2.3s4.8-.6,6.9-1.9c2.1-1.3,4.3-3.2,6.4-5.6v-10.8h0Z"/>
  <g>
    <path class="st1" d="M555.8,141.6c0,.7-.2,1.2-.7,1.6-.5.4-1.2.7-2.2.8-1,.2-2.5.2-4.5.2s-3.7,0-4.7-.2c-1-.2-1.7-.4-2.1-.8-.4-.4-.6-.9-.6-1.6v-5c-2.6,2.8-5.6,5-8.9,6.5-3.3,1.6-7.1,2.4-11.1,2.4s-6.5-.4-9.3-1.3c-2.8-.9-5.3-2.2-7.3-3.9-2.1-1.7-3.7-3.9-4.8-6.4-1.1-2.6-1.7-5.5-1.7-9s.7-6.9,2.2-9.6c1.4-2.7,3.6-5,6.5-6.8,2.9-1.8,6.4-3.1,10.7-3.9,4.3-.9,9.2-1.3,14.9-1.3h6.2v-3.8c0-2-.2-3.7-.6-5.2-.4-1.5-1.1-2.7-2-3.7-.9-1-2.2-1.7-3.7-2.2-1.5-.5-3.4-.7-5.7-.7s-5.7.3-8,1c-2.4.7-4.4,1.4-6.2,2.2-1.8.8-3.3,1.5-4.5,2.2-1.2.7-2.2,1-3,1s-1-.2-1.4-.5c-.4-.3-.7-.8-1-1.4-.3-.6-.5-1.4-.6-2.3-.1-.9-.2-1.9-.2-3s.1-2.6.4-3.5.7-1.6,1.4-2.3c.7-.7,1.8-1.4,3.5-2.3,1.7-.8,3.6-1.6,5.8-2.3,2.2-.7,4.7-1.3,7.3-1.7,2.6-.5,5.3-.7,8.1-.7,5,0,9.2.5,12.8,1.5,3.5,1,6.4,2.5,8.7,4.5,2.3,2,3.9,4.6,5,7.8,1,3.2,1.6,6.9,1.6,11.3v42.7h0ZM538.2,114.4h-6.8c-2.9,0-5.4.2-7.4.6-2,.4-3.7,1.1-5,1.9-1.3.9-2.2,1.9-2.8,3.1-.6,1.2-.9,2.6-.9,4.2,0,2.7.8,4.7,2.5,6.3,1.7,1.5,4,2.3,7,2.3s4.8-.6,6.9-1.9c2.1-1.3,4.3-3.2,6.4-5.6v-10.8h0Z"/>
    <path class="st1" d="M520.9,145.7c-3.4,0-6.5-.4-9.4-1.3-2.8-.9-5.3-2.2-7.4-4-2.1-1.8-3.7-3.9-4.9-6.5-1.1-2.6-1.7-5.6-1.7-9.1s.7-7,2.2-9.8c1.5-2.8,3.7-5.1,6.6-6.9,2.9-1.8,6.5-3.1,10.8-4,4.3-.9,9.3-1.3,14.9-1.3h5.9v-3.6c0-2-.2-3.7-.6-5.2-.4-1.4-1-2.7-1.9-3.6-.9-1-2.1-1.7-3.6-2.1-1.5-.5-3.4-.7-5.7-.7s-5.6.3-7.9,1c-2.3.7-4.4,1.4-6.2,2.2-1.7.8-3.2,1.5-4.5,2.2-1.2.7-2.3,1-3.1,1s-1.1-.2-1.5-.6c-.4-.4-.8-.9-1.1-1.5-.3-.6-.5-1.4-.6-2.3-.1-.9-.2-1.9-.2-3s.1-2.7.4-3.6c.2-.9.7-1.7,1.4-2.4.7-.7,1.9-1.5,3.6-2.3,1.7-.8,3.7-1.6,5.9-2.3,2.2-.7,4.7-1.3,7.3-1.7,2.6-.5,5.4-.7,8.2-.7,5,0,9.3.5,12.8,1.5,3.6,1,6.5,2.5,8.8,4.5,2.3,2,4,4.7,5,7.9,1,3.2,1.6,7,1.6,11.4v42.9h0c0,.6-.3,1.1-.8,1.5-.5.4-1.3.7-2.4.9-1,.2-2.5.3-4.6.3s-3.7,0-4.7-.3c-1-.2-1.8-.5-2.2-.9-.5-.4-.7-1-.7-1.7v-4.4c-2.5,2.6-5.4,4.6-8.6,6.1-3.4,1.6-7.2,2.4-11.2,2.4ZM532,103.5c-5.6,0-10.6.4-14.8,1.3-4.2.8-7.8,2.2-10.6,3.9-2.8,1.7-5,4-6.4,6.7-1.4,2.7-2.1,5.9-2.1,9.5s.6,6.3,1.7,8.9c1.1,2.5,2.7,4.7,4.7,6.4,2,1.7,4.5,3,7.2,3.9,2.8.9,5.9,1.3,9.2,1.3s7.7-.8,11-2.3c3.3-1.6,6.3-3.7,8.9-6.5l.4-.5v5.7c0,.6.2,1.1.5,1.4.4.3,1,.6,1.9.8,1,.2,2.5.2,4.6.2s3.5,0,4.5-.2c1-.2,1.7-.4,2.1-.8.4-.3.6-.8.6-1.4v-42.7c0-4.3-.5-8.1-1.5-11.2-1-3.1-2.7-5.7-4.9-7.7-2.2-2-5.1-3.5-8.6-4.4-3.5-1-7.8-1.4-12.7-1.4s-5.5.2-8.1.7c-2.6.4-5.1,1-7.3,1.7-2.2.7-4.1,1.5-5.8,2.3-1.6.8-2.8,1.6-3.4,2.2-.6.7-1.1,1.4-1.3,2.2-.2.8-.3,2-.3,3.4s0,2.1.2,2.9c.1.9.3,1.6.6,2.2.2.6.6,1,.9,1.3.4.3.8.4,1.2.4.7,0,1.7-.3,2.8-1,1.3-.7,2.8-1.4,4.5-2.2,1.8-.8,3.9-1.5,6.3-2.2,2.4-.7,5.1-1,8.1-1s4.2.2,5.8.7c1.6.5,2.9,1.3,3.8,2.3,1,1,1.6,2.3,2,3.8.4,1.5.6,3.3.6,5.3v4.1h-6.4ZM524.8,133c-3,0-5.5-.8-7.2-2.3-1.7-1.6-2.6-3.7-2.6-6.4s.3-3,.9-4.3c.6-1.2,1.6-2.3,2.9-3.2,1.3-.9,3-1.5,5.1-2,2.1-.4,4.6-.6,7.5-.6h6.8v.2h.2v10.9h0c-2.2,2.5-4.4,4.5-6.5,5.7-2.1,1.3-4.5,2-7.1,2ZM531.4,114.7c-2.8,0-5.3.2-7.3.6-2,.4-3.6,1.1-4.9,1.9-1.2.8-2.1,1.8-2.7,3-.6,1.2-.9,2.5-.9,4.1,0,2.6.8,4.6,2.4,6.1,1.6,1.5,3.9,2.2,6.8,2.2s4.8-.6,6.8-1.9c2.1-1.3,4.2-3.1,6.3-5.5v-10.5h-6.6Z"/>
  </g>
  <path class="st4" d="M401.8,141.4c0,.5-.1.9-.4,1.2-.3.4-.8.7-1.4.9-.7.2-1.6.4-2.7.5-1.2.1-2.6.2-4.3.2s-3.2,0-4.4-.2c-1.2-.1-2.1-.3-2.7-.5-.7-.2-1.1-.5-1.4-.9-.3-.4-.4-.8-.4-1.2v-36.2c0-3.1-.2-5.5-.7-7.3-.5-1.8-1.1-3.3-2-4.5-.9-1.3-2-2.2-3.3-2.9-1.4-.7-2.9-1-4.7-1s-4.6.8-6.9,2.5c-2.3,1.7-4.7,4.1-7.3,7.3v42.2c0,.5-.1.9-.4,1.2-.3.4-.8.7-1.5.9-.7.2-1.6.4-2.7.5-1.1.1-2.6.2-4.3.2s-3.2,0-4.3-.2c-1.1-.1-2.1-.3-2.7-.5-.7-.2-1.2-.5-1.5-.9-.3-.4-.4-.8-.4-1.2v-63.5c0-.5.1-.9.4-1.2.2-.4.7-.7,1.3-.9.6-.2,1.4-.4,2.4-.5,1-.1,2.2-.2,3.7-.2s2.8,0,3.8.2c1,.1,1.8.3,2.3.5.5.2.9.5,1.2.9.2.4.4.8.4,1.2v7.3c3.5-3.8,7.1-6.6,10.7-8.5,3.6-1.9,7.4-2.8,11.3-2.8s8,.7,10.9,2.1c3,1.4,5.4,3.4,7.2,5.8,1.8,2.4,3.1,5.3,3.9,8.6.8,3.3,1.2,7.2,1.2,11.8v39.2h0Z"/>
  <path class="st4" d="M157.5,86.8c0,9.2-1.2,17.5-3.4,24.8-2.3,7.3-5.7,13.5-10.2,18.6-4.5,5.1-10.2,9-16.8,11.6-6.7,2.7-14.4,4-23.2,4s-16.2-1.1-22.7-3.4c-6.5-2.3-11.8-5.7-16.2-10.4-4.3-4.7-7.5-10.6-9.7-17.7-2.2-7.2-3.2-15.7-3.2-25.5s1.2-17.1,3.4-24.3c2.3-7.2,5.7-13.3,10.2-18.4,4.5-5.1,10.2-8.9,16.8-11.6,6.7-2.7,14.5-4,23.3-4s15.9,1.1,22.4,3.4c6.5,2.2,11.9,5.7,16.2,10.3,4.3,4.7,7.6,10.5,9.8,17.6,2.2,7.1,3.3,15.5,3.3,25.1ZM133.7,88c0-5.9-.5-11.2-1.4-16-.9-4.8-2.5-8.9-4.7-12.3-2.2-3.4-5.2-6.1-8.8-7.9-3.7-1.9-8.3-2.8-13.8-2.8s-10.2,1-14,3.1c-3.7,2.1-6.7,4.9-9,8.4-2.3,3.5-3.9,7.6-4.9,12.3-.9,4.7-1.4,9.6-1.4,14.9s.5,11.6,1.4,16.4c.9,4.9,2.5,9,4.7,12.4,2.2,3.4,5.1,6.1,8.8,7.9,3.7,1.8,8.3,2.7,13.9,2.7s10.2-1,14-3.1c3.7-2.1,6.7-4.9,9-8.4,2.3-3.6,3.9-7.7,4.9-12.4.9-4.7,1.4-9.8,1.4-15.1Z"/>
  <path class="st2" d="M164.5,75.7c-.5.5-1.1,1-1.6,1.5-1.1,1-2.2,2.1-3.3,3.1-.7.7-1.5,1.4-2.2,2.1-1.7,1.6-3.5,3.2-5.3,4.7-1.8,1.5-3.6,3-5.4,4.4-4.5,3.4-9.1,6.7-13.8,9.9-.1,0-.3.2-.4.3-3.6,2.4-7.2,4.6-10.9,6.9-1.4.9-2.8,1.7-4.3,2.5-7.7,4.5-15.4,8.4-22.8,11.8-1.1.5-2.2,1-3.2,1.4-.2,0-.3.1-.5.2-5.7,2.5-11.3,4.7-16.5,6.4-.1,0-.3,0-.4.1-2.6.9-5.2,1.7-7.6,2.3-1,.3-2,.5-2.9.8-7.4,1.9-14.1,2.9-19.5,2.9h-.4c-7.3,0-12.6-1.9-14.8-5.9-3.1-5.4,0-13.9,7.8-23.7,0,0,0,0,0,0,3-4.5,8.8-10,15.5-15.6,0,1.8.1,3.6.3,5.3-5.8,5.7-9,9.8-9.4,10.4-4.1,6.9-5.3,12.9-3.1,16.7,2,3.4,6.6,5,13.1,4.9h.1c1.7,0,3.4,0,5.3-.3,1.2-.1,2.4-.3,3.7-.5.5,0,.9-.2,1.4-.2,1.9-.3,3.8-.7,5.8-1.3,4.5-1.1,9.5-2.7,14.7-4.6.7-.3,1.5-.5,2.2-.8,1.5-.6,3-1.2,4.5-1.8,7.9-3.3,16.2-7.4,24.6-12.3,3.5-2,6.8-4,10-6.1,2.8-1.8,5.5-3.6,8.1-5.5,4.5-3.2,8.8-6.5,12.5-9.7,2.5-2.3,5-4.9,7.4-7.4,1.2-1.3,2.4-2.7,3.5-3.9.9-1.1,1.8-2.1,2.6-3,1.3,1.8,3.1,3.2,5.1,4.1Z"/>
  <path class="st3" d="M179.4,54.6c-2.4-2.5-5.8-4.1-9.5-4.1s-1.9.1-2.8.3c-2.3-3.5-7.9-5.2-15.5-5.1-2.2,0-3,0-5.5.2-.5-.7-1.1-1.3-1.7-1.9-.7-.7-1.4-1.4-2.1-2.1,7.7-2,15.8-3.5,21.4-3.5,7.8,0,13.3,1.8,15.7,5.9,1.6,2.7,1.6,6.3.2,10.3Z"/>
  <path class="st0" d="M169.9,73.6c5.5,0,9.9-4.4,9.9-9.9s-4.4-9.9-9.9-9.9-9.9,4.4-9.9,9.9,4.4,9.9,9.9,9.9Z"/>
  <g>
    <path class="st1" d="M418,54.9c-6.3-.6-17.8,0-24.4-.2-2.6,0-3.8-.7-3.8-3.7-.1-2.4,0-6.2,0-8.6,0-1.6-.2-4.2,1.9-3.9,10.2.2,64.1-.4,73.7.2.6.2.8,1.9.8,3,0,2.3,0,6.5,0,9.1,0,1.5-.3,3.5-2,3.7-5.6.4-18.8,0-24.7.2-2.6,0-2.3.5-2.3,2.6,0,6,0,12.7,0,23-.4,24.4.7,54.4-.4,63.2-.3.4-2.2.5-3.2.5-2.7,0-7.6,0-10.6,0-2.9-.2-4.4.4-4.3-2,0-10.5,0-64.9,0-86.2,0-.4-.2-.7-.5-.8h0Z"/>
    <path class="st1" d="M428.5,144.3c-2.2,0-4.3,0-5.6,0-.6,0-1.1,0-1.6,0-1.2,0-2,0-2.5-.5-.3-.3-.5-.9-.5-1.7,0-4,0-14.6,0-26.9,0-20.5,0-46.1,0-59.3,0-.3-.1-.5-.4-.6h0c-3.8-.4-9.4-.3-14.8-.2-3.5,0-6.9,0-9.5,0-1.5,0-2.4-.2-3.1-.8-.6-.6-1-1.6-1-3.1-.1-2.2,0-5.6,0-8.1v-.5c0-.2,0-.5,0-.7,0-1.1,0-2.4.8-3.1.4-.3.8-.4,1.4-.3,3.8,0,13.8,0,25.5,0,18.8,0,42.2-.1,48.2.2.9.2,1,2.1,1,3.2,0,2.6,0,6.6,0,9.2,0,1.2-.1,3.7-2.3,4-3.4.3-9.2.2-14.9.2-3.8,0-7.4,0-9.8,0-2.1,0-2.1.2-2.1,1.8,0,.2,0,.3,0,.5,0,3,0,6.1,0,9.7,0,3.8,0,8.1,0,13.3-.1,10,0,21.2,0,31,.1,14.5.2,27-.4,32.2h0c0,0,0,.1,0,.1-.4.4-1.5.5-3.4.6-1.3,0-3.2,0-5.1,0ZM409.4,54.4c3.2,0,6.3,0,8.6.3h.1c.5.3.6.7.7,1.1,0,13.2,0,38.8,0,59.3,0,12.3,0,22.9,0,26.9,0,.7,0,1.1.3,1.3.4.4,1.1.4,2.2.4.5,0,1,0,1.6,0,2.3,0,7.8,0,10.6,0,1.7,0,2.7-.2,2.9-.4.6-5.2.5-17.7.4-32.1,0-9.8-.2-21,0-31,0-5.3,0-9.6,0-13.3,0-3.6,0-6.7,0-9.7,0-.2,0-.4,0-.5,0-1.8.1-2.3,2.6-2.3,2.4,0,6,0,9.9,0,5.7,0,11.5,0,14.8-.2,1.5-.2,1.7-1.8,1.8-3.5,0-2.5,0-6.6,0-9.1,0-1.7-.3-2.7-.6-2.7-5.9-.3-29.3-.3-48.1-.2-11.6,0-21.6,0-25.5,0-.5,0-.8,0-1,.2-.6.5-.6,1.7-.6,2.7,0,.3,0,.5,0,.7v.5c0,2.5,0,5.9,0,8.1,0,1.4.3,2.3.8,2.8.5.5,1.4.7,2.7.7,2.6,0,5.9,0,9.5,0,2.1,0,4.2,0,6.3,0Z"/>
  </g>
  <g>
    <path class="st1" d="M454.2,95.6c0-4.6-.1-11.1-.3-15.8-.1-1.9-.1-4.2,2.2-4.7,2.2-.6,5.1-.4,7.9-.4,2,0,4.6-.2,5.4,1.9,1,1.1-.1,12.1,2.9,8.2,3.4-5,8.3-9.7,14-10.9,2.8-.7,7.5-1.4,8.5,1.4.6,1.6.6,3.4.6,5.1,0,2.1.1,5.2-.3,6.9-.8,3.5-6.5,1.9-9.3,3-10.4,2.2-13.4,12.6-12.9,21.5-.1,7.1.2,22.6-.1,31-.4,2.2-5.5,1.2-8,1.5-2.7,0-5.5,0-7.3,0-1.6-.1-2.5,0-3-1.1-.4-8.4,0-34.2-.2-47.4h0Z"/>
    <path class="st1" d="M468.9,144.5c-.5,0-1.1,0-1.6,0-.9,0-1.8,0-2.5,0-.9,0-1.7,0-2.6,0-1.8,0-3.5,0-4.8,0-.3,0-.5,0-.8,0-1.1,0-2-.1-2.4-1.1h0c-.2-5.1-.2-16.6-.2-27.6,0-7.5,0-14.7,0-19.9h0c0-4.3-.1-11-.3-16,0-1.5-.3-4.4,2.4-5,1.6-.4,3.7-.4,5.9-.4.7,0,1.4,0,2.1,0,.2,0,.5,0,.7,0,1.8,0,4.1,0,4.9,2,.4.5.5,1.8.6,3.9.1,1.9.3,4.8.9,5,0,0,.4,0,.9-.7,2.3-3.5,7.2-9.5,14.1-11,5.1-1.2,8-.6,8.8,1.6.6,1.4.6,3,.6,4.6v.6c0,.5,0,1,0,1.5,0,1.9,0,4.1-.3,5.4-.5,2.5-3.3,2.6-5.9,2.7-1.3,0-2.6.1-3.6.5-10.2,2.1-13.3,12.4-12.7,21.2,0,2.7,0,6.7,0,10.9,0,7,0,14.9-.1,20.1-.3,1.5-2.1,1.7-4.1,1.7ZM465.7,143.9c.5,0,1,0,1.5,0,2.3,0,5,.2,5.2-1.2.2-5.1.2-13.1.1-20,0-4.2,0-8.2,0-10.9-.5-9.1,2.6-19.5,13.1-21.7,1-.4,2.3-.4,3.7-.5,2.6-.1,5-.2,5.5-2.3.3-1.3.3-3.4.3-5.3,0-.5,0-1.1,0-1.5v-.6c0-1.6,0-3-.6-4.4-.7-1.9-3.5-2.3-8.2-1.2-4.9,1-10,5-13.8,10.8-.6.7-1.1,1-1.5.9-.9-.3-1.1-2.3-1.3-5.5,0-1.5-.2-3.3-.5-3.6h0c-.6-1.8-2.7-1.8-4.5-1.8-.2,0-.5,0-.7,0-.7,0-1.4,0-2.1,0-2.1,0-4.2,0-5.8.4-2.1.5-2.1,2.6-2,4.5.2,5,.3,11.7.3,15.9h0c0,5.4,0,12.5,0,20.1,0,11,0,22.3.2,27.4.3.7.8.8,2,.8.2,0,.5,0,.8,0,1.2,0,2.9,0,4.7,0,.8,0,1.7,0,2.6,0,.3,0,.7,0,1,0Z"/>
  </g>
  <g>
    <path class="st1" d="M642.7,103.7c6.3-7.9,13.8-17.5,20.6-25.7,2.2-3,3.9-3.4,7.4-3.3,4.4,0,9.4,0,13.7,0,2.4,0,3.4,0,2.7,1.1-.7,1-2.7,2.9-5.2,5.5-6.2,6.5-15.8,16.3-19.1,19.7-.6.7-1.5,1.4-1.3,2.4,7,10.2,25.2,33.1,29.5,39.1,1,1.6-.3,1.3-3.1,1.4-4.9,0-10.5,0-15.5,0-3.9.2-4.7-2.4-6.7-5-5.1-7.1-12.9-19.2-16.8-24-1.7-1.3-3.6,1.5-5.2,3.3-1.5,1.8-2,4-2,6.3,0,4.1,0,11.6,0,15.4.1,3.3-1.3,3.9-4.6,3.9-2.8,0-7.2,0-9.9,0-1.4-.1-4.3.4-4.2-1.3,0-10.4,0-73.3,0-97.6,0-1.7-.3-2.2,2.7-2.2,1.7,0,3.3,0,5.1,0,2.1,0,4.8,0,6.8,0,2.6.1,4.3-.2,4.2,2.2,0,8.4,0,48.5,0,57.6,0,.7,0,1.8.9,1.1h0Z"/>
    <path class="st1" d="M678.6,144.3c-2.1,0-4.1,0-6.1,0-3.3.2-4.5-1.6-5.9-3.7-.3-.4-.6-.9-.9-1.4-1.9-2.7-4.3-6.1-6.7-9.7-3.8-5.6-7.7-11.3-10.1-14.2-1.4-1-2.9,1-4.3,2.7-.2.2-.4.4-.5.6-1.3,1.7-2,3.7-1.9,6.2,0,1.9,0,4.6,0,7.3,0,3,0,6,0,8.1,0,1.5-.2,2.5-.8,3.2-.8.8-2.1,1-3.8,1s0,0-.1,0c-2.4,0-6,0-8.6,0h-1.3c-.3,0-.7,0-1.1,0-1.1,0-2.4,0-3-.6-.2-.2-.3-.5-.3-.9,0-4.1,0-16.6,0-31.7,0-22.7,0-51.3,0-65.9,0-.2,0-.4,0-.5,0-1.5.3-1.9,2.9-2,1.7,0,3.5,0,5.1,0,2.1,0,4.8,0,6.8,0,.3,0,.6,0,.9,0,1.4,0,2.4,0,3,.7.4.4.5.9.5,1.7,0,4.2,0,16.3,0,28.5,0,12.2,0,24.5,0,29.1h0c0,.3,0,1,.2,1.1,0,0,0,0,.3-.2h0c1.4-1.8,3-3.8,4.5-5.7,5.1-6.4,10.8-13.7,16-20,2.3-3.1,4.2-3.5,7.6-3.4,3.6,0,9,0,13.7,0h.4c1.7,0,2.5,0,2.7.6.2.3,0,.7-.2.9-.5.7-1.5,1.7-2.9,3.2-.7.7-1.5,1.5-2.3,2.4-2.4,2.5-5.3,5.5-8.1,8.4-4.5,4.7-8.9,9.2-10.9,11.3-.1.1-.2.3-.4.4-.5.5-1,1.1-.9,1.7,4.2,6.1,12.5,16.9,19.2,25.5,4.6,6,8.6,11.2,10.3,13.6.3.4.5.9.3,1.3-.2.5-1,.5-2.4.5-.4,0-.8,0-1.3,0-1.7,0-3.5,0-5.3,0-1.4,0-2.7,0-4.1,0ZM672.5,143.8c3.3,0,6.8,0,10.2,0,1.8,0,3.6,0,5.3,0,.5,0,.9,0,1.3,0,.9,0,1.8,0,1.9-.3,0,0,0-.2-.3-.8-1.7-2.4-5.7-7.6-10.3-13.6-6.7-8.7-15-19.5-19.2-25.6h0c-.2-1,.4-1.7,1-2.3.1-.1.2-.3.4-.4,2-2.1,6.4-6.6,11-11.3,2.8-2.9,5.7-5.9,8.1-8.4.8-.9,1.6-1.7,2.3-2.4,1.4-1.4,2.4-2.5,2.9-3.1.2-.3.2-.4.2-.4-.1-.2-1.2-.3-2.3-.3h-.4c-4.8,0-10.1,0-13.7,0-3.4,0-5.1.2-7.2,3.2-5.2,6.3-11,13.6-16,20-1.6,2-3.1,3.9-4.5,5.7h0c-.1.2-.5.5-.8.3-.4-.2-.4-.8-.4-1.4h0c0-4.7,0-17,0-29.2,0-12.2,0-24.3,0-28.5,0-.6,0-1.1-.3-1.4-.5-.5-1.4-.5-2.7-.5-.3,0-.6,0-.9,0-1.9,0-4.6,0-6.7,0-1.5,0-3.3,0-5.1,0-2.4,0-2.4.3-2.4,1.5,0,.2,0,.3,0,.5,0,14.6,0,43.2,0,65.9,0,15.1,0,27.5,0,31.7,0,.2,0,.4.2.6.4.5,1.6.4,2.6.4.4,0,.8,0,1.2,0h1.2c2.6,0,6.2,0,8.6,0,2,0,3-.2,3.6-.8.5-.5.7-1.4.7-2.8,0-2,0-5.1,0-8.1,0-2.7,0-5.4,0-7.3,0-2.5.6-4.7,2-6.5.2-.2.4-.4.5-.6,1.5-1.8,3.3-4,5-2.7h0c2.4,3,6.3,8.8,10.1,14.3,2.4,3.6,4.8,7,6.7,9.7.3.5.6.9.9,1.4,1.4,2.1,2.5,3.7,5.5,3.5Z"/>
  </g>
  <g>
    <path class="st4" d="M426.2,439.6h-28.9v-15.5h76.5v15.5h-29.1v85.6h-18.5v-85.6Z"/>
    <path class="st4" d="M469.9,475.7c0-9.8-.2-17-.6-23.5h16l.7,13.9h.5c3.6-10.3,12.1-15.5,20-15.5s2.9,0,4.3.4v17.4c-1.6-.3-3.2-.5-5.4-.5-8.8,0-14.9,5.6-16.6,14-.3,1.6-.5,3.6-.5,5.6v37.9h-18.5v-49.5Z"/>
    <path class="st4" d="M555.6,525.2l-1.3-8.1h-.4c-4.4,5.8-12.1,9.8-21.5,9.8-14.8,0-23-10.6-23-21.7,0-18.4,16.4-27.8,43.3-27.6v-1.2c0-4.8-1.9-12.8-14.8-12.7-7.2,0-14.7,2.3-19.6,5.4l-3.7-12c5.5-3.4,15-6.5,26.5-6.5,23.4,0,30.1,14.8,30.1,30.8v26.3c0,6.6.3,13.1,1.1,17.6h-16.7ZM553.1,489.4c-13-.2-25.5,2.6-25.5,13.7s4.7,10.5,10.5,10.5,12.7-4.8,14.4-10.1c.4-1.3.5-2.7.5-4v-10.1Z"/>
    <path class="st4" d="M636.8,523c-3.8,1.8-11.4,3.8-20.6,3.8-22.9,0-37.6-14.7-37.6-37.3s14.9-38.9,40.6-38.9,13.6,1.5,17.8,3.3l-3.3,13.9c-3-1.4-7.4-2.9-14-2.9-14.1,0-22.4,10.3-22.4,23.7,0,15,9.8,23.6,22.4,23.6s10.9-1.4,14.5-2.9l2.5,13.7Z"/>
    <path class="st4" d="M661.5,484.2h.3c1.7-2.9,3.8-6,5.8-8.6l17.8-23.5h22.2l-27.1,29.8,30.9,43.2h-22.7l-21-32.3-6.2,7.4v24.9h-18.5v-106.5h18.5v65.5Z"/>
  </g>
</svg>