<svg id="Layer_1" data-name="Layer 1" xmlns="http://www.w3.org/2000/svg" viewBox="0 0 985.58 375.2"><defs><style>.cls-1{fill:#fff;stroke:#010101;}.cls-1,.cls-2{stroke-miterlimit:10;}.cls-2{fill:none;stroke:#fff;stroke-width:13px;}.cls-3{fill:#b32025;}.cls-4{fill:#676767;}</style></defs><title>TfNikan</title><path class="cls-1" d="M48,342.53a4.79,4.79,0,1,0-3.38-8.19,4.73,4.73,0,0,0,0,6.77A4.69,4.69,0,0,0,48,342.53Z" transform="translate(-32.12 -3.42)"/><path class="cls-1" d="M54.48,342.21l-1.5,1.5v19.68A4.8,4.8,0,0,1,51.5,367a5.06,5.06,0,0,1-8.66-3.58V343.74l-1.5-1.5H34.73l-1.5,1.5v19.83a13.89,13.89,0,0,0,4.37,10.34,14.54,14.54,0,0,0,10.45,4.21,13.73,13.73,0,0,0,10.38-4.57A15,15,0,0,0,62.56,363V343.71l-1.5-1.5Z" transform="translate(-32.12 -3.42)"/><path class="cls-1" d="M135,364.93a4.64,4.64,0,0,0-3.38,1.43,4.47,4.47,0,0,0-.35.41c-.12-.14-.24-.28-.37-.41a4.73,4.73,0,0,0-6.77,0,4.82,4.82,0,0,0,0,6.77,4.7,4.7,0,0,0,7.13-.42c.12.14.23.28.36.41a4.6,4.6,0,0,0,3.38,1.43,4.8,4.8,0,0,0,4.81-4.8,4.73,4.73,0,0,0-1.41-3.41A4.68,4.68,0,0,0,135,364.93Z" transform="translate(-32.12 -3.42)"/><path class="cls-1" d="M149.24,342.24a4.81,4.81,0,0,0,1.72-1.13,4.74,4.74,0,0,0,0-6.77,4.82,4.82,0,0,0-6.77,0,4.76,4.76,0,0,0,0,6.77,4.84,4.84,0,0,0,1.73,1.13H144.6l-1.5,1.5v9.89c0,.82-.17,1.26-.29,1.32a8.23,8.23,0,0,1-1.89.12h-4.65V343.74l-1.5-1.5h-6.58l-1.5,1.5v11.33h-6.77v-6.56c0-4.06-2.44-6.3-6.85-6.3H94a7,7,0,0,1-1.28-.09,5.89,5.89,0,0,1-.11-1.33v-2.26h25.77l1.5-1.5v-6.46l-1.5-1.5H84.27l-1.5,1.5v14.7c0,2.24.64,3.91,1.88,4.93a7.36,7.36,0,0,0,4.91,1.38h19.06a5.13,5.13,0,0,1,1.23.1A4.15,4.15,0,0,1,110,353v2.05H76.33c-1.83,0-1.83-.72-1.83-1.42V328.89l-1.5-1.5H66.38l-1.5,1.5v27.74c0,5.1,2.89,7.9,8.12,7.9h71.48c5.29,0,8.2-2.85,8.2-8V343.74l-1.5-1.5Z" transform="translate(-32.12 -3.42)"/><path class="cls-1" d="M172.55,342.21l-1.5,1.5v22.57c0,2-.81,2-1.44,2H163.9l-1.5,1.5v6.82l1.5,1.5h9.22a7.31,7.31,0,0,0,5.64-2.31,8.3,8.3,0,0,0,1.94-5.65V343.71l-1.5-1.5Z" transform="translate(-32.12 -3.42)"/><polygon class="cls-1" points="152.4 323.97 150.9 325.47 150.9 359.62 152.4 361.12 159.01 361.12 160.51 359.62 160.51 325.47 159.01 323.97 152.4 323.97"/><path class="cls-1" d="M234.75,342.17h-3.21a4.54,4.54,0,0,0,1.57-1.06,4.74,4.74,0,0,0,0-6.77,4.82,4.82,0,0,0-6.77,0,4.8,4.8,0,0,0,1.57,7.83H225c-4.36,0-6.76,2.26-6.76,6.34V355h-5.9l0,0h-.75V343.71l-1.5-1.5h-1.47a4.82,4.82,0,0,0,1.31-.95,4.81,4.81,0,1,0-6.78,0,4.93,4.93,0,0,0,1.3.95h-1l-1.5,1.5v22.57c0,2-.81,2-1.44,2H194.8l-1.5,1.5v6.82l1.5,1.5H204a7.29,7.29,0,0,0,5.64-2.31,8.3,8.3,0,0,0,1.94-5.65v-5.63h23.15c4.35,0,6.76-2.25,6.76-6.34v-9.68C241.51,344.43,239.1,342.17,234.75,342.17Zm-3,12.86h-3.82v-3.38h3.82Z" transform="translate(-32.12 -3.42)"/><polygon class="cls-1" points="213.18 323.97 211.68 325.47 211.68 359.62 213.18 361.12 219.79 361.12 221.29 359.62 221.29 325.47 219.79 323.97 213.18 323.97"/><path class="cls-1" d="M279.62,342.53a4.79,4.79,0,0,0,3.39-8.19,4.82,4.82,0,0,0-6.77,0,4.8,4.8,0,0,0,3.38,8.19Z" transform="translate(-32.12 -3.42)"/><path class="cls-1" d="M309.47,365a4.79,4.79,0,0,0-3.73,1.84c-.12-.14-.24-.28-.37-.41a4.73,4.73,0,0,0-6.77,0,4.82,4.82,0,0,0,0,6.77,4.74,4.74,0,0,0,6.77,0,4.83,4.83,0,0,0,.37-.42c.11.14.23.28.35.41a4.6,4.6,0,0,0,3.38,1.43,4.81,4.81,0,1,0,0-9.61Z" transform="translate(-32.12 -3.42)"/><path class="cls-1" d="M310.4,356.51V343.74l-1.5-1.5h-6.58l-1.5,1.5v9.89c0,.82-.17,1.26-.29,1.32a8.29,8.29,0,0,1-1.9.12h-4.46V343.71l-1.5-1.5h-6.58l-1.5,1.5v19.68a4.84,4.84,0,0,1-1.48,3.58,4.9,4.9,0,0,1-3.61,1.48,5,5,0,0,1-5.05-5.06V343.74l-1.5-1.5h-6.61l-1.5,1.5v19.83a13.92,13.92,0,0,0,4.36,10.34,14.55,14.55,0,0,0,10.45,4.21A13.74,13.74,0,0,0,290,373.55a14.81,14.81,0,0,0,4.06-9h8.1C307.49,364.53,310.4,361.68,310.4,356.51Z" transform="translate(-32.12 -3.42)"/><path class="cls-1" d="M350.36,342.24a4.84,4.84,0,0,0,1.73-1.13,4.81,4.81,0,1,0-6.78,0,4.9,4.9,0,0,0,1.72,1.13h-1.31l-1.5,1.5v9.89c0,.82-.16,1.26-.29,1.32a8.13,8.13,0,0,1-1.89.12h-4.5v-6.53c0-4.08-2.4-6.33-6.76-6.33h-9.71c-4.36,0-6.76,2.25-6.76,6.33v9.68c0,4.07,2.4,6.31,6.74,6.31h6.79v3.4c0,.64-.06.76-.8.76H315.81l-1.5,1.5v6.43l1.5,1.5h13.9c5.05,0,7.83-2.82,7.83-7.93v-5.66h8.06c5.29,0,8.21-2.85,8.21-8V343.74l-1.5-1.5Zm-22.52,12.81-.24,0h-3.4l-.27,0v-3.39l.27,0h3.64v3.4Z" transform="translate(-32.12 -3.42)"/><path class="cls-1" d="M385.22,342.17c-4.38,0-6.79,2.27-6.79,6.37v9.65c0,4.09,2.41,6.34,6.79,6.34h1.62a4.69,4.69,0,0,1-1.73,2.46,7.32,7.32,0,0,1-4.67,1.46,6.25,6.25,0,0,1-4.16-1.26,4.76,4.76,0,0,1-1.49-3.81V343.67l-1.5-1.5h-6.62l-1.5,1.5v19.88a13.87,13.87,0,0,0,4.33,10.67,15.19,15.19,0,0,0,10.79,3.9,15.48,15.48,0,0,0,10.88-4.37A14.22,14.22,0,0,0,396,363v-2.94c0-4.48-3.09-5-4.42-5H388V353c0-1.11.3-1.41,1.39-1.41h7l1.5-1.5v-6.44l-1.5-1.5Z" transform="translate(-32.12 -3.42)"/><path class="cls-1" d="M408.76,342.21l-1.5,1.5v22.57c0,2-.81,2-1.45,2H400.1l-1.5,1.5v6.82l1.5,1.5h9.23a7.28,7.28,0,0,0,5.63-2.31,8.25,8.25,0,0,0,1.94-5.65V343.71l-1.5-1.5Z" transform="translate(-32.12 -3.42)"/><path class="cls-1" d="M435.69,342.21H426c-4.36,0-6.76,2.25-6.76,6.33v9.68c0,4.07,2.39,6.31,6.74,6.31h6.79v3.4c0,.64-.06.76-.8.76H420.72l-1.5,1.5v6.43l1.5,1.5h13.9c5.05,0,7.83-2.82,7.83-7.93V348.55C442.45,344.46,440.05,342.21,435.69,342.21Zm-2.95,12.84-.24,0h-3.39l-.27,0s0-.06,0-.1v-3.29l.28,0h3.64V355A.28.28,0,0,1,432.74,355.05Z" transform="translate(-32.12 -3.42)"/><polygon class="cls-1" points="418.06 323.97 416.56 325.47 416.56 359.62 418.06 361.12 424.67 361.12 426.17 359.62 426.17 325.47 424.67 323.97 418.06 323.97"/><path class="cls-1" d="M457.51,321.88a37.39,37.39,0,0,1-4.11-.32,41,41,0,0,0-4.45-.34c-3.59,0-5.65,2.12-5.65,5.8l1.5,1.5h2.49l1.5-1.5c0-.12,0-.19,0-.2a1.75,1.75,0,0,1,.69-.1,36.49,36.49,0,0,1,3.8.3,38.16,38.16,0,0,0,4.16.33,32.85,32.85,0,0,0,5-.41l1.27-1.48v-2.35L462,321.62A38.06,38.06,0,0,1,457.51,321.88Z" transform="translate(-32.12 -3.42)"/><path class="cls-1" d="M479,342.53a4.79,4.79,0,0,0,3.38-8.19,4.82,4.82,0,0,0-6.77,0,4.8,4.8,0,0,0,3.39,8.19Z" transform="translate(-32.12 -3.42)"/><path class="cls-1" d="M516.64,342.17h-3.2a4.74,4.74,0,0,0,1.57-1.06,4.75,4.75,0,1,0-5.21,1.06h-2.87c-4.36,0-6.76,2.26-6.76,6.34V355h-5.9l0,0h-.66V343.71l-1.5-1.5H485.5l-1.5,1.5v19.68a4.84,4.84,0,0,1-1.48,3.58,4.9,4.9,0,0,1-3.6,1.48,5,5,0,0,1-5.06-5.06V343.74l-1.5-1.5h-6.61l-1.5,1.5v19.83a13.92,13.92,0,0,0,4.36,10.34,14.58,14.58,0,0,0,10.46,4.21,13.73,13.73,0,0,0,10.38-4.57,14.87,14.87,0,0,0,4.07-9h23.12c4.36,0,6.76-2.25,6.76-6.34v-9.68C523.4,344.43,521,342.17,516.64,342.17Zm-3,12.86h-3.82v-3.38h3.83S513.64,355,513.63,355Z" transform="translate(-32.12 -3.42)"/><path class="cls-1" d="M617,342.24l-1.5,1.5v9.89c0,1.13-.31,1.44-1.45,1.44h-1.63V343.74l-1.5-1.5h-6.61l-1.5,1.5v11.33h-2.92V343.74l-1.5-1.5h-6.61l-1.5,1.5v11.33h-9.06l2-2.29a6.45,6.45,0,0,0,1.78-4.24,5.8,5.8,0,0,0-2.45-4.64,7.56,7.56,0,0,0-4.7-1.63h-8.69a7.56,7.56,0,0,0-4.7,1.63,5.8,5.8,0,0,0-2.45,4.64,6.45,6.45,0,0,0,1.78,4.24l2,2.29H558V341.6l-1.5-1.5h-6.89l-1.5,1.5v.57h-6.58c-4.36,0-6.76,2.25-6.76,6.31v9.71c0,4.09,2.4,6.34,6.76,6.34h75.27c5.29,0,8.2-2.82,8.2-8V343.74l-1.5-1.5Zm-68.81,12.83h-3.73V351.5h3.73Z" transform="translate(-32.12 -3.42)"/><path class="cls-1" d="M666.06,333a4.62,4.62,0,0,0-3.38,1.43c-.12.13-.24.27-.35.41a5,5,0,0,0-.37-.42,4.74,4.74,0,0,0-6.77,0,4.82,4.82,0,0,0,0,6.77,4.68,4.68,0,0,0,3.1,1.41l-1.09,1.1v9.89c0,.82-.17,1.26-.29,1.32a8.29,8.29,0,0,1-1.9.12h-4.46v-6.53c0-4.08-2.4-6.33-6.76-6.33h-9.71c-4.36,0-6.76,2.25-6.76,6.33v9.68c0,4.07,2.39,6.31,6.74,6.31h6.79v3.4c0,.64-.06.76-.8.76H628.82l-1.5,1.5v6.43l1.5,1.5h13.9c5,0,7.83-2.82,7.83-7.93v-5.66h8c5.29,0,8.2-2.85,8.2-8V343.74l-1.1-1.1h.38a4.81,4.81,0,1,0,0-9.61Zm-25.22,22-.24,0h-3.39l-.27,0a.31.31,0,0,1,0-.1v-3.29l.28,0h3.63s0,3.3,0,3.3S640.84,355,640.84,355.05Zm19.69-12.81a5,5,0,0,0,1.43-1c.13-.14.26-.28.37-.42a4.59,4.59,0,0,0,.36.41,4.83,4.83,0,0,0,1.42,1Z" transform="translate(-32.12 -3.42)"/><path class="cls-1" d="M741,342.24l-1.5,1.5v9.89c0,1.13-.31,1.44-1.45,1.44H736.4V343.74l-1.5-1.5h-6.61l-1.5,1.5v11.33h-2.93V343.74l-1.5-1.5h-6.61l-1.5,1.5v11.33H696.54l-1.5,1.5V363l1.5,1.5h1.75c3.07,0,3.07,1,3.07,1.27s0,1.11-1.7,1.88a9.18,9.18,0,0,1-3.75.77c-3.75,0-5.35-1.51-5.35-5.06V343.74l-1.5-1.5h-6.61l-1.5,1.5v19.83a14.1,14.1,0,0,0,4.12,10.58,14.76,14.76,0,0,0,10.69,4,15.35,15.35,0,0,0,11-4.17,11.35,11.35,0,0,0,4-8.33,4.34,4.34,0,0,0-.15-1.09h30.3c5.29,0,8.2-2.82,8.2-8V343.74l-1.5-1.5Z" transform="translate(-32.12 -3.42)"/><path class="cls-1" d="M852.49,342.21h-15l-1.5,1.5v11.36h-6.71v-6.56c0-4.08-2.4-6.34-6.76-6.34h-4.66v-.45l-1.5-1.5h-6.85l-1.5,1.5v.45H803.4c-4.38,0-6.79,2.26-6.79,6.34v6.56h-7V343.74l-1.5-1.5h-2a4.84,4.84,0,0,0,1.73-1.13,4.72,4.72,0,0,0,1.41-3.39,4.66,4.66,0,0,0-1.42-3.38,4.82,4.82,0,0,0-6.77,0,4.74,4.74,0,0,0,0,6.77,4.81,4.81,0,0,0,1.72,1.13h-1.25l-1.5,1.5v11.33H773.4v-6.53c0-4.08-2.4-6.33-6.76-6.33H752.9l-1.5,1.5v6.4l1.5,1.5h9.29c1.09,0,1.39.3,1.39,1.41v2.05H752.9l-1.5,1.5V363l1.5,1.5h99.59c4.38,0,6.79-2.26,6.79-6.37v-9.62C859.28,344.46,856.87,342.21,852.49,342.21ZM808,355.07h-1.51l-.24,0v-3.46H808Zm11.6-.12a.37.37,0,0,1,0,.11h-1.74v-3.49h1.75Zm29.87.11h-3.7v-3.43h3.71S849.52,355,849.51,355.06Z" transform="translate(-32.12 -3.42)"/><path class="cls-1" d="M886,342.65a4.67,4.67,0,0,0,3.39-1.42l.37-.42c.11.14.23.27.35.41a4.64,4.64,0,0,0,3.38,1.43,4.81,4.81,0,1,0,0-9.61,4.6,4.6,0,0,0-3.38,1.43,4.47,4.47,0,0,0-.35.41,5,5,0,0,0-.37-.42,4.74,4.74,0,0,0-6.77,0,4.82,4.82,0,0,0,0,6.77A4.66,4.66,0,0,0,886,342.65Z" transform="translate(-32.12 -3.42)"/><path class="cls-1" d="M916.61,329.07l-1.5,1.5v14.7c0,2.24.64,3.91,1.88,4.93a7.34,7.34,0,0,0,4.91,1.38H941a5.24,5.24,0,0,1,1.24.1,4.15,4.15,0,0,1,.15,1.34v2.05H908V343.74l-1.5-1.5h-6.59l-1.5,1.5v11.33H883a16.9,16.9,0,0,1-2.57-.12,3.86,3.86,0,0,1-.17-1.36v-9.85l-1.5-1.5h-6.61l-1.5,1.5v12.8c0,5.15,2.91,8,8.2,8h71.87l1.5-1.5V348.51c0-4.06-2.43-6.3-6.85-6.3h-19a7,7,0,0,1-1.28-.09,5.89,5.89,0,0,1-.11-1.33v-2.26h25.76l1.5-1.5v-6.46l-1.5-1.5Z" transform="translate(-32.12 -3.42)"/><path class="cls-1" d="M1011.14,342.24h-6.58l-1.5,1.5v9.89c0,1.13-.31,1.44-1.45,1.44H1000V343.74l-1.15-1.15a4.65,4.65,0,0,0,3.33-1.42,4.82,4.82,0,0,0,0-6.77,4.67,4.67,0,0,0-2.46-1.33,5.08,5.08,0,0,0,.16-1.24,4.69,4.69,0,0,0-1.41-3.4,4.75,4.75,0,0,0-3.4-1.37,4.78,4.78,0,0,0-4.78,4.77,4.91,4.91,0,0,0,.15,1.22,4.69,4.69,0,0,0-2.54,1.35,4.82,4.82,0,0,0,0,6.77,4.66,4.66,0,0,0,3.38,1.42h.26l-1.16,1.16v11.33h-2.92V343.74l-1.5-1.5h-6.61l-1.5,1.5v11.33h-6.65V343.71l-1.5-1.5h-6.64l-1.5,1.5v22.57c0,2-.81,2-1.45,2h-5.71l-1.5,1.5v6.82l1.5,1.5h9.23a7.28,7.28,0,0,0,5.63-2.31,8.25,8.25,0,0,0,1.94-5.65v-5.63h33.25c5.29,0,8.2-2.82,8.2-8V343.74Zm-18,0a4.72,4.72,0,0,0,1.57-1.07,3.79,3.79,0,0,0,.38-.42,4.71,4.71,0,0,0,.36.42,4.93,4.93,0,0,0,1.57,1.07Z" transform="translate(-32.12 -3.42)"/><path class="cls-2" d="M836.7,210c0,23.89-.23,47.78.13,71.66.11,7.74-1.93,12.65-11.05,15.43-7.6,2.32-16.13,1.66-24.26,2-.93,0-2.18-1.81-2.84-3-.45-.84-.13-2.1-.14-3.17q-.39-66.55-.77-133.12c0-6.88-.1-7-6.74-7-22.64,0-45.28,0-67.93,0-9.07,0-9.75.81-9.77,9.77-.09,32.09-.09,64.18-.33,96.27,0,4.32,2.47,4,5.16,4q20.87,0,41.72,0c8.38,0,16.77.14,25.14,0,4-.09,5.84,1.09,5.72,5.45-.25,8.72-.19,17.47,0,26.2.07,3.2-1,4.62-4.2,4.64s-6.41.21-9.62.22q-39,0-78.09,0c-16.78,0-25-8.17-25-25q-.08-55.6.08-111.21a73.53,73.53,0,0,1,2-16.39c3-12.63,11.11-21.36,23.29-25.07a109.12,109.12,0,0,1,28.76-5.11c28.51-.67,57-.34,85.57-.26,15.27,0,23.35,8.44,23.32,23.59q-.08,35,0,70.07Z" transform="translate(-32.12 -3.42)"/><path class="cls-3" d="M836.7,210c0,23.89-.23,47.78.13,71.66.11,7.74-1.93,12.65-11.05,15.43-7.6,2.32-16.13,1.66-24.26,2-.93,0-2.18-1.81-2.84-3-.45-.84-.13-2.1-.14-3.17q-.39-66.55-.77-133.12c0-6.88-.1-7-6.74-7-22.64,0-45.28,0-67.93,0-9.07,0-9.75.81-9.77,9.77-.09,32.09-.09,64.18-.33,96.27,0,4.32,2.47,4,5.16,4q20.87,0,41.72,0c8.38,0,16.77.14,25.14,0,4-.09,5.84,1.09,5.72,5.45-.25,8.72-.19,17.47,0,26.2.07,3.2-1,4.62-4.2,4.64s-6.41.21-9.62.22q-39,0-78.09,0c-16.78,0-25-8.17-25-25q-.08-55.6.08-111.21a73.53,73.53,0,0,1,2-16.39c3-12.63,11.11-21.36,23.29-25.07a109.12,109.12,0,0,1,28.76-5.11c28.51-.67,57-.34,85.57-.26,15.27,0,23.35,8.44,23.32,23.59q-.08,35,0,70.07Z" transform="translate(-32.12 -3.42)"/><path class="cls-2" d="M188,189.19q0,46.55,0,93.07c0,12.3-7.47,20.5-19.76,21.36-5.14.35-10.34,0-15.5.12-3.5.07-4.69-1.62-4.65-4.93.09-8.73,0-17.47,0-26.21V101.44c0-16.21,1.88-32.15,9.57-46.66,10.56-19.94,26.24-34.53,47.83-42a50.05,50.05,0,0,1,15.71-2.51c42.26-.2,84.51-.11,126.77-.12,10.16,0,16.69,6,18.35,16.15,2,12.06,3.58,10.48-13,10.42-27.46-.09-56.92-.1-84.37-.28-9.61-.06-20.45.2-29.83,2.26-12.77,2.81-24.73,5.71-33.62,14.7-11.82,12-11.66,14-14.09,22.77a83.29,83.29,0,0,0-3.29,21C187.8,127.86,188,158.53,188,189.19Z" transform="translate(-32.12 -3.42)"/><path class="cls-4" d="M188,189.19q0,46.55,0,93.07c0,12.3-7.47,20.5-19.76,21.36-5.14.35-10.34,0-15.5.12-3.5.07-4.69-1.62-4.65-4.93.09-8.73,0-17.47,0-26.21V101.44c0-16.21,1.88-32.15,9.57-46.66,10.56-19.94,26.24-34.53,47.83-42a50.05,50.05,0,0,1,15.71-2.51c42.26-.2,84.51-.11,126.77-.12,10.16,0,16.69,6,18.35,16.15,2,12.06,3.58,10.48-13,10.42-27.46-.09-56.92-.1-84.37-.28-9.61-.06-20.45.2-29.83,2.26-12.77,2.81-24.73,5.71-33.62,14.7-11.82,12-11.66,14-14.09,22.77a83.29,83.29,0,0,0-3.29,21C187.8,127.86,188,158.53,188,189.19Z" transform="translate(-32.12 -3.42)"/><path class="cls-2" d="M854.44,296.83c-.11-1.93-.25-3.34-.25-4.74q0-77,0-154.09c0-13.4,7.65-21.5,21-21.59,28.17-.17,56.35-.33,84.53.07,12.13.17,24.25,1.79,34.87,8.65s16.28,16.71,16.37,29.05q.45,64.2-.12,128.4c0,3.37-3,7.61-5.92,9.9-8.54,6.84-19,4.69-28.86,4.42-.82,0-2.11-2.18-2.27-3.47a78.87,78.87,0,0,1-.32-9.61q.09-62.32.23-124.65c0-3.83-1.48-6.16-5.39-6.57a79.06,79.06,0,0,0-8-.57c-21-.05-42.09.1-63.13-.13-4.81-.05-5.72,1.28-5.63,6.1.42,23.36.27,46.72.29,70.08q0,23.82-.06,47.62c0,11.71-6.15,19.42-17.71,21C867.87,297.52,861.41,296.83,854.44,296.83Z" transform="translate(-32.12 -3.42)"/><path class="cls-3" d="M854.44,296.83c-.11-1.93-.25-3.34-.25-4.74q0-77,0-154.09c0-13.4,7.65-21.5,21-21.59,28.17-.17,56.35-.33,84.53.07,12.13.17,24.25,1.79,34.87,8.65s16.28,16.71,16.37,29.05q.45,64.2-.12,128.4c0,3.37-3,7.61-5.92,9.9-8.54,6.84-19,4.69-28.86,4.42-.82,0-2.11-2.18-2.27-3.47a78.87,78.87,0,0,1-.32-9.61q.09-62.32.23-124.65c0-3.83-1.48-6.16-5.39-6.57a79.06,79.06,0,0,0-8-.57c-21-.05-42.09.1-63.13-.13-4.81-.05-5.72,1.28-5.63,6.1.42,23.36.27,46.72.29,70.08q0,23.82-.06,47.62c0,11.71-6.15,19.42-17.71,21C867.87,297.52,861.41,296.83,854.44,296.83Z" transform="translate(-32.12 -3.42)"/><path class="cls-2" d="M294.48,213.6q0-38,0-76c0-12.53,7.44-21.08,19.81-21.13,31.55-.11,63.1.06,94.64.81,11.92.29,23.25,4,32.16,12.64a33.68,33.68,0,0,1,10.2,24.58c.22,42.62.08,85.23.13,127.84,0,7-4.75,11-10.1,12.28-7.81,1.89-16.11,1.8-24.22,2.23-.88.05-2.33-1.89-2.7-3.14-.48-1.65-.17-3.53-.18-5.31q-.27-63.37-.52-126.76c0-8.26-1.24-9.57-9.67-9.6-22.46-.09-44.93,0-67.39-.15-4.07,0-4.95,1.32-4.92,5.33.21,24.77.08,49.55,0,74.32,0,14.62-.1,29.24-.12,43.86,0,13.41-7.24,21-20.77,21.74-3.91.2-7.85-.14-11.76.11s-4.73-1.48-4.71-5.06C294.54,266,294.48,239.81,294.48,213.6Z" transform="translate(-32.12 -3.42)"/><path class="cls-3" d="M294.48,213.6q0-38,0-76c0-12.53,7.44-21.08,19.81-21.13,31.55-.11,63.1.06,94.64.81,11.92.29,23.25,4,32.16,12.64a33.68,33.68,0,0,1,10.2,24.58c.22,42.62.08,85.23.13,127.84,0,7-4.75,11-10.1,12.28-7.81,1.89-16.11,1.8-24.22,2.23-.88.05-2.33-1.89-2.7-3.14-.48-1.65-.17-3.53-.18-5.31q-.27-63.37-.52-126.76c0-8.26-1.24-9.57-9.67-9.6-22.46-.09-44.93,0-67.39-.15-4.07,0-4.95,1.32-4.92,5.33.21,24.77.08,49.55,0,74.32,0,14.62-.1,29.24-.12,43.86,0,13.41-7.24,21-20.77,21.74-3.91.2-7.85-.14-11.76.11s-4.73-1.48-4.71-5.06C294.54,266,294.48,239.81,294.48,213.6Z" transform="translate(-32.12 -3.42)"/><path class="cls-2" d="M569,196.13l17.21-23.81c12.42-17.19,25-34.3,37.19-51.64,2.81-4,4.9-4.15,8.41-1.14,3.91,3.36,8.51,5.95,12.3,9.42,8.92,8.14,9.3,16.67,2.24,26.36-15.74,21.6-31.26,43.35-47.22,65.52l62.6,49.84c-6,7.66-10.32,16.2-18.87,21-6.39,3.58-12.6,3.79-18.84-1.24-18.44-14.9-37.12-29.5-55.72-44.2-1.36-1.07-2.86-2-5-3.41-.2,2.94-.47,5.19-.48,7.43-.06,8.92,0,17.84,0,26.75,0,12.77-7.35,20.62-20.13,21.26-4.63.23-9.28-.05-13.91.08-3.51.09-4.49-1.42-4.49-4.86,0-23-.3-46-.25-69,.06-33.69.4-67.39.45-101.09,0-4.27,1.19-6.31,5.73-6,3.9.25,7.84-.06,11.76.09,12.85.48,20.8,8.71,20.83,21.58,0,15.87.07,31.74-.16,47.61C562.57,191.11,563.79,194.26,569,196.13Z" transform="translate(-32.12 -3.42)"/><path class="cls-3" d="M569,196.13l17.21-23.81c12.42-17.19,25-34.3,37.19-51.64,2.81-4,4.9-4.15,8.41-1.14,3.91,3.36,8.51,5.95,12.3,9.42,8.92,8.14,9.3,16.67,2.24,26.36-15.74,21.6-31.26,43.35-47.22,65.52l62.6,49.84c-6,7.66-10.32,16.2-18.87,21-6.39,3.58-12.6,3.79-18.84-1.24-18.44-14.9-37.12-29.5-55.72-44.2-1.36-1.07-2.86-2-5-3.41-.2,2.94-.47,5.19-.48,7.43-.06,8.92,0,17.84,0,26.75,0,12.77-7.35,20.62-20.13,21.26-4.63.23-9.28-.05-13.91.08-3.51.09-4.49-1.42-4.49-4.86,0-23-.3-46-.25-69,.06-33.69.4-67.39.45-101.09,0-4.27,1.19-6.31,5.73-6,3.9.25,7.84-.06,11.76.09,12.85.48,20.8,8.71,20.83,21.58,0,15.87.07,31.74-.16,47.61C562.57,191.11,563.79,194.26,569,196.13Z" transform="translate(-32.12 -3.42)"/><path class="cls-2" d="M207.09,196.72c0-31.74-.05-63.48.06-95.22a78.35,78.35,0,0,1,1.27-14.34c2.81-14.92,11.9-24.69,26.34-28.61a112,112,0,0,1,26.81-4.17c28.34-.52,56.69-.26,85-.18,14.29,0,22.82,8.27,23,22.45.2,15.6,1.36,13-12.38,13.1-31.92.12-63.84,0-95.75,0-14.88,0-14.88,0-14.88,14.8,0,57.95-.3,115.9.18,173.85.14,16.52-10.81,22.89-23.2,23.14-3.75.08-7.5-.14-11.23.05-4,.21-5.54-1.62-5.27-5.42.08-1.06,0-2.14,0-3.21Z" transform="translate(-32.12 -3.42)"/><path class="cls-4" d="M207.09,196.72c0-31.74-.05-63.48.06-95.22a78.35,78.35,0,0,1,1.27-14.34c2.81-14.92,11.9-24.69,26.34-28.61a112,112,0,0,1,26.81-4.17c28.34-.52,56.69-.26,85-.18,14.29,0,22.82,8.27,23,22.45.2,15.6,1.36,13-12.38,13.1-31.92.12-63.84,0-95.75,0-14.88,0-14.88,0-14.88,14.8,0,57.95-.3,115.9.18,173.85.14,16.52-10.81,22.89-23.2,23.14-3.75.08-7.5-.14-11.23.05-4,.21-5.54-1.62-5.27-5.42.08-1.06,0-2.14,0-3.21Z" transform="translate(-32.12 -3.42)"/><path class="cls-2" d="M468.93,207.73v-77c0-13.43,0-13.58,13.69-13.29A35.85,35.85,0,0,1,494,119.61c7.34,2.73,11.51,8.48,12,16.23s0,15.29,0,22.93q.25,57.71.55,115.42c.06,16.69-7.38,24-24.15,24.12-13.47.06-13.47.06-13.47-13.63Z" transform="translate(-32.12 -3.42)"/><path class="cls-3" d="M468.93,207.73v-77c0-13.43,0-13.58,13.69-13.29A35.85,35.85,0,0,1,494,119.61c7.34,2.73,11.51,8.48,12,16.23s0,15.29,0,22.93q.25,57.71.55,115.42c.06,16.69-7.38,24-24.15,24.12-13.47.06-13.47.06-13.47-13.63Z" transform="translate(-32.12 -3.42)"/><path class="cls-2" d="M488.68,76.36c-16.43-.33-31.17-10.07-35.5-23.78-6.31-20,8.93-40.81,31-42.46,10.95-.82,21,1.58,29.48,8.65,9.73,8.12,13.68,18.77,10.88,31.1-3.06,13.44-12.45,21.21-25.37,24.86C495.79,75.68,492.18,75.84,488.68,76.36Z" transform="translate(-32.12 -3.42)"/><path class="cls-3" d="M488.68,76.36c-16.43-.33-31.17-10.07-35.5-23.78-6.31-20,8.93-40.81,31-42.46,10.95-.82,21,1.58,29.48,8.65,9.73,8.12,13.68,18.77,10.88,31.1-3.06,13.44-12.45,21.21-25.37,24.86C495.79,75.68,492.18,75.84,488.68,76.36Z" transform="translate(-32.12 -3.42)"/><path class="cls-2" d="M166.27,11.61l-8.41,5.51a43.2,43.2,0,0,0-16.67,19.64c-1.44,3.42-3.43,4.84-7.24,4.82q-44.61-.19-89.22,0c-4.3,0-5.79-1.33-6-5.79C37.89,18,41.25,9.28,63.66,10c32.21,1,64.47.23,96.7.22H166Z" transform="translate(-32.12 -3.42)"/><path class="cls-4" d="M166.27,11.61l-8.41,5.51a43.2,43.2,0,0,0-16.67,19.64c-1.44,3.42-3.43,4.84-7.24,4.82q-44.61-.19-89.22,0c-4.3,0-5.79-1.33-6-5.79C37.89,18,41.25,9.28,63.66,10c32.21,1,64.47.23,96.7.22H166Z" transform="translate(-32.12 -3.42)"/></svg>