<svg id="Layer_1" data-name="Layer 1" xmlns="http://www.w3.org/2000/svg" viewBox="0 0 1830.38 553.05"><defs><style>.cls-1{fill:#b32025;}.cls-2{fill:#676767;}</style></defs><title>Tfnikan solid</title><path class="cls-1" d="M1546.59,640.27c0,45-.44,89.93.24,134.88.22,14.56-3.63,23.8-20.79,29-14.29,4.36-30.35,3.11-45.65,3.75-1.75.08-4.11-3.4-5.34-5.68-.85-1.58-.26-3.94-.27-6Q1474,671,1473.32,545.76c-.07-13-.18-13.12-12.67-13.12-42.61,0-85.23-.06-127.84.09-17.09.06-18.35,1.53-18.4,18.38-.16,60.4-.17,120.79-.62,181.17-.07,8.14,4.64,7.6,9.72,7.6q39.27.06,78.52,0c15.77,0,31.55.26,47.31-.09,7.54-.16,11,2.06,10.75,10.26-.47,16.43-.35,32.88,0,49.32.13,6-2,8.7-7.9,8.74s-12.07.39-18.1.39q-73.49.06-147,0c-31.59,0-47-15.36-47-47-.09-69.77-.17-139.53.15-209.3a138.28,138.28,0,0,1,3.68-30.86c5.61-23.76,20.91-40.19,43.83-47.16,17.44-5.31,36-9.19,54.12-9.62,53.66-1.27,107.36-.65,161-.5,28.73.09,44,15.89,43.89,44.4-.1,43.95,0,87.91,0,131.86Z" transform="translate(-44.62 -263.75)"/><path class="cls-2" d="M325.74,601.14q0,87.58,0,175.15c0,23.14-14.06,38.59-37.19,40.19-9.69.67-19.46,0-29.18.23-6.58.14-8.81-3.05-8.75-9.27.17-16.44,0-32.88,0-49.32V436c0-30.52,3.55-60.52,18-87.82,19.88-37.53,49.4-65,90-79a93.76,93.76,0,0,1,29.58-4.72c79.52-.38,159-.21,238.57-.23,19.12,0,31.41,11.36,34.54,30.4,3.72,22.69,6.74,19.72-24.43,19.61-51.68-.18-107.11-.19-158.79-.52-18.08-.12-38.47.36-56.14,4.24-24,5.29-46.53,10.75-63.26,27.67-22.25,22.5-22,26.26-26.53,42.85-3.52,12.78-6,26.28-6.18,39.49C325.37,485.71,325.74,543.43,325.74,601.14Z" transform="translate(-44.62 -263.75)"/><path class="cls-1" d="M1580,803.71c-.2-3.64-.46-6.28-.46-8.93q0-145,0-290c0-25.22,14.41-40.47,39.56-40.63,53-.33,106.06-.63,159.08.13,22.84.32,45.64,3.37,65.63,16.27,19.83,12.79,30.65,31.45,30.82,54.68q.84,120.81-.24,241.64c-.06,6.35-5.74,14.32-11.13,18.64-16.08,12.86-35.71,8.82-54.31,8.32-1.55,0-4-4.12-4.28-6.53a145.31,145.31,0,0,1-.6-18.09q.15-117.3.43-234.59c0-7.22-2.79-11.59-10.14-12.37-5-.52-10-1-15-1.07-39.6-.09-79.21.19-118.81-.24-9-.1-10.75,2.41-10.59,11.48.79,43.95.51,87.93.54,131.89q0,44.8-.1,89.62c-.06,22-11.57,36.55-33.33,39.48C1605.26,805,1593.09,803.71,1580,803.71Z" transform="translate(-44.62 -263.75)"/><path class="cls-1" d="M526.15,647.07q0-71.48,0-143c0-23.58,14-39.68,37.28-39.76,59.37-.21,118.75.11,178.1,1.53,22.43.53,43.77,7.44,60.53,23.77,12.92,12.59,19.1,28.69,19.2,46.27.42,80.2.15,160.39.25,240.59,0,13.13-8.94,20.67-19,23.11-14.69,3.55-30.33,3.38-45.59,4.2-1.66.08-4.38-3.55-5.07-5.92-.92-3.09-.33-6.64-.35-10q-.5-119.26-1-238.54c-.07-15.55-2.33-18-18.19-18.08-42.28-.17-84.56,0-126.84-.27-7.64,0-9.31,2.47-9.25,10,.39,46.62.15,93.25.08,139.87,0,27.51-.18,55-.23,82.54-.05,25.23-13.62,39.58-39.08,40.91-7.37.39-14.79-.26-22.14.22S526,801.79,526,795C526.26,745.72,526.15,696.39,526.15,647.07Z" transform="translate(-44.62 -263.75)"/><path class="cls-1" d="M1042.76,614.19q16.26-22.52,32.37-44.8c23.39-32.36,47-64.55,70-97.19,5.28-7.49,9.22-7.81,15.82-2.14,7.36,6.32,16,11.19,23.15,17.72,16.78,15.32,17.49,31.38,4.2,49.62C1158.7,578,1129.49,619,1099.46,660.69l117.8,93.81c-11.21,14.41-19.42,30.49-35.5,39.47-12,6.72-23.72,7.13-35.46-2.35-34.71-28-69.86-55.51-104.86-83.17-2.56-2-5.38-3.72-9.33-6.42-.38,5.54-.9,9.76-.92,14-.1,16.78,0,33.56,0,50.34,0,24-13.84,38.79-37.89,40-8.7.43-17.45-.1-26.17.14-6.6.18-8.46-2.66-8.46-9.14,0-43.28-.56-86.57-.47-129.85.12-63.42.76-126.83.86-190.25,0-8,2.23-11.87,10.77-11.33,7.35.46,14.77-.12,22.14.16,24.18.91,39.15,16.39,39.19,40.62.06,29.87.14,59.74-.3,89.6C1030.69,604.75,1033,610.67,1042.76,614.19Z" transform="translate(-44.62 -263.75)"/><path class="cls-2" d="M361.68,615.3c0-59.73-.09-119.46.11-179.19a149.64,149.64,0,0,1,2.38-27c5.3-28.09,22.41-46.46,49.59-53.84,16.35-4.43,33.56-7.53,50.44-7.85,53.34-1,106.7-.5,160.06-.35,26.88.08,42.93,15.57,43.28,42.26.37,29.35,2.56,24.54-23.31,24.64-60.06.24-120.13.06-180.19.08-28,0-28,.05-28,27.86,0,109.06-.55,218.12.35,327.17.25,31.11-20.35,43.08-43.67,43.57-7,.14-14.11-.28-21.14.09-7.53.39-10.42-3-9.91-10.21.15-2,0-4,0-6Z" transform="translate(-44.62 -263.75)"/><path class="cls-1" d="M854.46,636V491.18c0-25.27,0-25.55,25.77-25a67.19,67.19,0,0,1,21.48,4c13.82,5.13,21.67,15.95,22.51,30.54.82,14.34-.07,28.77,0,43.16q.46,108.6,1,217.21c.12,31.41-13.88,45.25-45.44,45.39-25.36.11-25.35.11-25.35-25.64Z" transform="translate(-44.62 -263.75)"/><path class="cls-1" d="M891.62,388.8c-30.91-.63-58.66-19-66.8-44.76-11.87-37.65,16.81-76.82,58.35-79.92,20.62-1.54,39.5,3,55.49,16.29,18.31,15.27,25.74,35.33,20.47,58.53-5.75,25.28-23.43,39.9-47.74,46.78C905,387.52,898.22,387.81,891.62,388.8Z" transform="translate(-44.62 -263.75)"/><path class="cls-2" d="M284.86,266.93,269,277.29c-14.11,9.24-24.85,21.44-31.39,37-2.71,6.43-6.44,9.1-13.61,9.06q-84-.36-167.92,0c-8.1,0-10.89-2.5-11.29-10.9-1.59-33.51,4.74-49.88,46.93-48.61,60.61,1.83,121.31.44,182,.42h10.64Z" transform="translate(-44.62 -263.75)"/></svg>