<?xml version="1.0" encoding="UTF-8"?>
<svg width="24" height="24" fill="#000000" version="1.1" viewBox="0 0 24 24" xmlns="http://www.w3.org/2000/svg">
<path d="m12 3.47c-.449.00023-.885.00458-1.13.0156-.177.00736-.668.0223-1.09.0352-.985.0258-1.98.0742-2.95.139l-.4.0273-.105.0859c-.381.319-.835.751-1.11 1.05-.569.622-.835 1.01-1.5 2.21-.11.199-.132.216-.207.162-.0608-.0423-.0801-.139-.0801-.398 0-.265-.0116-.291-.139-.328-.133-.0387-.586-.0449-.775-.0117-.344.0589-.619.194-.689.336-.0534.112-.0534.355 0 .479.105.238.335.351.738.369l.232.00977.0195-.0469c.0644-.14.239-.257.42-.283.116-.0147.106.0199-.0137.0586-.134.0442-.213.0957-.246.16-.046.0884-.0281.102.152.113.184.011.301.0392.301.0742 0 .0129-.0929.131-.207.262-.241.278-.397.478-.469.59-.0534.0847-.0977.104-.0977.0469 0-.0571.104-.243.213-.387.0552-.0718.0951-.131.0859-.131-.0295 0-.397.24-.602.395-.457.344-.865.728-1.47 1.39l-.342.373-.0762.271c-.136.482-.216.87-.262 1.27-.011.101-.0279.245-.0371.318-.011.0736-.0176.192-.0176.266v.135l.113.117c.0865.0865.158.135.287.197.0939.046.17.0882.17.0938 0 .0055-.0548.00535-.121-.00195-.142-.0147-.281-.0626-.367-.129-.0331-.0258-.0628-.0488-.0684-.0488-.00368 0-.00151.0526.00586.115.00736.0644.0452.731.082 1.49s.0705 1.38.0742 1.39c.00368.011.0543.0342.111.0508.153.0442.31.13.404.217.133.123.0774.124-.16.00586-.114-.0571-.239-.108-.275-.113l-.0664-.0117-.0117.0801c-.046.333-.0283.755.0527 1.35.0497.352.0838.48.178.637.0939.155.291.339.445.418l.131.0684.701-.0195c.385-.0129 1.09-.0278 1.57-.0352l.871-.0137.0469-.0488c.0368-.035.0512-.0726.0586-.143l.00977-.0938h-.227c-.296 0-.682-.0757-.682-.133 0-.011.0531-.0133.123-.00781.241.0184 3.17.0322 3.59.0156.324-.0129.482-.0276.672-.0645.293-.0571.592-.0955.947-.125.361-.0295 5.88-.0295 6.24 0 .355.0295.656.0679.949.125.19.0368.348.0516.672.0645.418.0166 3.34.0028 3.59-.0156.07-.0055.123-.00329.123.00781 0 .0571-.385.133-.682.133h-.227l.00977.0938c.0074.07.0218.108.0586.143l.0488.0488.871.0137c.477.0074 1.18.0222 1.57.0332l.699.0215.111-.0547c.249-.122.48-.389.568-.656.0387-.114.113-.653.141-1.02.0202-.261.0159-.489-.0117-.725l-.0117-.0898-.0684.00977c-.0368.0074-.159.0582-.273.115-.238.118-.295.118-.162-.00586.0939-.0865.251-.173.404-.217.0571-.0166.11-.0397.113-.0508.0037-.0129.0374-.64.0742-1.39.0368-.755.0727-1.42.0801-1.49.0074-.0626.0115-.115.00781-.115-.0055 0-.0372.023-.0703.0488-.0865.0663-.223.114-.365.129-.0663.0074-.123.00755-.123.00195 0-.0055.078-.0477.172-.0938.129-.0626.199-.111.285-.197l.115-.117v-.111c0-.144-.0654-.709-.113-.994-.046-.272-.106-.525-.205-.879l-.0742-.271-.156-.17c-.86-.937-1.22-1.28-1.75-1.66-.191-.14-.476-.322-.5-.322-.0092 0 .0307.0591.0859.131.109.144.211.33.211.387 0 .0571-.0423.0378-.0957-.0469-.0718-.112-.23-.312-.471-.59-.114-.131-.205-.249-.205-.262 0-.035.115-.0632.299-.0742.18-.011.198-.0249.152-.113-.0331-.0644-.112-.116-.244-.16-.122-.0387-.13-.0733-.0137-.0586.18.0258.355.143.418.281.0202.0423.0257.0449.191.0449.412 0 .713-.146.807-.393.046-.122.0357-.413-.0195-.486-.103-.138-.357-.255-.678-.311-.188-.0331-.645-.0269-.775.0117-.127.0368-.137.063-.137.328 0 .26-.0193.356-.0801.398-.0755.0534-.0985.0367-.209-.162-.663-1.2-.927-1.59-1.49-2.21-.28-.306-.749-.749-1.12-1.06l-.0957-.0801-.355-.0254c-.875-.0644-1.79-.111-2.7-.139-.37-.011-.904-.0279-1.19-.0371-.291-.0101-.752-.0139-1.2-.0137zm-5.36.236c.0131-.00184.0176.00354.0176.0137 0 .00736-.0484.0475-.105.0898-.101.0718-.188.179-.158.195.00921.00368.127-.00273.264-.0156 3.62-.35 7.51-.354 10.5-.0117.16.0184.295.0288.299.0215.0166-.0258-.074-.131-.166-.195-.105-.0718-.132-.11-.0605-.0898.416.123 1.35 1.3 2.28 2.87.263.447.329.578.307.6-.011.00921-.172.00876-.424-.00781-2.36-.145-4.78-.217-7.52-.217-2.77 0-5.19.0733-7.46.219-.232.0147-.395.0151-.406.00586-.0239-.0221.0372-.142.295-.578.913-1.55 1.8-2.68 2.24-2.87.0341-.0156.0572-.0255.0703-.0273zm-1.98 5.17c.0108-.00112.0391.0492.0957.168.0423.0939.171.387.285.65.114.263.218.487.232.498.0147.011.16.0258.342.0332.409.0166 1.02.0737 1.05.0977.0313.0313-.0127.117-.0605.117-.0239 0-.239-.021-.477-.0449-.238-.0258-.537-.0512-.666-.0586-.136-.0074-.243-.0203-.252-.0332-.0331-.0387-.555-1.37-.555-1.41 0-.0115.00226-.0172.00586-.0176zm14.6.00391c.0055.00552-.000669.0434-.0117.082-.0405.125-.517 1.32-.533 1.34-.011.011-.112.0258-.246.0332-.123.0074-.425.0327-.672.0566-.247.0258-.464.0469-.484.0469-.0424 0-.0823-.0896-.0547-.117.0239-.0239.638-.0811 1.05-.0977.182-.0074.329-.0222.344-.0332.0147-.011.116-.235.23-.498.26-.6.366-.829.381-.814zm-16.9.918c.102-.00023.201.00561.264.0176.0589.00921.257.068.439.127.646.212 1.07.289 1.78.324.138.0074.258.0179.268.0234.00921.0055.296.562.635 1.24.648 1.29.684 1.37 1.07 2.42.0976.261.226.593.287.736.32.751.697 1.31 1.21 1.78.149.138.153.141.541.207.519.0884 1.07.13 1.95.148.654.0129.876.0287.801.0508-.0295.0092-.523.0177-1.1.0195-.893.0037-1.08-.00164-1.35-.0293-.337-.0368-.825-.115-.861-.137-.0129-.0092-.0908-.0834-.17-.17-.433-.462-.783-.981-1.07-1.57-.158-.331-.235-.521-.498-1.25-.223-.615-.312-.837-.457-1.14l-.0996-.213-.117-.0117c-.0644-.0055-.337-.0182-.605-.0293-1.68-.07-3.07-.223-3.75-.416-.335-.0957-.534-.23-.613-.412-.046-.109-.0594-.3-.041-.549.0184-.226.0833-.734.104-.799.0147-.0515.816-.305 1.09-.346.0764-.011.181-.0173.283-.0176zm19.2.00391c.191-.00458.459.018.615.0566.331.081.872.268.883.303.0202.0663.085.576.102.795.0184.26.00297.457-.0449.557-.116.245-.372.375-.994.5-.722.147-1.97.267-3.36.324-.269.011-.541.0238-.605.0293l-.115.0117-.0625.125c-.114.226-.277.627-.439 1.08-.484 1.33-.672 1.74-1.1 2.33-.208.291-.611.761-.695.814-.0368.0221-.524.0999-.861.137-.269.0276-.461.033-1.35.0293-.573-.0018-1.06-.0103-1.1-.0195-.0755-.0221.147-.0379.801-.0508.886-.0184 1.43-.0601 1.95-.148.388-.0663.392-.0688.537-.205.446-.418.752-.839 1.04-1.43.169-.344.271-.593.518-1.26.0994-.269.224-.6.279-.736.0921-.236 1.33-2.72 1.36-2.75.0092-.0055.131-.0161.27-.0234.709-.035 1.13-.114 1.78-.324.182-.0608.374-.118.424-.127.0396-.00782.0945-.0121.158-.0137zm-6.4.0723c.196-.00276.363.00262.578.0137.722.0368 1.15.142 1.35.328.0828.081.117.199.148.518.0424.414-.0341.855-.209 1.21-.291.582-.776.879-1.59.969-.247.0276-1.83.0417-2.36.0215-.376-.0147-.432-.0215-.496-.0547-.271-.142-.383-.517-.383-1.28-.0018-.409.0469-1.14.0801-1.23.0092-.0239.041-.0514.0723-.0625.035-.011.0739-.0479.102-.0977.081-.138.0776-.136.52-.184.517-.0571.973-.0972 1.42-.121.34-.0184.567-.0285.764-.0312zm-6.63.00781c.332-.00676.713-3.78e-5 1.14.0234.705.0405 1.75.145 1.82.184.0239.0129.0664.0616.0977.111.035.0571.0744.0965.109.109.0313.0092.0611.0366.0703.0605.0313.0847.082.841.082 1.24 0 .613-.0736.953-.256 1.17-.0994.12-.162.136-.551.15-.536.0202-1.81.0183-2.17-.00195-.175-.011-.394-.0321-.49-.0469-.801-.133-1.31-.586-1.5-1.33-.0994-.396-.0993-.888.00195-1.21.0925-.287.653-.443 1.65-.463zm-6.9.539c-.00368 0-.0165.0189-.0312.041-.0847.134-.128.448-.0859.646.0331.162.138.353.258.473.32.32.815.355 1.18.082.107-.0792.257-.257.236-.277-.00552-.0074-.0391.00938-.0723.0352-.359.271-.877.226-1.2-.104-.201-.203-.292-.447-.281-.734.00184-.0902.00379-.162.00195-.162zm5.54.0195c-.0395.00312-.0756.0132-.082.0293-.0166.0442-.0124.276.00781.449.0295.239.108.538.182.686.07.142.124.19.107.0957-.00552-.0295-.0264-.316-.043-.635-.0166-.319-.0378-.591-.0488-.604-.0145-.0186-.0723-.0255-.123-.0215zm9.68 0c-.0414.00227-.0779.0118-.0859.0215-.011.0129-.0342.285-.0508.604-.0166.319-.0355.605-.041.635-.0166.0939.0355.0461.105-.0957.11-.221.201-.66.201-.973 0-.182-.0044-.191-.109-.191-.00598 0-.0136-.000323-.0195 0zm5.59.00391c-.0122-.00253-.0154.0362-.0117.117.0276.512-.327.955-.814 1.03-.232.0331-.495-.0315-.67-.164-.0331-.0258-.0667-.0426-.0723-.0371-.0202.0184.138.209.23.277.468.342 1.1.189 1.36-.332.107-.212.124-.529.041-.752-.0322-.0875-.0523-.132-.0645-.135zm-14.9.0137c-.0661.000999-.0684.00886-.0684.0508 0 .0295.015.34.0371.695.0295.49.0442.652.0645.674.0147.0166.0715.0544.123.082l.0938.0508-.0117-.174c-.00552-.0957-.0264-.425-.043-.734-.0184-.309-.0376-.58-.0449-.604-.0129-.035-.0308-.041-.119-.041-.0122 0-.0218-.000143-.0312 0zm9.01 0c-.0626.00153-.0766.0104-.0879.041-.011.0331-.0956 1.35-.0938 1.47 0 .0295.00894.0304.0918-.0156.0497-.0276.102-.0635.117-.0801.0184-.0221.035-.191.0645-.674.0221-.355.0391-.666.0391-.695 0-.0479-.004-.0508-.102-.0508-.011 0-.0204-.000219-.0293 0zm-8.72.0195v.0586c0 .0957.0729 1.38.084 1.46.00736.0718.0122.0766.117.115l.111.0391v-.115c0-.0626-.00848-.234-.0195-.381-.00921-.147-.0242-.462-.0371-.699-.0129-.238-.03-.444-.041-.457-.00921-.0129-.0582-.0215-.115-.0215h-.0996zm8.37 0c-.0385.00319-.0673.0118-.0742.0215-.0166.0202-.0995 1.36-.0977 1.57v.0801l.0957-.0371c.0516-.0202.102-.0455.111-.0547.0166-.0166.104-1.26.105-1.5v-.0859h-.0996c-.0143 0-.0282-.00106-.041 0zm-8.02.0176v.0684c.00184.223.0906 1.61.104 1.62.0239.0221.192.0617.205.0488.0129-.0129-.0616-1.67-.0781-1.72-.00552-.0147-.0474-.0215-.121-.0215h-.109zm7.7 0c-.0736 0-.116.00679-.121.0215-.0055.0202-.023.322-.0801 1.45-.0074.145-.0074.27 0 .273.0166.011.185-.0305.207-.0508.0074-.0074.0304-.288.0488-.627.0184-.337.0395-.715.0469-.84l.0137-.225h-.115zm-7.24.0176c-.055.00208-.107.0115-.107.0234 0 .0589.0728 1.46.082 1.59l.0137.15.111.0195c.0608.011.115.0174.119.0137.00552-.0055-.0224-.554-.0703-1.41-.011-.197-.0237-.364-.0273-.371-.00829-.0129-.0661-.0177-.121-.0156zm6.85.00195c-.0398.00232-.072.00802-.0762.0156-.0055.0074-.0266.334-.0469.723-.0202.388-.0415.787-.0488.887l-.0117.182.0527-.00977c.0276-.0055.0843-.0161.121-.0234l.0664-.00977.00976-.15c.0092-.122.0859-1.55.0859-1.6 0-.0115-.086-.0156-.152-.0117zm-2.9.00391c-.0166.0023-.0278.00836-.0352.0176-.0497.0589-.0702.284-.0684.75 0 .508.027.715.117.906.0442.0957.0742.115.0742.0469 0-.0221.0171-.41.041-.863.0221-.453.0368-.828.0312-.834-.0055-.0055-.0476-.016-.0918-.0215-.0295-.0037-.0518-.00426-.0684-.00195zm-1.08.00195c-.0175.000912-.0339.00311-.0449.00586-.0368.0074-.043.0207-.043.104 0 .149.0767 1.64.0859 1.65.011.011.0454-.0451.0859-.145.112-.278.141-1.25.0449-1.54-.0202-.0608-.0303-.0724-.0781-.0742-.0147-9e-4-.0333-.000913-.0508 0zm1.37.00781-.0117.137c-.0055.0736-.0182.299-.0293.502-.0092.203-.028.54-.0391.75-.011.212-.0171.395-.00976.41.0074.0202.0401.0273.121.0273h.107l.0117-.17c.0221-.317.0856-1.62.0801-1.62-.0037-.0037-.0565-.0102-.119-.0176l-.111-.0137zm-4 .00195.00977.0977c.00552.0534.0181.262.0273.465.0497 1.04.0595 1.22.0742 1.23.00921.0092.066.0176.123.0176h.104l-.00195-.0996c-.00552-.127-.0368-.765-.0645-1.3l-.0234-.404-.125-.00586-.123-.00586zm2.36.00391c-.025-.000539-.0627.00596-.119.0117-.0387.0037-.0703.0182-.0703.0293 0 .0792.0788 1.54.0898 1.65l.0117.137.102-.00586c.0552-.0018.108-.0103.117-.0195.0092-.0092.00899-.175-.00391-.381-.011-.201-.028-.544-.0391-.762-.011-.217-.0238-.456-.0293-.529-.0076-.101-.00357-.13-.0586-.131zm3.87 0c-.0443.000765-.0662.00707-.0703.0195-.0037.0129-.0163.211-.0273.439-.0442.899-.0571 1.15-.0645 1.26l-.00781.107.109-.00781c.0608-.0037.116-.0162.125-.0254.0092-.0092.0326-.381.0547-.826.0221-.446.0412-.844.0449-.885l.00391-.0723-.117-.00586c-.0203-.000924-.036-.00221-.0508-.00195zm-.27.00195c-.025.00101-.0575.00494-.0996.00977-.0718.0092-.07-.00919-.0977.611-.011.249-.0299.582-.0391.738-.0092.157-.0176.334-.0176.393v.109l.115-.0137c.0548-.00481.105-.0117.117-.0156.011-.011.0989-1.8.0879-1.82-.00575-.0104-.0247-.0134-.0664-.0117zm-5.54.00391c-.0202.00126-.0343.00321-.0371.00781-.011.0166.0319.955.0742 1.63l.0117.188.0645.00976c.0387.0055.0936.0117.123.0117h.0527l-.0137-.254c-.00552-.138-.0201-.41-.0293-.602-.011-.193-.026-.491-.0352-.66-.00921-.169-.0178-.313-.0215-.316-.0152-.0138-.129-.0233-.189-.0195zm.32.00781v.117c0 .0644.00837.244.0176.4.011.157.0261.492.0371.746.0276.624.0173.573.141.59.0589.0074.11.00514.121-.00586.00921-.0092.0091-.137-.00195-.328-.011-.171-.0262-.509-.0391-.752-.011-.243-.0258-.513-.0332-.6l-.0117-.156-.23-.0117zm.471.00195c-.0552 0-.104.00628-.107.0137-.00552.0092-.0015.147.00586.309.00921.162.0241.485.0352.719.0129.232.0278.51.0352.617l.0117.193.115.00586.115.00391v-.0879c.0018-.217-.0772-1.69-.0938-1.73-.0129-.035-.0307-.041-.117-.041zm.363 0c-.0518.00276-.104.0135-.109.0273-.0055.0147-.00123.198.00977.41.011.21.0299.547.0391.75.0239.475.0363.643.0547.654.0074.0055.064.00571.121.00391l.104-.00781-.00977-.195c-.0055-.109-.0201-.362-.0293-.564-.0368-.716-.0572-1.05-.0664-1.06-.00828-.0138-.0615-.0184-.113-.0156zm2.9 0c-.0562.000923-.113.00962-.117.0234-.0037.0129-.0145.218-.0273.455-.011.238-.0279.571-.0371.738s-.0178.37-.0215.451l-.00586.146.109.0156c.131.0184.139.0101.143-.145 0-.0608.017-.457.0391-.879.0221-.423.0388-.776.0352-.787-.0046-.0138-.061-.0205-.117-.0195zm.328 0c-.037.000928-.068.00596-.0742.0156-.0092.0166-.0296.325-.0664 1.04-.0092.203-.0238.462-.0293.576l-.0117.203.105.00781c.0571.0018.112-.00036.121-.00586.0202-.011.118-1.77.102-1.81-.00691-.0184-.0848-.0289-.146-.0273zm.4 0c-.0513.00207-.102.0115-.111.0234-.0166.0221-.0587.759-.0918 1.55l-.0117.281h.113c.0736 0 .118-.0069.123-.0234.011-.035.0971-1.81.0879-1.82-.00644-.011-.0581-.0157-.109-.0137zm.363 0c-.0608 0-.114.0083-.119.0156-.0055.0092-.0201.18-.0293.383-.0405.771-.0588 1.15-.0625 1.3l-.00195.156.107-.00586c.0608-.0018.114-.00998.119-.0137.0092-.0092.0919-1.54.0938-1.73v-.105h-.107zm-3.67.00391c-.0417.000332-.074.00422-.0781.00976-.0037.0074-.00144.121.00586.254.0092.131.0242.443.0371.691.0129.249.0278.546.0352.662l.0117.211.109-.00391c.0608-.0018.114-.0122.121-.0195.0055-.0074.00106-.225-.0137-.482-.0129-.258-.0359-.661-.0488-.893l-.0215-.424-.113-.00586c-.0156-.000925-.031-.000111-.0449 0zm9.08.861c-.0092 0-.0176.0377-.0176.0801 0 .101-.0909.287-.172.355-.157.133-.349.17-.531.0996-.0516-.0202-.0979-.033-.102-.0293-.0202.0202.153.142.236.166.12.0368.151.037.266.00195.214-.0626.357-.258.357-.479 0-.125-.0132-.195-.0371-.195zm-15.5.00195c-.00723.00173-.0146.0135-.0215.0391-.00552.0239-.0117.0917-.0117.154 0 .221.144.416.357.479.114.035.148.0348.268-.00195.0829-.0239.255-.146.234-.166l-.00195-.00195c-.0124.000621-.0552.0155-.104.0332-.19.0736-.426.0184-.555-.129-.0792-.0902-.143-.238-.143-.33 0-.0518-.0114-.079-.0234-.0762zm-1.05 3.63c.297-.000225.622.00548.863.0156.539.0239 1.23.0653 1.87.111.278.0202.512.0352.521.0352.00736 0 .0117.0169.0117.0371 0 .0718-.0474.0758-.537.0371-1.43-.114-2.2-.145-2.82-.113-.387.0202-.763.0518-.781.0684-.00368.0037.0281.0416.0723.084.261.254.232.681-.0625.902-.166.125-.462.184-.609.119-.0516-.0221-.048-.024.0938-.0332.341-.0202.566-.244.566-.559 0-.16-.0567-.28-.186-.395-.103-.0902-.129-.0908-.395-.00977-.226.0718-.396.161-.518.27-.0589.0516-.112.0915-.115.0859-.0203-.0184.0794-.175.164-.262.21-.212.561-.325 1.17-.377.129-.011.398-.0174.695-.0176zm17.2.00391c.538-.00423 1.21.0114 1.4.0391.453.0626.735.171.908.344.0902.0902.188.251.168.271-.0055.0055-.0437-.0259-.0879-.0664-.101-.0994-.228-.179-.379-.234-.149-.0571-.382-.121-.436-.121-.0221 0-.0813.038-.133.084-.287.258-.219.712.137.885.0755.0387.14.0531.25.0586.184.011.166.0418-.0293.0547-.337.0202-.65-.192-.711-.484-.0424-.199.0242-.421.166-.559.0442-.0424.074-.0803.0703-.084-.0184-.0166-.393-.0481-.779-.0684-.624-.0313-1.4-.000873-2.82.113-.473.0368-.537.0334-.537-.0273 0-.0129.00841-.0297.0176-.0371.0295-.0166 1.45-.112 2.33-.156.126-.00598.29-.0103.469-.0117zm-4.43.309c.0658-.00115.0684.0079.0684.0254 0 .0166-.0381.0968-.0859.18-.285.504-.529.748-.818.814-.538.122-1.59.182-3.18.182-1.89-.0018-3.06-.0904-3.35-.26-.134-.0773-.328-.275-.453-.465-.149-.228-.27-.45-.252-.469.0147-.0147.0871-.0123.877.043 1.24.0865 1.99.113 3.36.113 1.4 0 2.3-.035 3.39-.129.252-.0221.381-.034.447-.0352zm4.35.369c.0497-.0018.0877.000206.084.00391-.0074.0092-.333.0351-.801.0664-.921.0608-1.16.0782-1.53.111-.223.0202-.506.0497-.629.0645-.272.0331-.301.0314-.301.00195 0-.0129.0233-.0489.0527-.082.0516-.0534.065-.0586.17-.0586.0608 0 .516-.0169 1.01-.0371.492-.0202 1.11-.0435 1.37-.0527.263-.0074.519-.0176.568-.0176zm-16.7.00391c-.00736-.0074.0992-.00386 1.06.0293 1.59.0552 2.08.0795 2.12.102.0423.0258.0947.114.0781.131-.00552.0074-.172-.00522-.367-.0273-.6-.0663-.865-.087-2.09-.168-.464-.0313-.791-.0572-.799-.0664zm3.21 1.25c.0909.000687.268.0122.613.0352 1.31.0865 2.28.111 4.56.111 2.28 0 3.24-.0248 4.56-.111.69-.046.709-.0464.709-.00586 0 .0202-.0104.0474-.0215.0566-.0129.011-.131.0239-.264.0312-.131.0074-.468.0243-.746.0391-1.48.0773-2.05.0898-4.23.0898-2.19 0-2.75-.0125-4.23-.0898-.278-.0147-.614-.0317-.746-.0391-.131-.0074-.251-.0202-.262-.0312-.0129-.0092-.0234-.0364-.0234-.0566 0-.0203.00479-.03.0957-.0293zm15.4.371c.0711-.000692.124.00126.119.00586-.0368.035-1.71.23-2.69.312-1.32.109-2.23.0584-2.48-.137-.0681-.0534-.0331-.0644.0977-.0312.265.0663.484.0866.998.0977.7.0147 1.15-.0133 2.92-.168.4-.0368.765-.0666.811-.0703.0681-.00552.157-.00907.229-.00977zm-20.6.00195c-.0166-.0184.419.011 1.37.0957 1.56.138 1.69.145 2.46.146.736 0 .864-.0086 1.2-.0859.0902-.0202.168-.0308.176-.0234.0184.0184-.0689.0785-.174.117-.359.136-1.21.16-2.35.0664-1.01-.0847-2.65-.278-2.69-.316z" fill="#000"/>
</svg>
