<?xml version="1.0" encoding="UTF-8"?>
<svg width="24" height="24" fill="#000000" version="1.1" viewBox="0 0 24 24" xmlns="http://www.w3.org/2000/svg">
<path d="m18 4.79-.213.738c-.638-.372-1.17-.626-1.9-.346-.391.15-.858.491-.541.949.2.288.491.463.816.602-.469.132-.923.264-1.02.801-1.52-.885-3.29-.959-4.86-.129-.847.45-1.41 1.3-2.43 1.29-1.54-.00779-2.04-1.03-3.27-1.66-.983-.502-2.41-.348-3.48-.348l.105.316-.316.422c1.29.241 1.93 1.26 3.06 1.87 1.1.588 2.45.626 3.46 1.47.66.552 1.46 1.79.338 2.15-1.21-4.21-7.74-3.06-7.6 1.27.121 3.75 6.1 5.59 7.38 1.58 1.64 1.02 3.52.682 5.38.637.906-.0223 1.86.104 2.74-.107-.195-1.45-.475-2.43.635-3.59-.176.906-.305 1.73-.0254 2.64 1.63 5.27 9.81 1.72 7.11-3.17-.3-.542-.761-1.02-1.28-1.36-.654-.43-1.35-.539-2.11-.539l.316-.318-.211-.316c1.43-.582-.996-2.61-1.42-3.38-.311-.557-.0346-1.14-.688-1.48zm-1.65 2.02c.754.283 1.64.439 2.07 1.25-.308.122-.805.496-1.14.434-.45-.0845-.762-1.2-.932-1.69zm3.74 4.62c2.95.108 3.7 4.79.438 5.36-3.45.604-4.54-4.73-1.06-5.31.215-.036.423-.0502.619-.043zm-16 .0723c1.02.00995 2.05.521 2.54 1.62l-2.85.633.105.951 2.85-.105c-.467 3.11-4.94 2.75-5.35-.211-.258-1.85 1.22-2.91 2.71-2.89zm4.29 3.1c.242-.0055.515.184.674.533l-1.16.105c.0337-.432.246-.633.488-.639z" fill="#040404"/>
</svg>
