<?xml version="1.0" encoding="UTF-8"?>
<svg width="24" height="24" fill="#000000" version="1.1" viewBox="0 0 24 24" xmlns="http://www.w3.org/2000/svg">
<path d="m9.06 5.36c-.215-.0055-.437.0245-.652.0391-.107.0073-.217-.0107-.312.0527-.152.101-.107.314-.227.426-.0405.038-.142.0288-.195.041-.0996.0228-.193.0678-.271.133-.191.158-.288.392-.451.574-.0542.0603-.164.167-.254.158-.116-.0109-.233-.14-.34-.186l-.354.566h-.0137c-.133-.152-.468-.282-.607-.0527-.201.331-.174.911-.113 1.28.0157.0942.0367.35.129.402.0383.0217.115.00203.158.00195-.0702.19-.114.637.0664.775.0933.0716.229.0605.34.0605-.0907.193-.201.376-.301.564-.054.101-.101.232-.174.32-.0447.0543-.132.0623-.189.102-.0927.0633-.149.165-.191.266-.435-.202-.939-.242-1.41-.242-.218 0-.474.003-.68.082-.166.0638-.208.265-.354.32-.629.239-1.18.6-1.6 1.13-.264.337-.458.723-.58 1.13-.114.379-.148.778-.131 1.17.0139.315.0877.634.193.93.641 1.8 2.71 2.71 4.49 2.02.449-.173.856-.445 1.2-.783.365-.363.64-.822.803-1.31.0517-.154.0627-.339.129-.484.0366-.0804.135-.126.186-.201.0962-.142.099-.321.0918-.486-.0156-.353-.077-.699-.182-1.04-.0426-.138-.135-.276-.16-.416-.0191-.107.0306-.244.041-.352.0199-.207.0198-.412 0-.619-.0535-.558-.234-1.1-.256-1.66-.00906-.232.0631-.459.082-.688.107.036.311.0821.387.168.068.0774.0787.246.107.344.0727.247.156.494.264.729.0842.183.214.335.303.512.258.518.46 1.11.617 1.67.0468.165.0166.355.0371.525.0455.38.144.758.312 1.1.213.436.506.859.934 1.11.411.243.944.282 1.41.303.949.0412 1.88-.044 2.82-.174.578-.0799 1.23-.138 1.78-.324.259.666.658 1.24 1.25 1.66 1.56 1.1 3.79.699 4.86-.883.204-.304.361-.643.455-.996.103-.39.142-.798.104-1.2-.145-1.51-1.31-2.79-2.82-3.04-.53-.0886-1.09-.0652-1.6.0977-.187.0591-.416.235-.518-.00391.768-.288 1.58-.374 2.4-.338.425.0184.854.05 1.26.176.175.0538.335.145.502.219.217.0958.471.163.666.299.284.198.532.576.65.896.0622.168.0817.469.301.508.44.0788.309-.441.223-.67-.0985-.261-.155-.619-.322-.846-.0549-.0739-.135-.0995-.213-.143-.142-.0789-.284-.193-.436-.25v-.0137c.0586 0 .12.00549.178-.00781.148-.034.23-.183.195-.328-.0524-.219-.242-.466-.357-.66-.123-.208-.391-.176-.6-.162-.271.0184-.699.158-.934-.0215-.0788-.0605-.163-.262-.195-.355-.021-.0612.027-.133.0527-.188.0652-.138.127-.278.188-.418.217-.504.459-1.02.568-1.56.0524-.258.0776-.533-.141-.725-.251-.221-.622-.123-.818.119-.245.302-.302.702-.248 1.08.0285.198.0697.455.291.525-.073.187-.159.369-.238.553-.0199.0463-.0509.166-.104.184-.0565.0192-.176-.0681-.229-.0898-.205-.0845-.387-.186-.611-.213-.59-.071-1.2-.0277-1.79-.00195-.264.0115-.605-.0248-.857.0566-.224.072-.153.324-.264.482-.2.286-.644.509-.998.498-.689-.0218-1.35-.336-2.04-.336-.321.000134-.756.133-.951.402h-.0137c-.2-.3-.479-.567-.734-.82-.617-.612-1.36-1.26-2.25-1.41-.494-.0822-.985.03-1.47.129-.0435-.11-.161-.156-.258-.213-.0397-.0235-.113-.0508-.127-.0996-.0299-.108.115-.351.154-.455l.148-.391c.02-.0532.0356-.142.0781-.182.108-.102.342.0224.439.0762.227.126.452.252.678.379.116.0653.227.144.367.127.331-.0414.233-.438 0-.535.235.0104.43.267.68.207.215-.0518.247-.346.0801-.469-.0949-.0695-.218-.103-.324-.152-.247-.115-.498-.224-.748-.332-.139-.06-.293-.166-.447-.17zm-1.32.861-.176.498-.131.334-.162.152-.291.537-.244-.0938.365-.592-.135-.082c.26-.25.439-.597.773-.754zm2.01 0 .0684.0273v.0137l-.082-.0273.0137-.0137zm-2.14 1.48.121.0664c-.0352.119-.12.23-.184.336-.129.213-.222.417-.441.553l.213-.418.291-.537zm-1.15 1.01-.082.148-.082-.135.164-.0137zm.23.74c-.182.698.0486 1.39.156 2.07.0411.263.0332.518.0332.781h-.0137c-.265-.39-.599-.8-1.02-1.04.0354-.0843.0881-.164.104-.256.0129-.0763-.0189-.156.00977-.229.113-.284.298-.551.439-.822.0825-.159.161-.386.289-.512zm-2.91 2.37c.249 0 .529.0199.76.121-.115.273-.274.533-.416.793-.0461.0846-.0932.256-.176.311-.0384.0252-.113.000726-.156 0-.1-.0012-.199.0123-.297.0352-.378.0887-.683.361-.846.705-.366.774.244 1.67 1.08 1.72.334.0228.666-.122.91-.34.359-.32.48-.856.316-1.3-.0387-.105-.0941-.205-.158-.297-.0293-.0422-.0938-.0935-.0918-.148.0034-.0962.115-.237.16-.322.136-.255.263-.518.41-.768.195.0862.369.318.494.484.479.639.615 1.53.33 2.28-.49 1.29-2.02 1.98-3.31 1.4-1.12-.507-1.7-1.75-1.37-2.92.297-1.03 1.28-1.75 2.36-1.75zm15.4.00195c.265-.0107.531.0205.791.105.429.14.792.371 1.1.699.263.28.453.64.549 1.01.287 1.11-.252 2.31-1.3 2.81-.999.48-2.24.233-2.96-.617-.166-.197-.337-.435-.406-.686.311-.0867.632-.0295.951-.0156.141.006.313-.0281.447.0234.0927.0357.171.129.258.18.197.116.436.186.666.176.281-.0121.566-.12.773-.311.0978-.0898.217-.328.34-.365.223-.068.612-.0485.783-.219.112-.111.0781-.236.0469-.371-.0488-.21-.0947-.422-.141-.633-.0233-.107-.0363-.228-.121-.307-.227-.211-.642.0672-.908.0195-.123-.0221-.244-.148-.365-.193-.118-.0442-.242-.0721-.367-.084-.0549-.0053-.135.0147-.184-.0156-.0866-.054-.153-.201-.211-.283-.113-.162-.227-.324-.342-.484-.066-.092-.153-.188-.188-.297.256-.0826.52-.134.785-.145zm-1.51.576.387.553.211.322-1.02-.43c.0512-.151.268-.394.42-.445zm-.801 1.19.408.162v.0254c-.174.0722-.29.199-.49.203l.082-.391zm-13.2.0273c-.0868.2-.281.409-.285.633-.00681.317.366.541.639.352.206-.143.234-.427.393-.607.0667.142.0834.291.0488.443-.0268.119-.0865.234-.172.322-.074.0762-.169.131-.27.166-.0917.0322-.188.0419-.285.0352-.771-.0536-.844-1.23-.0684-1.34z" fill="#020202"/>
</svg>
