<?xml version="1.0" standalone="no"?>
<!DOCTYPE svg PUBLIC "-//W3C//DTD SVG 20010904//EN"
 "http://www.w3.org/TR/2001/REC-SVG-20010904/DTD/svg10.dtd">
<svg version="1.0" xmlns="http://www.w3.org/2000/svg"
 width="638.000000pt" height="111.000000pt" viewBox="0 0 638.000000 111.000000"
 preserveAspectRatio="xMidYMid meet">

<g transform="translate(0.000000,111.000000) scale(0.100000,-0.100000)"
fill="#000000" stroke="none">
<path d="M537 1023 c-21 -24 -22 -76 -2 -93 8 -7 15 -23 15 -35 0 -22 -4 -23
-98 -27 -84 -3 -104 -7 -143 -30 -62 -37 -107 -107 -125 -197 -4 -20 -21 -48
-41 -67 l-34 -32 3 -88 c3 -88 3 -89 35 -109 18 -11 35 -31 39 -45 22 -99 68
-166 135 -201 35 -17 60 -19 267 -19 l228 0 40 26 c49 32 99 105 116 169 7 26
20 51 30 56 40 22 48 39 48 110 0 74 -17 123 -51 147 -11 7 -19 23 -19 36 0
42 -31 113 -67 156 -51 59 -100 80 -195 80 -42 0 -83 3 -92 6 -20 8 -21 48 -1
64 18 15 19 59 1 82 -21 28 -68 33 -89 11z m203 -406 c57 -28 70 -60 70 -177
0 -172 -32 -199 -235 -200 -188 0 -225 31 -225 193 0 173 44 209 250 203 73
-2 116 -8 140 -19z"/>
<path d="M460 484 c-17 -20 -17 -68 0 -88 30 -37 90 -8 90 43 0 50 -61 81 -90
45z"/>
<path d="M677 482 c-23 -25 -22 -65 2 -86 26 -24 62 -17 81 17 13 24 13 30 0
55 -19 33 -59 41 -83 14z"/>
<path d="M1277 557 c-59 -150 -107 -277 -107 -281 0 -4 28 -6 61 -4 l61 3 23
60 22 60 105 3 106 3 25 -63 25 -63 61 -3 c45 -2 61 0 61 10 -1 7 -49 132
-108 278 l-107 265 -61 3 -61 3 -106 -274z m227 -44 c7 -22 5 -23 -58 -23 -50
0 -66 3 -66 14 0 8 14 51 32 97 l31 82 27 -74 c15 -41 30 -84 34 -96z"/>
<path d="M2978 824 c-5 -4 -8 -130 -8 -281 l0 -273 168 0 c154 0 171 2 212 22
54 28 80 62 87 115 8 58 -12 109 -53 137 -31 21 -33 25 -19 36 46 39 58 123
25 177 -34 57 -66 66 -245 71 -88 2 -163 1 -167 -4z m308 -118 c19 -27 18 -52
-6 -76 -17 -17 -33 -20 -105 -20 l-85 0 0 61 0 61 91 -4 c76 -2 93 -6 105 -22z
m15 -225 c27 -33 24 -66 -7 -90 -23 -18 -41 -21 -115 -21 l-89 0 0 71 0 71 96
-4 c86 -3 98 -5 115 -27z"/>
<path d="M3145 685 c25 -8 115 -11 115 -4 0 5 -28 9 -62 8 -35 0 -58 -2 -53
-4z"/>
<path d="M3141 466 c9 -8 138 -13 133 -5 -3 5 -35 9 -71 9 -37 0 -64 -2 -62
-4z"/>
<path d="M4477 824 c-4 -4 -7 -130 -7 -281 l0 -273 60 0 60 0 0 115 0 115 115
0 115 0 0 50 0 50 -115 0 -115 0 0 65 0 65 136 0 135 0 -3 48 -3 47 -186 3
c-102 1 -188 -1 -192 -4z"/>
<path d="M4947 823 c-4 -3 -7 -129 -7 -280 l0 -273 55 0 55 0 0 280 0 280 -48
0 c-27 0 -52 -3 -55 -7z"/>
<path d="M2293 782 c-37 -23 -42 -31 -45 -67 -2 -33 -7 -41 -26 -43 -20 -3
-23 -8 -20 -45 2 -35 7 -43 26 -45 22 -3 22 -6 22 -132 0 -122 1 -130 24 -157
22 -25 31 -28 85 -28 72 0 86 11 77 59 -6 30 -11 35 -39 38 l-32 3 -3 108 -3
107 36 0 c35 0 35 0 35 45 0 45 0 45 -35 45 l-35 0 0 70 c0 80 -3 82 -67 42z"/>
<path d="M4053 782 c-37 -23 -42 -31 -45 -67 -2 -33 -7 -41 -26 -43 -20 -3
-23 -8 -20 -45 2 -35 7 -43 26 -45 22 -3 22 -6 22 -132 0 -122 1 -130 24 -157
22 -25 31 -28 85 -28 72 0 86 11 77 59 -6 30 -11 35 -39 38 l-32 3 -3 108 -3
107 36 0 c35 0 35 0 35 45 0 45 0 45 -35 45 l-35 0 0 70 c0 80 -3 82 -67 42z"/>
<path d="M6063 782 c-37 -23 -42 -31 -45 -67 -2 -33 -7 -41 -26 -43 -20 -3
-23 -8 -20 -45 2 -35 7 -43 26 -45 22 -3 22 -6 22 -132 0 -122 1 -130 24 -157
22 -25 31 -28 85 -28 72 0 86 11 77 59 -6 30 -11 35 -39 38 l-32 3 -3 108 -3
107 36 0 c35 0 35 0 35 45 0 45 0 45 -35 45 l-35 0 0 70 c0 80 -3 82 -67 42z"/>
<path d="M4753 693 c-68 -2 -123 -7 -123 -11 0 -10 233 -2 245 9 5 5 7 8 5 7
-3 -1 -60 -4 -127 -5z"/>
<path d="M2598 667 c-102 -47 -148 -184 -99 -293 52 -114 223 -150 321 -67
102 85 95 270 -13 341 -33 22 -53 27 -111 29 -41 1 -82 -3 -98 -10z m137 -93
c70 -46 51 -194 -27 -215 -97 -26 -155 126 -77 203 31 32 68 36 104 12z"/>
<path d="M2673 549 c-30 -11 -29 -21 1 -13 13 3 34 0 46 -6 15 -8 20 -8 16 -1
-13 20 -41 29 -63 20z"/>
<path d="M3628 667 c-102 -47 -148 -184 -99 -293 52 -114 223 -150 321 -67
102 85 95 270 -13 341 -33 22 -53 27 -111 29 -41 1 -82 -3 -98 -10z m137 -93
c70 -46 51 -194 -27 -215 -97 -26 -155 126 -77 203 31 32 68 36 104 12z"/>
<path d="M3687 539 l-22 -20 23 11 c13 7 35 9 49 5 14 -3 22 -2 19 3 -12 20
-46 20 -69 1z"/>
<path d="M5220 661 c-67 -35 -106 -124 -97 -217 13 -131 98 -197 230 -179 43
6 59 15 95 50 56 57 55 71 -8 80 -47 6 -52 5 -71 -19 -28 -36 -80 -36 -108 0
-12 15 -21 35 -21 45 0 18 10 19 130 19 l130 0 0 33 c0 84 -47 168 -106 193
-48 20 -132 18 -174 -5z m143 -89 c8 -10 18 -27 21 -39 7 -22 6 -23 -68 -23
-66 0 -76 2 -76 18 1 24 22 50 51 60 29 11 53 5 72 -16z"/>
<path d="M5308 553 c7 -3 16 -2 19 1 4 3 -2 6 -13 5 -11 0 -14 -3 -6 -6z"/>
<path d="M5650 661 c-67 -35 -106 -124 -97 -217 13 -131 98 -197 230 -179 43
6 59 15 95 50 56 57 55 71 -8 80 -47 6 -52 5 -71 -19 -28 -36 -80 -36 -108 0
-12 15 -21 35 -21 45 0 18 10 19 130 19 l130 0 0 33 c0 84 -47 168 -106 193
-48 20 -132 18 -174 -5z m143 -89 c8 -10 18 -27 21 -39 7 -22 6 -23 -68 -23
-66 0 -76 2 -76 18 1 24 22 50 51 60 29 11 53 5 72 -16z"/>
<path d="M5738 553 c7 -3 16 -2 19 1 4 3 -2 6 -13 5 -11 0 -14 -3 -6 -6z"/>
<path d="M1770 518 c0 -175 10 -211 70 -240 47 -24 88 -22 143 5 43 22 46 23
50 5 4 -14 15 -18 56 -18 l51 0 0 200 0 200 -54 0 -54 0 -4 -134 c-3 -126 -5
-136 -27 -160 -27 -29 -67 -34 -97 -12 -17 13 -19 29 -22 160 l-3 146 -55 0
-54 0 0 -152z"/>
<path d="M4188 553 c-16 -2 -28 -9 -28 -14 0 -15 36 -10 50 6 7 8 11 14 9 14
-2 -1 -16 -4 -31 -6z"/>
<path d="M6198 553 c-16 -2 -28 -9 -28 -14 0 -15 36 -10 50 6 7 8 11 14 9 14
-2 -1 -16 -4 -31 -6z"/>
<path d="M2190 540 c0 -5 7 -10 15 -10 8 0 15 5 15 10 0 6 -7 10 -15 10 -8 0
-15 -4 -15 -10z"/>
<path d="M2410 540 c0 -5 9 -10 20 -10 11 0 20 5 20 10 0 6 -9 10 -20 10 -11
0 -20 -4 -20 -10z"/>
<path d="M5965 540 c3 -5 8 -10 11 -10 2 0 4 5 4 10 0 6 -5 10 -11 10 -5 0 -7
-4 -4 -10z"/>
<path d="M4738 473 c-137 -5 -144 -23 -9 -23 75 0 101 4 111 15 7 8 11 14 9
13 -2 -1 -52 -4 -111 -5z"/>
<path d="M5318 393 c7 -3 16 -2 19 1 4 3 -2 6 -13 5 -11 0 -14 -3 -6 -6z"/>
<path d="M5738 393 c6 -2 18 -2 25 0 6 3 1 5 -13 5 -14 0 -19 -2 -12 -5z"/>
<path d="M1365 350 c-4 -6 25 -10 79 -10 51 0 86 4 86 10 0 6 -33 10 -79 10
-44 0 -83 -4 -86 -10z"/>
<path d="M3889 294 c-37 -41 -96 -64 -165 -64 -74 0 -116 13 -169 52 l-40 29
42 -38 c92 -86 230 -85 322 3 25 24 43 44 40 44 -3 0 -16 -12 -30 -26z"/>
<path d="M2510 285 c38 -41 98 -67 167 -73 53 -4 70 -1 116 22 30 14 62 35 73
47 14 15 4 12 -34 -12 -40 -25 -68 -34 -112 -37 -83 -6 -121 3 -182 44 -47 31
-50 33 -28 9z"/>
<path d="M5155 281 c82 -92 247 -95 325 -5 l25 29 -25 -21 c-47 -40 -87 -54
-155 -54 -73 0 -125 18 -170 58 l-30 27 30 -34z"/>
<path d="M3420 286 c-6 -8 -32 -23 -57 -32 -38 -15 -80 -18 -225 -18 -98 -1
-178 -4 -178 -8 0 -5 82 -8 183 -8 155 0 188 3 222 19 34 16 88 61 73 61 -3 0
-11 -7 -18 -14z"/>
<path d="M5905 280 c-50 -56 -221 -69 -285 -21 -17 12 -34 21 -36 18 -3 -3 7
-14 23 -24 92 -64 233 -55 302 21 14 14 22 26 19 26 -3 0 -13 -9 -23 -20z"/>
<path d="M1794 262 c38 -41 85 -56 145 -47 25 4 85 6 132 5 48 -1 89 2 92 7 3
4 -25 9 -61 10 -37 0 -76 1 -87 2 -11 0 -46 -2 -78 -5 -72 -7 -96 -1 -139 33
l-33 27 29 -32z"/>
<path d="M4022 245 c21 -22 37 -29 80 -33 32 -2 66 1 86 9 32 13 29 14 -56 14
-75 0 -94 3 -113 20 -19 15 -18 13 3 -10z"/>
<path d="M2255 250 c12 -19 71 -40 113 -40 45 0 102 18 102 31 0 6 -8 5 -19
-1 -30 -16 -138 -12 -173 6 -18 9 -27 11 -23 4z"/>
<path d="M6020 250 c0 -15 69 -40 112 -40 23 1 57 7 73 14 27 12 23 12 -46 8
-57 -3 -85 0 -108 11 -17 9 -31 12 -31 7z"/>
<path d="M1157 228 c2 -5 37 -8 78 -8 41 0 76 3 78 8 3 4 -32 7 -78 7 -46 0
-81 -3 -78 -7z"/>
<path d="M1587 228 c2 -5 37 -8 78 -8 41 0 76 3 78 8 3 4 -32 7 -78 7 -46 0
-81 -3 -78 -7z"/>
<path d="M4457 228 c2 -5 38 -8 79 -8 41 0 74 3 74 8 0 4 -36 7 -79 7 -44 0
-77 -3 -74 -7z"/>
<path d="M4927 228 c2 -5 35 -8 73 -8 38 0 71 3 73 8 3 4 -30 7 -73 7 -43 0
-76 -3 -73 -7z"/>
</g>
</svg>
